<?xml version="1.0" encoding="UTF-8"?>
<svg id="Layer_45" data-name="Layer 45" xmlns="http://www.w3.org/2000/svg" viewBox="0 0 471 216">
  <defs>
    <style>
      .cls-1 {
        fill: #95a3e6;
      }

      .cls-1, .cls-2 {
        stroke-width: 0px;
      }

      .cls-2 {
        fill: #1c2552;
      }
    </style>
  </defs>
  <g id="Layer_46" data-name="Layer 46">
    <path class="cls-1" d="m9.13,111.2C6.19,80.06,3.26,48.91.32,17.77c15.52-1.44,31.05-2.88,46.57-4.32,2.19,5.64,4.39,11.27,6.58,16.91.87-6.88,1.73-13.75,2.6-20.63,13.17.42,26.35.83,39.52,1.25,1.33,4.63,2.67,9.26,4,13.89,2.17-5.43,4.35-10.86,6.52-16.29,15.2.26,30.41.51,45.61.77,3.67,8.01,7.34,16.03,11.01,24.04l4.04-15.35c12.61-2.57,25.54-5.62,38.69-9.45,1.75-.51,3.5-1.02,5.25-1.53.66,5.36,1.31,10.72,1.97,16.07,4.6-7.66,9.19-15.31,13.79-22.97,10.19,3.32,20.38,6.64,30.57,9.96,20.74-.39,41.48-.78,62.22-1.16,22.97-1.79,45.93-3.58,68.9-5.38-.12,4.82-.24,9.65-.35,14.47,5.62-3.45,20.42-11.49,40.7-10.74,17.54.65,30.24,7.55,35.88,11.09-2.82,10-5.65,20-8.47,30,2.59,2.19,10.41,9.36,12.35,21.17,2.68,16.32-8.05,28.27-10.23,30.7-8.59,9.56-19.26,12.08-27.88,14.12-13.77,3.25-25.51,1.76-32.42.31-.4,10.88-.81,21.76-1.21,32.64l.06,47.1c-25.87,2.61-51.73,5.21-77.6,7.82-12.61.24-25.22.48-37.83.72-19.1,1.45-38.21,2.9-57.31,4.34-.32-3.24-.64-6.47-.96-9.71-19.9,2.55-39.8,5.11-59.7,7.66-1.35-.51-2.71-1.02-4.06-1.53-12.34-.76-25.16-1.29-38.45-1.53-12.29-.23-24.19-.2-35.67.05-3.76-28.63-7.51-57.26-11.27-85.89-21.54-1.72-43.07-3.44-64.61-5.17Z"/>
  </g>
  <g>
    <g>
      <path class="cls-2" d="m59.6,97.12l1.65-27.83-16.51,3.12.77,26.13-20.8-.76-5.94-67.88,24.66-2.65.77,26.88,17.94-.47,1.65-27.83,23.01,1.23-2.31,71-24.88-.95Z"/>
      <path class="cls-2" d="m149.09,100.24l-5.06-14.48-21.79,1.33-3.63,14.29-24.88-4.07,26.31-72.51,23.45.66,29.72,68.82-24.11,5.96Zm-17.5-50.08l-6.27,23,14.09-.76-7.82-22.25Z"/>
      <path class="cls-2" d="m198.84,98.63l-22.79-67.02,26.09-6.44,8.7,49.04,14.2-49.7,23.56,5.49-28.62,68.25-21.13.38Z"/>
      <path class="cls-2" d="m256.41,101l-4.29-71.76,53.17-4.45.44,22.91-33.24,2.18.44,8.43,27.19-2.08.99,13.25-27.08,2.46.44,9.47,31.37-3.31,1.54,16-50.97,6.91Z"/>
      <path class="cls-2" d="m331.48,98.53l.55-51.88-17.94.38-2.2-17.51,63.73-3.41.11,18.93-17.5.66-3.63,54.81-23.12-1.99Z"/>
      <path class="cls-2" d="m391.36,77.33c5.83,4.35,12.11,6.15,17.5,6.15,8.37,0,14.97-3.41,14.97-8.61,0-9.09-41.83-1.04-41.83-26.03,0-17.23,24.44-23.95,41.61-23.95,7.04,0,14.42,1.04,21.46,3.5l-7.6,16.75c-5.06-2.56-10.68-3.6-15.63-3.6-8.37,0-15.19,3.03-15.19,7.48,0,9.56,43.81-.38,43.81,27.93,0,13.73-18.27,23.19-37.76,23.19-11.67,0-23.78-3.41-32.58-11.36l11.23-11.46Z"/>
    </g>
    <g>
      <path class="cls-2" d="m131.1,183.35l1.52-26.97-15.17,3.03.71,25.31-19.12-.73-5.46-65.76,22.66-2.57.71,26.05,16.49-.46,1.52-26.97,21.14,1.19-2.12,68.79-22.86-.92Z"/>
      <path class="cls-2" d="m168.84,187.11l-3.95-69.52,48.86-4.31.4,22.2-30.55,2.11.4,8.16,24.99-2.02.91,12.84-24.89,2.38.4,9.17,28.83-3.21,1.42,15.5-46.84,6.7Z"/>
      <path class="cls-2" d="m227.41,186.28l-3.74-71.45,23.07-.73-.61,50.17,27.92-3.21.61,22.2-47.24,3.03Z"/>
      <path class="cls-2" d="m282.45,184.72l.51-50.26-16.49.37-2.02-16.97,58.58-3.3.1,18.34-16.09.64-3.34,53.11-21.24-1.93Z"/>
      <path class="cls-2" d="m331.51,187.11l-3.95-69.52,48.86-4.31.4,22.2-30.55,2.11.4,8.16,24.99-2.02.91,12.84-24.89,2.38.4,9.17,28.83-3.21,1.42,15.5-46.84,6.7Z"/>
    </g>
  </g>
</svg>