<?xml version="1.0" encoding="UTF-8"?>
<svg id="Layer_47" data-name="Layer 47" xmlns="http://www.w3.org/2000/svg" xmlns:xlink="http://www.w3.org/1999/xlink" viewBox="0 0 1000 1000">
  <defs>
    <style>
      .cls-1 {
        fill: #fcfcfc;
        filter: url(#drop-shadow-15);
      }

      .cls-1, .cls-2, .cls-3, .cls-4, .cls-5, .cls-6, .cls-7, .cls-8, .cls-9 {
        stroke-width: 0px;
      }

      .cls-2 {
        fill: #264583;
      }

      .cls-3 {
        fill: #c84757;
      }

      .cls-4 {
        fill: #abdd80;
      }

      .cls-5 {
        fill: #c0e3f7;
      }

      .cls-6 {
        fill: #a74aa0;
      }

      .cls-7 {
        fill: #e7b25f;
      }

      .cls-8 {
        fill: #e78d8d;
      }

      .cls-9 {
        fill: #e7d6bb;
      }
    </style>
    <filter id="drop-shadow-15" filterUnits="userSpaceOnUse">
      <feOffset dx="7" dy="7"/>
      <feGaussianBlur result="blur" stdDeviation="18"/>
      <feFlood flood-color="#4f4f4f" flood-opacity=".56"/>
      <feComposite in2="blur" operator="in"/>
      <feComposite in="SourceGraphic"/>
    </filter>
  </defs>
  <rect class="cls-7" x="-42.51" y="-32.97" width="1075.48" height="1075.48"/>
  <circle class="cls-9" cx="503.4" cy="494.16" r="425"/>
  <path class="cls-1" d="m754.12,296.85c-61.57-74.09-144.82-81.4-196.27-86.46-24.89-2.45-136.89-10.67-243.65,69.52-34.03,25.56-82.21,61.75-109.62,133.37-30.75,80.36-22.82,172.55,12.02,242.55,29.55,59.38,73.42,89.56,89,100.26,33.83,23.23,58.17,27.76,64.57,28.82,18.28,3.04,50.26,8.35,78.06-13.56,2.45-1.93,32.19-25.99,35.44-65.51,3.48-42.28-25.36-67.08-12.1-91.24,6.89-12.55,20.19-15.93,21.28-16.19,13.26-3.15,24.67,4.62,36.48,12.33,18.34,11.97,37.7,21.94,55.86,34.27,44.35,30.1,130.91,4.27,181.22-55.16,37.98-44.87,45.25-97.06,46.88-111.91,10.63-97.12-48.05-167.73-59.16-181.1Zm-339.97,461.37c-24.28,10.23-49.19,3.37-55.63-15.33-6.44-18.7,8.02-42.15,32.3-52.38,24.28-10.23,49.19-3.37,55.63,15.33,6.44,18.7-8.02,42.15-32.3,52.38Z"/>
  <path class="cls-8" d="m231.41,595.05c1.54,19.22,2.43,28.93,8.52,34.35,11.09,9.87,30.12-.43,31.35-1.11,5.65-3.15,5.28-4.98,14.08-10.54,11.06-6.99,13.6-5.34,18.32-10.04,7.29-7.26,12.43-22.37,8.14-30.59-5.61-10.74-23.97-3.34-28.75-14.62-2.22-5.24.96-8.67-1.71-19.55-.92-3.75-2.45-9.97-5.81-13.42-8.56-8.78-31.23-1.75-41.12,15.47-6.17,10.74-5.12,23.84-3.02,50.03Z"/>
  <path class="cls-4" d="m433.5,419c-.82-2.88-4.3-15.9-.32-29.4,1.09-3.7,3.62-12.27,9.93-15.51,2.98-1.53,3.91-.39,9.76-.72,5.99-.34,17.17-.97,23.17-10.3,2.91-4.53,1.41-6.15,4.11-9.98,5.19-7.37,16.16-9.05,24.86-2.9,12.2,8.61,16.83,30.4,13.24,42.56-1.87,6.33-7.17,14.14-13.51,18.46-2.76,1.88-4.81,2.47-6.49,5.72-2.42,4.66-1.06,8.95-1.75,17.19-.55,6.49-1.22,14.48-5.09,18.11-5.5,5.16-16.49.57-22.96-7.45-5.4-6.69-4.71-12.1-8.92-14.26-6.43-3.3-10.83,7.92-17.34,4.77-4.65-2.25-6.91-10.13-8.67-16.29Z"/>
  <path class="cls-3" d="m577.02,248.73c-2.82,2.05-11.22,8.17-15.07,20.52-5.21,16.69.12,37.69,10.54,46.23,4.37,3.58,5.9,1.92,9.89,5.86,9.29,9.17,4.76,21.91,11.19,28.9,7.87,8.55,29.07,5.15,39.03-10.73,7.27-11.59,8.33-29.47,2.17-39.59-2.43-4-5.14-5.39-5.44-9.42-.55-7.33,7.94-9.15,10.91-18.59,3.11-9.9-1.15-24.04-8.72-29.58-2.85-2.09-5.51-2.46-18.69-1.1-19.81,2.04-29.83,3.15-35.82,7.51Z"/>
  <path class="cls-5" d="m378.45,560.27c1.28-10.76,2-16.25,5.67-21.63,4.31-6.31,10.8-9.61,23.8-16.21,6.05-3.07,9.08-4.61,12.53-5.5,7.73-2.01,19.85-5.39,28.31,2.51,7.43,6.94,9.99,20.65,5.57,27.21-3.55,5.26-9.21,2.38-16.17,8.87-1.56,1.46-7.71,7.2-7.77,14.96-.11,13.09,17.51,18.91,17.25,30.53-.24,10.86-14.3,16.79-16.06,17.53-16.97,7.15-42.03-.97-51.44-18.43-5.27-9.78-4.07-19.8-1.68-39.84Z"/>
  <path class="cls-2" d="m587.22,553.94c-7.08-14.12-5.79-28.89-5.12-36.53.7-7.95,2.64-29.99,14-35.74,8.91-4.52,14.62,5.54,33.66,3.51,7.51-.8,8.15-2.53,13.83-1.98,1.93.19,18.96,2.11,25.05,15.9,6.39,14.49-1.95,36.03-11.65,46.04-4.71,4.86-8.71,5.93-13.98,13.87-5.86,8.82-4.64,13.1-8.3,16.86-9.41,9.67-36.17.65-47.49-21.92Z"/>
  <path class="cls-7" d="m721.27,444.78c-9.43-7.93-6.93-17.35-16.96-22.98-6.7-3.76-10.26-.93-14.33-5-7.3-7.32-3.47-24.13-2.65-27.72.66-2.89,8.31-34.35,32.84-39.1,16.84-3.26,36.09,7.13,37.81,18.06.78,4.98-2.23,9.1.38,14.53,2.33,4.86,6.04,4.28,9.33,8.81,3.82,5.26,3.21,12.07,2.46,20.46-1.16,12.98-6.2,22.26-9.25,26.93-2.7,4.14-4.14,6.35-6.88,8.39-9.04,6.75-23.62,5.33-32.77-2.37Z"/>
  <path class="cls-6" d="m314.46,344.14c-9.29,7.29-13.68,8.39-16.08,14.62-3.86,10.02,1.84,21.81,3.18,24.58,4.17,8.63,7.72,8.48,8.28,13.96.91,8.88-8.13,12.02-9.15,21.9-.82,7.83,3.67,17.4,10.51,20.46,15.11,6.77,47.21-15.76,50.99-39.2,1.19-7.4-1.34-9.28.28-20.94,2.32-16.74,8.49-19.67,8.5-29.59.02-16.06-16.12-33.67-28.36-32.45-8.94.89-8.21,11.04-28.14,26.67Z"/>
</svg>