<?xml version="1.0" encoding="UTF-8"?>
<svg xmlns="http://www.w3.org/2000/svg" viewBox="0 0 1600 900">
  <defs>
    <style>
      .cls-1 {
        opacity: .64;
      }

      .cls-1, .cls-2, .cls-3, .cls-4, .cls-5, .cls-6, .cls-7, .cls-8, .cls-9, .cls-10, .cls-11, .cls-12, .cls-13, .cls-14, .cls-15, .cls-16, .cls-17, .cls-18, .cls-19, .cls-20, .cls-21, .cls-22, .cls-23, .cls-24, .cls-25, .cls-26, .cls-27, .cls-28, .cls-29, .cls-30, .cls-31, .cls-32, .cls-33, .cls-34, .cls-35, .cls-36, .cls-37, .cls-38, .cls-39, .cls-40, .cls-41, .cls-42 {
        stroke-width: 0px;
      }

      .cls-1, .cls-6 {
        fill: #4f5daa;
      }

      .cls-2 {
        fill: none;
      }

      .cls-3 {
        fill: #5fcaff;
        opacity: .76;
      }

      .cls-4 {
        fill: #497065;
      }

      .cls-5 {
        fill: #5d7d74;
      }

      .cls-7 {
        fill: #5b5b5b;
      }

      .cls-8 {
        fill: #5c369e;
      }

      .cls-9 {
        fill: #262626;
      }

      .cls-10 {
        fill: #264583;
      }

      .cls-11 {
        fill: #3d524c;
      }

      .cls-12 {
        fill: #091434;
      }

      .cls-13 {
        fill: #446e6a;
      }

      .cls-14 {
        fill: #150055;
      }

      .cls-15 {
        fill: #070035;
      }

      .cls-16 {
        fill: #0b0035;
      }

      .cls-17 {
        fill: #162048;
      }

      .cls-18 {
        fill: #cbcbcb;
      }

      .cls-19 {
        fill: #c8b991;
      }

      .cls-20 {
        fill: #d5b3b3;
      }

      .cls-21 {
        fill: #da6565;
      }

      .cls-22 {
        fill: #daacac;
      }

      .cls-23 {
        fill: #c0e3f7;
      }

      .cls-24 {
        fill: #64a08f;
      }

      .cls-25 {
        fill: #98c3da;
      }

      .cls-26 {
        fill: #7d63c8;
      }

      .cls-27 {
        fill: #9c9c9c;
      }

      .cls-28 {
        fill: #6aa292;
      }

      .cls-29 {
        fill: #80aec6;
      }

      .cls-30 {
        fill: #fff;
      }

      .cls-31 {
        fill: #ffd974;
      }

      .cls-32 {
        fill: #e4a542;
      }

      .cls-33 {
        fill: #ffd174;
      }

      .cls-34 {
        fill: #e78d8d;
      }

      .cls-35 {
        fill: #f1be9b;
      }

      .cls-36 {
        fill: #f3c263;
      }

      .cls-37 {
        fill: #f5f5f5;
      }

      .cls-38 {
        fill: #000255;
      }

      .cls-39 {
        fill: #000735;
      }

      .cls-40 {
        fill: #008ff3;
      }

      .cls-41 {
        fill: #0089e8;
      }

      .cls-42 {
        fill: #679d8e;
      }
    </style>
  </defs>
  <g id="baggrund">
    <path class="cls-23" d="m0,.18v899.46h1600V.18H0Z"/>
    <path class="cls-25" d="m271.71-2.61c4.29,9.17,10.14,23.87,12.95,42.58,16.78,111.58-88.38,183.68-79.42,227.78,8.58,42.24,115.87,27.12,188.97-.48,24.7-9.33,53.54-23.12,87.95,9.23,26.73,25.12,54.43,75.84,60.45,86.86,27.34,50.06,28.39,68.52,45.92,88.38,24.89,28.2,37.85,8.06,67.48,15.1,47.62,11.32,48.83,71.6,96.48,95.6,61.29,30.86,82.23-57.32,130.09-18.66,6.48,5.23,25.81,22.78,40.87,4.38,6.7-8.19,9.97-20.33,12.23-28.38,0,0,11.96-42.63,37.18-104.22,24.7-60.32,54.91,8.87,102.14-37.45,39.75-38.98,37.88-107.16,76.98-116.35,20.25-4.76,37.56,9.57,48.44,18.58,47.78,39.55,57.21,110.15,89.36,147.98,7.63,8.98,14.84,13.66,21.82,15.19,52.62,11.54,85.04-54.61,130.16-66.95,30.93-8.45,80.68,9.53,160.55,139.05-.77,127.95-1.55,255.9-2.32,383.86-131.46-26.93-263.16-52.58-395.1-76.93C805.34,748.79,403.6,686.89-.33,636.84-.67,423.26-1.01,209.68-1.35-3.89l273.06,1.28Z"/>
    <path class="cls-29" d="m393,558.22c-7.81-7.95-34.56-33.13-72.12-30.78-10.26.64-34.56,2.17-54.08,24.37-21.98,25-28.4,65.42-33.01,94.45-.31,1.93-.48,2.9-.49,3.56-.87,42.68,108.01,84.14,187.94,100.12,98.14,19.63,151.56.65,245.64-8.7,220.71-21.93,313.83,44.05,407.34,17.77,31.97-8.98,34.51-18.9,66.21-35.01,87.63-44.54,228.55-77.15,459.57-16.87v-105.99c-61.12-47.32-106.99-52.97-138-48.96-59.4,7.67-80.61,52.88-135.77,44.64-36.33-5.43-65.84-30.83-85.4-47.66-32.38-27.86-31.91-42.09-58.68-60.7-4.78-3.32-49.19-33.37-96.27-26.59-69.71,10.05-67.58,87.6-160.56,129.15-63.74,28.49-99.34,13.09-110.18,7.62-26.41-13.32-24.89-27.78-47.89-38.81-51.68-24.78-78.36,39.1-147.14,37.22-54.81-1.49-62.77-42.73-131.97-51.37-39.34-4.91-72.64,3.94-95.14,12.54Z"/>
    <path class="cls-19" d="m0,532.5c13.87,4.66,34.44,13.15,55.67,29.04,28.56,21.38,29.02,34.22,52.83,45.86,25.73,12.58,33.11,1.44,69.42,14.24,28.8,10.15,25.71,17.69,52.7,26.95,34.42,11.81,42.65.64,77.81,12.08,22.71,7.39,24.75,14.43,54.82,29.04,26.99,13.12,50.78,20.05,66.76,23.87,15.9-3.09,40.37-8.27,69.84-16.38,70.46-19.39,82.52-32.65,119.5-36.51,28.73-3,22.85,3.24,124.07,18.07,76.58,11.22,115.52,16.73,147.14,11.62,27.53-4.45,40.11-10.88,65.08-6.74,35.53,5.9,46,24.88,73.68,22.61,26.19-2.15,27.3-21.1,54.42-29.77,41.03-13.12,60.79,21.97,109.4,22.81,46.62.8,43.77-31.2,121.55-58.45,66.16-23.17,85.53-6.08,135-36.37,26.18-16.03,32.43-27.97,59.61-38.08,34.18-12.73,67.2-9.82,90.48-5.03.07,112.7.13,225.4.2,338.11H0v-366.96Z"/>
    <g>
      <path class="cls-13" d="m83.04,767.39s-13.35,3.1-67.64-32.88h0c-8.07-45.83,1.53-66.42,11.9-76.74,9.38-9.34,18.35-10.31,23.15-21.42,6.14-14.23-7.72-22.83-5.41-48.98.18-2.05,2.22-9.29,6.27-23.67,7.15-25.42,10.78-38.25,13.82-44.09,3.22-6.2,11.09-19.74,25.94-31.36,10.4-8.14,18.58-14.54,28.23-12.81,13.18,2.36,23.37,18.84,22.82,32.94-.42,10.89-6.97,13.34-22.07,35.9-12.81,19.15-20.12,30.33-21.82,45.83-.99,9.01.75,7.47,2.96,32.05,1.96,21.8,2.94,32.7-1.67,41.51-6.85,13.08-17.41,11.75-24.46,25.54-5.05,9.88-4.6,20.27-3.45,27.46,37.22-5.15,52.07-18.11,58.51-29.73,6.39-11.53,3.23-19.43,12.98-36.34,6.95-12.06,10.44-11.31,27.55-31.04,20.07-23.16,19.24-28.77,30.27-34.55,15.82-8.28,38.68-7.79,43.66,1.31,4.45,8.13-6.73,22.6-29.08,51.56-19.34,25.05-22.25,24.38-28.19,36.39-13.11,26.5-1.38,39.83-13.66,52.16-13.47,13.53-30.33.24-58.33,14.23-20.7,10.35-17.3,23.25-32.27,26.72Z"/>
      <path class="cls-42" d="m69.88,635.46c-1.81.27-4.35-4.59-5.29-8.86-.86-3.92-.27-6.89.1-9.45,1.26-8.77-.46-10.2-.04-19.79,0,0,.44-10.11,3.46-20.16,6.3-20.95,17.68-19.28,23.11-38.62,2.36-8.41,1.83-14.48,7-22.23,2.64-3.94,4.04-4.26,8.6-10.95,2.67-3.92,3.84-6.24,6.12-6.45,2.56-.23,5.66,2.27,6.05,4.95.59,4.05-5.33,6.72-10.36,11.5-10.01,9.52-4,17.53-15.17,35.05-8.71,13.66-10.78,12.94-15.26,22.42-3.7,7.83-7.62,16.07-7.3,26.88.23,7.83,2.5,10.99,2.07,21.95-.11,2.87-.53,13.38-3.1,13.76Z"/>
      <path class="cls-28" d="m132.98,705.84c-1.29-2.41,8.53-6.95,15.29-17.13,7.72-11.62,2.65-17.18,9.7-32.46,5.01-10.86,12.33-17.9,16.3-21.72,9.33-8.98,16.31-11.44,25.06-22.67,3.08-3.95,5.2-7.48,6.5-9.8,2.13.41,4.66,1.29,5.55,3.29,1.53,3.43-2.53,8.33-7.28,13.42-12.39,13.28-19.11,16.59-29.36,27.63-5.35,5.76-8.02,8.64-10.78,13.57-5.88,10.5-3.85,15.35-10.58,30.27-4.39,9.74-8.03,13.83-12.84,15.55-2.8,1-6.79,1.47-7.55.05Z"/>
      <path class="cls-24" d="m50.96,777.51c-21.41,2.48-39.27,2.01-51.25,1.18v-88.26c14.04-22.64,14.43-38.36,11.72-48.86-2.75-10.66-12.56-32.23-9.85-45.2,2.91-13.9,10.79-13.46,14.8-30.1,4.36-18.08-3.04-26.52,3.85-34.52,6.3-7.33,20.15-9.17,27.54-3.59,6.92,5.23,6.41,15.65,5.74,29.5-.18,3.64-.87,13.39-5.05,26.16-5.77,17.63-10.09,16.3-10.67,25.84-.46,7.57,2.24,8.63,7.3,32.72,1.4,6.67,2.1,10,2.1,11.13.02,14.83-11.06,24.24-9.6,36.21.18,1.44.62,5.1,2.58,5.66,1.47.42,3.13-1.1,3.81-1.78,2.73-9.2,8.05-21.56,19.38-30.74,12.69-10.27,20.66-6.62,27.33-15.75,9.14-12.51-2.46-23.98,5.6-48.96,3.89-12.05,10.01-19.97,11.37-21.69,13.59-17.18,24.47-12.47,36.5-26.81,12.92-15.4,5.59-27.04,19.02-37.93,7.5-6.08,20.16-10.86,30.37-6.22,12.91,5.86,16.74,24.4,14.94,37.19-2.49,17.66-16.53,29.96-31.47,43.06-16.58,14.54-23.94,15.01-29.48,26.88-3.87,8.31-1.32,10.32-4.23,31.9-2.93,21.69-4.4,32.53-10.85,40.1-9.58,11.24-19.59,7.59-29.53,19.47-7.12,8.51-8.99,18.74-9.46,26.01,39.34,3.38,55.84-6.48,63.65-15.99,11.3-13.76,6.67-29.5,22.61-42.33,12.18-9.8,18.7-3.69,31.87-14.37,15.16-12.29,11.8-24.65,25.69-32.1,9.66-5.18,24.51-6.29,31,.58,10.2,10.81-.99,40.59-17.03,59.34-14.25,16.67-22.05,12.63-35.57,29.23-19.11,23.48-10.3,35.48-24.9,47.83-19.42,16.41-38.92-3.5-96.33,6.71-17.11,3.04-22.58,6.09-43.48,8.51Z"/>
      <path class="cls-4" d="m11.27,697.52c.85-15.92,4.62-27.72,7.96-35.61,4.47-10.56,7.55-12.67,8.07-20.29.84-12.32-6.62-15.24-8.44-30.58-1.31-11.08,1.32-20.22,2.75-25.18,3.36-11.65,8.06-16.97,9.76-30.15.6-4.63.6-8.47.51-10.94,2.04-.7,4.66-1.21,6.46-.04,3.08,2,2.13,7.87.69,14.22-4.54,19.99-9.2,23.5-10.89,36.17-1.36,10.14.19,18.62.74,21.33,2.34,11.49,6.03,13.13,6.61,21.29.63,8.91-3.67,8.27-8.62,25.76-3.52,12.44-2.75,17.74-7.98,32.87-1.12,3.25-2.16,5.9-2.88,7.68-1.47,1.98-2.61,2.86-3.42,2.65-1.27-.34-1.71-3.4-1.33-9.18Z"/>
      <path class="cls-4" d="m60.7,715.64c-1.03-.97,5.93-10.34,11.28-16.5,4.48-5.15,9.35-9.79,19.08-19.07,4.11-3.92,3.7-3.43,4.21-3.99,7.94-8.82,10.52-18.93,13.11-29.55,3.48-14.28,1.02-15.65,4.68-27.86,2.02-6.74,4.77-15.94,11.93-24.55,9.22-11.09,13.59-6.57,26.15-19.28,7.62-7.71,13.32-16.76,18.94-25.68,2.44-3.87,3.66-5.81,4.49-7.91,1.89-4.8,1.69-7.76,3.76-8.62,1.78-.74,4.46.37,5.75,2.11,1.56,2.1,1.81,6.05-3.71,16.26-7.94,14.69-18.27,24.67-23.93,29.77-12.02,10.86-13.82,9.62-20.66,17.57-8.22,9.56-12.39,19.23-14.17,23.98-6.01,15.99-2.26,21.82-9.3,38.51-3,7.1-6.28,12.21-7.86,14.56-3.12,4.64-7.19,9.71-23.58,24.18-11.89,10.5-19.2,16.95-20.15,16.06Z"/>
      <path class="cls-4" d="m117.86,745.52c40.32-2.84,48.45-6.52,52.51-12.82,1.59-2.47.27-1.99,2.99-11.16,1.76-5.94,6.18-18.36,14.2-30.76,6.5-10.04,14.74-15.98,19.22-19.2,10.5-7.56,17.76-9.02,28.02-18.9,3.6-3.47,6.21-6.67,7.82-8.78,2.05.71,4.43,1.94,5.03,4.05,1.03,3.61-3.69,7.89-9.11,12.26-17.08,13.75-23.07,13.73-32.98,23.19-7.93,7.57-12.48,15.6-13.9,18.2-3.86,7.13-6.29,13.4-9.32,21.88-5.28,14.78-3.64,15.6-6.51,18.95-3.48,4.05-7.34,4.77-33.56,8.44-19.51,2.73-23.48,3.18-30.03,2.66-10.33-.81-21.35-3.58-21.22-5.28.12-1.47,8.63-1.46,26.83-2.74Z"/>
    </g>
    <path class="cls-26" d="m1464.41,752.62c14.18-45,5.59-69.6-2.29-82.49-7.13-11.65-20.56-20.77-47.43-39.02-40.06-27.2-54.35-29.97-62.11-48.24-7.74-18.22-4.6-41.55,3.97-44.82,6.77-2.58,16.24,7.59,31.66,24.76,16.19,18.03,38.01,42.77,63.79,73.27,1.17-46.76-12.29-73.64-24.54-89.46-21.22-27.4-40.34-23.56-69.27-58.46-5.16-6.22-43.15-52.06-28.57-80.85,4.03-7.96,12.71-15.87,19.21-14.35,7.57,1.76,7.8,15.29,13.95,31.68,7.97,21.24,20.92,34.04,38.29,51.2,25.18,24.89,36.2,23.38,48.55,42.8,10.07,15.81,12.52,32.18,13.15,42.79.07.85.53,5.24,3.91,7.28,2.15,1.3,4.99,1.41,6.25.65,5.4-3.25-.17-20.79-4.93-40.12,0,0-3.33-13.5-11.6-65.31-6.38-39.94-14.79-92.66,7.22-105.9,10.16-6.11,26.29-3.52,34.81,4.89,13.68,13.5-.26,34.11-1.45,82.37-.15,6.26.83,13.05,1.51,29.84.66,16.34.58,20.96,1.42,30.31,1.56,17.43,3.32,17.65,4.15,28.74,2.26,30.29-9.89,46.54-1.72,52.39,4.45,3.18,11.6,2.25,16.26-.72,10.6-6.75,9.27-24.61,8.96-44.66-.78-50.01-1.17-75.02,11.76-92.02,15.6-20.5,46.85-26.18,51.85-19.53,4.04,5.38-11.16,16.02-21.39,43-11.06,29.16.17,33.96-9.74,68.36-9.36,32.53-28.25,61.51-28.25,61.51-9.23,14.17-17.04,22.64-14.58,25.74,2.97,3.74,20.43-.92,31.64-12.7,14.57-15.32,7.84-31.44,19.27-54.31,4.61-9.23,13.37-21.94,31.66-33.8,0,19.96,0,39.92.01,59.88-8.09,6.4-19.36,15.69-32.18,27.59-29,26.93-43.27,40.5-51.91,59.48-6.81,14.97-12.35,39.27-1.29,77.38-16.66.29-33.32.57-49.99.86Z"/>
    <path class="cls-11" d="m1293.1,807.93c10.2-3.62,20.41-7.24,30.61-10.87,2.35-2.49,10.1-11.32,10-24.32-.11-13.8-8.98-23.1-11.44-25.61-1.44-1.46-2.54-2.28-6.43-5.14-23.75-17.43-23.8-15.93-26.27-18.81-10.51-12.23,3.9-23.42-6.14-43.19-6.1-12.02-17.33-19.52-19.97-21.21-11.85-7.6-17.22-4.94-23.6-11.71-8.45-8.97-2.22-17.01-9.31-29.89-6.52-11.85-21.72-23.07-32.08-20-11.24,3.33-15.84,23.2-13.01,37.69,2.56,13.1,10.05,15.97,10.71,29.73.46,9.63-3.1,10.28-4.99,23.15-1.12,7.66-3.94,26.91,6.41,41.69,1.7,2.43,3.38,4.2,5.06,5.59,9.1,7.53,15.34,11.25,20.12,14.56,10.06,6.97,11.94,16.77,16.11,24.72,5.93,11.3,19.62,24.85,54.23,33.62Z"/>
    <path class="cls-11" d="m1363.54,775c12.41-.41,24.83-.82,37.24-1.23,3.41-1.81,14.84-8.44,19.01-21.97,4.43-14.36-2.25-26.94-4.14-30.36-1.75-3.16-2.33-2.77-5.38-7.45,0,0-6.53-10-9.97-21.36-1.08-3.56-1.56-6.44-1.69-9.01-.63-11.81.25-19.93.83-25.4.58-5.48,3.04-28.55-11-42.31-5.21-5.11-9.27-5.57-23.03-17.37-5.99-5.14-8.15-7.56-9.14-10.99-1.61-5.56,1.4-8.44,2.18-17.63.3-3.48,1.02-8.79-.8-13.59-3.67-9.68-15.36-20.37-28.18-20.51-16.46-.18-24.91,16.27-27.23,24.07-1.02,3.44-2.99,10.05-.39,17.59,2.39,6.92,7.24,10.59,6.92,17.98-.12,2.73-.89,4.57-1.97,7.22,0,0-5.25,12.76-10.03,24.97-4.16,10.6-4.46,20.85-3.94,26.54,1.81,19.75,17.06,22.01,24.95,42.26,9.63,24.72-6.6,35.71,3.02,53.98,4.16,7.9,14.35,18.14,42.75,24.58Z"/>
    <path class="cls-5" d="m1374.15,773.5c-2.15-9.76-4.3-19.51-6.46-29.27-3.62.14-8.08-.04-13.06-1.05-11.61-2.36-19.75-7.96-24.02-11.43,12.12,2.93,24.25,5.86,36.37,8.79-6.93-22.36-13.85-44.73-20.78-67.09-6.04-1.1-14.03-3.13-22.82-7.08-8.66-3.89-15.32-8.41-20.03-12.11,13.97,5.08,27.95,10.15,41.92,15.23-6.28-27.82-12.57-55.63-18.85-83.45-3.25-1.79-8.09-4.99-12.35-10.28-2.46-3.05-4.08-6-5.16-8.41,5.73,4.85,11.46,9.7,17.19,14.54-.53-10.07-1.06-20.15-1.59-30.22,2.52,9.82,5.03,19.64,7.55,29.46,4.91-5.53,9.82-11.05,14.73-16.58-.11,2.23-.66,7.18-4.16,12.24-3.6,5.21-8.34,7.69-10.47,8.65,6.17,27.77,12.34,55.53,18.51,83.3,8.28-12.15,16.55-24.3,24.83-36.46-.78,5.5-2.78,14.38-8.61,23.82-4.96,8.03-10.82,13.46-15.02,16.77,7.26,22.97,14.51,45.94,21.77,68.91,8.12-7.48,16.23-14.95,24.35-22.43-.73,3.14-2.48,8.66-7.06,14.11-5.89,7.01-13.13,9.95-16.43,11.07,2.06,9.76,4.11,19.51,6.17,29.27-2.18-.11-4.35-.22-6.53-.33Z"/>
    <path class="cls-5" d="m1286.94,787.98c-1.19-1.65-2.37-3.3-3.56-4.95-3.03.93-6.84,1.76-11.28,1.95-10.33.45-18.44-2.8-22.81-4.98,10.89-.05,21.79-.09,32.68-.14-10.74-18.66-21.48-37.33-32.22-55.99-5.35.35-12.55.29-20.84-1.32-8.18-1.59-14.79-4.19-19.58-6.49,12.93,1.48,25.86,2.96,38.78,4.44-11.39-23.73-22.78-47.46-34.16-71.2-3.14-.9-7.93-2.71-12.69-6.54-2.74-2.21-4.76-4.51-6.2-6.45,5.91,3.11,11.81,6.21,17.72,9.32-2.65-8.98-5.29-17.96-7.94-26.95,4.27,8.31,8.55,16.63,12.82,24.94,2.95-6.08,5.89-12.17,8.84-18.25.4,2.04,1.01,6.64-.84,11.98-1.91,5.51-5.38,8.8-6.97,10.14,11.28,23.71,22.56,47.42,33.84,71.14,4.35-12.82,8.69-25.64,13.04-38.45.55,5.14.79,13.61-2.08,23.44-2.44,8.36-6.21,14.57-9.04,18.49,11.15,19.14,22.31,38.28,33.46,57.42,5.23-8.56,10.46-17.12,15.7-25.67.07,3-.21,8.37-2.89,14.32-3.45,7.64-8.93,11.91-11.48,13.65.71,1.33,1.43,2.66,2.14,3.98-1.47.73-2.95,1.46-4.42,2.18Z"/>
    <g>
      <path class="cls-36" d="m169.5,408.38c1.2,1.41,1.71,2.71,1.52,3.88-.92,5.62-17.86,8.49-50.82,8.59-1.8-1.96-4.6-5.33-7-10.07-5.07-9.99-4.26-17.88-6.54-33.08-1.65-11.02-2.33-8.57-4.2-20.14-3.12-19.32-2.7-35.38-2.33-47.46.05-1.59.25-7.97.93-16.78,1.32-17.06,3.51-31.08,5.34-41.02,4.47-1.67,11.18-3.64,19.48-4.09,0,0,14.04.27,27.72,4.57,17.97,5.64,24.64,70.99,15.89,155.6Z"/>
      <path class="cls-12" d="m129.82,364.56c2.7,3.58,5.4,7.16,8.1,10.74-10.42.8-20.84,1.6-31.26,2.4-.67-.84-1.86-2.57-2.4-5.1-.57-2.66-.13-4.85.16-5.91,8.47-.71,16.94-1.42,25.4-2.13Z"/>
      <path class="cls-12" d="m118.37,300.77c-.07,3.49-.14,6.98-.21,10.48-6.06-.07-12.12-.15-18.18-.22-.1-1.34-.14-2.81-.09-4.4.07-2.2.32-4.18.62-5.9,5.96.02,11.91.03,17.87.05Z"/>
      <path class="cls-15" d="m284.99,476.42c-1.75,1.41-5,4.44-6.87,9.4-2.2,5.85-2.54,14.59,2.08,19.66,4.17,4.57,8.59,2.02,12.49,6.84.78.97,1.7,2.43,3.33,14.32,1.5,10.91,1.36,14.31,4.16,17.31,2.27,2.43,5.24,3.28,7.28,3.63-.11-2.22-.34-5.39-.83-9.19-.32-2.42-.96-6.81-3.33-16.67-1.78-7.43-2.67-11.14-3.75-14.4-2.25-6.8-4.64-11.66-7.9-18.29-2.57-5.22-4.91-9.51-6.66-12.61Z"/>
      <path class="cls-15" d="m366.29,381.23c-1.72,1.12-6.04,4.27-6.87,9.4-1.13,6.96,4.92,12.96,7.29,15.32,6.77,6.73,11.66,5.15,14.08,10.56,1.59,3.55-.4,4.51.22,14.46.25,3.98.51,7.78,2.01,12.16,1.84,5.4,4.71,9.21,6.7,11.47.97-2.37,2.26-5.74,3.58-9.87,1.34-4.22,2.55-8.77,3.13-11.7.88-4.47,3.47-17.57-3.01-30.39-4.43-8.75-11.08-13.44-13.75-15.27-5.17-3.55-10.09-5.27-13.39-6.14Z"/>
      <path class="cls-2" d="m153.64,242.86c-10.59-.16-21.18.04-31.76.59"/>
      <path class="cls-16" d="m150.25,255.78c.53-1.6-.25-1.38,0-8.88.1-2.84,0-5.59-.2-11.1-.06-1.73-.13-2.98-1.02-3.98-.92-1.03-2.89-1.35-3.49-1.48-1.09-.22-1.77-.19-1.81-.41-.08-.49,3.43-.68,4.08-2.51.42-1.19-.41-2.94-1.63-3.56-1.38-.7-3.11.11-5.68,1.8-6.26,4.11-9.6,7.95-9.6,7.95-2.93,3.37-8.18,9.54-11.13,19.4-1.34,4.47-1.97,6.69-1.11,8.33,3.55,6.76,28.49,3.8,31.59-5.57Z"/>
      <path class="cls-35" d="m49.46,398.88c1.14.75,2.67,1.99,3.97,3.92.51.76.9,1.49,1.21,2.16.08.22.19.56.32.97.16.51.35,1.2.71,2.87.26,1.19.38,1.79.43,2.17.12,1.03.04,1.37.08,2.44.03.77.16,1.64.43,3.34.29,1.87.54,3.28.59,3.53,0,0,.34,1.89,1.1,5.69h0c-.12,1.68-.49,2.16-.83,2.26-1.11.34-3.63-2.9-4.57-6.48-.54-2.07-.22-2.98-1.18-5.16-.44-1-1.43-3.26-2.62-3.15-1.2.11-1.84,2.59-1.88,2.75-.3,4.64-.46,8.37-.56,10.93,0,0-.12,3.15-.59,8.78,0,0-.19,2.25-.86,5.28-.94,4.22-1.64,4.61-2.02,4.67-.33.05-.91-.05-1.77-1.21-.18-1.48-.4-3.73-.44-6.49-.02-1.78.04-2.48.23-6.63.34-7.61.32-10.06-1.09-10.91-.51-.31-1.05-.32-1.36-.29-.31.76-.68,1.77-1,2.98-.19.7-.42,1.68-.64,3.18-.3,2.07-.33,3.4-.41,4.76-.06,1.04-.36,3.1-.96,7.21-.53,3.63-.78,5.1-2.01,6.43-.4.43-1.19,1.29-1.89,1.09-1.48-.42-1.39-5.24-1.37-6.38.01-.82.06-.84.5-5,.45-4.26.36-3.82.49-4.7.31-2.11.64-3.33.89-5.9.23-2.33.12-2.91-.16-3.03-.5-.21-1.45,1.07-1.73,1.44-.98,1.32-1.35,2.61-1.49,3.1-.57,2-1.3,3.94-1.89,5.94-.39,1.34-.91,3.08-1.71,5.3-.54,1.51-1.01,2.65-2.05,3.74-.4.42-1.72,1.8-2.46,1.45-1.01-.49-.35-4.01-.05-5.65.3-1.6.65-2.81,1.64-5.74,1.17-3.48,2.17-6.28,2.76-10.05.27-1.75.26-2.44,0-2.55-.25-.1-.75.36-3.31,4.38-1.13,1.78-2.36,3.51-3.43,5.33-1.17,2-1.75,3.22-2.94,3.4-.55.09-1.34-.03-1.73-.56-.57-.79.08-2.08,1.33-4.87,2.14-4.76,1-2.62,2.03-4.65,2.68-5.23,5.35-9.78,6.03-10.92,1.9-3.22,3.58-6.05,4.96-8.37,7.09-.93,14.18-1.86,21.28-2.79Z"/>
      <path class="cls-35" d="m318.62,197.8c-1.92-3-2.3-5.47-2.39-6.78-.09-1.31.03-2.85.09-3.59.08-1,.17-2.25.51-3.85.28-1.31.6-2.34,1.22-4.28.04-.14.11-.37.22-.66.2-.53.39-.87.68-1.59.28-.72.51-1.56.95-3.22.49-1.83.83-3.22.88-3.47,0,0,.45-1.86,1.28-5.65.79-1.48,1.31-1.76,1.66-1.71,1.14.16,2.14,4.18,1.56,7.84-.34,2.11-1,2.81-1,5.2,0,1.1,0,3.58,1.12,3.98,1.14.41,2.71-1.58,2.81-1.71,2.14-4.1,3.78-7.43,4.9-9.72,0,0,1.37-2.82,4.06-7.75,0,0,1.08-1.97,2.91-4.44,2.55-3.44,3.35-3.5,3.71-3.4.32.09.81.43,1.13,1.86-.43,1.42-1.13,3.57-2.21,6.1-.69,1.63-1.03,2.24-2.87,5.95-3.36,6.79-4.33,9.03-3.39,10.4.34.5.83.73,1.12.85.59-.56,1.33-1.32,2.11-2.29.45-.56,1.06-1.36,1.86-2.62,1.11-1.76,1.66-2.96,2.29-4.17.48-.92,1.57-2.67,3.77-6.17,1.94-3.08,2.76-4.32,4.41-5.01.54-.23,1.61-.67,2.16-.19,1.18,1.01-.84,5.36-1.31,6.39-.34.74-.39.74-2.46,4.34-2.12,3.69-1.87,3.33-2.34,4.07-1.13,1.79-1.92,2.76-3.18,5-1.15,2.03-1.28,2.6-1.07,2.83.37.4,1.75-.36,2.15-.58,1.42-.78,2.27-1.8,2.6-2.19,1.32-1.58,2.77-3.04,4.11-4.61.9-1.05,2.07-2.42,3.69-4.11,1.1-1.14,1.98-1.99,3.37-2.54.54-.21,2.29-.91,2.82-.28.72.88-1.29,3.8-2.23,5.17-.92,1.33-1.72,2.28-3.8,4.54-2.46,2.68-4.5,4.8-6.55,7.99-.95,1.48-1.21,2.12-1.02,2.32.19.2.83,0,4.77-2.59,1.75-1.15,3.56-2.19,5.27-3.41,1.87-1.33,2.88-2.19,4.04-1.86.53.15,1.21.59,1.35,1.24.2.96-.9,1.86-3.17,3.87-3.86,3.43-1.96,1.97-3.72,3.37-4.06,3.24-7.89,5.99-9.43,7.08-.26.18-.39.28-.45.32-3.61,2.52-6.82,3.79-9.21,4.49-6.6-.25-13.2-.5-19.8-.75Z"/>
      <path class="cls-10" d="m171.02,412.26c9.72,11.2,15.85,19.88,18.52,23.52,15.61,21.29,24.15,22.06,49.14,50.46,11.97,13.59,17.95,20.39,22.74,29.37,11.71,21.97,12.56,42.55,13.2,57.99,1.29,31.06-6.69,54.99-11,67.78-2.68,7.97-5.39,14.43-7.41,18.93-.03,1.67.13,5.64,2.71,9.33,5.05,7.25,14.49,6.43,14.97,6.38,10-13.86,28.29-43.24,33.74-85.1,1.23-9.43,4.9-43.3-8.07-83.59-9.11-28.32-22.51-47.6-28.6-55.73-14.47-19.32-29.95-32.08-41.07-39.91,2.06-1.67,5.25-3.86,9.53-5.27,7.51-2.47,14.08-1.13,16.13-.75,17.27,3.14,30.16-5.29,66.01-3.77,23.7,1.01,29.72,5.19,33,8.28,8.98,8.46,10.12,20.69,10.27,22.59.62,7.81-1.5,14.15-6.6,24.85-4.91,10.32-12.38,24.24-23.47,39.91-.45.88-1.53,3.27-1.17,6.4.44,3.79,2.68,6.1,3.33,6.72,1.59.86,3.62,1.76,6.05,2.44,3.89,1.08,7.3,1.15,9.7.99,15.98-19.33,26.26-36.98,32.7-49.69,9.01-17.79,11.28-28.01,11.73-38.41.6-13.63-2.79-21.43-3.67-23.35,0,0-4.85-10.6-16.87-18.83-16.51-11.31-71.56-18.23-145.21-15.06-3.85-3.05-11.56-10.03-16.13-21.84-6.52-16.84-2.14-31.87-.73-36.15,12.7-.14,22.97-2.03,30.07-3.77,22.89-5.6,38.59-16,50.6-24.1,10.7-7.22,16.05-10.83,22-18.07,9.8-11.93,13.49-24.27,16.13-33.14,2.3-7.71,4.85-19.03,5.13-33.14-6.6-.25-13.2-.5-19.8-.75-.4,5.34-1.44,13.06-4.4,21.84-2.21,6.56-10.62,30.39-33.74,44.43-11.4,6.93-21.75,8.67-37.4,11.3-13.12,2.21-24.29,2.47-32.27,2.26-4.26-.55-10.14-2.05-13.2-6.78-2.95-4.55-1.27-8.97-2.2-12.8-1.44-5.92-9.62-12.62-39.6-15.81.31,1.91,1.04,7.67-2.2,10.54-2.22,1.97-5.28,1.68-7.33,1.51-7.07-.59-14.24.19-21.27-.75-8.57-1.15-18.67,4.5-38.87,15.81-13.09,7.33-22.09,13.98-28.6,18.83-11.2,8.34-16.8,12.5-22.74,19.58-1.28,1.52-10.43,12.61-15.4,27.11-10.63,30.98,3.4,61.24,6.6,67.78,7.82-1.26,15.65-2.51,23.47-3.77-2.94-5.09-8.95-17.15-8.07-33.14.43-7.7,2.47-14.04,3.82-17.6.67-1.77,3.12-8.01,8.65-15.53,6.86-9.34,13.93-14.27,24.2-21.84.78-.57,12.48-9.13,22.74-13.56,6.12-2.64,14.73-5.1,14.86-5.13,0,0,0,0,0,0,.25-.07.52-.14.53-.14.3,0-.26,23.81,1.47,37.65,2.54,20.42,12.03,35.15,14.67,39.16,3.57,5.42,11.43,13.91,27.14,30.88,5.24,5.66,7.36,7.81,11.55,12.63Z"/>
      <path class="cls-16" d="m338.42,198.56c.17.46.4,1.25.37,2.25-.03,1.07-.34,1.9-.55,2.36-2.13,0-3.87-.06-5.08-.12-2.73-.13-5.29-.38-8.74-.23-.18,0-.36.02-.6.03-2.49.15-4.47.54-5.84.87-.01-.86.02-1.82.13-2.87.12-1.14.3-2.16.51-3.05,1.08.03,2.16.07,3.24.1,3.16.02,6.42.09,9.78.25,2.31.11,4.57.24,6.78.41Z"/>
      <path class="cls-16" d="m47.8,395.79c.21.03,1.37.2,2.14,1.28.9,1.25.53,2.66.49,2.83-1.15.76-2.83,1.73-4.96,2.54-3.52,1.34-6.42,1.53-9.32,1.7-2.32.14-5.47.14-9.2-.4-.3-.13-1.21-.58-1.81-1.65-.56-1.01-.52-1.97-.49-2.32,3.02-.04,5.56-.19,7.46-.34,4.43-.35,7.17-.58,10.59-1.62,2.18-.67,3.92-1.45,5.1-2.03Z"/>
      <path class="cls-40" d="m317.46,396.37c-.76-1.34-2.53-4.36-5.26-7.84-.7-.89-3.47-4.37-9.67-9.93-3.17-2.84-7.46-6.42-12.84-10.22-5.08-.12-10.15-.23-15.23-.35,1.91,1.01,4.67,2.62,7.72,5,3.45,2.7,5.58,5.06,9.5,9.4,3.8,4.21,5.69,6.32,7.8,9.58,2.49,3.85,4.04,7.36,5.01,9.88,5.23-.04,10.46-.09,15.68-.13-.66-1.48-1.55-3.33-2.71-5.4Z"/>
      <path class="cls-40" d="m206.17,443.44c2-.59,6.56-1.86,12.45-2.66,5.31-.72,10.3-.85,18.59-.48,6.83.3,15.86.94,26.59,2.35,1.93,2.05,3.95,4.4,5.99,7.06,1.92,2.5,3.58,4.92,5.01,7.2-3.16-.89-7.66-1.95-13.14-2.51-6.16-.62-10.73-.33-17.93.13-7.39.47-11.23.71-16.5,1.93-5.81,1.34-10.43,3.2-13.54,4.63-2.78-2.35-5.65-4.92-8.57-7.7-2.44-2.34-4.73-4.65-6.87-6.91.43-.25,1.07-.6,1.87-.98,2.57-1.22,4.71-1.65,6.06-2.05Z"/>
      <path class="cls-41" d="m42.4,379.95c.58,1.84,1.19,3.7,1.81,5.57,1.17,3.51,2.37,6.94,3.59,10.28-1.26-.37-3.05-.93-5.16-1.71-1.72-.64-7.81-2.98-11.54-5.44-6.26-4.13-8.89-10.55-11.44-16.6-1.48-3.52-3.38-9.06-4.12-16.27.13-3.76.57-8.26,1.68-13.23,1.51-6.83,3.79-12.4,5.87-16.56-.34,3.89-.45,8.87.23,14.59,1.06,8.79,3.5,15.12,4.88,18.63,1.79,4.54,3.41,8.58,6.86,13.15,2.64,3.49,5.34,5.97,7.34,7.59Z"/>
      <path class="cls-41" d="m335.91,221.19c.59-2.04,1.14-4.39,1.55-7.02.45-2.98.62-5.7.63-8.04-1.65.63-4,1.63-6.71,3.1-2.36,1.29-8.76,4.99-15.23,12.01-1.83,1.99-4.21,4.83-6.61,8.55-2.33,3.94-4.65,7.87-6.98,11.81-2.24,3.48-4.49,6.95-6.73,10.43,2.15-.7,5.32-1.95,8.69-4.27,2.81-1.93,4.33-3.62,9.06-8.55,5.19-5.41,7.79-8.1,8.69-8.92,2.87-2.63,7.26-6.06,13.64-9.1Z"/>
      <path class="cls-41" d="m139.18,254.04c-.56,2.6-1.22,5.3-2,8.09-.35,1.23-.7,2.43-1.07,3.61-2.47.21-5.84.57-9.8,1.28-3.43.61-8.67,1.41-14.44,3.66-5.93,2.32-5.68,2.96-12.74,6.1-6.48,2.88-11.63,4.54-15.97,5.93-5.05,1.62-9.1,2.92-14.78,4.01-4.38.84-8.12,1.25-10.86,1.46,3.45-3.05,8.36-7.11,14.59-11.4,6.67-4.59,11.94-7.36,22.21-12.73,12.82-6.7,19.36-10.06,25.44-11.03,8.13-1.29,15.03-.1,19.4,1.02Z"/>
      <path class="cls-41" d="m243.08,275.37c-2.44,1.28-4.88,2.55-7.32,3.83-3.83,0-7.09.28-9.62.62-3.68.48-6.52,1.15-8.62,1.65-2.43.58-4.48,1.15-6.05,1.63-.13-.94-.25-1.9-.37-2.86-.11-.88-.2-1.74-.3-2.6,6.48-1.2,13.82-2.11,21.89-2.34,3.63-.1,7.09-.07,10.38.08Z"/>
      <path class="cls-33" d="m285.37,785.67c-.6,4.32-1.78,4.9-2.31,5.33-3.67,3-10.77-.08-12.07-1.86-.09-.13-.48-.69-1.13-1.36-.68-.71-1.32-1.18-1.72-1.45-.42.73-1.75,2.8-4.29,3.68-3.2,1.12-6.03-.45-7.18-1.08-2.75-1.52-4.12-3.87-4.67-4.95-.63.63-1.58,1.47-2.88,2.22-.91.52-3.03,1.73-5.54,1.65,0,0-2.93-.09-5.86-2.64-5.16-4.49-4.6-17.45-3.85-26.83,1.44-17.93,2.16-26.9,6.33-35.54.88-1.82,5.77-11.66,16.04-18.85,5.26-3.68,7.17-3.34,8.02-3.03,4.2,1.49,3.38,9.23,7.6,21.24,2.67,7.58,3.55,6.07,7.18,14.95,4.58,11.22,5.81,20.11,6.96,28.39,0,0,1.08,7.79-.63,20.15Z"/>
      <path class="cls-14" d="m273.88,676.01c-.99,2.46-2.23,6.06-3.02,10.55-1.12,6.44-.95,12.68.55,21.06,1.71,9.5,3.15,10.76,9.98,32.44.12.38,2.83,9.04,5.54,20.77,1.97,8.52,2.57,12.7,1.66,17.64-1.04,5.65-3.6,9.89-5.54,12.52.9-3.17,1.95-8.01,1.94-13.94,0-5.16-.81-9.09-1.66-12.81-3.24-14.1-7.36-25.82-9.98-33.01-1.73-4.75-4.14-11.18-7.21-18.78.48,2.55,1.26,6.48,2.31,11.27,1.35,6.12,1.94,8.09,2.63,11.48,1.1,5.42,1.4,9.21,1.97,16.66.88,11.34,1.32,17.01.44,24.54-.63,5.43-1.7,9.82-2.52,12.72-.95-.94-1.9-1.88-2.85-2.81.64-1.94,1.42-4.68,1.97-8.04.47-2.88.61-5.24.67-7.16.15-4.91-.1-10.52-1.34-21.82-.62-5.65-1.12-10.08-2.09-16.12-1.17-7.24-2.13-11.22-2.76-13.64-.69-2.65-1.36-4.86-1.88-6.47-.4-2.05-.8-4.09-1.2-6.14-1.25-.1-2.49-.2-3.74-.31-.53,1.71-1.21,4.07-1.92,6.9-.49,1.96-1.92,7.87-3.02,16.29-.21,1.6-.81,6.4-1.18,12.9-.92,16.14.03,35.3.36,41.26-.96.74-1.92,1.48-2.88,2.22-.67-5.11-1.37-12.01-1.56-20.2-.33-14.05.99-24.71,1.8-31.04.91-7.09,2.38-16.03,4.92-26.24-1.77,1.22-4.23,3.2-6.6,6.16-.4.5-2.24,2.83-4.16,6.78,0,0-2.34,4.81-3.64,10.47-1.57,6.87-2.86,26.6-2.16,53.09-1.43-1.16-3.48-3.14-4.92-6.16-2.05-4.31-1.73-8.39-1.57-10.51.64-8.46.79-16.96,1.69-25.4,1.53-14.36,1.09-14.4,2.32-22.49.9-5.91,1.68-10.91,3.57-17.36,1.96-6.68,4.27-12.06,6.12-15.89.23-1.05.48-2.69.36-4.68-.21-3.38-1.32-4.78-1.92-7.64-.16-.77-1.14-5.48.6-8.99,2.81-5.67,11.55-5.79,12.24-5.79-.26,2.44.2,4.16.6,5.17,1.78,4.58,6.62,6.61,11.4,8.62,2.34.98,4.34,1.57,5.68,1.92Z"/>
      <path class="cls-33" d="m423.17,588.37c1.3,2.03,1.58,3.91,1.83,4.78.93,3.31,2.38,8.52-.09,11.29-1.14,1.28-2.73,1.61-5.05,2.09-1.92.4-3.52.73-5.06-.05-.6-.31-1.06-.72-2.05-.98-.95-.26-1.79-.23-2.38-.15-.12.23-.3.55-.54.91-1.91,2.81-4.92,3.71-6.08,4.06-2.83.85-5.3.52-6.66.22-.33,1.07-.77,2.27-1.36,3.53-.8,1.73-1.68,3.17-2.49,4.33,0,0-2.25,1.92-6.09,2-6.76.14-14.7-9.96-20.18-17.5-10.48-14.42-15.71-21.64-18.15-30.95-.51-1.96-3.19-12.66-.12-25.03,1.57-6.34,3.22-7.37,4.06-7.72,4.11-1.73,8.48,4.63,19.38,10.76,6.89,3.87,6.57,2.14,15.01,6.34,10.67,5.3,17.32,11.13,23.51,16.55,0,0,5.83,5.11,12.51,15.54Z"/>
      <path class="cls-14" d="m352.66,514.09c.67,2.57,1.83,6.2,3.87,10.25,2.93,5.81,6.78,10.64,12.95,16.34,6.99,6.46,8.89,6.55,27.17,19.46.32.22,7.61,5.39,16.73,12.99,8.13,6.77,10.32,9.47,11.8,12.94,2.88,6.79,1.64,13.63.57,17.49-.37-3.14-1.3-7.78-3.88-12.68-2.6-4.93-5.74-7.95-9.04-10.96-13.53-12.28-25.82-20.45-27.78-21.74-4.08-2.69-9.8-6.33-16.87-10.37,1.9,1.72,4.84,4.35,8.53,7.48,4.7,4,6.34,5.2,8.91,7.45,4.09,3.6,6.57,6.42,11.46,11.97,12.6,14.3,14.22,17.48,14.92,19.18,2.08,5.03,2.64,9.6,2.8,12.58-1.48-.38-2.95-.76-4.43-1.14.06-1.86-.08-4.61-1.23-7.58-1-2.58-2.33-4.23-3.08-5.18-7.78-9.8-7.03-10.55-13.4-17.61-3.19-3.54-6.61-6.93-8.16-8.47-.96-.96-1.97-1.95-3.07-3-5.23-5.01-8.35-7.56-10.29-9.09-2.13-1.67-3.97-3-5.33-3.95-1.53-1.37-3.06-2.75-4.6-4.12-1.05.7-2.1,1.4-3.14,2.1.6,1.69,1.45,3.99,2.58,6.67.78,1.86,3.16,7.44,7.28,14.8,1.26,2.25,3.41,5.96,6.73,10.97,8.04,12.15,17.66,23.94,22.44,29.66-.45,1.18-.9,2.35-1.36,3.53-2.81-2.98-6.47-7.08-10.49-12.18-8.61-10.94-13.91-20.24-17.01-25.73-3.49-6.18-7.63-14.19-11.68-23.87-.67,2.08-1.45,5.18-1.57,9.01-.02.65-.09,3.65.73,7.98,0,0,0,0,0,0,0,0,1.05,5.13,3.33,10.57,1.56,3.73,11.94,20.09,28.68,40.54-1.92.07-5.07-.11-8.37-1.77-2.57-1.3-4.2-2.99-5.54-4.49-4.73-5.33-6.85-9.55-13.74-21.18-7.32-12.34-7.69-12.1-11.52-19.28-.64-1.2-3.44-6.48-7.48-15.99-1.24-2.93-2.84-6.81-4.61-11.45-.23-2.08-.8-5.34-2.47-8.91-.46-.97-1.22-2.45-6-8.96-4.29-5.85-4.8-6.19-5.8-8.24-.95-1.97-2.86-5.9-2.45-9.62.63-5.76,6.8-10.81,15.03-12.95-.29.88-2.08,6.64,1.03,11.12,2.14,3.08,5.52,4,8.48,4.81,3.51.96,6.54.84,8.4.63Z"/>
      <path class="cls-16" d="m135.21,206.44c-6.82-1.37-12.63-2.4-17.09-3.14-.75-.13-8.66-1.44-19.5-2.65-9.29-1.04-12.64-1.1-16.76.17-3.29,1.01-7.16,2.26-9.19,6.12-1.88,3.57-1.68,8.42.64,11.59,1.07,1.46,2.44,2.35,7.25,4.14,6.25,2.32,11.21,3.52,13.06,3.97,15.81,3.84,15.48,3.77,16.44,3.97,4.87,1.01,8,1.51,13.7,2.98,2.54.66,4.61,1.25,5.96,1.66,2.69-2.15,5.37-4.3,8.06-6.45-2.38-.46-6.03-1.22-10.48-2.32-6.06-1.5-6.58-1.9-12.25-3.31-3.5-.87-3.35-.72-14.67-3.31-4.24-.97,1.07.23-8.52-2.44,0,0-2.76-.77-6.27-2.86-1.05-.63-1.93-1.24-2.28-2.34-.5-1.57.43-3.06.51-3.18.99-1.54,2.92-2.03,5.76-2.25,4.67-.37,8.29.23,9.99.5,6.84,1.07,5.59.21,13.38,1.32,3.19.45,4.47.75,13.22,2.48,3.39.67,8.01,1.58,13.54,2.65-1.5-2.43-3.01-4.86-4.51-7.28Z"/>
      <path class="cls-35" d="m217.83,235.34c1.37-2.26,3.46-5.61,6.15-9.57,5.54-8.13,6.19-7.88,7.8-11.44,2.25-4.98,3.07-10.09,3.95-15.57.35-2.15.45-3.34.51-4.32.13-2.22.15-6.26-1.02-10.86-.62-2.45-1.95-7.67-5.41-11.58-2.7-3.05-5.94-4.45-19.93-7.12-12.33-2.35-18.5-3.53-21.66-3.26-2.66.22-14,1.42-24.46,9.93-2.66,2.16-6.63,5.46-9.68,11.25-3.08,5.86-3.55,11.09-3.95,15.57-.82,9.21.92,16.46,1.91,19.88,1.53,5.26,3.35,11.52,8.92,17,1,.98,3.69,3.5,7.82,5.5,1.76.85,3.35,1.41,4.91,1.75,7.87,1.75,14.29-.29,24.81-.31,10.01-.02,14.83,2.03,17.7-1.41,1.39-1.67,1.65-3.83,1.64-5.45Z"/>
      <ellipse class="cls-38" cx="177.99" cy="198.4" rx="5.84" ry="2.93" transform="translate(-48.32 339.19) rotate(-79.99)"/>
      <ellipse class="cls-38" cx="220.77" cy="204.24" rx="5.83" ry="2.94" transform="translate(-39.05 355.71) rotate(-73.01)"/>
      <path class="cls-16" d="m217.18,236.23c.14.09,1.04-1.03,1.79-2,1.94-1.92,4.55-4.69,7.37-8.27,4.36-5.52,9.74-12.34,12.72-22.21,2.65-8.77,2.24-16.06,1.91-21.06-.36-5.5-1.09-14.95-6.68-25.31-1.98-3.67-7.61-13.79-19.4-20.41-7.6-4.27-14.23-5.1-21.79-6.04-7.19-.9-16.82-2.1-28.47,1.42-5.75,1.74-17.24,5.22-25.74,16.39-7.5,9.85-8.67,20.42-9.24,25.62-1.09,9.83.62,17.5,1.59,21.72.63,2.72,2.66,10.76,7.95,19.92,3.32,5.74,6.44,11.15,12.72,15.84,5.33,3.98,10.61,5.71,13.99,6.53-4.84-6.78-7.75-13.08-9.54-17.8-2.11-5.55-3.83-10.09-3.98-16.49-.23-9.85,3.43-17.05,4.45-18.94,4.36-8.08,10.47-12.15,12.88-13.72,11.07-7.18,22.45-6.48,28.31-6.04,2.8.21,24.48,2.11,32.12,15.51,1.8,3.16,2.7,6.69,2.7,6.69,1.55,6.08.57,11.11-.48,16.17-1.44,6.95-3.81,11.91-4.29,12.9-.74,1.52-2.92,5.32-7.31,12.9-2.15,3.71-3.8,6.53-3.6,6.68Z"/>
      <path class="cls-31" d="m235.84,161.48c-1.13-1.47-2.67-3.21-4.71-4.92-1.81-1.51-3.55-2.62-5.02-3.43.15-1.03.26-2.32.16-3.81-.08-1.21-.27-2.28-.48-3.15-.56-.86-1.48-2.06-2.9-3.15-1.07-.82-2.1-1.33-2.9-1.66.6.72,1.37,1.82,1.94,3.31.95,2.53.79,4.78.63,5.92-.64-.46-1.62-1.12-2.89-1.77-1.24-.64-2.59-1.14-6.61-2.32-3.15-.92-4.72-1.38-6.78-1.66-2.55-.34-4.68-.28-6.13-.17-.71-1.13-1.71-2.67-3-4.44-1.06-1.46-2.06-2.82-3.29-4.18-1.29-1.41-3.31-3.32-6.29-5.14-1.8.04-3.61.09-5.41.13,1.97.76,4.36,2,6.7,4.01,2.57,2.22,4.06,4.51,5,5.96.8,1.24,1.38,2.34,1.77,3.15-3.51-.03-6.56.13-9.03.33-2.89.24-5.08.54-7.1.83-2.52.36-5.78.88-9.58,1.65-.8-.96-1.95-2.2-3.49-3.47-.89-.73-3.22-2.47-6.61-3.98-2.23-.99-4.2-1.43-5.49-1.66-1.25.33-2.5.67-3.74,1,2.66.63,4.81,1.46,6.38,2.16,1.47.66,3.23,1.46,5.27,2.97,2.07,1.52,3.55,3.11,4.52,4.31-1.6.29-3.95.84-6.61,1.99-4.09,1.76-6.81,3.98-9.2,5.96-1.47,1.22-3.99,3.34-6.67,6.7-.97,1.21-3.84,4.87-5.76,9.53-3.22,7.84-2.3,15.06-1.13,24.17.83,6.51,2.24,11.47,3.07,14.1,2.35,7.49,5.22,12.75,7.38,16.66,1.87,3.39,4.01,6.83,4.24,6.7.26-.15-1.99-4.25-4.19-10.11-2.25-5.97-3.28-10.69-4.62-16.91-1.63-7.56-2.44-11.34-2.68-15.59-.38-6.87-.79-14.21,3.32-21.09,1.94-3.25,4.47-5.69,6.73-7.87,3.84-3.71,7.29-5.94,8.45-6.67,5.79-3.62,10.85-5.02,15.05-6.16,9.74-2.62,17.73-2.59,20.92-2.49,4.39.14,12.77.48,22.53,4.51,4.05,1.67,8.75,3.67,13.38,8.31,3.36,3.36,5.4,6.83,6.61,9.28-.57-2.63-1.15-5.26-1.72-7.88Z"/>
      <path class="cls-27" d="m180.92,234.8c-.48,1.28-.99,2.97-1.25,4.99-.32,2.39-.2,4.44,0,5.96-.84.11-2.09.24-3.61.32-1.5.08-4.54.17-11.74-.69-3.61-.43-5.41-.64-6.77-.97-3.83-.92-6.73-2.29-8.74-3.26-2.37-1.13-4.28-2.26-5.67-3.14.99-2.95,1.99-5.9,2.98-8.85,1.16.21,2.9.54,5.02.97,5.52,1.1,6.68,1.46,10.66,2.25,3.17.63,6.42,1.27,10.66,1.77,3.53.41,6.46.57,8.46.64Z"/>
      <path class="cls-27" d="m232.33,237.53c1.96,1.01,2.65,3.18,2.82,3.7.86,2.69-.15,5.04-.47,5.79-1.04,2.42-2.83,3.7-3.61,4.18-5.12-.14-10.24-.27-15.35-.41.67-1.61,1.34-3.62,1.83-5.97.61-2.98.72-5.62.66-7.67,2.17-.17,3.99-.24,5.37-.27.3,0,2.6-.1,5.61.13,2.46.19,2.9.39,3.14.51Z"/>
      <ellipse class="cls-7" cx="199.92" cy="241.19" rx="18.77" ry="18.59"/>
      <path class="cls-9" d="m218.23,245.12c.12,0,.79-3.1.28-6.61-.79-5.45-4.02-8.95-5.16-10.16-.52-.55-2.42-2.51-5.52-4.12-6.87-3.58-13.57-2.3-15.89-1.72-1.69.42-4.52,1.16-7.51,3.44-3.95,3.02-5.65,6.79-5.96,7.52-2.6,6.01-2.31,14.4,2.16,19.45,2.74,3.09,6.74,4.59,8.38,5.21,2.06.77,3.8,1.1,4.68,1.26,4.24.77,7.45.38,8.15.29,1.88-.25,3.41-.67,4.48-1.02-1.52-.04-9.94-.28-15.91-2.62-2.74-1.07-4.18-2.28-5.1-3.26-.36-.39-1.44-1.6-2.3-3.51-1.23-2.74-1.23-5.19-1.22-6.27.06-5.66,3.16-9.64,3.7-10.3,3.88-4.82,9.16-5.65,11.09-5.96,4.05-.64,7.22.24,8.85.71,2.46.71,5.72,1.65,8.55,4.76,2.87,3.16,3.74,6.83,4,8.4.42,2.49.16,4.5.26,4.51Z"/>
      <ellipse class="cls-37" cx="198.32" cy="242.15" rx="16.77" ry="16.1"/>
      <path class="cls-3" d="m209.58,221.5c-1.52,2.95-5.35,3.07-8.18,3.15-.46.01-10.7.22-12.03-5.01-.55-2.17.69-4.23,3.05-8.16,2.98-4.96,5.35-8.91,8.5-8.72,3.59.22,5.87,5.68,7.22,8.9,1.33,3.19,2.91,6.98,1.44,9.83Z"/>
      <path class="cls-6" d="m127.55,186.52c1.39-1.71,5.29-1.55,13.1-1.22,2.4.1,4.39.27,5.76.41.09-2.93.73-7.53,3.97-10.6.86-.81,2.98-2.53,16.66-3.1,1.93-.08,8.38-.32,17.1.33,10.75.8,12.29,1.99,13,2.64,2,1.81,3.37,4.59,6.82,5.43,1.41.34,2.69.24,3.18.2,2.87-.24,4.05-1.5,6.05-2.26,3.13-1.17,6.06-.29,10.27.99,2,.61,3.91,1.6,7.72,3.58,7,3.64,8.44,5.24,9.09,6.04.19.23,2.15,2.62,2.98,5.71,2.24,8.3-3.94,18.26-10.92,23.64-2.91,2.24-9.27,7.25-16.27,5.3-.6-.17-7.22-2.11-9.24-7.4-.86-2.26-.96-5.29-3.46-8.9-.84-1.21-1.21-1.41-1.52-1.5-2.32-.63-4.47,4.28-9.39,8.63-1.22,1.08-4.2,3.53-8.14,5.09-1.56.62-9.33,3.51-17.66.2-1.17-.46-7.28-2.89-11.31-8.97-2.47-3.71-3.06-7.1-6.35-8.36-1.54-.58-2.49-.23-5.36,0-2.53.2-6.25.28-10.92-.41-4.84-6.54-7.23-12.93-5.16-15.49Zm83.98,23.91c.27.4,1.31,1.88,3.24,3.06.46.28,1.76,1.03,3.6,1.39,2.54.49,4.58-.07,5.73-.39,6.35-1.81,9.7-7.28,10.04-7.86,1.15-1.95,2.97-5.01,2.27-8.72-.51-2.74-2.17-4.64-3.02-5.59-1.57-1.76-3.18-2.69-5.18-3.84-.78-.45-2.63-1.5-5.21-2.47-2.62-.98-3.96-1.46-5.61-1.27-.57.07-2.39.31-4.01,1.73-1,.87-1.48,1.82-1.9,2.62-.96,1.79-1.25,3.47-1.35,4.54-.1.68-.24,1.7-.36,2.94-.34,3.55-.58,6.19.05,9.28.32,1.54.63,3.01,1.71,4.6Zm-51.72-4.1c.7.8,5.67,6.26,13.58,7.23,3.23.4,5.76-.1,6.63-.29,5.95-1.32,9.56-5.13,10.69-6.35.33-.36,6.91-7.7,5.96-17.05-.34-3.41-1.49-5.13-1.75-5.51-2.26-3.26-6.05-4.17-7.35-4.48-.66-.16-1.97-.26-4.57-.45-2.64-.2-4.54-.34-6.88-.4-4.5-.12-4.05.24-9.56.26-2.09,0-8.04.03-10.11,1.93-.14.13-.25.25-.34.36-1.26,1.52-1.4,3.32-1.46,4.23-.86,13.71,5.15,20.52,5.15,20.52Z"/>
      <path class="cls-1" d="m238.24,203.17c2.25-2.84,3.25-4.04,3.12-5.83-.22-2.92-3.3-4.92-6.79-7.2-3.54-2.31-3.58-1.38-10.64-4.97-3.04-1.54-4.04-2.23-5.69-2.06-2.85.3-4.7,2.86-6.06,4.8-1.24,1.77-5.55,7.94-3.85,16.11.58,2.8,1.71,8.25,6.97,11.14,3.62,1.99,8.25,2.25,11.93.86,2.58-.98,2.33-1.87,11.01-12.85Z"/>
      <path class="cls-1" d="m193.85,181.55c.6.61,2.55,2.74,3.43,6.14,1.82,7.06-2.52,13.86-4.99,17.71-1.14,1.79-3.29,5.08-7.17,7.89-2.16,1.57-5.38,3.9-9.66,4.03-6.1.19-10.5-4.21-12.78-6.49-6.58-6.58-7.88-15.01-8.26-17.71-.64-4.57-1.24-8.79.93-11.75,2.05-2.8,4.98-2.31,15.58-2.46,14.9-.21,19.04-1.33,22.9,2.63Z"/>
      <g>
        <path class="cls-9" d="m201.47,247c-.45-.34-1.14-.86-2.17-1.17-.44-.13-2.05-.57-3.89.12-.97.36-1.58.88-1.89,1.14-.27.23-1.78,1.52-1.46,2.22.14.3.59.44.95.4.72-.09.82-.89,1.6-1.53.85-.7,1.88-.7,2.86-.7.8,0,1.95,0,2.97.7,1.51,1.06,1.58,2.88,2.56,2.89.24,0,.5-.1.64-.3.34-.49-.2-1.42-.48-1.89-.17-.3-.67-1.08-1.7-1.87Z"/>
        <path class="cls-9" d="m200.9,243.39c-.84-.19-1.35-.26-1.35-.26-1.09-.15-1.49-.17-1.88-.17-.83,0-1.06.11-1.18.29-.1.15-.15.4-.05.57.17.29.64.2,1.6.22,1.08.02,1.65.04,2.35.22.61.16,1,.36,1.27.14.16-.13.24-.39.17-.58-.08-.21-.32-.29-.93-.43Z"/>
        <path class="cls-9" d="m203.65,239.37c.4.47,1.56.21,2.29-.23,1.82-1.1,2.29-4.1,1.6-4.58-.55-.38-1.9.75-2.52,1.41-.96,1.03-1.9,2.78-1.37,3.41Z"/>
        <path class="cls-9" d="m199.03,237.19c.59.17,1.41-.7,1.79-1.48.93-1.95-.26-4.72-1.1-4.74-.66-.01-1.19,1.69-1.36,2.59-.26,1.4-.11,3.39.67,3.62Z"/>
        <path class="cls-9" d="m192.77,238.88c.55-.26.63-1.48.42-2.32-.53-2.1-3.2-3.4-3.84-2.85-.51.43.17,2.08.62,2.87.69,1.24,2.07,2.65,2.81,2.3Z"/>
        <path class="cls-9" d="m192.18,242.82c.16-.6-.69-1.45-1.46-1.83-1.9-.94-4.6.31-4.6,1.17,0,.68,1.66,1.21,2.54,1.37,1.37.25,3.31.08,3.52-.71Z"/>
        <path class="cls-9" d="m210.86,244.31c.16-.6-.69-1.45-1.46-1.83-1.9-.94-4.6.31-4.6,1.17,0,.68,1.66,1.21,2.54,1.37,1.37.25,3.31.08,3.52-.71Z"/>
      </g>
      <g>
        <path class="cls-17" d="m197.61,270.85c9.21,1.33,12.21,4.27,13.2,6.78.42,1.07.33,1.68.66,5.46.47,5.39.99,8.06,1.3,10.71,1.18,9.92-.66,18.17.26,34.8.56,10.05,1.58,13.27,2.35,15.26,1.5,3.92,2.79,5.11,7.04,12.85,3.84,7,5.76,10.49,6,12.05,1.7,11.11-11.15,21.93-17.21,27.04-2.99,2.52-8.19,6.82-16.16,9.64-4.46,1.57-8.36,2.03-16.16,2.94-5.71.67-7.56.51-9.39,0-5.64-1.56-10.8-6.35-10.03-8.75.82-2.54,8.17-1.99,11.33-1.96,9.95.1,25.09-4.46,47.19-25.97-9.45-11.98-12.77-22.94-14.08-28.64h0c0-1.43-.58-7.59-1.99-20.61.05-4.93.11-6.93.17-7.76,0-.13.1-1.42.2-3.19h0c.12-2.04.18-3.05.58-6.18.22-1.71-.9-10.28-5.26-34.46Z"/>
        <path class="cls-17" d="m191.14,324.05c-6.05.5-9.08.74-12.77.8-8.95.15-15.86-.67-18.77-1.07-2.72-.37-4.96-.77-6.52-1.07.12,3.03.4,6.96,1.04,11.51.34,2.44,1.47,9.87,4.43,19.27,2.6,8.26,4.76,15.1,9.39,22.22,8.99,13.84,20.32,17.98,18.97,21.84-.53,1.53-3.03,2.98-11.75,2.62-4.79-4.79-10.83-11.6-16.66-20.64-3.42-5.29-9.88-15.43-14.13-29.83-6.3-21.33-4.61-40.63-3.93-47.77.87-9.02,2.28-13.86,1.77-23.99-.51-9.92-2.51-17.94-4.12-23.18.78-.61,2.19-1.52,4.12-1.81,4.35-.66,7.58,2.37,8.05,2.82.78,1.98,1.86,5.11,2.55,9.07.84,4.83.35,6.6,0,18.75,0,0-.19,6.68,0,17.54,0,.31.06,2.95.39,6.45.17,1.77.25,2.66.39,3.02,1.1,2.92,6.02,3.76,12.56,4.23,4.39.31,7.74.55,11.53.48,3.63-.07,6.36-.39,7.11-.48,13.16-1.48,17.41-5.69,20.93-3.12,2.45,1.79,3.42,6.04,2.15,8.53-.87,1.7-2.84,2.65-16.74,3.8Z"/>
      </g>
      <path class="cls-32" d="m156.06,246.75c-2.85-.88-6.65-1.83-11.18-2.34-2.75-.31-8.13-.72-15,.2-6.7.9-11.39,1.52-16.17,5-2.37,1.72-6.05,4.41-6.82,9-.76,4.59,1.83,8.42,3.31,10.6.81,1.19,3.2,4.46,9.93,8.2,4.48,2.49,6.08,2.52,16.36,6.2,10.59,3.79,12.72,5.13,14.41,6.4,2.12,1.59,5.58,4.26,7.99,9,3.58,7.04,2.52,14.07,1.95,16.8-1.88-.13-3.77-.27-5.65-.4.41-1.74.86-4.58.39-8-.2-1.48-.73-5.06-2.92-8.2-2.13-3.06-4.82-4.23-10.52-6.6-7.91-3.29-11.66-4.73-15.19-6.2-8.29-3.44-12.5-5.23-16.17-8.4-2.87-2.48-6.53-5.75-8.18-11.4-.35-1.22-2.39-8.22,1.17-14.2,1.13-1.9,2.41-3,4.33-4.65.82-.71,4.31-3.63,10.14-5.8,2.33-.87,5.68-1.87,10.65-2.35,10.81-1.05,21.18,1.13,26.9,2.62.09,1.51.17,3.01.26,4.52Z"/>
      <g>
        <ellipse class="cls-14" cx="213.74" cy="339.41" rx="8.6" ry="10.56" transform="translate(-88.66 75.9) rotate(-16.73)"/>
        <ellipse class="cls-18" cx="213.74" cy="339.41" rx="6.63" ry="8.14" transform="translate(-88.66 75.9) rotate(-16.73)"/>
        <ellipse class="cls-39" cx="213.74" cy="339.41" rx="4.93" ry="6.05" transform="translate(-88.66 75.9) rotate(-16.73)"/>
      </g>
      <g>
        <ellipse class="cls-14" cx="222.7" cy="362.05" rx="8.62" ry="10.54" transform="translate(-126.31 119.42) rotate(-23.6)"/>
        <ellipse class="cls-18" cx="222.7" cy="362.05" rx="6.64" ry="8.12" transform="translate(-126.31 119.42) rotate(-23.6)"/>
        <ellipse class="cls-39" cx="222.7" cy="362.05" rx="4.94" ry="6.04" transform="translate(-126.31 119.42) rotate(-23.6)"/>
      </g>
      <ellipse class="cls-14" cx="155.72" cy="326.55" rx="10.84" ry="11.14"/>
      <ellipse class="cls-18" cx="155.72" cy="326.55" rx="8.36" ry="8.58"/>
      <ellipse class="cls-39" cx="155.72" cy="326.55" rx="6.21" ry="6.38"/>
    </g>
    <ellipse class="cls-8" cx="1342.96" cy="443.61" rx="5.8" ry="7.96" transform="translate(-61.1 613.72) rotate(-25.19)"/>
    <ellipse class="cls-8" cx="1377" cy="456.81" rx="5.8" ry="7.96" transform="translate(-63.49 629.46) rotate(-25.19)"/>
    <circle class="cls-8" cx="1399.7" cy="505.12" r="9.74"/>
    <circle class="cls-8" cx="1442.4" cy="524.16" r="9.74"/>
    <ellipse class="cls-8" cx="1344.6" cy="403.97" rx="2.9" ry="3.98" transform="translate(-44.08 610.64) rotate(-25.19)"/>
    <path class="cls-8" d="m1474.85,580.64c2.29,4.87.2,10.67-4.67,12.96-4.87,2.29-10.67.2-12.96-4.67-2.29-4.87-.2-10.67,4.67-12.96,4.87-2.29,10.67-.2,12.96,4.67Z"/>
    <circle class="cls-8" cx="1504.7" cy="622.17" r="7.1"/>
    <ellipse class="cls-8" cx="1480.14" cy="677.82" rx="6.42" ry="7.86" transform="translate(-147.73 694.58) rotate(-25.2)"/>
    <ellipse class="cls-8" cx="1576.25" cy="588.71" rx="8.94" ry="6.27" transform="translate(-100.74 725.99) rotate(-25.16)"/>
    <path class="cls-8" d="m1599.97,537.57l-.19,10.34c-.48-.1-3.96-.9-5.4-4.04-1.22-2.68-.8-6.73,1.38-7.58,1.75-.68,3.88,1.02,4.21,1.28Z"/>
    <ellipse class="cls-8" cx="1513.61" cy="657.8" rx="4.47" ry="6.27" transform="translate(-136.04 706.68) rotate(-25.19)"/>
    <ellipse class="cls-8" cx="1466.33" cy="632.36" rx="4.47" ry="6.27" transform="translate(-129.7 684.14) rotate(-25.19)"/>
    <ellipse class="cls-8" cx="1419.41" cy="622.17" rx="4.47" ry="6.27" transform="translate(-129.83 663.21) rotate(-25.19)"/>
    <ellipse class="cls-8" cx="1502.21" cy="709.68" rx="4.47" ry="6.27" transform="translate(-159.2 706.76) rotate(-25.19)"/>
    <ellipse class="cls-8" cx="1355.82" cy="548.79" rx="8.41" ry="6" transform="translate(564.95 1779.21) rotate(-79.3)"/>
    <ellipse class="cls-8" cx="1389.63" cy="577.9" rx="6" ry="8.41" transform="translate(-113.82 646.32) rotate(-25.19)"/>
    <path class="cls-8" d="m1497.37,528.75c1.79,3.81.53,8.18-2.82,9.75-3.35,1.57-7.52-.24-9.31-4.05-1.79-3.81-.53-8.18,2.82-9.75,3.35-1.57,7.52.24,9.31,4.05Z"/>
    <path class="cls-8" d="m1474.97,485.34c1.79,3.81.53,8.18-2.82,9.75-3.35,1.57-7.52-.24-9.31-4.05-1.79-3.81-.53-8.18,2.82-9.75,3.35-1.57,7.52.24,9.31,4.05Z"/>
    <path class="cls-8" d="m1498.43,445.14c2.38,5.06.66,10.87-3.84,12.98-4.5,2.11-10.07-.27-12.45-5.33-2.38-5.06-.66-10.87,3.84-12.98,4.5-2.11,10.07.27,12.45,5.33Z"/>
    <path class="cls-8" d="m1467.52,389.77c1.67,3.55.46,7.63-2.7,9.12-3.16,1.49-7.08-.19-8.75-3.74-1.67-3.55-.46-7.63,2.7-9.12,3.16-1.49,7.08.19,8.75,3.74Z"/>
    <path class="cls-8" d="m1503.91,362.07c1.67,3.55.46,7.63-2.7,9.12-3.16,1.49-7.08-.19-8.75-3.74-1.67-3.55-.46-7.63,2.7-9.12,3.16-1.49,7.08.19,8.75,3.74Z"/>
    <circle class="cls-8" cx="1525.42" cy="584.78" r="7.1"/>
    <ellipse class="cls-8" cx="1555.11" cy="543.74" rx="7.1" ry="6.18" transform="translate(608.77 1892.25) rotate(-74.21)"/>
    <ellipse class="cls-8" cx="1535.21" cy="512.48" rx="7.1" ry="6.18" transform="translate(624.37 1850.34) rotate(-74.21)"/>
    <circle class="cls-8" cx="1556.73" cy="476.91" r="7.1"/>
    <circle class="cls-8" cx="1554.73" cy="440.03" r="4.2"/>
    <circle class="cls-8" cx="1588.45" cy="431.01" r="2.75"/>
    <path class="cls-21" d="m1415.09,702.6c10.54,33.69,44.39,49.17,42.54,51.77-1.52,2.14-26.15-6.29-47.54-26.51-11.02-10.42-19.53-22.41-25.88-20.01-3.1,1.17-4.56,5.34-4.91,8.08-2.52,19.79,43.53,41.3,52.82,45.64,13.63,6.37,38.71,17.73,72.94,16.51,11.63-.41,26.16-.84,42.49-8.03,33.11-14.59,47.69-45.41,52.29-56.47l-.06-36.15c-1.43,6.66-3.59,14.06-6.89,21.85-10.59,25.01-27.43,41.08-38.63,49.94,8.73-10.9,13.74-20.94,16.65-27.94,3.73-8.96,5.44-17.24,8.87-33.79,2.64-12.74.15-4.1,3.95-28.4,1.43-9.12,2.68-16.12-1.03-19-2.02-1.57-5.06-1.57-6.98-.94-10.56,3.5-4.81,32.09-11.85,62.04-8.02,34.13-29.36,56.01-31.18,55-2.25-1.24,18.24-42.91,23.55-85.48.1-.82.17-1.47.21-1.88.83-7.84,3.96-37.59-5.93-41.84-2.83-1.22-6.31-.16-8.34,1.42-5.63,4.37-3.04,15.31-2.88,20.9.4,13.35-.23,30.59-3.9,50.4-3.82,20.57-9.76,37.65-15.19,50.47-13.22-15.88-18.28-31-20.33-42.24-1.51-8.3-1.51-15.35-1.5-29.45.02-29.29,7.25-41.8.12-47.77-1.9-1.59-4.87-2.84-7.44-2.09-5.18,1.51-7.05,10.64-8.22,22.56-2.17,22.09-3.65,37.06,1.73,57.81,2.58,9.94,7.67,24.85,18.37,40.96-9.32-7.02-22.62-19.16-32.34-37.89-2.53-4.88-7.42-14.47-9.9-27.93-1.29-6.99-.98-16.77-.37-36.32.63-19.99.94-29.98,2.14-34.67,2.35-9.16,6.02-17.17,2.79-19.9-1.85-1.56-5.27-.84-7.41.18-4.47,2.11-8.31,7.77-10.9,37.9-1.33,15.52-2.03,23.66-1.37,36.23.91,17.3,1.42,26.97,5.85,39.44,0,0,5.5,29.46,39.34,49.48,1.29.76,2.02,1.14,2,1.17-.18.23-65.51-34.44-63.6-82.78.55-13.78,9.5-30.1,3.06-34.87-1.98-1.47-5.36-1.82-7.9-.72-4.47,1.94-5.74,8.15-6.38,11.82-4.44,25.3-7.05,38.07-2.85,51.52Z"/>
    <path class="cls-34" d="m1405.7,715.43c4.06,12.82,11.19,20.96,25.46,37.24,12.78,14.58,21.78,24.62,37.26,30.84,8.85,3.56,16.02,4.34,28.65,5.72,17.47,1.91,27.02,2.95,37.69-1.38,6.27-2.55,12.58-8.67,25.19-20.91,11.79-11.45,17.64-17.22,23.19-25.24,5.27-7.63,12.53-20.33,16.71-38.64l-.06-17.36c-1.72-.94-4.14-1.86-6.56-1.17-7.46,2.12-7.91,17.99-9.8,24.26-4.16,13.79-13.79,31.81-37.69,50.65,8.52-11.07,13.34-21.19,16.12-28.25,3.56-9.03,5.12-17.34,8.24-33.95,2.4-12.78.07-4.1,3.42-28.47,1.26-9.14,2.38-16.16-1.38-18.98-2.05-1.53-5.09-1.48-7-.81-10.49,3.7-4.21,32.18-10.69,62.25-7.38,34.28-28.31,56.54-30.15,55.57-2.27-1.2,17.43-43.24,21.95-85.91.09-.82.14-1.47.18-1.88.68-7.86,3.26-37.65-6.71-41.72-2.85-1.16-6.31-.04-8.31,1.57-5.54,4.47-2.76,15.37-2.48,20.95.65,13.34.34,30.59-2.96,50.47-3.43,20.64-9.06,37.83-14.24,50.74-13.51-15.63-18.86-30.66-21.12-41.85-1.67-8.27-1.79-15.32-2.05-29.42-.53-29.29,6.46-41.93-.77-47.76-1.93-1.55-4.92-2.75-7.48-1.95-5.15,1.6-6.85,10.77-7.8,22.71-1.76,22.13-2.95,37.12,2.81,57.76,2.76,9.89,8.13,24.7,19.13,40.61-9.45-6.84-22.97-18.73-33.05-37.28-2.63-4.83-7.69-14.33-10.42-27.74-1.42-6.97-1.3-16.75-1.05-36.31.25-20,.38-29.99,1.49-34.7,2.18-9.2,5.7-17.27,2.42-19.95-1.87-1.53-5.28-.74-7.4.31-4.43,2.19-8.17,7.93-10.19,38.1-1.04,15.54-1.59,23.7-.7,36.25,1.23,17.28,1.92,26.94,6.58,39.33,0,0,6.05,29.35,40.26,48.74.34.19,1.97.47,2.02,1.13.08,1.06-3.87,2.13-4.55,2.32-9.53,2.61-65.74-38.31-60.58-83.9,1.54-13.63,8.86-30.33,2.41-34.92-2.01-1.43-5.4-1.72-7.91-.57-4.43,2.03-5.58,8.25-6.16,11.94-3.98,25.45-6.13,38.15-1.88,51.56Z"/>
    <path class="cls-22" d="m1442.39,623.76c.61-3.2.14-2.8.75-6.24.83-4.71,1.39-7.6,3.64-8.85,1.29-.72,3.19-.92,3.82-.13.87,1.09-1.39,3.18-2.78,7.89-.44,1.5-.65,3.29-1.05,6.88-.73,6.41-.43,8.49-1.82,9.18-1.08.54-2.75.03-3.51-.97-1.06-1.39.09-3.17.96-7.77Z"/>
    <path class="cls-22" d="m1408.68,673.99c.46-3.6-.06-3.14.38-7,.61-5.3,1.04-8.56,3.63-10.05,1.49-.85,3.74-1.16,4.56-.3,1.13,1.19-1.4,3.62-2.68,8.94-.41,1.7-.5,3.71-.7,7.73-.35,7.2.18,9.51-1.42,10.34-1.25.65-3.29.14-4.29-.94-1.38-1.51-.16-3.55.51-8.73Z"/>
    <path class="cls-22" d="m1474.97,659.49c.35-3.24-.08-2.81.24-6.27.45-4.76.77-7.69,2.92-9.12,1.23-.82,3.1-1.18,3.79-.44.95,1.02-1.13,3.28-2.13,8.09-.32,1.53-.38,3.33-.5,6.94-.21,6.45.25,8.5-1.08,9.3-1.03.62-2.74.25-3.58-.68-1.16-1.3-.17-3.16.33-7.82Z"/>
    <path class="cls-22" d="m1544.14,656.33c-.52-3.21-.06-2.81-.58-6.25-.7-4.73-1.18-7.64-3.4-8.95-1.27-.75-3.16-1.01-3.81-.23-.9,1.07,1.3,3.22,2.56,7.97.4,1.51.56,3.31.86,6.9.55,6.43.2,8.5,1.57,9.23,1.06.57,2.75.11,3.54-.87,1.09-1.36,0-3.17-.74-7.79Z"/>
    <path class="cls-22" d="m1568.3,666.74c.44-3.23.75-2.7,1.27-6.15.7-4.73,1.1-7.65-.65-9.55-1-1.09-2.73-1.88-3.58-1.33-1.17.76.31,3.46.13,8.37-.06,1.56-.43,3.33-1.18,6.86-1.34,6.31-2.28,8.19-1.19,9.29.85.85,2.6.9,3.64.2,1.44-.98.92-3.03,1.55-7.67Z"/>
    <path class="cls-22" d="m1594.07,706.95c1.31-2.89,1.33-2.35,2.75-5.43,1.96-4.22,3.15-6.84,2.75-8.9-.23-1.18-.98-2.22-1.66-1.86-.93.49-.95,3.24-2.66,7.72-.54,1.43-1.34,2.98-2.94,6.1-2.85,5.57-4.01,7.13-3.73,8.33.22.94,1.23,1.29,2.06.83,1.17-.65,1.53-2.63,3.42-6.78Z"/>
    <path class="cls-22" d="m1567.23,685.73c.34-1.22.67-1.02,1.08-2.32.56-1.79.86-2.9-.91-3.68-1.02-.45-2.76-.8-3.58-.61-1.13.26.41,1.34.37,3.21-.01.6-.33,1.26-.97,2.6-1.15,2.38-2.02,3.08-.91,3.53.87.35,2.6.42,3.61.18,1.4-.34.83-1.14,1.32-2.9Z"/>
    <path class="cls-22" d="m1438.57,642.33c.23-1.18-.15-1.16.06-2.44.29-1.76.51-2.83,2.43-2.66,1.1.09,2.8.6,3.45,1.13.89.74-.95.93-1.74,2.52-.25.51-.26,1.21-.28,2.62-.03,2.52.44,3.51-.75,3.37-.92-.1-2.49-.84-3.28-1.51-1.1-.92-.23-1.33.1-3.03Z"/>
    <ellipse class="cls-20" cx="1356.96" cy="604.29" rx="2.63" ry="5.51" transform="translate(546.07 1848.87) rotate(-80.92)"/>
    <ellipse class="cls-20" cx="1370.07" cy="676.49" rx="2.63" ry="5.51" transform="translate(485.81 1922.61) rotate(-80.92)"/>
    <ellipse class="cls-20" cx="1324.45" cy="624.59" rx="2.63" ry="5.51" transform="translate(498.64 1833.85) rotate(-80.92)"/>
    <ellipse class="cls-20" cx="1337.13" cy="545.26" rx="5.32" ry="2.73" transform="translate(-58.93 914.35) rotate(-36.99)"/>
    <ellipse class="cls-20" cx="1335.57" cy="695.12" rx="5.39" ry="2.69" transform="translate(-169.4 650.46) rotate(-25.8)"/>
    <ellipse class="cls-20" cx="1347.17" cy="752.62" rx="1.81" ry="3.54" transform="translate(391.36 1964.11) rotate(-80.92)"/>
    <ellipse class="cls-20" cx="1303.36" cy="643.26" rx="1.81" ry="3.54" transform="translate(462.45 1828.75) rotate(-80.92)"/>
    <ellipse class="cls-20" cx="1308.55" cy="579.78" rx="1.81" ry="3.54" transform="translate(529.5 1780.41) rotate(-80.92)"/>
    <ellipse class="cls-20" cx="1245.05" cy="661.29" rx="4.81" ry="2.45" transform="translate(-104.53 253.77) rotate(-11.17)"/>
    <ellipse class="cls-20" cx="1267.47" cy="711.6" rx="4.81" ry="2.45" transform="translate(-113.86 259.06) rotate(-11.17)"/>
    <ellipse class="cls-20" cx="1205.09" cy="696.64" rx="4.81" ry="2.45" transform="translate(-112.14 246.69) rotate(-11.17)"/>
    <ellipse class="cls-20" cx="1200.24" cy="610.7" rx="4.81" ry="2.45" transform="translate(76 1352.06) rotate(-60.37)"/>
    <ellipse class="cls-20" cx="1240.98" cy="754.91" rx="5.56" ry="3.51" transform="translate(-142.94 1196.13) rotate(-49)"/>
    <ellipse class="cls-20" cx="1225.41" cy="727.78" rx="3.09" ry="1.69" transform="translate(-117.79 251.21) rotate(-11.17)"/>
    <ellipse class="cls-2" cx="1197.54" cy="666.49" rx="3.09" ry="1.69" transform="translate(-148.58 409.04) rotate(-18.27)"/>
    <path class="cls-25" d="m770.03,332.59c10.26-3.53,22.12-13.86,23.04-27,.98-14.04-10.99-24.43-23.74-35.49-7.86-6.83-16.32-14.16-29.32-16.2-6.29-.99-22.81-3.58-32.11,8.49-9.54,12.38-4.07,30.56-3.49,32.4,4.32,13.7,14.72,20.13,25.83,27,12.72,7.87,25.44,15.74,39.79,10.8Z"/>
    <path class="cls-25" d="m710,273.94c-1.49-4.57-4.49-11.11-10.77-13.29-8.48-2.95-15.07,4.79-24.69,2.03-7.22-2.07-13.98-9.45-13.07-16.79,1.07-8.58,12.2-13.87,20.87-13.91,9.94-.04,16.62,6.83,21.57,11.92,8.53,8.78,11.28,18.46,12.28,23.77-2.06,2.09-4.13,4.18-6.19,6.27Z"/>
    <path class="cls-25" d="m720.93,280.53c-8.3.66-14.7,3.11-18.71,5.02-3.85,1.83-9.81,4.75-15.5,11.18-3.22,3.63-7,7.9-8.38,14.66-1.48,7.26-.35,18.1,4.89,20.06,3.68,1.38,8.85-1.84,11.17-6.17,3.29-6.14-.76-11.5.7-17.75,1.22-5.22,6.44-11.72,25.13-16.2.23-3.6.47-7.2.7-10.8Z"/>
    <path class="cls-25" d="m734.64,264.81c2.1-8.9,5.44-15.41,7.87-19.42,2.33-3.85,6.01-9.79,12.77-14.81,3.82-2.83,8.31-6.16,14.57-6.44,6.72-.29,16.17,2.92,16.96,8.96.56,4.25-3.25,9.28-7.52,11.02-6.06,2.46-10.1-2.92-15.92-2.47-4.87.37-11.6,4.87-18.99,24.36-3.25-.4-6.49-.8-9.74-1.21Z"/>
    <path class="cls-25" d="m766.58,315.72c-9.1,4.7-15.39,13.83-16.06,23.92-1.36,20.71,21.83,33.16,24.43,30.86,1.95-1.72-3.81-15.04-6.98-22.37-2.77-6.41-4.25-8.56-4.19-12.34.11-7.02,5.39-12.61,9.77-16.2-2.33-1.29-4.65-2.57-6.98-3.86Z"/>
    <path class="cls-25" d="m784.01,290.6c8.39-6.11,18.72-7.27,26.84-2.62,16.69,9.55,14.16,37.91,11.02,39.16-2.34.93-9.61-11.46-13.61-18.28-3.49-5.96-4.38-8.48-7.33-10.4-5.47-3.57-12.55-1.51-17.61.73.23-2.86.45-5.73.68-8.59Z"/>
    <path class="cls-25" d="m780.27,322.93c.92.62,8.02,5.34,9.25,4.02,1.32-1.43-4.98-9.12-5.48-9.72-1.26,1.9-2.51,3.8-3.77,5.7Z"/>
    <path class="cls-25" d="m1325.56,308.31c-2.72.03-23.9-.02-30.84-12.51-.25-.45-4.52-8.34-.99-12.25,3.25-3.61,11.22-1.72,14.95-.26,13.33,5.23,16.42,22.21,16.89,25.02Z"/>
    <path class="cls-25" d="m1325.56,308.31c-2.89.87-18.35,5.76-21.91,18.05-1.16,3.99-1.65,10.83,1.66,12.64,3.82,2.1,11.36-3.22,15.27-7.97,6.92-8.42,5.63-18.99,4.98-22.72Z"/>
    <path class="cls-25" d="m1325.56,308.31c1.83-3.18,16.31-27.39,47.55-32.77,28.46-4.9,49.48,9.49,52.94,11.95-2.82,4.92-13.57,22.24-36.24,30.06-32.94,11.36-61.64-7.46-64.25-9.24Z"/>
    <path class="cls-25" d="m1386.46,275.14c-.28-2.23-1.39-8.67-6.43-11.33-5.56-2.94-12.35.6-21.24,5.26-7.13,3.73-15.32,8.02-15,13.77.16,2.86,2.37,5.09,4.13,6.48,12.84-4.73,25.69-9.45,38.53-14.18Z"/>
    <path class="cls-25" d="m1361.88,316.76c-2.24,3.96-4.71,5.5-6.76,6.09-2.73.79-4.8-.07-5.8,1.22-1.07,1.39-.05,4.19,1.61,5.79,3.23,3.11,8.91,1.72,9.66,1.52,7.83-2.02,10.41-11.08,10.63-11.88-3.11-.91-6.22-1.83-9.34-2.74Z"/>
  </g>
  <g id="dykker_venstre">
    <circle class="cls-30" cx="265.85" cy="201.4" r="8.62"/>
    <circle class="cls-30" cx="253.61" cy="147.6" r="11.46"/>
    <circle class="cls-30" cx="285.92" cy="104.72" r="14.79"/>
  </g>
  <g id="dykker_hojre">
    <circle class="cls-30" cx="265.85" cy="201.4" r="8.62"/>
    <circle class="cls-30" cx="253.61" cy="147.6" r="11.46"/>
    <circle class="cls-30" cx="285.92" cy="104.72" r="14.79"/>
  </g>
</svg>