<?xml version="1.0" encoding="UTF-8"?>
<svg id="dykker_venstre" xmlns="http://www.w3.org/2000/svg" viewBox="0 0 565 881">
  <defs>
    <style>
      .cls-1 {
        opacity: .64;
      }

      .cls-1, .cls-2, .cls-3, .cls-4, .cls-5, .cls-6, .cls-7, .cls-8, .cls-9, .cls-10, .cls-11, .cls-12, .cls-13, .cls-14, .cls-15, .cls-16, .cls-17, .cls-18, .cls-19, .cls-20, .cls-21, .cls-22, .cls-23, .cls-24 {
        stroke-width: 0px;
      }

      .cls-1, .cls-5 {
        fill: #4f5dab;
      }

      .cls-2 {
        fill: none;
      }

      .cls-3 {
        fill: #5fcbff;
        opacity: .76;
      }

      .cls-4 {
        fill: #f4c363;
      }

      .cls-6 {
        fill: #5b5b5b;
      }

      .cls-7 {
        fill: #262626;
      }

      .cls-8 {
        fill: #264584;
      }

      .cls-9 {
        fill: #091434;
      }

      .cls-10 {
        fill: #150055;
      }

      .cls-11 {
        fill: #070035;
      }

      .cls-12 {
        fill: #0b0035;
      }

      .cls-13 {
        fill: #162048;
      }

      .cls-14 {
        fill: #cbcbcb;
      }

      .cls-15 {
        fill: #9c9c9c;
      }

      .cls-16 {
        fill: #f2bf9c;
      }

      .cls-17 {
        fill: #ffda74;
      }

      .cls-18 {
        fill: #e5a642;
      }

      .cls-19 {
        fill: #ffd274;
      }

      .cls-20 {
        fill: #f5f5f5;
      }

      .cls-21 {
        fill: #000255;
      }

      .cls-22 {
        fill: #000735;
      }

      .cls-23 {
        fill: #0090f4;
      }

      .cls-24 {
        fill: #008ae9;
      }
    </style>
  </defs>
  <path class="cls-4" d="m351.84,370.39c-1.64,1.88-2.34,3.6-2.07,5.16,1.25,7.47,24.37,11.28,69.37,11.42,2.46-2.6,6.27-7.08,9.56-13.38,6.93-13.28,5.81-23.77,8.92-43.98,2.25-14.65,3.19-11.39,5.74-26.77,4.26-25.69,3.69-47.03,3.19-63.1-.07-2.11-.34-10.6-1.27-22.31-1.81-22.67-4.79-41.31-7.29-54.54-6.11-2.23-15.26-4.84-26.6-5.43,0,0-19.17.37-37.84,6.07-24.53,7.49-33.63,94.37-21.7,206.85Z"/>
  <path class="cls-9" d="m406,312.14c-3.69,4.76-7.37,9.51-11.06,14.27,14.23,1.06,28.45,2.13,42.68,3.19.91-1.12,2.54-3.42,3.28-6.78.78-3.54.17-6.45-.22-7.85-11.56-.95-23.12-1.89-34.68-2.84Z"/>
  <path class="cls-9" d="m421.63,227.34c.1,4.64.2,9.28.29,13.93,8.27-.1,16.55-.2,24.82-.3.13-1.78.19-3.74.12-5.86-.1-2.93-.43-5.56-.85-7.84-8.13.02-16.26.04-24.39.07Z"/>
  <path class="cls-11" d="m194.18,460.84c2.39,1.88,6.83,5.9,9.37,12.5,3,7.78,3.47,19.39-2.84,26.13-5.69,6.08-11.73,2.68-17.04,9.09-1.07,1.29-2.32,3.22-4.55,19.03-2.04,14.5-1.86,19.02-5.68,23.01-3.09,3.23-7.15,4.36-9.94,4.83.15-2.95.46-7.17,1.14-12.21.43-3.22,1.32-9.05,4.54-22.16,2.43-9.87,3.65-14.81,5.12-19.14,3.08-9.04,6.33-15.5,10.79-24.32,3.5-6.95,6.7-12.65,9.09-16.76Z"/>
  <path class="cls-11" d="m83.2,334.3c2.34,1.49,8.24,5.68,9.37,12.5,1.54,9.25-6.71,17.23-9.95,20.37-9.25,8.95-15.92,6.85-19.22,14.03-2.17,4.72.55,5.99-.3,19.22-.34,5.29-.7,10.34-2.75,16.17-2.52,7.18-6.43,12.25-9.15,15.25-1.32-3.15-3.09-7.63-4.88-13.12-1.83-5.61-3.48-11.65-4.27-15.56-1.21-5.94-4.74-23.35,4.11-40.4,6.04-11.64,15.13-17.87,18.77-20.3,7.06-4.72,13.77-7,18.27-8.16Z"/>
  <path class="cls-2" d="m373.48,150.35c14.45-.21,28.91.05,43.35.78"/>
  <path class="cls-12" d="m378.11,167.53c-.72-2.13.34-1.83-.01-11.8-.13-3.78,0-7.44.28-14.75.09-2.3.17-3.97,1.39-5.29,1.26-1.37,3.95-1.8,4.77-1.96,1.49-.3,2.42-.25,2.47-.54.11-.66-4.68-.9-5.57-3.34-.57-1.58.56-3.9,2.23-4.73,1.88-.94,4.24.15,7.76,2.39,8.54,5.46,13.1,10.57,13.1,10.57,4,4.47,11.17,12.68,15.2,25.78,1.82,5.94,2.69,8.89,1.52,11.07-4.85,8.99-38.89,5.05-43.12-7.4Z"/>
  <path class="cls-16" d="m515.69,357.76c-1.55,1-3.64,2.65-5.42,5.21-.7,1-1.23,1.98-1.65,2.87-.11.3-.26.75-.44,1.29-.22.68-.48,1.6-.97,3.82-.35,1.59-.53,2.38-.59,2.88-.17,1.37-.06,1.83-.11,3.24-.04,1.03-.22,2.18-.58,4.44-.4,2.49-.74,4.37-.8,4.69,0,0-.46,2.51-1.5,7.56h0c.17,2.23.67,2.87,1.13,3,1.51.45,4.96-3.85,6.24-8.62.74-2.75.3-3.97,1.61-6.85.6-1.33,1.96-4.33,3.57-4.19,1.64.15,2.51,3.44,2.56,3.65.41,6.17.63,11.12.76,14.53,0,0,.16,4.19.81,11.67,0,0,.26,2.99,1.18,7.02,1.28,5.61,2.24,6.12,2.76,6.2.44.07,1.24-.07,2.42-1.61.25-1.97.55-4.96.6-8.63.03-2.37-.06-3.29-.31-8.82-.46-10.12-.43-13.37,1.49-14.5.7-.41,1.44-.42,1.86-.39.43,1.01.93,2.35,1.37,3.96.26.93.57,2.24.87,4.22.41,2.76.45,4.52.56,6.33.09,1.39.49,4.12,1.31,9.59.72,4.82,1.07,6.78,2.74,8.55.55.58,1.63,1.72,2.58,1.45,2.02-.56,1.9-6.97,1.87-8.48-.02-1.09-.08-1.11-.68-6.64-.62-5.66-.5-5.08-.67-6.24-.43-2.8-.87-4.43-1.22-7.85-.32-3.1-.17-3.87.22-4.03.68-.28,1.98,1.42,2.36,1.91,1.34,1.75,1.84,3.46,2.03,4.12.78,2.65,1.78,5.24,2.58,7.89.54,1.78,1.24,4.1,2.34,7.05.74,2,1.38,3.52,2.79,4.97.55.56,2.35,2.4,3.35,1.92,1.38-.65.48-5.33.06-7.51-.41-2.13-.89-3.73-2.24-7.64-1.59-4.63-2.97-8.34-3.77-13.36-.37-2.33-.35-3.25,0-3.39.34-.14,1.03.48,4.51,5.82,1.55,2.37,3.23,4.66,4.68,7.09,1.6,2.66,2.39,4.27,4.01,4.52.75.11,1.84-.04,2.36-.75.78-1.05-.1-2.76-1.82-6.47-2.92-6.32-1.36-3.49-2.78-6.18-3.66-6.95-7.31-13-8.23-14.52-2.59-4.28-4.88-8.04-6.78-11.13-9.68-1.23-19.36-2.47-29.04-3.7Z"/>
  <path class="cls-16" d="m148.28,90.45c2.62-3.98,3.14-7.27,3.26-9.02.12-1.74-.04-3.79-.12-4.77-.1-1.33-.24-2.99-.7-5.12-.38-1.74-.82-3.11-1.67-5.69-.06-.18-.15-.49-.31-.88-.27-.7-.53-1.15-.93-2.12-.39-.95-.7-2.08-1.3-4.29-.67-2.43-1.13-4.28-1.21-4.61,0,0-.61-2.48-1.75-7.51-1.07-1.96-1.79-2.33-2.26-2.27-1.56.22-2.93,5.56-2.13,10.42.46,2.81,1.36,3.74,1.36,6.91,0,1.46,0,4.75-1.53,5.29-1.55.54-3.7-2.1-3.84-2.27-2.92-5.45-5.16-9.87-6.69-12.92,0,0-1.87-3.75-5.55-10.3,0,0-1.47-2.62-3.97-5.91-3.48-4.58-4.57-4.65-5.07-4.52-.43.12-1.1.58-1.54,2.47.59,1.89,1.55,4.75,3.01,8.11.95,2.17,1.41,2.97,3.92,7.9,4.59,9.03,5.91,12,4.63,13.82-.47.66-1.14.98-1.53,1.12-.8-.75-1.82-1.76-2.88-3.05-.62-.74-1.44-1.8-2.53-3.49-1.51-2.34-2.27-3.94-3.12-5.54-.65-1.23-2.15-3.55-5.15-8.2-2.64-4.1-3.77-5.74-6.02-6.66-.74-.3-2.19-.89-2.95-.26-1.61,1.34,1.14,7.13,1.79,8.5.47.98.53.98,3.36,5.77,2.9,4.91,2.55,4.42,3.19,5.41,1.55,2.38,2.62,3.67,4.35,6.65,1.57,2.69,1.75,3.46,1.46,3.76-.51.53-2.39-.48-2.93-.77-1.95-1.04-3.11-2.4-3.55-2.92-1.81-2.1-3.78-4.04-5.6-6.12-1.23-1.4-2.82-3.22-5.04-5.46-1.5-1.52-2.71-2.64-4.59-3.37-.73-.28-3.13-1.22-3.85-.37-.99,1.16,1.76,5.05,3.04,6.87,1.25,1.77,2.35,3.03,5.19,6.04,3.36,3.56,6.14,6.38,8.94,10.62,1.3,1.97,1.66,2.82,1.4,3.09-.26.27-1.13-.01-6.51-3.44-2.39-1.52-4.86-2.91-7.19-4.53-2.55-1.77-3.94-2.91-5.52-2.47-.73.2-1.66.79-1.84,1.65-.27,1.28,1.23,2.48,4.33,5.15,5.27,4.56,2.68,2.62,5.07,4.48,5.54,4.31,10.77,7.96,12.87,9.41.35.24.53.37.62.42,4.93,3.35,9.3,5.04,12.57,5.97,9.01-.33,18.02-.67,27.03-1Z"/>
  <path class="cls-8" d="m349.76,375.55c-13.27,14.89-21.64,26.42-25.28,31.27-21.31,28.31-32.96,29.33-67.08,67.08-16.34,18.07-24.5,27.11-31.04,39.04-15.99,29.21-17.15,56.56-18.02,77.09-1.75,41.28,9.14,73.1,15.02,90.1,3.66,10.59,7.36,19.18,10.11,25.16.04,2.23-.18,7.49-3.69,12.41-6.9,9.64-19.78,8.55-20.43,8.49-13.64-18.43-38.62-57.48-46.05-113.13-1.68-12.54-6.69-57.56,11.01-111.13,12.44-37.64,30.73-63.28,39.04-74.08,19.76-25.68,40.89-42.65,56.06-53.06-2.81-2.22-7.17-5.13-13.01-7.01-10.25-3.29-19.22-1.5-22.03-1-23.58,4.17-41.17-7.04-90.1-5.01-32.35,1.34-40.57,6.9-45.05,11.01-12.26,11.25-13.81,27.51-14.02,30.03-.84,10.38,2.05,18.81,9.01,33.04,6.71,13.72,16.9,32.22,32.04,53.06.62,1.17,2.1,4.35,1.6,8.51-.59,5.03-3.66,8.11-4.55,8.94-2.17,1.14-4.94,2.35-8.26,3.24-5.31,1.44-9.96,1.53-13.24,1.32-21.82-25.7-35.84-49.16-44.63-66.06-12.3-23.65-15.4-37.23-16.02-51.06-.82-18.12,3.81-28.49,5.01-31.04,0,0,6.62-14.09,23.03-25.03,22.54-15.04,97.69-24.23,198.23-20.02,5.25-4.05,15.79-13.34,22.03-29.03,8.9-22.39,2.93-42.37,1-48.05-17.34-.19-31.35-2.7-41.05-5.01-31.25-7.45-52.69-21.26-69.08-32.04-14.6-9.6-21.9-14.39-30.03-24.03-13.38-15.86-18.41-32.26-22.03-44.05-3.14-10.25-6.62-25.3-7.01-44.05,9.01-.33,18.02-.67,27.03-1,.54,7.09,1.96,17.36,6.01,29.03,3.02,8.71,14.5,40.4,46.05,59.07,15.56,9.21,29.69,11.52,51.06,15.02,17.91,2.93,33.16,3.29,44.05,3,5.82-.73,13.84-2.73,18.02-9.01,4.03-6.05,1.74-11.92,3-17.02,1.96-7.87,13.13-16.78,54.06-21.02-.43,2.54-1.42,10.2,3,14.02,3.03,2.61,7.21,2.23,10.01,2,9.65-.78,19.43.26,29.03-1,11.7-1.54,25.49,5.98,53.06,21.02,17.86,9.74,30.15,18.59,39.04,25.03,15.29,11.08,22.94,16.62,31.04,26.03,1.74,2.02,14.23,16.77,21.02,36.04,14.51,41.18-4.64,81.41-9.01,90.1l-32.04-5.01c4.01-6.76,12.22-22.79,11.01-44.05-.58-10.24-3.38-18.67-5.21-23.4-.91-2.35-4.26-10.64-11.81-20.65-9.37-12.42-19.01-18.96-33.04-29.03-1.06-.76-17.03-12.14-31.04-18.02-8.35-3.5-20.11-6.78-20.29-6.82,0,0,0,0,0,0-.34-.09-.71-.18-.73-.18-.4,0,.35,31.65-2,50.06-3.47,27.14-16.42,46.73-20.02,52.06-4.88,7.21-15.6,18.49-37.04,41.05-7.16,7.53-10.05,10.38-15.76,16.79Z"/>
  <path class="cls-12" d="m121.25,91.45c-.23.62-.54,1.66-.51,2.99.04,1.43.46,2.52.75,3.14,2.91,0,5.29-.07,6.94-.15,3.72-.18,7.22-.51,11.93-.3.25.01.49.02.82.04,3.4.2,6.1.72,7.97,1.16.02-1.14-.03-2.43-.17-3.82-.16-1.51-.41-2.87-.7-4.05-1.47.04-2.95.09-4.42.13-4.31.02-8.77.13-13.35.33-3.16.14-6.24.32-9.26.54Z"/>
  <path class="cls-12" d="m517.97,353.66c-.28.04-1.86.26-2.93,1.7-1.23,1.66-.73,3.54-.66,3.76,1.58,1.01,3.86,2.3,6.77,3.38,4.8,1.78,8.77,2.04,12.73,2.26,3.17.18,7.47.19,12.56-.53.41-.18,1.65-.77,2.47-2.2.77-1.34.71-2.62.66-3.08-4.12-.05-7.59-.25-10.19-.45-6.04-.46-9.78-.77-14.45-2.16-2.98-.89-5.35-1.92-6.96-2.7Z"/>
  <path class="cls-23" d="m149.85,354.42c1.04-1.78,3.46-5.8,7.18-10.42.95-1.18,4.73-5.81,13.19-13.19,4.33-3.78,10.18-8.54,17.52-13.59,6.93-.16,13.86-.31,20.79-.47-2.6,1.34-6.37,3.48-10.54,6.65-4.71,3.58-7.62,6.73-12.96,12.5-5.18,5.6-7.77,8.4-10.65,12.73-3.39,5.11-5.52,9.79-6.83,13.14-7.14-.06-14.27-.12-21.41-.18.9-1.97,2.11-4.43,3.7-7.18Z"/>
  <path class="cls-23" d="m301.77,417c-2.73-.79-8.95-2.48-16.99-3.54-7.25-.96-14.06-1.13-25.38-.64-9.32.4-21.65,1.25-36.3,3.12-2.63,2.73-5.39,5.85-8.17,9.38-2.62,3.32-4.88,6.54-6.84,9.57,4.31-1.19,10.45-2.6,17.94-3.33,8.41-.83,14.65-.44,24.47.17,10.08.62,15.33.95,22.53,2.57,7.93,1.79,14.24,4.25,18.49,6.16,3.8-3.13,7.71-6.54,11.7-10.24,3.34-3.11,6.46-6.18,9.37-9.18-.58-.33-1.46-.79-2.56-1.3-3.51-1.62-6.43-2.2-8.27-2.73Z"/>
  <path class="cls-24" d="m525.33,332.59c-.8,2.45-1.62,4.91-2.47,7.4-1.6,4.67-3.23,9.23-4.9,13.66,1.72-.49,4.16-1.23,7.04-2.27,2.35-.85,10.66-3.96,15.76-7.23,8.55-5.49,12.13-14.02,15.61-22.06,2.03-4.68,4.62-12.04,5.62-21.63-.18-5-.78-10.98-2.29-17.58-2.07-9.08-5.18-16.49-8.01-22.02.46,5.17.62,11.79-.32,19.39-1.44,11.68-4.77,20.1-6.66,24.77-2.44,6.03-4.65,11.41-9.37,17.48-3.6,4.64-7.28,7.93-10.02,10.08Z"/>
  <path class="cls-24" d="m124.66,121.54c-.81-2.71-1.56-5.83-2.11-9.33-.62-3.97-.84-7.57-.86-10.69,2.25.84,5.47,2.16,9.15,4.12,3.22,1.71,11.96,6.63,20.79,15.97,2.5,2.65,5.74,6.42,9.02,11.36,3.17,5.23,6.35,10.47,9.52,15.7,3.06,4.62,6.13,9.24,9.19,13.87-2.94-.93-7.26-2.6-11.86-5.68-3.83-2.57-5.91-4.81-12.36-11.36-7.08-7.19-10.64-10.77-11.86-11.86-3.92-3.49-9.92-8.05-18.63-12.1Z"/>
  <path class="cls-24" d="m393.23,165.21c.76,3.45,1.66,7.05,2.73,10.75.47,1.64.96,3.23,1.46,4.79,3.37.27,7.97.76,13.38,1.7,4.68.81,11.83,1.87,19.71,4.87,8.1,3.08,7.75,3.94,17.39,8.11,8.85,3.83,15.88,6.03,21.79,7.88,6.9,2.16,12.42,3.88,20.17,5.33,5.98,1.12,11.08,1.66,14.82,1.94-4.71-4.05-11.41-9.45-19.92-15.15-9.11-6.1-16.3-9.79-30.32-16.92-17.51-8.9-26.43-13.38-34.72-14.66-11.1-1.72-20.52-.14-26.49,1.35Z"/>
  <path class="cls-24" d="m251.39,193.57l9.99,5.09c5.23-.01,9.68.38,13.13.82,5.02.64,8.9,1.53,11.77,2.19,3.31.76,6.12,1.54,8.26,2.16.17-1.25.34-2.52.5-3.81.14-1.16.28-2.32.4-3.46-8.84-1.6-18.86-2.8-29.88-3.11-4.95-.14-9.68-.09-14.17.11Z"/>
  <path class="cls-19" d="m193.66,871.95c.82,5.74,2.43,6.51,3.16,7.09,5.01,3.99,14.7-.11,16.48-2.48.13-.17.66-.92,1.54-1.81.93-.94,1.81-1.57,2.35-1.93.58.97,2.39,3.72,5.86,4.89,4.37,1.48,8.23-.6,9.79-1.44,3.76-2.03,5.63-5.14,6.37-6.59.86.84,2.16,1.96,3.93,2.95,1.24.69,4.14,2.3,7.56,2.2,0,0,3.99-.12,7.99-3.51,7.05-5.96,6.29-23.2,5.26-35.67-1.97-23.84-2.95-35.76-8.64-47.24-1.2-2.41-7.87-15.5-21.89-25.06-7.18-4.9-9.78-4.44-10.95-4.03-5.73,1.99-4.61,12.28-10.37,28.23-3.64,10.08-4.84,8.06-9.79,19.88-6.25,14.92-7.94,26.73-9.51,37.74,0,0-1.48,10.36.86,26.79Z"/>
  <path class="cls-10" d="m209.35,726.18c1.36,3.27,3.05,8.06,4.12,14.02,1.53,8.56,1.3,16.86-.76,28-2.33,12.62-4.3,14.3-13.62,43.13-.16.5-3.86,12.01-7.57,27.62-2.69,11.33-3.51,16.88-2.27,23.46,1.42,7.51,4.91,13.14,7.57,16.65-1.22-4.21-2.66-10.65-2.65-18.54,0-6.86,1.1-12.09,2.27-17.02,4.42-18.74,10.04-34.33,13.62-43.88,2.36-6.31,5.66-14.86,9.84-24.97-.66,3.39-1.71,8.61-3.16,14.98-1.84,8.13-2.65,10.75-3.59,15.27-1.51,7.2-1.91,12.24-2.69,22.15-1.2,15.08-1.8,22.61-.6,32.63.86,7.22,2.32,13.06,3.44,16.91,1.3-1.25,2.59-2.49,3.89-3.74-.87-2.58-1.94-6.23-2.68-10.69-.64-3.82-.83-6.97-.91-9.51-.21-6.53.13-13.99,1.83-29.01.85-7.51,1.53-13.4,2.86-21.43,1.6-9.63,2.91-14.92,3.77-18.14.94-3.53,1.86-6.47,2.56-8.6.54-2.72,1.09-5.44,1.63-8.17,1.7-.14,3.4-.27,5.1-.41.72,2.28,1.66,5.41,2.62,9.17.67,2.61,2.62,10.47,4.12,21.66.29,2.13,1.11,8.5,1.61,17.15,1.25,21.46-.05,46.93-.49,54.86,1.31.98,2.62,1.97,3.93,2.95.92-6.8,1.87-15.97,2.13-26.85.45-18.67-1.35-32.85-2.46-41.26-1.24-9.42-3.26-21.31-6.71-34.88,2.41,1.63,5.77,4.25,9.01,8.19.55.67,3.06,3.77,5.68,9.01,0,0,3.19,6.39,4.97,13.92,2.15,9.13,3.91,35.36,2.95,70.58,1.95-1.54,4.75-4.18,6.71-8.19,2.8-5.72,2.37-11.15,2.15-13.97-.87-11.25-1.08-22.55-2.3-33.76-2.09-19.09-1.48-19.15-3.16-29.9-1.23-7.86-2.29-14.5-4.87-23.07-2.67-8.89-5.82-16.04-8.35-21.12-.31-1.4-.66-3.58-.49-6.22.28-4.5,1.81-6.35,2.62-10.15.22-1.03,1.56-7.29-.82-11.95-3.84-7.54-15.76-7.7-16.7-7.7-.72,3.51-2.01,6.05-2.98,7.63-3.93,6.41-10,9.17-13.39,10.71-3.1,1.41-5.85,2.15-7.75,2.55Z"/>
  <path class="cls-19" d="m5.56,609.67c-1.77,2.7-2.16,5.2-2.49,6.35-1.27,4.41-3.25,11.32.12,15,1.56,1.7,3.73,2.14,6.89,2.78,2.62.53,4.81.97,6.91-.07.82-.41,1.45-.95,2.81-1.31,1.3-.34,2.45-.3,3.24-.2.16.3.41.73.74,1.21,2.61,3.74,6.71,4.94,8.3,5.4,3.87,1.13,7.24.69,9.09.29.45,1.43,1.05,3.01,1.85,4.69,1.09,2.3,2.29,4.21,3.4,5.76,0,0,3.07,2.55,8.32,2.66,9.23.19,20.06-13.24,27.54-23.27,14.3-19.18,21.45-28.76,24.78-41.14.7-2.6,4.35-16.83.17-33.28-2.14-8.42-4.4-9.8-5.54-10.27-5.61-2.3-11.58,6.16-26.46,14.31-9.4,5.15-8.97,2.84-20.5,8.42-14.56,7.05-23.64,14.79-32.1,22.01,0,0-7.96,6.79-17.08,20.66Z"/>
  <path class="cls-10" d="m101.81,510.92c-.92,3.42-2.5,8.25-5.29,13.62-4,7.72-9.25,14.15-17.67,21.73-9.54,8.58-12.13,8.71-37.09,25.87-.43.3-10.38,7.17-22.84,17.27-11.1,9.01-14.09,12.59-16.1,17.21-3.94,9.02-2.24,18.13-.78,23.24.51-4.18,1.77-10.34,5.3-16.86,3.55-6.55,7.83-10.57,12.34-14.56,18.47-16.33,35.24-27.18,37.93-28.91,5.57-3.58,13.38-8.41,23.02-13.79-2.59,2.28-6.61,5.78-11.64,9.95-6.42,5.32-8.66,6.91-12.16,9.91-5.58,4.79-8.97,8.54-15.64,15.91-17.19,19.02-19.41,23.23-20.37,25.49-2.84,6.68-3.61,12.76-3.82,16.72,2.02-.5,4.03-1.01,6.05-1.51-.09-2.47.11-6.12,1.68-10.08,1.36-3.42,3.17-5.63,4.2-6.89,10.62-13.03,9.6-14.03,18.29-23.41,4.36-4.71,9.02-9.21,11.15-11.26,1.31-1.27,2.69-2.59,4.19-3.98,7.14-6.66,11.4-10.05,14.05-12.08,2.9-2.22,5.42-3.99,7.28-5.26,2.09-1.83,4.18-3.65,6.27-5.48l4.29,2.79c-.82,2.25-1.99,5.3-3.52,8.87-1.06,2.47-4.31,9.89-9.94,19.67-1.72,2.99-4.66,7.92-9.18,14.58-10.98,16.15-24.11,31.83-30.63,39.43.62,1.56,1.23,3.13,1.85,4.69,3.83-3.96,8.84-9.41,14.32-16.2,11.76-14.54,18.99-26.9,23.22-34.2,4.77-8.22,10.41-18.87,15.95-31.74.92,2.76,1.98,6.89,2.14,11.98.03.86.13,4.85-.99,10.6,0,0,0,0,0,0,0,0-1.44,6.83-4.55,14.06-2.13,4.96-16.3,26.71-39.15,53.9,2.61.09,6.92-.14,11.43-2.35,3.51-1.73,5.74-3.97,7.56-5.97,6.45-7.09,9.35-12.7,18.76-28.16,9.99-16.4,10.5-16.08,15.73-25.63.88-1.6,4.7-8.62,10.21-21.26,1.7-3.89,3.88-9.05,6.29-15.23.31-2.77,1.09-7.1,3.38-11.84.62-1.3,1.67-3.26,8.19-11.91,5.86-7.77,6.56-8.23,7.92-10.96,1.3-2.61,3.9-7.84,3.35-12.79-.86-7.66-9.28-14.36-20.51-17.22.52,1.68,2.78,9.55-1.41,14.78-2.54,3.16-6.42,4.09-13.15,5.71-4.05.97-7.49,1.35-9.88,1.52Z"/>
  <path class="cls-12" d="m398.64,101.94c9.3-1.82,17.24-3.19,23.32-4.18,1.02-.17,11.83-1.91,26.62-3.52,12.68-1.38,17.26-1.46,22.88.22,4.49,1.34,9.77,3,12.54,8.14,2.56,4.75,2.29,11.19-.88,15.4-1.46,1.94-3.33,3.12-9.9,5.5-8.53,3.08-15.3,4.69-17.82,5.28-21.58,5.1-21.14,5.02-22.44,5.28-6.65,1.34-10.92,2-18.7,3.96-3.46.87-6.29,1.66-8.14,2.2-3.67-2.86-7.33-5.72-11-8.58,3.25-.62,8.24-1.62,14.3-3.08,8.27-1.99,8.98-2.53,16.72-4.4,4.77-1.15,4.57-.96,20.02-4.4,5.79-1.29-1.46.31,11.63-3.24,0,0,3.77-1.02,8.55-3.8,1.44-.83,2.64-1.65,3.11-3.11.68-2.09-.58-4.07-.69-4.23-1.35-2.05-3.99-2.7-7.86-3-6.38-.5-11.32.31-13.64.66-9.33,1.42-7.64.28-18.26,1.76-4.35.6-6.11,1-18.04,3.3-4.63.89-10.94,2.1-18.48,3.52,2.05-3.23,4.11-6.45,6.16-9.68Z"/>
  <path class="cls-16" d="m285.85,140.35c-1.87-3.01-4.72-7.46-8.4-12.72-7.56-10.8-8.45-10.48-10.64-15.21-3.07-6.61-4.19-13.42-5.39-20.69-.47-2.86-.62-4.44-.7-5.74-.17-2.96-.2-8.32,1.39-14.43.85-3.25,2.66-10.2,7.39-15.4,3.69-4.06,8.11-5.92,27.2-9.46,16.84-3.13,25.25-4.69,29.57-4.34,3.63.3,19.1,1.89,33.4,13.2,3.63,2.87,9.05,7.26,13.22,14.95,4.21,7.79,4.85,14.75,5.39,20.69,1.12,12.24-1.25,21.89-2.61,26.43-2.09,6.99-4.57,15.31-12.17,22.61-1.36,1.3-5.04,4.65-10.68,7.31-2.4,1.13-4.57,1.87-6.7,2.33-10.74,2.32-19.5-.38-33.86-.41-13.67-.03-20.25,2.7-24.16-1.88-1.9-2.22-2.26-5.09-2.24-7.24Z"/>
  <ellipse class="cls-21" cx="340.24" cy="91.24" rx="4" ry="7.77" transform="translate(-10.91 63.29) rotate(-10.46)"/>
  <ellipse class="cls-21" cx="281.84" cy="99.01" rx="4" ry="7.77" transform="translate(-16.76 90.49) rotate(-17.72)"/>
  <path class="cls-12" d="m286.74,141.53c-.19.13-1.42-1.37-2.45-2.66-2.64-2.55-6.22-6.24-10.07-10.99-5.95-7.34-13.29-16.41-17.37-29.52-3.62-11.66-3.06-21.35-2.6-28,.5-7.31,1.48-19.87,9.12-33.65,2.71-4.88,10.39-18.33,26.48-27.13,10.38-5.67,19.42-6.78,29.74-8.03,9.81-1.19,22.95-2.8,38.86,1.89,7.85,2.31,23.53,6.94,35.14,21.79,10.23,13.1,11.83,27.14,12.62,34.05,1.49,13.07-.84,23.27-2.17,28.87-.86,3.61-3.63,14.3-10.85,26.48-4.53,7.63-8.79,14.82-17.37,21.06-7.27,5.29-14.48,7.6-19.1,8.68,6.6-9.01,10.58-17.39,13.02-23.66,2.87-7.38,5.22-13.41,5.43-21.92.31-13.1-4.68-22.66-6.08-25.18-5.95-10.75-14.29-16.15-17.58-18.23-15.12-9.54-30.65-8.62-38.64-8.03-3.83.28-33.42,2.8-43.85,20.62-2.46,4.2-3.69,8.9-3.69,8.9-2.12,8.08-.77,14.78.65,21.49,1.96,9.24,5.2,15.83,5.86,17.15,1.01,2.02,3.99,7.07,9.99,17.15,2.93,4.93,5.19,8.68,4.91,8.87Z"/>
  <path class="cls-17" d="m261.27,42.16c1.54-1.95,3.64-4.26,6.43-6.54,2.47-2.01,4.84-3.49,6.86-4.56-.21-1.36-.35-3.09-.22-5.07.11-1.61.37-3.02.66-4.18.76-1.14,2.02-2.73,3.96-4.18,1.46-1.09,2.87-1.77,3.96-2.2-.82.96-1.87,2.42-2.64,4.4-1.3,3.36-1.08,6.35-.86,7.86.88-.61,2.22-1.49,3.94-2.36,1.69-.86,3.54-1.52,9.03-3.08,4.3-1.23,6.44-1.84,9.25-2.2,3.48-.45,6.39-.37,8.37-.22.97-1.5,2.34-3.55,4.09-5.9,1.45-1.94,2.81-3.75,4.49-5.55,1.76-1.87,4.52-4.42,8.59-6.83,2.46.06,4.92.11,7.39.17-2.69,1.02-5.95,2.66-9.15,5.34-3.51,2.95-5.55,5.99-6.83,7.93-1.09,1.65-1.88,3.11-2.42,4.18,4.79-.04,8.96.17,12.33.44,3.95.31,6.94.72,9.69,1.1,3.44.47,7.89,1.17,13.07,2.2,1.09-1.27,2.66-2.93,4.77-4.62,1.21-.97,4.39-3.29,9.03-5.29,3.05-1.31,5.73-1.91,7.49-2.2,1.7.44,3.41.89,5.11,1.33-3.63.83-6.57,1.94-8.71,2.87-2.01.88-4.41,1.95-7.19,3.94-2.82,2.02-4.84,4.14-6.17,5.73,2.19.38,5.39,1.12,9.03,2.64,5.59,2.34,9.29,5.29,12.55,7.93,2.01,1.63,5.45,4.45,9.1,8.91,1.32,1.61,5.24,6.47,7.86,12.67,4.4,10.43,3.14,20.02,1.54,32.13-1.14,8.66-3.06,15.25-4.19,18.75-3.21,9.95-7.13,16.95-10.07,22.15-2.55,4.51-5.48,9.08-5.79,8.91-.35-.19,2.72-5.65,5.73-13.43,3.07-7.94,4.48-14.21,6.31-22.48,2.22-10.05,3.34-15.08,3.66-20.72.52-9.14,1.07-18.9-4.53-28.04-2.65-4.32-6.1-7.57-9.18-10.47-5.24-4.93-9.95-7.89-11.54-8.86-7.9-4.81-14.81-6.68-20.55-8.18-13.3-3.49-24.21-3.44-28.56-3.31-5.99.18-17.44.63-30.76,6-5.53,2.23-11.94,4.88-18.27,11.05-4.58,4.47-7.38,9.07-9.03,12.33.78-3.49,1.56-6.99,2.35-10.48Z"/>
  <path class="cls-15" d="m336.24,139.63c.66,1.7,1.35,3.95,1.71,6.63.43,3.18.27,5.91,0,7.92,1.15.14,2.85.32,4.92.43,2.05.1,6.2.22,16.02-.91,4.92-.57,7.38-.85,9.24-1.29,5.23-1.23,9.19-3.05,11.93-4.33,3.23-1.51,5.84-3,7.74-4.17l-4.07-11.77c-1.58.29-3.96.72-6.85,1.28-7.54,1.47-9.12,1.95-14.55,3-4.32.84-8.77,1.69-14.55,2.35-4.82.55-8.82.76-11.55.86Z"/>
  <path class="cls-15" d="m266.06,143.27c-2.68,1.34-3.62,4.23-3.85,4.92-1.17,3.58.2,6.7.64,7.7,1.42,3.22,3.87,4.92,4.92,5.56,6.99-.18,13.97-.36,20.96-.54-.91-2.14-1.83-4.81-2.49-7.94-.84-3.97-.99-7.47-.91-10.2-2.96-.22-5.45-.32-7.33-.36-.41,0-3.55-.14-7.66.17-3.36.25-3.95.52-4.28.68Z"/>
  <ellipse class="cls-6" cx="310.3" cy="148.14" rx="25.63" ry="24.71"/>
  <path class="cls-7" d="m285.31,153.36c-.17,0-1.07-4.12-.38-8.78,1.08-7.24,5.49-11.9,7.04-13.5.71-.74,3.31-3.34,7.53-5.48,9.38-4.76,18.52-3.05,21.69-2.29,2.31.56,6.16,1.54,10.25,4.57,5.4,4.01,7.71,9.02,8.14,10,3.55,7.98,3.15,19.15-2.95,25.85-3.73,4.11-9.21,6.11-11.44,6.92-2.82,1.03-5.18,1.46-6.38,1.67-5.79,1.03-10.17.51-11.12.39-2.56-.33-4.65-.89-6.11-1.36,2.07-.05,13.57-.37,21.72-3.48,3.75-1.43,5.71-3.03,6.96-4.34.49-.51,1.97-2.12,3.14-4.66,1.68-3.64,1.68-6.9,1.67-8.33-.08-7.53-4.32-12.81-5.05-13.69-5.3-6.41-12.51-7.51-15.14-7.92-5.53-.85-9.86.32-12.08.95-3.36.94-7.81,2.2-11.67,6.33-3.92,4.2-5.1,9.08-5.47,11.16-.58,3.31-.22,5.99-.36,5.99Z"/>
  <ellipse class="cls-20" cx="312.48" cy="149.41" rx="22.89" ry="21.41"/>
  <path class="cls-3" d="m297.12,121.96c2.07,3.92,7.31,4.08,11.17,4.19.63.02,14.61.3,16.42-6.66.75-2.88-.94-5.63-4.16-10.85-4.06-6.6-7.3-11.85-11.6-11.59-4.91.3-8.02,7.55-9.85,11.84-1.82,4.25-3.98,9.28-1.97,13.07Z"/>
  <path class="cls-5" d="m409.09,75.45c-1.89-2.28-7.22-2.06-17.88-1.63-3.28.13-5.99.36-7.86.54-.13-3.9-.99-10.01-5.42-14.09-1.18-1.08-4.06-3.36-22.74-4.12-2.64-.11-11.43-.42-23.34.44-14.67,1.06-16.78,2.65-17.75,3.51-2.73,2.4-4.6,6.11-9.32,7.22-1.93.46-3.68.33-4.33.27-3.92-.32-5.52-2-8.27-3-4.27-1.56-8.27-.38-14.03,1.31-2.73.81-5.33,2.12-10.54,4.76-9.56,4.84-11.52,6.96-12.41,8.03-.26.31-2.93,3.48-4.06,7.59-3.05,11.03,5.37,24.28,14.9,31.43,3.98,2.98,12.65,9.64,22.22,7.04.81-.22,9.85-2.8,12.61-9.84,1.18-3,1.31-7.04,4.72-11.83,1.15-1.61,1.65-1.88,2.08-1.99,3.17-.84,6.11,5.69,12.82,11.47,1.67,1.44,5.73,4.69,11.11,6.77,2.13.83,12.73,4.67,24.11.27,1.6-.62,9.94-3.85,15.44-11.92,3.37-4.94,4.18-9.44,8.67-11.11,2.1-.78,3.4-.31,7.31,0,3.46.27,8.53.38,14.9-.54,6.6-8.69,9.87-17.19,7.04-20.59Zm-114.64,31.78c-.36.53-1.78,2.5-4.42,4.07-.63.37-2.4,1.37-4.92,1.84-3.47.65-6.25-.09-7.82-.52-8.66-2.4-13.24-9.68-13.71-10.45-1.57-2.59-4.05-6.66-3.11-11.59.7-3.65,2.96-6.16,4.12-7.44,2.14-2.34,4.34-3.58,7.07-5.11,1.07-.6,3.59-2,7.11-3.28,3.57-1.3,5.4-1.94,7.66-1.68.78.09,3.26.41,5.47,2.3,1.36,1.16,2.01,2.42,2.6,3.49,1.31,2.38,1.71,4.62,1.85,6.03.14.9.32,2.26.49,3.9.47,4.72.79,8.23-.07,12.33-.43,2.05-.87,4-2.33,6.11Zm70.6-5.45c-.96,1.06-7.73,8.32-18.54,9.61-4.41.53-7.86-.13-9.05-.39-8.12-1.75-13.05-6.82-14.59-8.45-.45-.47-9.43-10.23-8.14-22.67.47-4.53,2.04-6.82,2.4-7.32,3.08-4.33,8.26-5.54,10.03-5.95.91-.21,2.7-.34,6.24-.6,3.6-.26,6.2-.45,9.39-.53,6.14-.15,5.52.31,13.05.34,2.85,0,10.97.04,13.8,2.56.19.17.34.33.47.48,1.72,2.02,1.91,4.41,1.99,5.62,1.18,18.23-7.03,27.28-7.03,27.28Z"/>
  <path class="cls-1" d="m258,97.59c-3.07-3.78-4.44-5.37-4.26-7.75.3-3.89,4.5-6.55,9.27-9.57,4.84-3.06,4.89-1.84,14.53-6.61,4.15-2.05,5.52-2.96,7.77-2.73,3.9.39,6.41,3.8,8.27,6.38,1.69,2.35,7.58,10.55,5.26,21.42-.79,3.72-2.34,10.97-9.52,14.81-4.94,2.64-11.26,2.99-16.28,1.14-3.52-1.3-3.18-2.49-15.03-17.09Z"/>
  <path class="cls-1" d="m318.59,68.85c-.81.81-3.49,3.65-4.68,8.16-2.48,9.39,3.45,18.43,6.81,23.55,1.56,2.38,4.49,6.76,9.78,10.49,2.95,2.08,7.35,5.18,13.19,5.36,8.33.26,14.33-5.6,17.44-8.63,8.98-8.75,10.75-19.96,11.27-23.55.88-6.07,1.69-11.68-1.28-15.62-2.8-3.73-6.8-3.07-21.27-3.26-20.34-.28-25.99-1.77-31.26,3.5Z"/>
  <g>
    <path class="cls-7" d="m308.19,155.86c.61-.46,1.55-1.14,2.97-1.56.6-.18,2.81-.75,5.31.16,1.32.48,2.16,1.17,2.58,1.52.36.3,2.43,2.02,2,2.95-.19.4-.81.59-1.3.53-.98-.12-1.12-1.18-2.19-2.03-1.16-.92-2.57-.93-3.9-.94-1.09,0-2.67-.01-4.06.94-2.06,1.4-2.16,3.83-3.5,3.84-.32,0-.68-.14-.87-.4-.47-.65.28-1.89.65-2.52.24-.39.91-1.43,2.31-2.48Z"/>
    <path class="cls-7" d="m308.96,151.06c1.14-.25,1.84-.35,1.84-.35,1.49-.2,2.04-.23,2.57-.23,1.13,0,1.45.14,1.61.38.14.2.21.53.07.76-.23.39-.88.26-2.19.29-1.47.03-2.25.05-3.21.29-.83.21-1.37.48-1.73.19-.22-.18-.33-.52-.23-.77.1-.28.44-.39,1.27-.57Z"/>
    <path class="cls-7" d="m305.22,145.71c-.54.63-2.12.28-3.12-.31-2.48-1.47-3.13-5.45-2.19-6.09.74-.5,2.59.99,3.44,1.87,1.32,1.37,2.59,3.7,1.87,4.53Z"/>
    <path class="cls-7" d="m311.52,142.82c-.8.23-1.93-.93-2.44-1.97-1.27-2.59.36-6.28,1.5-6.3.9-.02,1.62,2.25,1.85,3.45.35,1.86.15,4.51-.91,4.82Z"/>
    <path class="cls-7" d="m320.07,145.06c-.76-.35-.86-1.96-.57-3.09.72-2.79,4.37-4.52,5.24-3.79.69.57-.23,2.76-.85,3.82-.95,1.64-2.83,3.52-3.83,3.06Z"/>
    <path class="cls-7" d="m320.87,150.3c-.22-.8.94-1.92,1.99-2.43,2.6-1.25,6.27.41,6.28,1.56,0,.9-2.26,1.6-3.46,1.82-1.87.34-4.51.11-4.81-.95Z"/>
    <path class="cls-7" d="m295.37,152.29c-.22-.8.94-1.92,1.99-2.43,2.6-1.25,6.27.41,6.28,1.56,0,.9-2.26,1.6-3.46,1.82-1.87.34-4.51.11-4.81-.95Z"/>
  </g>
  <g>
    <path class="cls-13" d="m313.46,187.56c-12.57,1.76-16.66,5.68-18.02,9.01-.58,1.42-.46,2.23-.9,7.26-.64,7.17-1.35,10.71-1.78,14.23-1.62,13.19.91,24.16-.36,46.26-.76,13.35-2.16,17.64-3.2,20.28-2.05,5.21-3.81,6.79-9.61,17.08-5.24,9.3-7.86,13.95-8.19,16.01-2.33,14.76,15.22,29.16,23.49,35.94,4.08,3.35,11.19,9.07,22.06,12.81,6.09,2.09,11.41,2.7,22.06,3.91,7.79.89,10.32.67,12.81,0,7.7-2.08,14.75-8.44,13.69-11.63-1.12-3.37-11.15-2.65-15.47-2.61-13.59.13-34.25-5.93-64.41-34.52,12.9-15.93,17.44-30.5,19.22-38.08h0c0-1.9.79-10.09,2.72-27.4-.07-6.55-.16-9.22-.23-10.32-.01-.17-.13-1.88-.28-4.25h0c-.17-2.71-.25-4.06-.79-8.21-.3-2.28,1.23-13.66,7.18-45.81Z"/>
    <path class="cls-13" d="m322.3,258.29c8.26.66,12.39.98,17.44,1.07,12.22.21,21.65-.9,25.62-1.42,3.71-.49,6.77-1.02,8.9-1.42-.17,4.02-.55,9.25-1.42,15.3-.47,3.24-2.01,13.12-6.05,25.62-3.55,10.98-6.5,20.08-12.81,29.54-12.27,18.4-27.74,23.9-25.9,29.03.73,2.03,4.14,3.96,16.04,3.49,6.53-6.36,14.78-15.43,22.74-27.44,4.67-7.04,13.49-20.52,19.29-39.66,8.6-28.36,6.3-54.01,5.36-63.5-1.18-11.99-3.12-18.42-2.41-31.89.69-13.18,3.42-23.85,5.63-30.81-1.07-.81-2.99-2.02-5.63-2.41-5.94-.88-10.34,3.14-10.99,3.75-1.07,2.64-2.54,6.8-3.48,12.06-1.15,6.42-.48,8.77,0,24.92,0,0,.26,8.88,0,23.31,0,.41-.08,3.92-.54,8.57-.23,2.35-.35,3.53-.54,4.02-1.5,3.88-8.22,5-17.15,5.63-5.99.42-10.57.74-15.74.64-4.95-.1-8.69-.52-9.71-.64-17.96-1.96-23.76-7.57-28.57-4.15-3.35,2.38-4.67,8.03-2.93,11.34,1.19,2.27,3.87,3.52,22.86,5.05Z"/>
  </g>
  <path class="cls-18" d="m370.18,155.52c3.89-1.17,9.07-2.43,15.26-3.11,3.75-.41,11.09-.96,20.47.27,9.14,1.19,15.55,2.03,22.07,6.65,3.23,2.29,8.26,5.86,9.31,11.97,1.04,6.1-2.5,11.19-4.52,14.09-1.1,1.58-4.36,5.92-13.56,10.9-6.12,3.31-8.3,3.35-22.33,8.24-14.46,5.04-17.37,6.82-19.68,8.51-2.89,2.12-7.61,5.66-10.9,11.97-4.89,9.36-3.43,18.71-2.66,22.33,2.57-.18,5.14-.35,7.71-.53-.56-2.32-1.17-6.09-.53-10.64.28-1.97,1-6.73,3.99-10.9,2.91-4.07,6.58-5.63,14.36-8.77,10.79-4.37,15.92-6.29,20.74-8.24,11.31-4.57,17.07-6.95,22.07-11.17,3.91-3.3,8.92-7.64,11.17-15.16.48-1.62,3.27-10.92-1.6-18.88-1.54-2.52-3.29-3.98-5.92-6.18-1.12-.94-5.89-4.82-13.84-7.72-3.18-1.16-7.76-2.48-14.54-3.12-14.76-1.39-28.91,1.5-36.71,3.48-.12,2-.23,4-.35,6Z"/>
  <g>
    <ellipse class="cls-10" cx="291.44" cy="278.7" rx="14.07" ry="11.71" transform="translate(-67.11 463.24) rotate(-70.95)"/>
    <ellipse class="cls-14" cx="291.44" cy="278.7" rx="10.85" ry="9.03" transform="translate(-67.11 463.24) rotate(-70.95)"/>
    <ellipse class="cls-22" cx="291.44" cy="278.7" rx="8.06" ry="6.71" transform="translate(-67.11 463.24) rotate(-70.95)"/>
  </g>
  <g>
    <ellipse class="cls-10" cx="279.21" cy="308.81" rx="14.07" ry="11.71" transform="translate(-122.08 419.65) rotate(-63.32)"/>
    <ellipse class="cls-14" cx="279.21" cy="308.81" rx="10.85" ry="9.03" transform="translate(-122.08 419.65) rotate(-63.32)"/>
    <ellipse class="cls-22" cx="279.21" cy="308.81" rx="8.06" ry="6.71" transform="translate(-122.08 419.65) rotate(-63.32)"/>
  </g>
  <circle class="cls-10" cx="370.64" cy="261.61" r="14.8"/>
  <circle class="cls-14" cx="370.64" cy="261.61" r="11.41"/>
  <circle class="cls-22" cx="370.64" cy="261.61" r="8.48"/>
</svg>