<?xml version="1.0" encoding="UTF-8"?>
<svg id="titelside" xmlns="http://www.w3.org/2000/svg" viewBox="0 0 1574 1088">
  <defs>
    <style>
      .cls-1 {
        fill: #524a40;
      }

      .cls-1, .cls-2, .cls-3, .cls-4, .cls-5, .cls-6, .cls-7, .cls-8, .cls-9, .cls-10, .cls-11, .cls-12, .cls-13, .cls-14, .cls-15, .cls-16, .cls-17, .cls-18, .cls-19, .cls-20 {
        stroke-width: 0px;
      }

      .cls-2 {
        fill: #99c4db;
      }

      .cls-3 {
        fill: #264584;
      }

      .cls-4 {
        fill: #3d524c;
      }

      .cls-5 {
        fill: #446e6a;
      }

      .cls-6 {
        fill: #1f2e6b;
      }

      .cls-7 {
        fill: #c94757;
      }

      .cls-8 {
        fill: #c9ba92;
      }

      .cls-9 {
        fill: #acde81;
      }

      .cls-10 {
        fill: #a84aa1;
      }

      .cls-11 {
        fill: #857868;
      }

      .cls-12 {
        fill: #c1e4f8;
      }

      .cls-13 {
        fill: #665c50;
      }

      .cls-14 {
        fill: #81afc7;
      }

      .cls-15 {
        fill: #64a190;
      }

      .cls-16 {
        fill: #e5ecba;
      }

      .cls-17 {
        fill: #f1c0ab;
      }

      .cls-18 {
        fill: #fce7b4;
      }

      .cls-19 {
        fill: #e8b35f;
      }

      .cls-20 {
        fill: #e88e8e;
      }
    </style>
  </defs>
  <g id="Layer_21" data-name="Layer 21">
    <rect class="cls-12" x="1.03" y=".48" width="265.17" height="222.75"/>
    <rect class="cls-18" x="2.47" y="295.22" width="265.17" height="222.75"/>
    <rect class="cls-15" x="646.6" y="581.86" width="265.17" height="222.75"/>
    <rect class="cls-2" x="327.14" y="1.47" width="265.17" height="228.74"/>
    <rect class="cls-8" x="328.58" y="302.19" width="265.17" height="222.75"/>
    <rect class="cls-5" x="972.2" y="582.55" width="265.17" height="222.75"/>
    <rect class="cls-14" x="646.6" y=".48" width="265.17" height="228.74"/>
    <rect class="cls-11" x="646.6" y="301.23" width="265.17" height="222.75"/>
    <rect class="cls-4" x="1308.51" y="577.83" width="265.17" height="222.75"/>
    <rect class="cls-13" x="972.2" y="296.57" width="265.17" height="222.75"/>
    <rect class="cls-9" x="328.58" y="586.97" width="265.17" height="222.75"/>
    <rect class="cls-1" x="1308.48" y="292.88" width="265.17" height="222.75"/>
    <rect class="cls-16" x="2.47" y="586.97" width="265.17" height="222.75"/>
    <rect class="cls-3" x="990.38" y="-16.72" width="228.74" height="265.1" transform="translate(988.92 1220.59) rotate(-90)"/>
    <rect class="cls-6" x="1326.72" y="-16.72" width="228.74" height="265.1" transform="translate(1325.26 1556.93) rotate(-90)"/>
    <rect class="cls-17" x=".32" y="864.77" width="265.17" height="222.75"/>
    <rect class="cls-19" x="328.58" y="862.43" width="265.17" height="222.75"/>
    <rect class="cls-10" x="1308.51" y="862.43" width="265.17" height="222.75"/>
    <rect class="cls-20" x="646.6" y="862.43" width="265.17" height="222.75"/>
    <rect class="cls-7" x="972.2" y="862.43" width="265.17" height="222.75"/>
  </g>
</svg>