<?xml version="1.0" encoding="UTF-8"?>
<svg id="fisk_1" xmlns="http://www.w3.org/2000/svg" viewBox="0 0 548 272">
  <defs>
    <style>
      .cls-1, .cls-2, .cls-3, .cls-4, .cls-5, .cls-6, .cls-7 {
        stroke-width: 0px;
      }

      .cls-2 {
        fill: #7d3778;
      }

      .cls-3 {
        fill: #a84aa1;
      }

      .cls-4 {
        fill: #945700;
      }

      .cls-5 {
        fill: #fff;
      }

      .cls-6 {
        fill: #ecd6ba;
      }

      .cls-7 {
        fill: #e8b35f;
      }
    </style>
  </defs>
  <path class="cls-3" d="m370.15,76.73c-4.47-10.33-12.5-25.89-26.54-41.66-12.4-13.92-23.4-25.95-42.13-31.19-7.78-2.18-29.88-8.36-49.73,7.02-20.06,15.53-23.04,41.61-23.48,46-4.25-1.08-11.66-2.17-20.03.78-16,5.64-22.15,20.79-23.48,24.17-4.51,11.41-3.01,21.73-1.99,26.45,9.7-4.65,22.8-10.35,38.73-15.63,6.6-2.19,31.86-10.32,66.86-14.67,20.75-2.58,48.72-4.29,81.79-1.26Z"/>
  <path class="cls-7" d="m100.76,161.82c28.56-24.69,77.56-59.66,146.5-77.21,24.87-6.33,112.99-25.84,207.22,12.26,25.08,10.14,93.75,37.91,93.04,75.67-.58,30.97-47.55,53.08-69.57,63.45-50.7,23.87-97.99,22.63-149.18,20.72-48.46-1.81-85.58-9.39-130.99-18.67-38.8-7.93-70.97-16.42-94.18-23.09-2.97,8.82-9.32,23.33-23.11,35.36-20.88,18.2-58.01,29.97-72.95,14.31-10.72-11.23-6.82-33.21.32-46.6,9.61-18.02,29.77-29.26,52.7-29.26-4.69-1-34.06-7.76-47.92-34.98-9.65-18.94-12.3-48.77,1.96-58.55,16.11-11.04,45.69,9.1,58.08,20.15,18.24,16.29,25.28,36.16,28.09,46.45Z"/>
  <path class="cls-3" d="m9.59,146.48c-2.92-6.29-6.97-17.76-4.68-31.35,1.09-6.46,2.56-15.16,9.69-19.92,7.12-4.76,15.76-2.82,22.41-1.32,10.62,2.39,18.13,7.9,22.41,11.72-11.99-5.48-25.98-4.12-36.4,3.6-11.41,8.44-16.71,23.15-13.42,37.27Z"/>
  <path class="cls-3" d="m59.35,263.96c-4.89,2.68-13.19,6.43-24.04,7.41-5.82.52-13.86,1.16-22.43-2.91-3.19-1.52-7.64-3.63-10.44-8.39-1.24-2.11-2.93-6.06-1.46-17.33.78-5.98,2.53-14.66,6.89-24.74-.12,3.45-.29,18.94,11.36,31.82,15.49,17.13,38.1,14.41,40.13,14.14Z"/>
  <path class="cls-6" d="m521.49,131.36c3.51,2.65,7.52,5.89,11.78,10.57,3.55,3.89,5.88,7.24,7.25,9.22,3,4.34,4.49,6.51,5.54,9.48,1.69,4.79,1.59,8.91,1.51,11.99-.07,2.52-.17,5.82-1.48,9.81-.45,1.38-1.53,4.34-5.4,9.83-4.41,6.26-8.61,10.4-9.28,11.02-19.38,17.75-49.02,31.84-49.02,31.84-9.63,4.57-20.18,9.52-35.25,13.62-10.51,2.86-19.71,4.34-26.74,5.16-6.14-23.42-11.91-55.14-11.58-92.82.26-30.02,4.33-55.89,9.03-76.29,14.07,3.43,25.88,7.28,35.02,10.62,8.45,3.09,23.53,9,41.2,18.47,1.48.79,14.87,8.03,27.43,17.5Z"/>
  <path class="cls-6" d="m368.44,257.63c1.78-5.71,7.48-26.3-3.34-43.57-12.69-20.25-39.42-22.06-51.43-22.87-29.61-2-44.52,9.95-91.17,24.95-23.95,7.7-43.99,12.25-56.93,14.86,24.05,9.17,45.89,14.51,64.34,17.7,12.97,2.24,23.06,3.22,36.59,4.52,23.21,2.24,41.59,2.85,66.19,3.62,14.43.45,26.64.67,35.76.78Z"/>
  <path class="cls-3" d="m254.66,261.09c15.29,2.94,27.7-.83,33.62-2.71,28.34-8.98,39.89-31.37,42.78-36.98,4.37-8.48,13.5-26.18,4.07-37.88-5.38-6.68-14.42-8.45-17.32-9.02-12.72-2.5-23.63,2.23-44.82,11.73-16.98,7.61-15.53,9.01-24.13,11.28-19.24,5.08-29.38-1.12-35.97,4.96-8.21,7.58-.48,24.65,1.02,27.96,6.51,14.38,21.55,26.98,40.75,30.67Z"/>
  <ellipse class="cls-6" cx="226.99" cy="111.4" rx="22.05" ry="12.28" transform="translate(-23.12 74.24) rotate(-17.69)"/>
  <ellipse class="cls-6" cx="293.49" cy="100.7" rx="14.33" ry="24.57" transform="translate(160.51 381.04) rotate(-83.56)"/>
  <ellipse class="cls-6" cx="266.71" cy="140.71" rx="21.94" ry="12.28" transform="translate(-30.15 87.7) rotate(-17.69)"/>
  <circle class="cls-5" cx="471.68" cy="162.87" r="28.11"/>
  <path class="cls-1" d="m499.79,162.87c-.05,13.78-10.34,25.72-24.17,27.83-1.55-1.31-12.9-11.29-12.66-27.83.25-16.91,12.42-26.63,13.96-27.82,13.32,2.67,22.93,14.44,22.87,27.82Z"/>
  <path class="cls-4" d="m519.44,212.96c.42-.31.84-.62,1.27-.94.71-.53,1.4-1.06,2.09-1.58-9.06,1.32-14.68-.45-18.24-3.46-5.42-4.58-6.87-12.74-7.8-12.43-.6.2-.06,3.41.35,5.05.73,2.9,2.07,4.99,2.92,6.13.87,1.16,3.78,4.94,9.29,6.66,3.24,1.01,5.99.89,7.86.79.93-.05,1.7-.14,2.25-.21Z"/>
  <g id="Layer_41" data-name="Layer 41">
    <path class="cls-2" d="m292.92,10.83c6.85,2.7,17.79,8.09,27.92,18.64,16.42,17.12,20.22,36.89,21.27,44.5l-7.51-.07c-1.27-7.81-4.52-21.55-14.01-35.94-9.54-14.47-20.97-22.91-27.67-27.14Z"/>
    <path class="cls-2" d="m267.26,13.9c7.14,4.15,20.59,13.3,30.8,30.11,7.3,12.03,10.16,23.4,11.39,30.79-2.11.16-4.21.33-6.32.49-1.44-7.87-4.4-18.95-10.89-30.93-8.1-14.93-18.18-24.79-24.98-30.45Z"/>
    <path class="cls-2" d="m245.83,29.16c6.47,3.24,18.15,10.2,27.82,23.49,6.78,9.32,10.11,18.38,11.83,24.56-2.42.32-4.83.64-7.25.96-1.64-7.01-5.16-18.07-13.23-29.51-6.59-9.35-13.85-15.61-19.16-19.5Z"/>
    <path class="cls-2" d="m218.65,62.61c.33-.62,8.75,1.64,15.8,7.9,5.65,5.02,8.51,10.9,9.99,14.88l-5.19,1.33c-1.37-3.88-3.78-9.17-8.27-14.18-6.06-6.76-12.62-9.36-12.32-9.92Z"/>
    <path class="cls-2" d="m202.57,67.74c.36-.6,6.73,1.68,12.66,6.16,6.79,5.12,10.71,11.39,12.96,15.94-2.23.71-4.46,1.41-6.69,2.12-1.1-3.43-3.07-8.2-6.79-12.96-5.76-7.37-12.52-10.62-12.14-11.25Z"/>
    <path class="cls-2" d="m191.61,81.36c2.52.45,7.86,1.77,12.83,6.12,3.36,2.94,5.27,6.14,6.3,8.24-1.38.67-2.75,1.35-4.13,2.02-.94-2.05-2.26-4.45-4.15-6.91-3.71-4.85-7.93-7.79-10.86-9.47Z"/>
  </g>
</svg>