<?xml version="1.0" encoding="UTF-8"?>
<svg id="forgrund" xmlns="http://www.w3.org/2000/svg" viewBox="0 0 1600 164">
  <defs>
    <style>
      .cls-1 {
        fill: #fce7b4;
        stroke-width: 0px;
      }
    </style>
  </defs>
  <path class="cls-1" d="m0,1.1c48.82-3.91,77,6.77,93.97,18.02,19.71,13.07,23.59,26.43,48.82,36.79,13.52,5.55,29.62,6.74,61.27,8.91,53.39,3.65,60.84-1.03,78.13,6.96,23.17,10.7,21.78,24.88,40.32,29.42,23.51,5.76,44.26-12.5,65.25-22.63,72.24-34.88,132.66,33.57,242.8,15.26,71.67-11.92,68.08-44.57,136.81-47.15,60.96-2.29,82.87,22.68,139.37,12.16,50.89-9.47,48.2-32.53,92.52-43.18,81.13-19.49,117.64,51.17,226.18,50.58,15.28-.08,28.45-.36,45.48-5.32,38.25-11.14,49.91-33.04,87.58-40.38,12.98-2.53,22.36-2.03,37.24-1.23,65.55,3.52,88.31,32.52,142.34,35.16,14.02.68,35.32-.15,61.92-8.95v118.22H0V1.1Z"/>
</svg>