<?xml version="1.0" encoding="UTF-8"?>
<svg id="gameover" xmlns="http://www.w3.org/2000/svg" viewBox="0 0 1600 900">
  <defs>
    <style>
      .cls-1 {
        opacity: .64;
      }

      .cls-1, .cls-2, .cls-3, .cls-4, .cls-5, .cls-6, .cls-7, .cls-8, .cls-9, .cls-10, .cls-11, .cls-12, .cls-13, .cls-14, .cls-15, .cls-16, .cls-17, .cls-18, .cls-19, .cls-20, .cls-21, .cls-22, .cls-23, .cls-24, .cls-25, .cls-26, .cls-27, .cls-28, .cls-29, .cls-30, .cls-31, .cls-32, .cls-33, .cls-34, .cls-35, .cls-36, .cls-37, .cls-38, .cls-39, .cls-40, .cls-41, .cls-42, .cls-43, .cls-44, .cls-45 {
        stroke-width: 0px;
      }

      .cls-1, .cls-6 {
        fill: #4f5daa;
      }

      .cls-2 {
        fill: none;
      }

      .cls-3 {
        fill: #5fcaff;
        opacity: .76;
      }

      .cls-4 {
        fill: #497065;
      }

      .cls-5 {
        fill: #5d7d74;
      }

      .cls-7 {
        fill: #5b5b5b;
      }

      .cls-8 {
        fill: #5c369e;
      }

      .cls-9 {
        fill: #535f95;
      }

      .cls-10 {
        fill: #262626;
      }

      .cls-11 {
        fill: #264583;
      }

      .cls-12 {
        fill: #3d524c;
      }

      .cls-13 {
        fill: #091434;
      }

      .cls-14 {
        fill: #446e6a;
      }

      .cls-15 {
        fill: #150055;
      }

      .cls-16 {
        fill: #070035;
      }

      .cls-17 {
        fill: #0b0035;
      }

      .cls-18 {
        fill: #162048;
      }

      .cls-19 {
        fill: #161d40;
      }

      .cls-20 {
        fill: #cbcbcb;
      }

      .cls-21 {
        fill: #c8b991;
      }

      .cls-22 {
        fill: #d5b3b3;
      }

      .cls-23 {
        fill: #da6565;
      }

      .cls-24 {
        fill: #d9ecf7;
      }

      .cls-25 {
        fill: #daacac;
      }

      .cls-26 {
        fill: #c0e3f7;
      }

      .cls-27 {
        fill: #64a08f;
      }

      .cls-28 {
        fill: #98c3da;
      }

      .cls-29 {
        fill: #7d63c8;
      }

      .cls-30 {
        fill: #9c9c9c;
      }

      .cls-31 {
        fill: #6aa292;
      }

      .cls-32 {
        fill: #80aec6;
      }

      .cls-33 {
        fill: #ffd974;
      }

      .cls-34 {
        fill: #e4a542;
      }

      .cls-35 {
        fill: #ffd174;
      }

      .cls-36 {
        fill: #e78d8d;
      }

      .cls-37 {
        fill: #fbe6b3;
      }

      .cls-38 {
        fill: #f1be9b;
      }

      .cls-39 {
        fill: #f3c263;
      }

      .cls-40 {
        fill: #f5f5f5;
      }

      .cls-41 {
        fill: #000255;
      }

      .cls-42 {
        fill: #000735;
      }

      .cls-43 {
        fill: #008ff3;
      }

      .cls-44 {
        fill: #0089e8;
      }

      .cls-45 {
        fill: #679d8e;
      }
    </style>
  </defs>
  <path class="cls-26" d="m0-.46v900h1600V-.46H0Z"/>
  <path class="cls-28" d="m63.23,110.4s.01,0,.01,0c.81-.08,32.74-3.14,75.96.34,47.88,3.86,65.11,12.17,80.1,26.3,10.2,9.62,30.22,28.59,35.37,55.97,13.59,72.35-90.91,141.69-81.91,173.71,8.69,30.94,118.68,13.83,193.65-10.69,25.34-8.29,54.92-20.12,90.11,2.06,27.33,17.22,55.6,53.42,61.75,61.28,27.91,35.73,28.94,49.4,46.85,63.21,25.44,19.61,38.77,3.92,69.11,7.54,48.77,5.81,49.88,50.57,98.65,65.81,62.74,19.6,84.4-47.11,133.36-20.99,6.63,3.54,26.4,15.52,41.88,1.02,6.89-6.46,10.26-15.66,12.6-21.77,0,0,12.36-32.35,38.34-79.53,25.45-46.21,56.25,3.59,104.75-33.43,40.83-31.16,39.07-81.75,79.15-90.72,20.76-4.65,38.47,5.06,49.6,11.17,48.87,26.8,58.37,78.78,91.24,105.15,7.8,6.26,15.18,9.35,22.33,10.1,53.9,5.7,87.27-45.25,133.54-56.89,31.71-7.98,82.66,2.68,164.2,94.61.61,101.26,1.22,202.53,1.83,303.79-136.36-20.43-272.96-38.38-409.8-53.85-409.46-46.29-821.01-70.35-1234.65-72.2-.86-178.07-1.73-356.14-2.59-534.21,41.94-2.59,76.42-5.2,104.58-7.79Z"/>
  <path class="cls-32" d="m393,557.87c-7.81-7.95-34.56-33.14-72.12-30.79-10.26.64-34.56,2.17-54.08,24.37-21.98,25-28.4,65.43-33.01,94.47-.31,1.93-.48,2.9-.49,3.56-.87,42.69,108.01,84.15,187.94,100.15,98.14,19.63,151.56.65,245.64-8.7,220.71-21.94,313.83,44.06,407.34,17.78,31.97-8.98,34.51-18.91,66.21-35.02,87.63-44.55,228.55-77.17,459.57-16.88v-106.01c-61.12-47.33-106.99-52.98-138-48.97-59.4,7.67-80.61,52.89-135.77,44.64-36.33-5.43-65.84-30.84-85.4-47.67-32.38-27.86-31.91-42.1-58.68-60.71-4.78-3.32-49.19-33.38-96.27-26.59-69.71,10.05-67.58,87.62-160.56,129.18-63.74,28.49-99.34,13.09-110.18,7.62-26.41-13.33-24.89-27.79-47.89-38.82-51.68-24.79-78.36,39.1-147.14,37.23-54.81-1.49-62.77-42.74-131.97-51.38-39.34-4.91-72.64,3.94-95.14,12.54Z"/>
  <path class="cls-21" d="m0,532.15c13.87,4.66,34.44,13.15,55.67,29.04,28.56,21.38,29.02,34.23,52.83,45.86,25.73,12.58,33.11,1.44,69.42,14.24,28.8,10.15,25.71,17.7,52.7,26.96,34.42,11.81,42.65.64,77.81,12.08,22.71,7.39,24.75,14.43,54.82,29.04,26.99,13.12,50.78,20.05,66.76,23.87,15.9-3.09,40.37-8.28,69.84-16.39,70.46-19.39,82.52-32.66,119.5-36.51,28.73-3,22.85,3.24,124.07,18.08,76.58,11.22,115.52,16.73,147.14,11.62,27.53-4.45,40.11-10.88,65.08-6.74,35.53,5.9,46,24.89,73.68,22.62,26.19-2.15,27.3-21.1,54.42-29.78,41.03-13.12,60.79,21.97,109.4,22.81,46.62.8,43.77-31.21,121.55-58.46,66.16-23.18,85.53-6.08,135-36.38,26.18-16.03,32.43-27.97,59.61-38.09,34.18-12.73,67.2-9.82,90.48-5.03.07,112.72.13,225.45.2,338.17H0v-367.03Z"/>
  <g>
    <path class="cls-14" d="m83.04,767.09s-13.35,3.1-67.64-32.88h0c-8.07-45.84,1.53-66.43,11.9-76.75,9.38-9.34,18.35-10.31,23.15-21.43,6.14-14.23-7.72-22.84-5.41-48.99.18-2.05,2.22-9.29,6.27-23.68,7.15-25.43,10.78-38.26,13.82-44.1,3.22-6.2,11.09-19.75,25.94-31.37,10.4-8.14,18.58-14.54,28.23-12.81,13.18,2.36,23.37,18.84,22.82,32.95-.42,10.89-6.97,13.34-22.07,35.9-12.81,19.15-20.12,30.34-21.82,45.84-.99,9.02.75,7.47,2.96,32.05,1.96,21.8,2.94,32.7-1.67,41.52-6.85,13.09-17.41,11.75-24.46,25.55-5.05,9.88-4.6,20.27-3.45,27.47,37.22-5.15,52.07-18.11,58.51-29.73,6.39-11.53,3.23-19.44,12.98-36.35,6.95-12.06,10.44-11.31,27.55-31.05,20.07-23.16,19.24-28.78,30.27-34.55,15.82-8.28,38.68-7.8,43.66,1.31,4.45,8.13-6.73,22.61-29.08,51.57-19.34,25.06-22.25,24.39-28.19,36.4-13.11,26.51-1.38,39.84-13.66,52.17-13.47,13.54-30.33.24-58.33,14.23-20.7,10.35-17.3,23.25-32.27,26.73Z"/>
    <path class="cls-45" d="m69.88,635.13c-1.81.27-4.35-4.59-5.29-8.86-.86-3.92-.27-6.89.1-9.45,1.26-8.77-.46-10.2-.04-19.79,0,0,.44-10.12,3.46-20.16,6.3-20.95,17.68-19.28,23.11-38.63,2.36-8.41,1.83-14.49,7-22.23,2.64-3.94,4.04-4.26,8.6-10.95,2.67-3.92,3.84-6.25,6.12-6.45,2.56-.23,5.66,2.27,6.05,4.95.59,4.05-5.33,6.72-10.36,11.5-10.01,9.52-4,17.54-15.17,35.06-8.71,13.67-10.78,12.94-15.26,22.43-3.7,7.83-7.62,16.07-7.3,26.88.23,7.83,2.5,10.99,2.07,21.95-.11,2.87-.53,13.39-3.1,13.76Z"/>
    <path class="cls-31" d="m132.98,705.52c-1.29-2.41,8.53-6.95,15.29-17.13,7.72-11.63,2.65-17.19,9.7-32.47,5.01-10.86,12.33-17.91,16.3-21.73,9.33-8.98,16.31-11.44,25.06-22.68,3.08-3.95,5.2-7.48,6.5-9.8,2.13.41,4.66,1.29,5.55,3.29,1.53,3.43-2.53,8.34-7.28,13.43-12.39,13.28-19.11,16.59-29.36,27.63-5.35,5.76-8.02,8.64-10.78,13.57-5.88,10.5-3.85,15.35-10.58,30.28-4.39,9.74-8.03,13.84-12.84,15.55-2.8,1-6.79,1.47-7.55.05Z"/>
    <path class="cls-27" d="m50.96,777.21c-21.41,2.48-39.27,2.01-51.25,1.18v-88.28c14.04-22.65,14.43-38.37,11.72-48.87-2.75-10.66-12.56-32.24-9.85-45.21,2.91-13.9,10.79-13.46,14.8-30.1,4.36-18.09-3.04-26.52,3.85-34.53,6.3-7.33,20.15-9.17,27.54-3.59,6.92,5.23,6.41,15.66,5.74,29.51-.18,3.64-.87,13.4-5.05,26.17-5.77,17.64-10.09,16.31-10.67,25.84-.46,7.57,2.24,8.64,7.3,32.73,1.4,6.67,2.1,10,2.1,11.13.02,14.83-11.06,24.25-9.6,36.21.18,1.45.62,5.1,2.58,5.66,1.47.42,3.13-1.1,3.81-1.78,2.73-9.2,8.05-21.57,19.38-30.75,12.69-10.28,20.66-6.62,27.33-15.75,9.14-12.51-2.46-23.98,5.6-48.97,3.89-12.05,10.01-19.97,11.37-21.7,13.59-17.18,24.47-12.47,36.5-26.82,12.92-15.41,5.59-27.05,19.02-37.94,7.5-6.08,20.16-10.86,30.37-6.22,12.91,5.86,16.74,24.41,14.94,37.2-2.49,17.66-16.53,29.97-31.47,43.07-16.58,14.54-23.94,15.01-29.48,26.89-3.87,8.31-1.32,10.32-4.23,31.91-2.93,21.69-4.4,32.54-10.85,40.11-9.58,11.24-19.59,7.6-29.53,19.47-7.12,8.51-8.99,18.74-9.46,26.01,39.34,3.38,55.84-6.48,63.65-16,11.3-13.76,6.67-29.51,22.61-42.34,12.18-9.8,18.7-3.69,31.87-14.37,15.16-12.29,11.8-24.66,25.69-32.11,9.66-5.18,24.51-6.29,31,.58,10.2,10.81-.99,40.59-17.03,59.35-14.25,16.67-22.05,12.63-35.57,29.23-19.11,23.48-10.3,35.49-24.9,47.84-19.42,16.42-38.92-3.5-96.33,6.71-17.11,3.04-22.58,6.09-43.48,8.51Z"/>
    <path class="cls-4" d="m11.27,697.2c.85-15.93,4.62-27.72,7.96-35.61,4.47-10.57,7.55-12.67,8.07-20.29.84-12.32-6.62-15.25-8.44-30.59-1.31-11.08,1.32-20.22,2.75-25.19,3.36-11.65,8.06-16.98,9.76-30.15.6-4.63.6-8.47.51-10.95,2.04-.7,4.66-1.21,6.46-.04,3.08,2,2.13,7.87.69,14.22-4.54,19.99-9.2,23.5-10.89,36.18-1.36,10.14.19,18.62.74,21.33,2.34,11.49,6.03,13.13,6.61,21.3.63,8.91-3.67,8.27-8.62,25.77-3.52,12.44-2.75,17.74-7.98,32.88-1.12,3.25-2.16,5.9-2.88,7.68-1.47,1.98-2.61,2.86-3.42,2.65-1.27-.34-1.71-3.4-1.33-9.18Z"/>
    <path class="cls-4" d="m60.7,715.32c-1.03-.97,5.93-10.35,11.28-16.5,4.48-5.15,9.35-9.79,19.08-19.07,4.11-3.92,3.7-3.43,4.21-3.99,7.94-8.82,10.52-18.94,13.11-29.56,3.48-14.28,1.02-15.65,4.68-27.86,2.02-6.75,4.77-15.94,11.93-24.56,9.22-11.09,13.59-6.57,26.15-19.28,7.62-7.71,13.32-16.76,18.94-25.68,2.44-3.87,3.66-5.81,4.49-7.91,1.89-4.8,1.69-7.76,3.76-8.62,1.78-.74,4.46.37,5.75,2.11,1.56,2.1,1.81,6.05-3.71,16.27-7.94,14.69-18.27,24.67-23.93,29.78-12.02,10.87-13.82,9.62-20.66,17.58-8.22,9.56-12.39,19.24-14.17,23.98-6.01,15.99-2.26,21.83-9.3,38.52-3,7.1-6.28,12.21-7.86,14.56-3.12,4.64-7.19,9.71-23.58,24.19-11.89,10.5-19.2,16.96-20.15,16.07Z"/>
    <path class="cls-4" d="m117.86,745.22c40.32-2.84,48.45-6.52,52.51-12.83,1.59-2.47.27-1.99,2.99-11.16,1.76-5.94,6.18-18.37,14.2-30.77,6.5-10.04,14.74-15.98,19.22-19.2,10.5-7.57,17.76-9.02,28.02-18.9,3.6-3.47,6.21-6.67,7.82-8.78,2.05.71,4.43,1.94,5.03,4.05,1.03,3.61-3.69,7.89-9.11,12.26-17.08,13.75-23.07,13.73-32.98,23.2-7.93,7.57-12.48,15.6-13.9,18.21-3.86,7.14-6.29,13.41-9.32,21.89-5.28,14.79-3.64,15.6-6.51,18.95-3.48,4.06-7.34,4.77-33.56,8.44-19.51,2.73-23.48,3.18-30.03,2.66-10.33-.81-21.35-3.58-21.22-5.28.12-1.47,8.63-1.46,26.83-2.74Z"/>
  </g>
  <path class="cls-29" d="m1464.41,752.31c14.18-45.01,5.59-69.61-2.29-82.51-7.13-11.65-20.56-20.78-47.43-39.02-40.06-27.21-54.35-29.98-62.11-48.25-7.74-18.22-4.6-41.56,3.97-44.83,6.77-2.58,16.24,7.59,31.66,24.77,16.19,18.03,38.01,42.77,63.79,73.28,1.17-46.77-12.29-73.66-24.54-89.48-21.22-27.4-40.34-23.56-69.27-58.48-5.16-6.23-43.15-52.07-28.57-80.87,4.03-7.96,12.71-15.87,19.21-14.36,7.57,1.76,7.8,15.3,13.95,31.68,7.97,21.24,20.92,34.04,38.29,51.21,25.18,24.9,36.2,23.39,48.55,42.81,10.07,15.82,12.52,32.18,13.15,42.8.07.85.53,5.24,3.91,7.28,2.15,1.3,4.99,1.41,6.25.65,5.4-3.25-.17-20.8-4.93-40.13,0,0-3.33-13.5-11.6-65.33-6.38-39.95-14.79-92.68,7.22-105.93,10.16-6.11,26.29-3.52,34.81,4.89,13.68,13.5-.26,34.12-1.45,82.38-.15,6.26.83,13.05,1.51,29.84.66,16.34.58,20.96,1.42,30.32,1.56,17.43,3.32,17.65,4.15,28.75,2.26,30.29-9.89,46.55-1.72,52.4,4.45,3.19,11.6,2.25,16.26-.72,10.6-6.75,9.27-24.61,8.96-44.67-.78-50.02-1.17-75.03,11.76-92.04,15.6-20.51,46.85-26.18,51.85-19.53,4.04,5.38-11.16,16.03-21.39,43.01-11.06,29.17.17,33.96-9.74,68.37-9.36,32.53-28.25,61.52-28.25,61.52-9.23,14.17-17.04,22.65-14.58,25.75,2.97,3.74,20.43-.92,31.64-12.7,14.57-15.32,7.84-31.45,19.27-54.32,4.61-9.23,13.37-21.95,31.66-33.81,0,19.97,0,39.93.01,59.9-8.09,6.4-19.36,15.69-32.18,27.6-29,26.94-43.27,40.51-51.91,59.5-6.81,14.97-12.35,39.28-1.29,77.39l-49.99.86Z"/>
  <path class="cls-12" d="m1293.1,807.64c10.2-3.62,20.41-7.25,30.61-10.87,2.35-2.49,10.1-11.32,10-24.32-.11-13.8-8.98-23.1-11.44-25.61-1.44-1.46-2.54-2.28-6.43-5.14-23.75-17.43-23.8-15.94-26.27-18.82-10.51-12.23,3.9-23.43-6.14-43.2-6.1-12.02-17.33-19.52-19.97-21.21-11.85-7.6-17.22-4.94-23.6-11.71-8.45-8.97-2.22-17.01-9.31-29.9-6.52-11.85-21.72-23.07-32.08-20-11.24,3.33-15.84,23.2-13.01,37.7,2.56,13.1,10.05,15.97,10.71,29.74.46,9.63-3.1,10.29-4.99,23.15-1.12,7.66-3.94,26.91,6.41,41.7,1.7,2.43,3.38,4.2,5.06,5.59,9.1,7.54,15.34,11.25,20.12,14.56,10.06,6.97,11.94,16.77,16.11,24.72,5.93,11.3,19.62,24.86,54.23,33.63Z"/>
  <path class="cls-12" d="m1355.17,756.49c12.41-.41,24.83-.82,37.24-1.23,3.41-1.81,14.84-8.44,19.01-21.97,4.43-14.37-2.25-26.94-4.14-30.36-1.75-3.16-2.33-2.78-5.38-7.45,0,0-6.53-10.01-9.97-21.37-1.08-3.56-1.56-6.44-1.69-9.01-.63-11.81.25-19.94.83-25.41.58-5.48,3.04-28.55-11-42.32-5.21-5.11-9.27-5.57-23.03-17.38-5.99-5.14-8.15-7.56-9.14-10.99-1.61-5.56,1.4-8.44,2.18-17.63.3-3.48,1.02-8.79-.8-13.59-3.67-9.68-15.36-20.38-28.18-20.52-16.46-.18-24.91,16.27-27.23,24.07-1.02,3.44-2.99,10.06-.39,17.59,2.39,6.92,7.24,10.59,6.92,17.98-.12,2.73-.89,4.58-1.97,7.22,0,0-5.25,12.76-10.03,24.97-4.16,10.6-4.46,20.86-3.94,26.54,1.81,19.76,17.06,22.01,24.95,42.27,9.63,24.72-6.6,35.72,3.02,53.99,4.16,7.9,14.35,18.14,42.75,24.59Z"/>
  <path class="cls-5" d="m1365.77,752.11c-2.15-9.76-4.3-19.52-6.46-29.28-3.62.14-8.08-.04-13.06-1.05-11.61-2.36-19.75-7.96-24.02-11.43,12.12,2.93,24.25,5.86,36.37,8.79-6.93-22.37-13.85-44.74-20.78-67.11-6.04-1.1-14.03-3.13-22.82-7.08-8.66-3.9-15.32-8.41-20.03-12.11,13.97,5.08,27.95,10.15,41.92,15.23-6.28-27.82-12.57-55.64-18.85-83.46-3.25-1.79-8.09-4.99-12.35-10.29-2.46-3.05-4.08-6-5.16-8.41,5.73,4.85,11.46,9.7,17.19,14.55-.53-10.08-1.06-20.15-1.59-30.23,2.52,9.82,5.03,19.65,7.55,29.47,4.91-5.53,9.82-11.05,14.73-16.58-.11,2.23-.66,7.18-4.16,12.24-3.6,5.22-8.34,7.69-10.47,8.65,6.17,27.77,12.34,55.54,18.51,83.31,8.28-12.15,16.55-24.31,24.83-36.46-.78,5.5-2.78,14.38-8.61,23.83-4.96,8.03-10.82,13.47-15.02,16.78,7.26,22.98,14.51,45.95,21.77,68.93,8.12-7.48,16.23-14.96,24.35-22.43-.73,3.14-2.48,8.66-7.06,14.11-5.89,7.01-13.13,9.95-16.43,11.07,2.06,9.76,4.11,19.52,6.17,29.28-2.18-.11-4.35-.22-6.53-.33Z"/>
  <path class="cls-5" d="m1286.94,787.68c-1.19-1.65-2.37-3.3-3.56-4.95-3.03.93-6.84,1.76-11.28,1.95-10.33.45-18.44-2.8-22.81-4.99,10.89-.05,21.79-.09,32.68-.14-10.74-18.67-21.48-37.34-32.22-56-5.35.35-12.55.29-20.84-1.32-8.18-1.59-14.79-4.19-19.58-6.49,12.93,1.48,25.86,2.96,38.78,4.44-11.39-23.74-22.78-47.47-34.16-71.21-3.14-.9-7.93-2.71-12.69-6.55-2.74-2.21-4.76-4.51-6.2-6.45,5.91,3.11,11.81,6.21,17.72,9.32-2.65-8.98-5.29-17.97-7.94-26.95,4.27,8.31,8.55,16.63,12.82,24.94,2.95-6.08,5.89-12.17,8.84-18.25.4,2.04,1.01,6.64-.84,11.98-1.91,5.51-5.38,8.8-6.97,10.14,11.28,23.72,22.56,47.43,33.84,71.15,4.35-12.82,8.69-25.64,13.04-38.46.55,5.14.79,13.61-2.08,23.44-2.44,8.36-6.21,14.57-9.04,18.49,11.15,19.14,22.31,38.29,33.46,57.43,5.23-8.56,10.46-17.12,15.7-25.68.07,3-.21,8.37-2.89,14.32-3.45,7.64-8.93,11.91-11.48,13.66.71,1.33,1.43,2.66,2.14,3.98-1.47.73-2.95,1.46-4.42,2.18Z"/>
  <ellipse class="cls-8" cx="1342.96" cy="443.24" rx="5.8" ry="7.97" transform="translate(-60.99 613.33) rotate(-25.17)"/>
  <ellipse class="cls-8" cx="1377" cy="456.45" rx="5.8" ry="7.97" transform="translate(-63.37 629.06) rotate(-25.17)"/>
  <circle class="cls-8" cx="1399.7" cy="504.76" r="9.74"/>
  <circle class="cls-8" cx="1442.4" cy="523.8" r="9.74"/>
  <ellipse class="cls-8" cx="1344.6" cy="403.59" rx="2.9" ry="3.98" transform="translate(-43.97 610.26) rotate(-25.17)"/>
  <path class="cls-8" d="m1474.85,580.3c2.29,4.87.2,10.67-4.67,12.96-4.87,2.29-10.67.2-12.96-4.67-2.29-4.87-.2-10.67,4.67-12.96,4.87-2.29,10.67-.2,12.96,4.67Z"/>
  <circle class="cls-8" cx="1504.7" cy="621.84" r="7.1"/>
  <ellipse class="cls-8" cx="1480.14" cy="677.5" rx="6.42" ry="7.87" transform="translate(-147.6 693.92) rotate(-25.17)"/>
  <ellipse class="cls-8" cx="1576.25" cy="588.37" rx="8.94" ry="6.27" transform="translate(-100.57 726.34) rotate(-25.17)"/>
  <path class="cls-8" d="m1599.97,537.22l-.19,10.34c-.48-.1-3.96-.9-5.4-4.04-1.22-2.68-.8-6.73,1.38-7.58,1.75-.68,3.88,1.02,4.21,1.28Z"/>
  <ellipse class="cls-8" cx="1513.61" cy="657.48" rx="4.47" ry="6.27" transform="translate(-135.91 706.26) rotate(-25.17)"/>
  <ellipse class="cls-8" cx="1466.33" cy="632.03" rx="4.47" ry="6.27" transform="translate(-129.58 683.73) rotate(-25.17)"/>
  <ellipse class="cls-8" cx="1419.41" cy="621.84" rx="4.47" ry="6.27" transform="translate(-129.7 662.81) rotate(-25.17)"/>
  <ellipse class="cls-8" cx="1502.21" cy="709.37" rx="4.47" ry="6.27" transform="translate(-159.06 706.34) rotate(-25.17)"/>
  <ellipse class="cls-8" cx="1355.82" cy="548.44" rx="8.41" ry="6" transform="translate(565.43 1779.01) rotate(-79.31)"/>
  <ellipse class="cls-8" cx="1389.63" cy="577.56" rx="6" ry="8.41" transform="translate(-113.69 645.93) rotate(-25.17)"/>
  <path class="cls-8" d="m1497.37,528.4c1.79,3.81.53,8.18-2.82,9.75-3.35,1.57-7.52-.24-9.31-4.05-1.79-3.81-.53-8.18,2.82-9.75,3.35-1.57,7.52.24,9.31,4.05Z"/>
  <path class="cls-8" d="m1474.97,484.98c1.79,3.81.53,8.18-2.82,9.75-3.35,1.57-7.52-.24-9.31-4.05-1.79-3.81-.53-8.18,2.82-9.75,3.35-1.57,7.52.24,9.31,4.05Z"/>
  <path class="cls-8" d="m1498.43,444.77c2.38,5.06.66,10.87-3.84,12.98-4.5,2.11-10.07-.27-12.45-5.33-2.38-5.06-.66-10.87,3.84-12.98,4.5-2.11,10.07.27,12.45,5.33Z"/>
  <path class="cls-8" d="m1467.52,389.39c1.67,3.55.46,7.64-2.7,9.12-3.16,1.49-7.08-.19-8.75-3.74-1.67-3.55-.46-7.64,2.7-9.12,3.16-1.49,7.08.19,8.75,3.74Z"/>
  <path class="cls-8" d="m1503.91,361.68c1.67,3.55.46,7.64-2.7,9.12-3.16,1.49-7.08-.19-8.75-3.74-1.67-3.55-.46-7.64,2.7-9.12,3.16-1.49,7.08.19,8.75,3.74Z"/>
  <circle class="cls-8" cx="1525.42" cy="584.44" r="7.1"/>
  <ellipse class="cls-8" cx="1555.11" cy="543.39" rx="7.1" ry="6.18" transform="translate(609.62 1892.35) rotate(-74.23)"/>
  <ellipse class="cls-8" cx="1535.21" cy="512.12" rx="7.1" ry="6.18" transform="translate(625.23 1850.43) rotate(-74.23)"/>
  <circle class="cls-8" cx="1556.73" cy="476.55" r="7.1"/>
  <circle class="cls-8" cx="1554.73" cy="439.66" r="4.2"/>
  <circle class="cls-8" cx="1588.45" cy="430.64" r="2.75"/>
  <path class="cls-23" d="m1415.09,702.29c10.54,33.69,44.39,49.18,42.54,51.78-1.52,2.14-26.15-6.29-47.54-26.52-11.02-10.42-19.53-22.41-25.88-20.01-3.1,1.17-4.56,5.34-4.91,8.08-2.52,19.79,43.53,41.31,52.82,45.65,13.63,6.37,38.71,17.74,72.94,16.52,11.63-.41,26.16-.84,42.49-8.03,33.11-14.59,47.69-45.42,52.29-56.48l-.06-36.16c-1.43,6.66-3.59,14.06-6.89,21.85-10.59,25.02-27.43,41.09-38.63,49.95,8.73-10.91,13.74-20.94,16.65-27.95,3.73-8.97,5.44-17.24,8.87-33.8,2.64-12.74.15-4.1,3.95-28.41,1.43-9.12,2.68-16.12-1.03-19.01-2.02-1.57-5.06-1.57-6.98-.94-10.56,3.5-4.81,32.1-11.85,62.05-8.02,34.14-29.36,56.02-31.18,55.01-2.25-1.24,18.24-42.92,23.55-85.5.1-.82.17-1.47.21-1.88.83-7.84,3.96-37.59-5.93-41.85-2.83-1.22-6.31-.16-8.34,1.42-5.63,4.37-3.04,15.31-2.88,20.9.4,13.35-.23,30.6-3.9,50.41-3.82,20.58-9.76,37.66-15.19,50.48-13.22-15.88-18.28-31.01-20.33-42.25-1.51-8.3-1.51-15.35-1.5-29.46.02-29.3,7.25-41.81.12-47.78-1.9-1.59-4.87-2.84-7.44-2.09-5.18,1.51-7.05,10.64-8.22,22.57-2.17,22.1-3.65,37.06,1.73,57.82,2.58,9.94,7.67,24.86,18.37,40.97-9.32-7.02-22.62-19.16-32.34-37.9-2.53-4.88-7.42-14.48-9.9-27.94-1.29-7-.98-16.77-.37-36.33.63-19.99.94-29.99,2.14-34.67,2.35-9.16,6.02-17.17,2.79-19.91-1.85-1.57-5.27-.84-7.41.18-4.47,2.11-8.31,7.78-10.9,37.91-1.33,15.53-2.03,23.67-1.37,36.23.91,17.31,1.42,26.98,5.85,39.45,0,0,5.5,29.47,39.34,49.49,1.29.76,2.02,1.14,2,1.17-.18.23-65.51-34.45-63.6-82.79.55-13.78,9.5-30.11,3.06-34.88-1.98-1.47-5.36-1.82-7.9-.72-4.47,1.94-5.74,8.15-6.38,11.82-4.44,25.31-7.05,38.08-2.85,51.53Z"/>
  <path class="cls-36" d="m1405.7,715.11c4.06,12.82,11.19,20.96,25.46,37.25,12.78,14.59,21.78,24.63,37.26,30.85,8.85,3.56,16.02,4.34,28.65,5.72,17.47,1.91,27.02,2.95,37.69-1.38,6.27-2.55,12.58-8.67,25.19-20.91,11.79-11.45,17.64-17.22,23.19-25.24,5.27-7.63,12.53-20.33,16.71-38.64l-.06-17.36c-1.72-.94-4.14-1.86-6.56-1.17-7.46,2.12-7.91,17.99-9.8,24.27-4.16,13.79-13.79,31.82-37.69,50.66,8.52-11.07,13.34-21.2,16.12-28.26,3.56-9.03,5.12-17.34,8.24-33.96,2.4-12.79.07-4.11,3.42-28.48,1.26-9.14,2.38-16.17-1.38-18.98-2.05-1.53-5.09-1.48-7-.81-10.49,3.7-4.21,32.18-10.69,62.26-7.38,34.28-28.31,56.56-30.15,55.59-2.27-1.2,17.43-43.25,21.95-85.93.09-.82.14-1.47.18-1.88.68-7.86,3.26-37.66-6.71-41.73-2.85-1.17-6.31-.04-8.31,1.57-5.54,4.47-2.76,15.37-2.48,20.95.65,13.34.34,30.6-2.96,50.48-3.43,20.65-9.06,37.84-14.24,50.75-13.51-15.63-18.86-30.66-21.12-41.86-1.67-8.27-1.79-15.32-2.05-29.42-.53-29.29,6.46-41.94-.77-47.77-1.93-1.55-4.92-2.75-7.48-1.95-5.15,1.6-6.85,10.77-7.8,22.72-1.76,22.14-2.95,37.13,2.81,57.78,2.76,9.89,8.13,24.71,19.13,40.62-9.45-6.84-22.97-18.74-33.05-37.29-2.63-4.83-7.69-14.33-10.42-27.75-1.42-6.97-1.3-16.75-1.05-36.31.25-20,.38-30,1.49-34.71,2.18-9.2,5.7-17.28,2.42-19.96-1.87-1.53-5.28-.74-7.4.32-4.43,2.19-8.17,7.93-10.19,38.1-1.04,15.55-1.59,23.7-.7,36.25,1.23,17.29,1.92,26.94,6.58,39.34,0,0,6.05,29.36,40.26,48.75.34.19,1.97.47,2.02,1.13.08,1.06-3.87,2.13-4.55,2.32-9.53,2.61-65.74-38.32-60.58-83.91,1.54-13.63,8.86-30.33,2.41-34.93-2.01-1.43-5.4-1.72-7.91-.57-4.43,2.03-5.58,8.26-6.16,11.94-3.98,25.46-6.13,38.16-1.88,51.57Z"/>
  <path class="cls-25" d="m1442.39,623.43c.61-3.2.14-2.8.75-6.24.83-4.71,1.39-7.6,3.64-8.86,1.29-.72,3.19-.92,3.82-.13.87,1.09-1.39,3.18-2.78,7.9-.44,1.5-.65,3.29-1.05,6.88-.73,6.41-.43,8.49-1.82,9.19-1.08.54-2.75.03-3.51-.97-1.06-1.39.09-3.17.96-7.77Z"/>
  <path class="cls-25" d="m1408.68,673.67c.46-3.6-.06-3.14.38-7.01.61-5.3,1.04-8.56,3.63-10.05,1.49-.85,3.74-1.16,4.56-.3,1.13,1.19-1.4,3.62-2.68,8.94-.41,1.7-.5,3.71-.7,7.74-.35,7.2.18,9.52-1.42,10.35-1.25.65-3.29.14-4.29-.94-1.38-1.51-.16-3.55.51-8.73Z"/>
  <path class="cls-25" d="m1474.97,659.16c.35-3.24-.08-2.81.24-6.28.45-4.76.77-7.69,2.92-9.12,1.23-.82,3.1-1.18,3.79-.44.95,1.02-1.13,3.29-2.13,8.09-.32,1.53-.38,3.33-.5,6.94-.21,6.45.25,8.5-1.08,9.3-1.03.62-2.74.25-3.58-.68-1.16-1.3-.17-3.17.33-7.82Z"/>
  <path class="cls-25" d="m1544.14,656c-.52-3.22-.06-2.81-.58-6.25-.7-4.73-1.18-7.64-3.4-8.95-1.27-.75-3.16-1.01-3.81-.23-.9,1.07,1.3,3.22,2.56,7.97.4,1.51.56,3.31.86,6.9.55,6.43.2,8.5,1.57,9.23,1.06.57,2.75.11,3.54-.87,1.09-1.36,0-3.17-.74-7.79Z"/>
  <path class="cls-25" d="m1568.3,666.41c.44-3.23.75-2.7,1.27-6.15.7-4.73,1.1-7.65-.65-9.55-1-1.09-2.73-1.88-3.58-1.33-1.17.76.31,3.46.13,8.37-.06,1.56-.43,3.33-1.18,6.86-1.34,6.31-2.28,8.19-1.19,9.29.85.85,2.6.9,3.64.2,1.44-.98.92-3.03,1.55-7.67Z"/>
  <path class="cls-25" d="m1594.07,706.63c1.31-2.89,1.33-2.35,2.75-5.43,1.96-4.23,3.15-6.85,2.75-8.91-.23-1.18-.98-2.22-1.66-1.86-.93.49-.95,3.24-2.66,7.72-.54,1.43-1.34,2.99-2.94,6.1-2.85,5.57-4.01,7.13-3.73,8.34.22.94,1.23,1.29,2.06.83,1.17-.65,1.53-2.63,3.42-6.78Z"/>
  <path class="cls-25" d="m1567.23,685.41c.34-1.23.67-1.02,1.08-2.32.56-1.79.86-2.9-.91-3.68-1.02-.45-2.76-.8-3.58-.61-1.13.26.41,1.34.37,3.21-.01.6-.33,1.26-.97,2.6-1.15,2.38-2.02,3.08-.91,3.53.87.35,2.6.42,3.61.18,1.4-.34.83-1.14,1.32-2.9Z"/>
  <path class="cls-25" d="m1438.57,642c.23-1.18-.15-1.16.06-2.44.29-1.76.51-2.83,2.43-2.66,1.1.09,2.8.6,3.45,1.13.89.74-.95.93-1.74,2.52-.25.51-.26,1.21-.28,2.62-.03,2.52.44,3.51-.75,3.37-.92-.1-2.49-.84-3.28-1.51-1.1-.92-.23-1.33.1-3.03Z"/>
  <ellipse class="cls-22" cx="1356.96" cy="595.9" rx="2.63" ry="5.51" transform="translate(554.29 1841.76) rotate(-80.92)"/>
  <ellipse class="cls-22" cx="1361.7" cy="655.08" rx="2.63" ry="5.51" transform="translate(499.84 1896.27) rotate(-80.92)"/>
  <ellipse class="cls-22" cx="1300.3" cy="616.15" rx="2.63" ry="5.51" transform="translate(486.58 1802.86) rotate(-80.92)"/>
  <ellipse class="cls-22" cx="1328.23" cy="527.84" rx="5.32" ry="2.73" transform="translate(-50.19 905.71) rotate(-37)"/>
  <ellipse class="cls-22" cx="1335.57" cy="694.8" rx="5.39" ry="2.69" transform="translate(-169.27 650.63) rotate(-25.8)"/>
  <ellipse class="cls-22" cx="1400.96" cy="708.42" rx="1.81" ry="3.54" transform="translate(480.23 1979.96) rotate(-80.92)"/>
  <ellipse class="cls-22" cx="1310.17" cy="655.25" rx="1.81" ry="3.54" transform="translate(456.28 1845.53) rotate(-80.92)"/>
  <ellipse class="cls-22" cx="1312.05" cy="577.56" rx="1.81" ry="3.54" transform="translate(534.58 1781.97) rotate(-80.92)"/>
  <ellipse class="cls-22" cx="1245.05" cy="660.97" rx="4.81" ry="2.45" transform="translate(-104.5 253.85) rotate(-11.18)"/>
  <ellipse class="cls-22" cx="1267.47" cy="711.28" rx="4.81" ry="2.45" transform="translate(-113.82 259.15) rotate(-11.18)"/>
  <ellipse class="cls-22" cx="1205.09" cy="696.32" rx="4.81" ry="2.45" transform="translate(-112.11 246.77) rotate(-11.18)"/>
  <ellipse class="cls-22" cx="1200.24" cy="610.37" rx="4.81" ry="2.45" transform="translate(76.4 1352.06) rotate(-60.38)"/>
  <ellipse class="cls-22" cx="1240.98" cy="754.6" rx="5.56" ry="3.51" transform="translate(-142.61 1196.35) rotate(-49.01)"/>
  <ellipse class="cls-22" cx="1225.41" cy="727.47" rx="3.09" ry="1.69" transform="translate(-117.76 251.3) rotate(-11.18)"/>
  <ellipse class="cls-2" cx="1197.54" cy="666.17" rx="3.09" ry="1.69" transform="translate(-148.5 409.17) rotate(-18.28)"/>
  <g id="Layer_24" data-name="Layer 24">
    <rect class="cls-9" x="317.18" y="157.67" width="969.07" height="577.72" rx="12" ry="12"/>
    <rect class="cls-24" x="336.69" y="176.31" width="930.06" height="534.1" rx="12" ry="12"/>
  </g>
  <path class="cls-37" d="m0,737.84c48.82-3.91,77,6.77,93.97,18.02,19.71,13.07,23.59,26.43,48.82,36.79,13.52,5.55,29.62,6.74,61.27,8.91,53.39,3.65,60.84-1.03,78.13,6.96,23.17,10.7,21.78,24.88,40.32,29.42,23.51,5.76,44.26-12.5,65.25-22.63,72.24-34.88,132.66,33.57,242.8,15.26,71.67-11.92,68.08-44.57,136.81-47.15,60.96-2.29,82.87,22.68,139.37,12.16,50.89-9.47,48.2-32.53,92.52-43.18,81.13-19.49,117.64,51.17,226.18,50.58,15.28-.08,28.45-.36,45.48-5.32,38.25-11.14,49.91-33.04,87.58-40.38,12.98-2.53,22.36-2.03,37.24-1.23,65.55,3.52,88.31,32.52,142.34,35.16,14.02.68,35.32-.15,61.92-8.95v118.22H0v-162.62Z"/>
  <g>
    <path class="cls-39" d="m160.84,487.9c.97,1.59,1.26,2.95.89,4.07-1.79,5.41-18.97,5.56-51.54.46-1.47-2.22-3.7-5.99-5.33-11.05-3.43-10.67-1.38-18.33-1.23-33.7.11-11.14-.95-8.83-.97-20.55-.03-19.58,2.92-35.37,5.19-47.25.3-1.56,1.51-7.83,3.57-16.43,4-16.64,8.37-30.14,11.75-39.67,4.68-.95,11.62-1.83,19.89-.96,0,0,13.82,2.49,26.65,8.89,16.85,8.4,13.12,74-8.88,156.19Z"/>
    <path class="cls-13" d="m128.58,438.37c2.1,3.96,4.2,7.92,6.31,11.88-10.42-.85-20.83-1.71-31.25-2.56-.53-.94-1.43-2.83-1.57-5.42-.14-2.72.64-4.81,1.09-5.81,8.47.63,16.95,1.27,25.42,1.9Z"/>
    <path class="cls-13" d="m127.34,373.56c-.62,3.44-1.24,6.88-1.87,10.31-5.97-1.03-11.95-2.06-17.92-3.09.11-1.33.3-2.8.61-4.36.42-2.16.97-4.08,1.54-5.73,5.88.96,11.76,1.91,17.63,2.87Z"/>
    <path class="cls-16" d="m264.13,573.34c-1.95,1.12-5.64,3.59-8.27,8.2-3.1,5.43-4.81,14.01-1.05,19.74,3.39,5.17,8.17,3.35,11.25,8.72.62,1.08,1.29,2.66,1.03,14.67-.24,11.01-.91,14.35,1.38,17.75,1.85,2.75,4.65,4.07,6.62,4.74.24-2.21.52-5.38.63-9.21.07-2.44.12-6.88-.66-16.99-.59-7.62-.88-11.42-1.43-14.81-1.15-7.08-2.74-12.25-4.91-19.32-1.71-5.57-3.34-10.17-4.58-13.5Z"/>
    <path class="cls-16" d="m359.45,492.17c-1.87.83-6.64,3.27-8.27,8.2-2.21,6.7,2.81,13.58,4.78,16.28,5.63,7.72,10.7,6.93,12.23,12.65,1.01,3.76-1.11,4.39-2.06,14.31-.38,3.97-.72,7.76.07,12.33.97,5.63,3.2,9.84,4.81,12.39,1.33-2.19,3.14-5.31,5.09-9.18,1.99-3.95,3.9-8.26,4.94-11.06,1.58-4.27,6.2-16.8,1.82-30.49-2.99-9.34-8.82-15.03-11.16-17.25-4.55-4.33-9.13-6.79-12.25-8.18Z"/>
    <path class="cls-2" d="m171.32,321.92c-10.43-1.83-20.92-3.3-31.45-4.43"/>
    <path class="cls-17" d="m165.93,334.16c.78-1.5-.03-1.4,1.41-8.77.54-2.79.88-5.52,1.55-10.99.21-1.72.35-2.97-.38-4.09-.75-1.16-2.64-1.79-3.22-2.01-1.04-.39-1.72-.47-1.72-.69,0-.5,3.49-.13,4.42-1.84.6-1.11.06-2.97-1.05-3.77-1.25-.91-3.09-.38-5.9.88-6.83,3.07-10.73,6.33-10.73,6.33-3.42,2.86-9.59,8.13-14.06,17.4-2.02,4.2-3,6.29-2.41,8.05,2.44,7.24,27.54,8.25,32.07-.51Z"/>
    <path class="cls-38" d="m43.81,459.57c1,.92,2.32,2.39,3.3,4.5.39.83.66,1.61.85,2.32.04.23.1.58.16,1.01.07.53.16,1.24.25,2.95.06,1.22.1,1.83.08,2.21-.04,1.04-.18,1.36-.3,2.42-.09.77-.1,1.64-.11,3.37,0,1.89.02,3.33.02,3.58,0,0,.04,1.92.19,5.79h0c-.39,1.64-.83,2.05-1.17,2.1-1.15.16-3.13-3.44-3.49-7.12-.21-2.13.25-2.98-.35-5.28-.28-1.06-.9-3.44-2.09-3.52-1.2-.08-2.22,2.27-2.29,2.42-1.03,4.54-1.78,8.19-2.28,10.71,0,0-.61,3.09-1.97,8.58,0,0-.54,2.19-1.69,5.08-1.59,4.02-2.35,4.29-2.73,4.29-.33,0-.89-.2-1.56-1.48.06-1.49.19-3.75.59-6.48.26-1.76.43-2.44,1.27-6.51,1.53-7.46,1.9-9.89.65-10.94-.46-.38-.99-.48-1.3-.51-.43.7-.95,1.64-1.46,2.79-.3.66-.68,1.6-1.13,3.04-.63,2-.86,3.31-1.16,4.64-.23,1.02-.85,3-2.09,6.97-1.09,3.5-1.58,4.92-3,6.04-.46.36-1.38,1.09-2.04.78-1.39-.65-.55-5.4-.35-6.51.14-.81.19-.82,1.28-4.86,1.12-4.14.96-3.72,1.23-4.56.64-2.03,1.16-3.19,1.81-5.69.6-2.27.58-2.85.32-3.02-.46-.29-1.6.83-1.93,1.15-1.18,1.15-1.74,2.36-1.96,2.83-.88,1.88-1.91,3.69-2.8,5.56-.6,1.26-1.39,2.9-2.53,4.97-.78,1.4-1.41,2.46-2.61,3.37-.46.35-1.98,1.51-2.65,1.04-.92-.64.28-4.01.85-5.59.55-1.53,1.09-2.67,2.52-5.42,1.7-3.26,3.14-5.85,4.31-9.49.55-1.69.64-2.37.4-2.52-.23-.14-.8.24-3.95,3.8-1.4,1.58-2.89,3.09-4.23,4.72-1.47,1.79-2.23,2.9-3.44,2.9-.55,0-1.32-.24-1.62-.83-.44-.87.4-2.04,2.08-4.6,2.87-4.36,1.4-2.43,2.74-4.27,3.47-4.74,6.83-8.81,7.68-9.84,2.38-2.88,4.49-5.41,6.22-7.49,7.15.2,14.3.4,21.45.61Z"/>
    <path class="cls-38" d="m341.34,303.47c-1.42-3.26-1.41-5.76-1.29-7.08.12-1.3.48-2.81.65-3.53.23-.98.53-2.2,1.11-3.73.48-1.25.97-2.21,1.88-4.03.07-.13.17-.35.33-.62.28-.49.52-.8.92-1.47.39-.66.75-1.46,1.45-3.03.77-1.73,1.32-3.05,1.42-3.28,0,0,.74-1.77,2.16-5.38,1.01-1.34,1.57-1.53,1.91-1.42,1.1.34,1.46,4.47.3,7.99-.67,2.03-1.43,2.62-1.81,4.97-.17,1.08-.57,3.53.48,4.11,1.06.58,2.93-1.13,3.05-1.24,2.76-3.71,4.91-6.74,6.37-8.83,0,0,1.8-2.57,5.24-7.01,0,0,1.37-1.77,3.57-3.93,3.06-3,3.86-2.93,4.2-2.77.3.14.73.55.82,2.01-.65,1.34-1.68,3.35-3.14,5.67-.94,1.5-1.37,2.05-3.77,5.42-4.39,6.18-5.7,8.24-4.99,9.73.26.54.71.86.98,1.01.67-.46,1.52-1.1,2.45-1.93.53-.48,1.26-1.17,2.25-2.3,1.37-1.56,2.11-2.66,2.92-3.75.62-.84,1.98-2.39,4.7-5.49,2.4-2.74,3.41-3.83,5.15-4.25.57-.14,1.69-.41,2.16.15,1,1.18-1.67,5.17-2.3,6.1-.45.68-.5.67-3.12,3.9-2.68,3.31-2.37,2.99-2.95,3.65-1.4,1.59-2.33,2.43-3.93,4.43-1.45,1.82-1.67,2.37-1.5,2.62.3.46,1.79-.08,2.21-.23,1.53-.55,2.53-1.42,2.92-1.76,1.56-1.35,3.22-2.56,4.78-3.9,1.05-.9,2.42-2.07,4.29-3.47,1.27-.95,2.27-1.65,3.72-1.97.56-.13,2.41-.54,2.83.17.58.98-1.87,3.55-3.02,4.75-1.12,1.17-2.06,1.98-4.47,3.88-2.86,2.26-5.2,4.03-7.73,6.85-1.17,1.31-1.53,1.9-1.38,2.13.15.23.82.12,5.12-1.8,1.91-.85,3.86-1.6,5.74-2.53,2.06-1.02,3.19-1.71,4.28-1.19.5.24,1.1.78,1.14,1.44.05.98-1.19,1.7-3.74,3.32-4.35,2.78-2.25,1.63-4.2,2.74-4.52,2.56-8.73,4.67-10.43,5.5-.28.14-.43.21-.5.24-3.96,1.92-7.33,2.67-9.8,2.98-6.48-1.29-12.96-2.58-19.43-3.87Z"/>
    <path class="cls-11" d="m161.72,491.98c7.83,12.6,12.51,22.13,14.58,26.15,12.06,23.49,20.36,25.6,40.55,57.59,9.67,15.32,14.5,22.97,17.81,32.6,8.09,23.55,5.69,44.01,3.88,59.36-3.63,30.88-15.29,53.25-21.57,65.2-3.91,7.44-7.6,13.4-10.3,17.52-.3,1.65-.76,5.59,1.2,9.64,3.85,7.96,13.29,8.64,13.77,8.67,12.06-12.12,34.76-38.24,46.75-78.72,2.7-9.12,11.68-41.99,5.23-83.83-4.53-29.4-14.71-50.57-19.44-59.56-11.24-21.37-24.51-36.42-34.25-45.91,2.3-1.32,5.8-2.98,10.25-3.7,7.8-1.26,14.08,1.11,16.05,1.8,16.56,5.83,30.61-.47,65.77,6.7,23.24,4.74,28.53,9.82,31.28,13.39,7.54,9.78,6.72,22.04,6.57,23.93-.63,7.81-3.72,13.74-10.44,23.5-6.48,9.42-16.05,21.98-29.48,35.72-.59.8-2.03,2.99-2.17,6.14-.17,3.81,1.69,6.45,2.23,7.17,1.44,1.1,3.3,2.31,5.59,3.37,3.67,1.68,7.03,2.29,9.42,2.51,18.84-16.57,31.77-32.38,40.13-43.92,11.71-16.15,15.56-25.88,17.65-36.08,2.74-13.37.63-21.61.07-23.64,0,0-3.12-11.23-13.68-21.26-14.52-13.78-67.79-29.3-141.01-37.8-3.32-3.62-9.83-11.74-12.48-24.12-3.78-17.66,2.92-31.81,4.98-35.82,12.56,1.86,23,1.62,30.29,1.03,23.49-1.92,40.64-9.7,53.77-15.81,11.7-5.44,17.56-8.16,24.58-14.38,11.56-10.23,17.15-21.84,21.17-30.18,3.49-7.25,7.8-18.03,10.3-31.92-6.48-1.29-12.96-2.58-19.43-3.87-1.23,5.21-3.48,12.67-7.79,20.88-3.22,6.13-15.29,28.33-40.33,38.56-12.35,5.04-22.85,5.12-38.72,5.25-13.31.11-24.38-1.39-32.22-2.86-4.12-1.22-9.69-3.63-11.97-8.78-2.19-4.96.16-9.06-.15-12.99-.48-6.07-7.51-13.99-36.61-21.87,0,1.94-.19,7.74-3.84,10.07-2.5,1.59-5.48.82-7.48.33-6.89-1.7-14.09-2.06-20.88-4.1-8.28-2.49-19.15,1.5-40.88,9.48-14.08,5.17-24.02,10.32-31.22,14.08-12.38,6.46-18.57,9.7-25.54,15.75-1.5,1.3-12.29,10.81-19.49,24.34-15.39,28.92-6.31,61.02-4.19,67.98,7.92,0,15.85,0,23.77-.01-2.1-5.49-6.13-18.35-2.73-34,1.64-7.54,4.66-13.48,6.55-16.78.94-1.64,4.34-7.41,10.99-13.98,8.25-8.14,16.01-11.89,27.35-17.75.86-.44,13.76-7.05,24.59-9.8,6.46-1.64,15.35-2.71,15.49-2.72,0,0,0,0,0,0,.25-.03.53-.05.55-.05.29.05-4.01,23.47-4.5,37.42-.71,20.57,6.32,36.61,8.3,40.99,2.67,5.92,9.09,15.54,21.92,34.78,4.28,6.42,6.04,8.88,9.41,14.3Z"/>
    <path class="cls-17" d="m360.77,307.34c.1.49.19,1.3.01,2.28-.2,1.06-.63,1.82-.91,2.24-2.11-.33-3.82-.67-5-.92-2.67-.56-5.17-1.21-8.6-1.6-.18-.02-.36-.04-.6-.06-2.48-.25-4.5-.17-5.9-.06.12-.85.31-1.8.58-2.82.29-1.1.64-2.08.98-2.93,1.06.2,2.12.41,3.18.61,3.12.51,6.33,1.11,9.62,1.79,2.27.47,4.48.96,6.64,1.47Z"/>
    <path class="cls-17" d="m42.65,456.26c.2.06,1.32.41,1.92,1.6.69,1.38.11,2.72.03,2.87-1.26.57-3.06,1.26-5.3,1.73-3.69.77-6.58.5-9.47.21-2.31-.23-5.43-.72-9.02-1.84-.28-.18-1.1-.76-1.52-1.92-.4-1.08-.2-2.03-.11-2.36,2.99.44,5.52.69,7.42.84,4.43.36,7.17.56,10.71.07,2.26-.31,4.1-.81,5.35-1.2Z"/>
    <path class="cls-43" d="m308.84,499.4c-.54-1.45-1.81-4.71-3.95-8.57-.55-.99-2.73-4.87-7.98-11.33-2.68-3.31-6.35-7.52-11.06-12.12-5-.92-9.99-1.84-14.99-2.75,1.72,1.3,4.2,3.32,6.83,6.16,2.98,3.21,4.71,5.88,7.89,10.79,3.08,4.76,4.63,7.14,6.19,10.69,1.85,4.19,2.83,7.91,3.38,10.55,5.17.78,10.34,1.56,15.51,2.35-.41-1.57-1-3.54-1.83-5.76Z"/>
    <path class="cls-43" d="m191.51,528.33c2.07-.27,6.77-.8,12.71-.67,5.36.13,10.31.79,18.43,2.46,6.7,1.38,15.51,3.43,25.89,6.52,1.58,2.33,3.21,4.97,4.8,7.91,1.5,2.77,2.75,5.43,3.81,7.9-2.98-1.38-7.25-3.14-12.58-4.55-5.98-1.59-10.54-2.02-17.72-2.71-7.37-.7-11.2-1.07-16.6-.7-5.95.41-10.81,1.51-14.1,2.44-2.38-2.76-4.8-5.75-7.24-8.96-2.04-2.69-3.94-5.34-5.69-7.91.46-.17,1.15-.42,2-.67,2.73-.8,4.91-.89,6.31-1.07Z"/>
    <path class="cls-44" d="m39.82,439.76c.28,1.91.59,3.84.91,5.78.6,3.66,1.24,7.23,1.92,10.72-1.18-.56-2.86-1.4-4.82-2.5-1.6-.9-7.24-4.17-10.54-7.19-5.53-5.07-7.11-11.82-8.67-18.2-.91-3.71-1.91-9.48-1.5-16.72.72-3.7,1.87-8.06,3.74-12.8,2.57-6.5,5.7-11.65,8.41-15.43-.95,3.79-1.85,8.69-2.07,14.44-.35,8.84,1.07,15.48,1.88,19.17,1.05,4.76,2.01,9.01,4.7,14.07,2.05,3.86,4.33,6.73,6.05,8.65Z"/>
    <path class="cls-44" d="m354.72,329.3c.9-1.92,1.82-4.15,2.63-6.69.92-2.88,1.51-5.53,1.89-7.84-1.73.37-4.21.98-7.11,2-2.53.9-9.44,3.55-16.94,9.46-2.13,1.68-4.92,4.1-7.87,7.4-2.92,3.52-5.84,7.04-8.75,10.57-2.76,3.08-5.53,6.16-8.29,9.24,2.24-.35,5.56-1.09,9.25-2.85,3.08-1.46,4.85-2.89,10.29-7.01,5.98-4.52,8.97-6.77,9.99-7.44,3.25-2.14,8.13-4.83,14.91-6.84Z"/>
    <path class="cls-44" d="m155.27,330.68c-.96,2.48-2.04,5.04-3.25,7.67-.54,1.16-1.08,2.29-1.62,3.39-2.47-.19-5.85-.36-9.88-.29-3.48.06-8.78.02-14.83,1.34-6.22,1.35-6.07,2.03-13.54,4.02-6.85,1.82-12.2,2.64-16.7,3.34-5.25.81-9.44,1.45-15.22,1.63-4.46.14-8.21-.05-10.95-.28,3.89-2.47,9.38-5.7,16.21-8.95,7.32-3.48,12.96-5.39,23.94-9.06,13.72-4.59,20.71-6.88,26.86-6.88,8.23,0,14.86,2.27,19,4.07Z"/>
    <path class="cls-44" d="m254.5,368.16c-2.61.88-5.22,1.75-7.83,2.63-3.78-.61-7.05-.84-9.6-.91-3.71-.1-6.62.11-8.77.27-2.49.18-4.61.43-6.23.65.02-.95.05-1.91.09-2.89.03-.88.07-1.75.12-2.61,6.59-.17,13.98.1,21.98,1.14,3.6.47,7.01,1.06,10.24,1.72Z"/>
    <path class="cls-35" d="m215.67,878.83c-1.27,4.17-2.53,4.55-3.13,4.9-4.1,2.39-10.62-1.78-11.62-3.75-.07-.14-.37-.76-.9-1.52-.56-.8-1.12-1.37-1.47-1.71-.53.65-2.17,2.48-4.82,2.96-3.34.6-5.88-1.39-6.91-2.2-2.48-1.94-3.46-4.47-3.82-5.63-.72.53-1.79,1.21-3.19,1.74-.98.37-3.27,1.23-5.73.76,0,0-2.87-.55-5.37-3.53-4.39-5.25-1.79-17.96.43-27.11,4.25-17.48,6.38-26.23,11.86-34.1,1.15-1.65,7.53-10.6,18.81-16.09,5.78-2.81,7.6-2.16,8.4-1.73,3.91,2.14,1.87,9.65,4.15,22.17,1.44,7.91,2.55,6.55,4.72,15.9,2.75,11.81,2.57,20.78,2.39,29.14,0,0-.16,7.87-3.81,19.8Z"/>
    <path class="cls-15" d="m221.64,768.72c-1.37,2.27-3.16,5.64-4.64,9.94-2.13,6.18-2.94,12.37-2.78,20.89.18,9.65,1.41,11.13,4.73,33.62.06.39,1.36,9.37,2.19,21.39.6,8.73.53,12.95-1.14,17.69-1.92,5.42-5.11,9.2-7.45,11.49,1.39-2.99,3.19-7.6,4.12-13.47.81-5.1.64-9.11.38-12.91-.97-14.43-3.19-26.67-4.64-34.18-.96-4.96-2.33-11.69-4.15-19.69.08,2.6.22,6.6.51,11.5.37,6.25.64,8.29.78,11.76.23,5.52-.07,9.31-.68,16.77-.92,11.34-1.39,17.01-3.44,24.31-1.48,5.27-3.23,9.43-4.5,12.17-.79-1.08-1.58-2.15-2.37-3.23.94-1.82,2.14-4.4,3.21-7.63.92-2.77,1.43-5.08,1.79-6.96.93-4.83,1.57-10.41,2.12-21.77.28-5.68.49-10.13.48-16.26-.01-7.34-.33-11.42-.57-13.91-.26-2.73-.58-5.02-.83-6.69-.07-2.09-.14-4.17-.21-6.26-1.21-.3-2.43-.6-3.64-.89-.79,1.61-1.84,3.83-2.98,6.51-.79,1.86-3.14,7.47-5.55,15.61-.46,1.55-1.81,6.19-3.2,12.56-3.45,15.8-5.54,34.87-6.16,40.81-1.06.58-2.13,1.16-3.19,1.74.14-5.16.55-12.08,1.65-20.2,1.89-13.92,4.88-24.25,6.68-30.37,2.01-6.86,4.89-15.45,9-25.14-1.94.93-4.68,2.49-7.49,5.04-.48.43-2.66,2.44-5.18,6.04,0,0-3.07,4.38-5.24,9.76-2.64,6.54-7.03,25.82-10.52,52.09-1.23-1.37-2.94-3.65-3.88-6.86-1.34-4.58-.39-8.56.11-10.63,1.97-8.25,3.46-16.63,5.68-24.82,3.78-13.94,3.35-14.05,5.84-21.85,1.82-5.69,3.38-10.51,6.26-16.58,2.99-6.29,6.12-11.24,8.55-14.73.39-1,.9-2.58,1.09-4.57.33-3.37-.55-4.93-.69-7.85-.04-.79-.26-5.6,2.01-8.79,3.67-5.15,12.32-3.89,13-3.79-.65,2.37-.45,4.14-.22,5.2,1.04,4.8,5.49,7.58,9.89,10.32,2.15,1.34,4.04,2.24,5.31,2.79Z"/>
    <path class="cls-35" d="m382.9,705.73c.96,2.21.95,4.11,1.05,5.01.39,3.42,1.01,8.79-1.87,11.13-1.33,1.08-2.95,1.16-5.31,1.27-1.95.09-3.59.17-4.99-.85-.54-.4-.93-.87-1.87-1.3-.9-.4-1.74-.51-2.32-.53-.15.21-.38.5-.68.81-2.33,2.47-5.44,2.89-6.64,3.05-2.93.4-5.32-.32-6.61-.84-.5,1.01-1.12,2.12-1.9,3.27-1.06,1.58-2.16,2.86-3.15,3.88,0,0-2.53,1.54-6.33,1.01-6.7-.93-12.94-12.15-17.16-20.47-8.07-15.9-12.1-23.85-13.04-33.43-.2-2.01-1.15-13.01,3.83-24.74,2.55-6.01,4.35-6.77,5.23-6.99,4.33-1.06,7.64,5.91,17.44,13.69,6.19,4.91,6.15,3.15,13.83,8.63,9.7,6.92,15.34,13.72,20.6,20.06,0,0,4.95,5.97,9.9,17.32Z"/>
    <path class="cls-15" d="m325,621.23c.26,2.65.83,6.42,2.21,10.73,1.98,6.2,5.01,11.58,10.2,18.19,5.88,7.48,7.74,7.88,23.76,23.51.28.27,6.66,6.53,14.47,15.47,6.96,7.97,8.7,10.99,9.6,14.64,1.78,7.16-.53,13.73-2.2,17.36.13-3.16-.05-7.89-1.83-13.14-1.79-5.28-4.41-8.76-7.2-12.25-11.42-14.27-22.26-24.27-24-25.86-3.61-3.3-8.68-7.8-15.02-12.91,1.6,2,4.1,5.06,7.24,8.74,4.01,4.69,5.44,6.13,7.62,8.77,3.47,4.2,5.48,7.38,9.43,13.63,10.18,16.12,11.28,19.51,11.71,21.3,1.26,5.29,1.09,9.9.78,12.87-1.4-.61-2.8-1.22-4.2-1.82.36-1.83.65-4.56-.02-7.68-.58-2.7-1.63-4.55-2.22-5.6-6.13-10.91-5.28-11.53-10.45-19.51-2.59-4-5.43-7.88-6.72-9.66-.8-1.1-1.64-2.23-2.56-3.44-4.37-5.77-7.05-8.79-8.73-10.6-1.83-1.99-3.45-3.59-4.64-4.75-1.3-1.6-2.59-3.2-3.89-4.79-1.15.53-2.29,1.05-3.44,1.58.33,1.76.81,4.17,1.49,6.99.47,1.96,1.94,7.85,4.85,15.77.89,2.42,2.43,6.43,4.91,11.89,6.02,13.27,13.66,26.43,17.48,32.84-.63,1.09-1.26,2.18-1.9,3.27-2.3-3.39-5.27-8.01-8.44-13.69-6.78-12.16-10.54-22.18-12.73-28.1-2.47-6.66-5.29-15.22-7.77-25.42-.99,1.95-2.25,4.89-2.97,8.65-.12.64-.67,3.59-.54,7.99,0,0,0,0,0,0,0,0,.23,5.24,1.62,10.97.96,3.93,8.62,21.73,21.92,44.57-1.9-.24-4.99-.9-7.99-3.07-2.34-1.69-3.68-3.62-4.76-5.31-3.83-6.01-5.25-10.52-10.23-23.09-5.28-13.34-5.69-13.16-8.33-20.86-.44-1.29-2.37-6.95-4.86-16.97-.77-3.09-1.73-7.17-2.74-12.04.1-2.09.05-5.4-1.04-9.19-.3-1.03-.82-2.61-4.51-9.8-3.32-6.45-3.77-6.88-4.42-9.06-.63-2.09-1.89-6.28-.9-9.89,1.53-5.59,8.42-9.6,16.88-10.42-.42.83-3.1,6.23-.74,11.14,1.63,3.38,4.82,4.82,7.61,6.09,3.32,1.5,6.32,1.86,8.19,1.95Z"/>
    <path class="cls-17" d="m158.87,283.05c-6.51-2.43-12.09-4.36-16.37-5.8-.72-.24-8.33-2.79-18.84-5.69-9.01-2.49-12.31-3.08-16.58-2.48-3.4.48-7.42,1.1-10.04,4.6-2.42,3.23-2.99,8.05-1.19,11.54.83,1.61,2.04,2.71,6.51,5.23,5.8,3.28,10.51,5.25,12.26,5.98,15.01,6.28,14.69,6.17,15.61,6.52,4.65,1.77,7.66,2.75,13.06,5.11,2.4,1.05,4.35,1.96,5.63,2.58,2.99-1.7,5.98-3.4,8.98-5.1-2.27-.83-5.76-2.16-9.98-3.94-5.75-2.44-6.2-2.92-11.57-5.2-3.32-1.41-3.19-1.24-13.96-5.59-4.04-1.63,1.02.4-8.03-3.75,0,0-2.6-1.19-5.74-3.81-.94-.79-1.71-1.53-1.88-2.67-.24-1.63.91-2.96,1-3.07,1.22-1.37,3.21-1.54,6.04-1.32,4.67.37,8.15,1.54,9.79,2.07,6.58,2.13,5.49,1.09,13,3.42,3.07.95,4.3,1.45,12.66,4.54,3.24,1.2,7.66,2.83,12.95,4.75-1.1-2.64-2.2-5.27-3.31-7.91Z"/>
    <path class="cls-38" d="m235.89,324.63c1.71-2.02,4.3-4.99,7.59-8.48,6.75-7.15,7.35-6.81,9.5-10.07,3-4.56,4.62-9.48,6.36-14.75.68-2.07.98-3.23,1.18-4.18.48-2.18,1.14-6.16.71-10.88-.23-2.51-.71-7.88-3.51-12.29-2.19-3.44-5.16-5.33-18.55-10.18-11.81-4.27-17.71-6.4-20.87-6.64-2.66-.2-14.04-.81-25.72,5.94-2.97,1.71-7.41,4.34-11.34,9.58-3.97,5.3-5.26,10.39-6.36,14.75-2.26,8.96-1.69,16.41-1.25,19.94.68,5.43,1.49,11.9,6.12,18.2.83,1.13,3.09,4.04,6.86,6.66,1.6,1.12,3.09,1.92,4.57,2.51,7.49,2.97,14.15,1.97,24.54,3.61,9.89,1.56,14.32,4.35,17.7,1.4,1.64-1.43,2.24-3.52,2.48-5.12Z"/>
    <ellipse class="cls-41" cx="202.38" cy="281.86" rx="5.84" ry="2.93" transform="translate(-130.16 380.92) rotate(-70.91)"/>
    <ellipse class="cls-41" cx="243.71" cy="294.38" rx="5.83" ry="2.94" transform="translate(-127.82 383.95) rotate(-63.93)"/>
    <path class="cls-17" d="m235.11,325.41c.12.11,1.19-.85,2.09-1.69,2.21-1.59,5.24-3.91,8.59-7,5.17-4.77,11.56-10.65,16.07-19.92,4.01-8.24,4.75-15.51,5.21-20.5.51-5.49,1.29-14.93-2.6-26.05-1.38-3.94-5.34-14.82-15.93-23.22-6.83-5.42-13.24-7.28-20.56-9.41-6.95-2.02-16.27-4.73-28.33-3.09-5.95.81-17.84,2.43-28.01,12.13-8.96,8.55-11.78,18.8-13.17,23.84-2.63,9.54-2.16,17.38-1.86,21.7.19,2.78.92,11.05,4.71,20.93,2.37,6.2,4.6,12.03,10.06,17.65,4.63,4.77,9.57,7.32,12.79,8.66-3.7-7.46-5.59-14.14-6.61-19.09-1.2-5.81-2.19-10.57-1.32-16.92,1.33-9.77,6.08-16.29,7.39-18,5.58-7.3,12.25-10.35,14.88-11.51,12.07-5.34,23.2-2.86,28.9-1.5,2.73.65,23.84,5.95,29.27,20.39,1.28,3.41,1.61,7.04,1.61,7.04.57,6.25-1.2,11.07-3.02,15.89-2.51,6.64-5.64,11.16-6.28,12.06-.97,1.39-3.73,4.79-9.26,11.59-2.71,3.32-4.79,5.85-4.61,6.02Z"/>
    <path class="cls-33" d="m265.34,254.53c-.88-1.63-2.13-3.59-3.88-5.6-1.54-1.78-3.09-3.15-4.42-4.18.31-.99.62-2.25.76-3.74.12-1.21.09-2.29.02-3.19-.42-.94-1.14-2.27-2.37-3.57-.93-.98-1.87-1.65-2.61-2.09.48.81,1.07,2.02,1.39,3.58.54,2.64.03,4.84-.31,5.94-.56-.56-1.43-1.36-2.57-2.21-1.12-.83-2.38-1.54-6.17-3.34-2.96-1.41-4.44-2.11-6.43-2.71-2.46-.74-4.58-1.01-6.03-1.13-.52-1.23-1.27-2.91-2.26-4.86-.82-1.61-1.59-3.11-2.59-4.64-1.05-1.59-2.74-3.8-5.4-6.07-1.79-.24-3.57-.49-5.36-.73,1.82,1.07,3.99,2.66,5.98,5.02,2.19,2.59,3.3,5.1,4,6.68.59,1.35.99,2.53,1.26,3.39-3.46-.58-6.5-.91-8.97-1.1-2.89-.22-5.1-.27-7.14-.3-2.55-.05-5.84-.04-9.72.12-.64-1.07-1.58-2.48-2.9-3.98-.76-.86-2.78-2.95-5.9-4.97-2.05-1.33-3.92-2.08-5.15-2.5-1.28.13-2.57.27-3.85.4,2.53,1.04,4.52,2.2,5.96,3.14,1.35.89,2.96,1.96,4.73,3.76,1.8,1.83,3.01,3.63,3.78,4.97-1.63.03-4.03.21-6.85.92-4.32,1.09-7.35,2.85-10.02,4.44-1.65.98-4.47,2.67-7.64,5.57-1.15,1.05-4.56,4.2-7.19,8.51-4.42,7.24-4.65,14.51-4.93,23.69-.2,6.57.4,11.68.8,14.41,1.14,7.77,3.14,13.42,4.65,17.62,1.31,3.65,2.88,7.38,3.13,7.29.28-.1-1.3-4.51-2.55-10.64-1.27-6.26-1.55-11.07-1.89-17.43-.41-7.72-.62-11.59-.18-15.82.71-6.85,1.47-14.16,6.61-20.31,2.43-2.9,5.31-4.92,7.89-6.72,4.38-3.06,8.13-4.71,9.4-5.25,6.29-2.66,11.51-3.25,15.84-3.7,10.03-1.05,17.92.24,21.05.85,4.31.83,12.54,2.49,21.54,8.01,3.74,2.29,8.06,5.01,11.9,10.32,2.78,3.85,4.26,7.59,5.07,10.21-.15-2.69-.3-5.37-.45-8.06Z"/>
    <path class="cls-30" d="m199.53,318.27c-.68,1.19-1.44,2.78-2.03,4.73-.69,2.31-.9,4.36-.94,5.88-.85-.03-2.1-.09-3.61-.25-1.49-.16-4.51-.55-11.48-2.53-3.49-.99-5.24-1.49-6.53-2.02-3.64-1.52-6.28-3.33-8.12-4.59-2.16-1.49-3.87-2.91-5.1-4,1.45-2.76,2.89-5.52,4.34-8.27,1.11.39,2.78.99,4.8,1.75,5.28,1.96,6.36,2.5,10.17,3.91,3.03,1.12,6.14,2.27,10.25,3.43,3.42.97,6.29,1.59,8.26,1.97Z"/>
    <path class="cls-30" d="m249.86,329.09c1.78,1.31,2.12,3.56,2.2,4.1.42,2.79-.94,4.96-1.38,5.65-1.41,2.23-3.38,3.21-4.22,3.56-5.03-.94-10.07-1.88-15.1-2.83.91-1.49,1.9-3.36,2.75-5.61,1.08-2.85,1.6-5.43,1.87-7.48,2.16.18,3.98.39,5.34.58.3.04,2.58.31,5.52,1.02,2.4.58,2.8.84,3.02,1Z"/>
    <ellipse class="cls-7" cx="217.28" cy="327.59" rx="18.59" ry="18.77" transform="translate(-140.5 490.42) rotate(-80.92)"/>
    <path class="cls-10" d="m234.74,334.36c.12.02,1.27-2.94,1.32-6.48.08-5.51-2.56-9.47-3.49-10.85-.43-.63-2-2.86-4.8-4.94-6.22-4.62-13.03-4.41-15.42-4.21-1.73.15-4.64.43-7.95,2.21-4.38,2.36-6.65,5.81-7.08,6.49-3.52,5.52-4.55,13.86-.94,19.55,2.21,3.48,5.93,5.6,7.45,6.46,1.92,1.09,3.58,1.68,4.42,1.98,4.06,1.43,7.3,1.55,8,1.57,1.89.05,3.47-.12,4.58-.3-1.49-.28-9.77-1.85-15.3-5.1-2.54-1.49-3.77-2.91-4.52-4.03-.3-.44-1.17-1.8-1.72-3.83-.78-2.9-.4-5.32-.22-6.38.95-5.59,4.64-9.02,5.28-9.59,4.59-4.15,9.94-4.14,11.89-4.13,4.1,0,7.09,1.38,8.63,2.1,2.32,1.09,5.39,2.53,7.69,6.05,2.34,3.57,2.61,7.33,2.63,8.93.02,2.52-.55,4.47-.45,4.49Z"/>
    <ellipse class="cls-40" cx="215.55" cy="328.28" rx="16.11" ry="16.77" transform="translate(-142.65 489.3) rotate(-80.92)"/>
    <path class="cls-3" d="m229.92,309.66c-1.97,2.67-5.77,2.18-8.58,1.82-.46-.06-10.6-1.47-11.09-6.85-.2-2.23,1.35-4.07,4.3-7.58,3.72-4.43,6.69-7.96,9.77-7.27,3.51.79,4.9,6.54,5.72,9.93.81,3.37,1.77,7.35-.13,9.94Z"/>
    <path class="cls-6" d="m154.45,262.16c1.64-1.47,5.47-.69,13.13.86,2.35.48,4.29.96,5.62,1.31.55-2.88,1.91-7.33,5.59-9.84.98-.67,3.34-2.03,16.94-.43,1.92.23,8.32,1.01,16.83,3.03,10.49,2.48,11.82,3.91,12.42,4.66,1.69,2.1,2.6,5.07,5.88,6.44,1.34.56,2.62.67,3.1.7,2.87.21,4.23-.85,6.34-1.27,3.27-.67,6.03.67,9.99,2.6,1.88.91,3.61,2.19,7.06,4.76,6.34,4.7,7.5,6.5,8.02,7.4.15.26,1.7,2.92,2.04,6.11.9,8.55-6.77,17.42-14.51,21.62-3.23,1.76-10.3,5.7-16.91,2.66-.56-.26-6.79-3.22-7.96-8.77-.5-2.37-.11-5.38-2.01-9.34-.64-1.33-.97-1.59-1.27-1.72-2.2-.99-5.09,3.52-10.64,7.04-1.38.88-4.7,2.82-8.84,3.75-1.64.37-9.77,2-17.47-2.59-1.08-.64-6.73-4.01-9.75-10.64-1.85-4.06-1.9-7.5-4.95-9.26-1.43-.82-2.42-.62-5.29-.85-2.53-.2-6.21-.71-10.71-2.13-3.74-7.22-5.1-13.92-2.65-16.11Zm79.15,36.87c.2.43.99,2.06,2.71,3.53.41.35,1.57,1.29,3.34,1.94,2.43.89,4.53.66,5.72.52,6.55-.78,10.73-5.66,11.16-6.18,1.45-1.74,3.72-4.48,3.62-8.25-.07-2.79-1.41-4.92-2.1-6-1.27-1.99-2.71-3.16-4.51-4.61-.7-.57-2.36-1.9-4.75-3.26-2.43-1.38-3.68-2.07-5.34-2.14-.57-.02-2.41-.07-4.23,1.07-1.12.71-1.74,1.56-2.3,2.29-1.23,1.62-1.79,3.23-2.05,4.27-.21.66-.5,1.64-.82,2.84-.9,3.45-1.55,6.02-1.41,9.17.07,1.57.15,3.07.96,4.81Zm-50.42-12.22c.57.9,4.61,7.07,12.27,9.29,3.13.9,5.7.81,6.6.76,6.08-.36,10.25-3.56,11.56-4.59.38-.3,8.04-6.51,8.58-15.9.2-3.42-.66-5.3-.86-5.72-1.71-3.58-5.31-5.07-6.55-5.58-.63-.26-1.91-.57-4.44-1.17-2.58-.61-4.43-1.05-6.73-1.48-4.42-.82-4.03-.41-9.48-1.26-2.06-.32-7.94-1.24-10.28.31-.15.1-.28.21-.4.3-1.49,1.3-1.91,3.06-2.1,3.94-3.02,13.4,1.85,21.08,1.85,21.08Z"/>
    <path class="cls-1" d="m261.12,296.09c2.67-2.45,3.85-3.47,4-5.26.24-2.92-2.48-5.38-5.57-8.18-3.13-2.84-3.32-1.93-9.73-6.59-2.76-2-3.64-2.84-5.29-2.93-2.86-.16-5.09,2.08-6.74,3.78-1.5,1.55-6.74,6.96-6.35,15.3.13,2.86.39,8.42,5.13,12.1,3.26,2.53,7.79,3.53,11.64,2.73,2.7-.56,2.6-1.48,12.9-10.96Z"/>
    <path class="cls-1" d="m220.7,267.72c.49.7,2.09,3.11,2.42,6.6.68,7.26-4.68,13.29-7.72,16.71-1.41,1.59-4.05,4.5-8.32,6.66-2.38,1.21-5.93,3-10.18,2.46-6.05-.77-9.7-5.81-11.59-8.43-5.46-7.54-5.41-16.07-5.36-18.8.09-4.61.17-8.87,2.78-11.46,2.47-2.44,5.29-1.49,15.77.03,14.75,2.15,19.01,1.69,22.2,6.21Z"/>
    <g>
      <path class="cls-10" d="m217.89,333.57c-.39-.41-.99-1.03-1.96-1.5-.41-.2-1.94-.89-3.86-.5-1.01.2-1.7.62-2.05.83-.3.18-2,1.22-1.8,1.96.09.32.52.53.88.54.72.03.95-.75,1.82-1.26.95-.55,1.97-.39,2.94-.24.79.12,1.93.3,2.83,1.17,1.32,1.28,1.11,3.1,2.08,3.26.23.04.51-.02.68-.2.42-.43.02-1.44-.17-1.94-.12-.32-.49-1.17-1.38-2.11Z"/>
      <path class="cls-10" d="m217.9,329.92c-.8-.32-1.29-.47-1.29-.47-1.05-.32-1.45-.41-1.83-.47-.82-.13-1.06-.06-1.21.1-.12.13-.21.37-.14.56.12.32.6.3,1.55.47,1.06.19,1.62.3,2.29.59.57.25.93.52,1.23.34.18-.11.3-.35.26-.55-.04-.22-.27-.34-.85-.57Z"/>
      <path class="cls-10" d="m221.25,326.37c.32.53,1.5.45,2.3.13,1.97-.8,2.91-3.69,2.31-4.27-.48-.46-1.99.44-2.71,1-1.11.86-2.31,2.45-1.89,3.15Z"/>
      <path class="cls-10" d="m217.03,323.49c.55.26,1.51-.47,2-1.18,1.23-1.77.49-4.7-.34-4.85-.65-.12-1.44,1.48-1.75,2.35-.48,1.34-.64,3.34.08,3.68Z"/>
      <path class="cls-10" d="m210.58,324.17c.59-.17.85-1.36.78-2.23-.19-2.16-2.62-3.87-3.34-3.43-.57.35-.16,2.08.16,2.94.49,1.33,1.63,2.94,2.41,2.72Z"/>
      <path class="cls-10" d="m209.38,327.97c.26-.57-.45-1.54-1.15-2.03-1.73-1.23-4.59-.42-4.73.43-.11.67,1.44,1.45,2.29,1.75,1.31.47,3.25.6,3.59-.15Z"/>
      <path class="cls-10" d="m227.59,332.4c.26-.57-.45-1.54-1.15-2.03-1.73-1.23-4.59-.42-4.73.43-.11.67,1.44,1.45,2.29,1.75,1.31.47,3.25.6,3.59-.15Z"/>
    </g>
    <g>
      <path class="cls-18" d="m210.31,356.51c8.88,2.76,11.38,6.15,11.97,8.78.25,1.12.07,1.71-.21,5.5-.39,5.4-.3,8.12-.4,10.78-.4,9.99-3.53,17.85-5.24,34.41-1.03,10.01-.53,13.35-.09,15.44.87,4.11,1.95,5.49,4.92,13.8,2.69,7.51,4.03,11.27,4.02,12.84-.07,11.24-14.47,19.9-21.26,23.99-3.35,2.02-9.17,5.45-17.48,6.97-4.65.85-8.58.69-16.43.36-5.74-.24-7.55-.7-9.27-1.48-5.32-2.43-9.67-7.98-8.52-10.22,1.21-2.38,8.38-.68,11.5-.15,9.81,1.67,25.48-.44,50.69-18.2-7.44-13.33-8.99-24.68-9.38-30.51h0c.23-1.41.63-7.59,1.29-20.67.83-4.86,1.21-6.83,1.39-7.64.03-.13.32-1.38.7-3.12h0c.44-1.99.66-2.99,1.55-6.01.48-1.66.73-10.29.25-34.87Z"/>
      <path class="cls-18" d="m195.52,408.04c-6.06-.46-9.08-.7-12.74-1.22-8.86-1.26-15.55-3.17-18.37-4.02-2.62-.79-4.78-1.54-6.27-2.09-.36,3.01-.7,6.93-.79,11.53-.04,2.46-.1,9.98,1.33,19.74,1.26,8.57,2.32,15.67,5.76,23.43,6.69,15.09,17.23,20.96,15.29,24.57-.77,1.42-3.47,2.47-12.02.74-3.97-5.48-8.86-13.17-13.19-23.01-2.54-5.77-7.32-16.8-9.24-31.69-2.85-22.06,1.86-40.85,3.67-47.8,2.28-8.77,4.44-13.32,5.53-23.41,1.07-9.87.36-18.11-.41-23.54.87-.48,2.4-1.15,4.36-1.14,4.4.03,7.11,3.53,7.5,4.06.46,2.08,1.03,5.35,1.09,9.36.07,4.9-.7,6.57-2.96,18.51,0,0-1.24,6.56-2.77,17.32-.04.31-.41,2.93-.63,6.43-.11,1.77-.17,2.66-.09,3.05.62,3.06,5.35,4.67,11.74,6.16,4.28,1,7.56,1.77,11.31,2.29,3.59.5,6.35.62,7.1.65,13.23.62,18.09-2.87,21.16.23,2.14,2.16,2.43,6.51.77,8.77-1.13,1.55-3.22,2.17-17.13,1.11Z"/>
    </g>
    <path class="cls-34" d="m173.09,326.15c-2.68-1.32-6.27-2.86-10.67-4.07-2.66-.74-7.91-1.99-14.84-2.17-6.75-.17-11.49-.29-16.75,2.39-2.61,1.33-6.67,3.4-8.15,7.81-1.48,4.41.48,8.6,1.6,10.99.61,1.3,2.45,4.91,8.51,9.67,4.03,3.17,5.61,3.45,15.18,8.71,9.86,5.41,11.75,7.07,13.22,8.6,1.84,1.91,4.83,5.09,6.46,10.15,2.42,7.52.26,14.3-.73,16.9-1.84-.43-3.68-.86-5.51-1.29.68-1.66,1.57-4.39,1.65-7.84.03-1.49.08-5.11-1.59-8.56-1.62-3.36-4.09-4.94-9.34-8.18-7.29-4.49-10.77-6.52-14.02-8.52-7.64-4.71-11.52-7.14-14.64-10.85-2.44-2.91-5.54-6.71-6.28-12.55-.16-1.26-1.07-8.49,3.4-13.84,1.42-1.7,2.85-2.58,5.01-3.91.92-.57,4.83-2.9,10.93-4.13,2.43-.49,5.91-.95,10.89-.64,10.84.67,20.74,4.46,26.14,6.84-.15,1.5-.31,3-.46,4.5Z"/>
    <g>
      <ellipse class="cls-15" cx="215.42" cy="426.77" rx="8.6" ry="10.56" transform="translate(-54.77 32.39) rotate(-7.63)"/>
      <ellipse class="cls-20" cx="215.42" cy="426.77" rx="6.63" ry="8.14" transform="translate(-54.77 32.39) rotate(-7.63)"/>
      <ellipse class="cls-42" cx="215.42" cy="426.77" rx="4.93" ry="6.05" transform="translate(-54.77 32.39) rotate(-7.63)"/>
    </g>
    <g>
      <ellipse class="cls-15" cx="220.69" cy="450.55" rx="8.62" ry="10.54" transform="translate(-105.72 69.56) rotate(-14.49)"/>
      <ellipse class="cls-20" cx="220.69" cy="450.55" rx="6.64" ry="8.12" transform="translate(-105.72 69.56) rotate(-14.49)"/>
      <ellipse class="cls-42" cx="220.69" cy="450.55" rx="4.94" ry="6.04" transform="translate(-105.72 69.56) rotate(-14.49)"/>
    </g>
    <ellipse class="cls-15" cx="160.15" cy="404.91" rx="11.14" ry="10.84" transform="translate(-264.97 499.13) rotate(-80.92)"/>
    <ellipse class="cls-20" cx="160.15" cy="404.91" rx="8.58" ry="8.36" transform="translate(-264.97 499.13) rotate(-80.92)"/>
    <ellipse class="cls-42" cx="160.15" cy="404.91" rx="6.38" ry="6.21" transform="translate(-264.97 499.13) rotate(-80.92)"/>
  </g>
  <g>
    <path class="cls-19" d="m583.02,313.9l-.24-16.14,29.55-1.88c.16,1.66.16,3.21.16,4.75,0,32.05-15.46,45.87-29.63,45.87-15.7,0-31.87-16.91-31.87-45.09s15.54-43.54,33.63-43.54c6.65,0,13.61,2.1,20.26,6.74l-7.29,20.34c-4.32-2.98-9.45-5.19-14.17-5.19-7.45,0-13.85,5.42-13.85,21.66,0,14.04,7.69,23.98,14.17,23.98,4.24,0,8.01-3.32,9.45-11.27l-10.17-.22Z"/>
    <path class="cls-19" d="m655.02,345.73l-3.68-16.91-15.86,1.55-2.64,16.69-18.1-4.75,19.14-84.66,17.06.77,21.62,80.35-17.54,6.96Zm-12.73-58.46l-4.56,26.86,10.25-.88-5.69-25.97Z"/>
    <path class="cls-19" d="m727.01,342.96l-2.8-44.98-10.25,36.14-7.05,1.66-8.25-35.48-6.09,44.21-16.58-5.42,12.73-80.68,12.57-.55,10.17,40.89,12.17-40.67,13.29,1.88,9.77,81.78-19.7,1.22Z"/>
    <path class="cls-19" d="m755.6,346.61l-3.12-83.77,38.68-5.19.32,26.75-24.18,2.54.32,9.84,19.78-2.43.72,15.47-19.7,2.87.32,11.05,22.82-3.87,1.12,18.68-37.08,8.07Z"/>
    <path class="cls-19" d="m833.59,301.96c0-23.87,12.57-44.54,29.15-44.54s29.31,19.78,29.31,44.21-12.89,43.88-29.55,43.88-28.91-20-28.91-43.54Zm40.6,1.33c0-10.28-4.32-19.01-11.05-19.01-7.21,0-12.25,9.06-12.25,19.34s3.76,18.79,12.01,18.79c7.21,0,11.29-8.95,11.29-19.12Z"/>
    <path class="cls-19" d="m913.59,343.85l-16.58-78.25,18.98-7.52,6.33,57.25,10.33-58.02,17.14,6.41-20.82,79.68-15.38.44Z"/>
    <path class="cls-19" d="m956.2,346.61l-3.12-83.77,38.68-5.19.32,26.75-24.18,2.54.32,9.84,19.78-2.43.72,15.47-19.7,2.87.32,11.05,22.82-3.87,1.12,18.68-37.08,8.07Z"/>
    <path class="cls-19" d="m1030.11,344.29l-9.21-29.95-4.8.88,1.12,29.29h-16.9l.16-83.44c4.16-1.66,11.29-2.43,16.18-2.43,20.18,0,30.19,13.48,30.19,27.3,0,9.06-4.24,18.24-12.73,23.87l12.73,30.95-16.74,3.54Zm-14.49-44.43c8.17-.11,12.33-5.75,12.33-11.27,0-4.97-3.44-9.84-10.41-9.84-.88,0-1.84,0-2.72.22l.8,20.89Z"/>
  </g>
</svg>