<?xml version="1.0" encoding="UTF-8"?>
<svg id="menu" xmlns="http://www.w3.org/2000/svg" viewBox="0 0 533 174">
  <defs>
    <style>
      .cls-1 {
        fill: #4f5dab;
      }

      .cls-1, .cls-2, .cls-3, .cls-4, .cls-5 {
        stroke-width: 0px;
      }

      .cls-2 {
        fill: #6f8fda;
      }

      .cls-3 {
        fill: #264584;
      }

      .cls-4 {
        fill: #1f2e6b;
      }

      .cls-5 {
        fill: #fff;
      }
    </style>
  </defs>
  <path class="cls-1" d="m33.77.2h479.78c10.61,0,19.22,8.61,19.22,19.22v120.84c0,18.51-15.03,33.54-33.54,33.54H33.77C15.26,173.8.23,158.77.23,140.26V33.74C.23,15.23,15.26.2,33.77.2Z"/>
  <path class="cls-3" d="m497.85,156.31H36.87c-9.97,0-18.12-8.16-18.12-18.12V34.95c0-9.97,8.16-18.12,18.12-18.12h460.98c1.22,0,7.62.15,12.8,5.32,3.28,3.28,5.32,7.82,5.32,12.8v103.24c0,9.97-8.16,18.12-18.12,18.12Z"/>
  <path class="cls-4" d="m497.85,16.83c1.5-.07,3.52.03,5.75.75,3.55,1.15,5.74,3.27,7.05,4.57.96.95,2.37,2.37,3.54,4.68,1.3,2.57,1.63,4.93,1.72,6.38.02,2.8.04,5.59.06,8.38.22,32.35.22,64.54,0,96.59,0,1.53-.2,4-1.32,6.76-.34.83-2.08,4.97-6.24,7.93-4.28,3.05-8.97,3.33-10.56,3.42-8.94.53-105.34.57-237.16,0,44.15-14.22,78.12-30.74,101.77-43.57,26.07-14.14,37.38-22.84,46.39-31.11,24.59-22.6,38.52-48.04,46.17-65.13,14.28.11,28.56.22,42.84.33Z"/>
  <path class="cls-2" d="m37.6,37.28c10.33-3.05,23.15-5.57,37.87-5.68,14.31-.11,26.82,2.08,36.97,4.85-10.76,2.1-22.91,3.61-36.23,3.83-14.27.24-27.23-1.03-38.62-3Z"/>
  <g>
    <path class="cls-5" d="m202.04,118.19l-2.62-30.52-9.6,24.52-6.6,1.12-7.72-24.07-5.7,30-15.52-3.67,11.92-54.75,11.77-.38,9.52,27.75,11.4-27.6,12.45,1.27,9.15,55.5-18.45.83Z"/>
    <path class="cls-5" d="m229.04,120.66l-2.92-56.85,36.22-3.52.3,18.15-22.65,1.73.3,6.67,18.52-1.65.67,10.5-18.45,1.95.3,7.5,21.37-2.62,1.05,12.67-34.72,5.47Z"/>
    <path class="cls-5" d="m307.64,119.61l-19.72-30.6,4.42,30-20.47,2.32-1.2-59.92,12.67.45,16.42,22.42-3.38-24.52,18.45,2.1,2.1,56.85-9.3.9Z"/>
    <path class="cls-5" d="m373.03,62.17c.45,4.12.75,8.55.75,13.35,0,24.9-6.07,45.07-23.55,45.07-15.75,0-25.5-22.95-25.5-48,0-3.52.22-6.97.6-10.42l19.72,1.65c-.38,2.47-.68,7.05-.68,11.62,0,15.3,2.1,25.35,7.72,25.35s8.02-7.8,8.02-20.25c0-6.15-.75-12.75-1.8-18.52l14.7.15Z"/>
  </g>
</svg>