<?xml version="1.0" encoding="UTF-8"?>
<svg id="plastikplaske" xmlns="http://www.w3.org/2000/svg" viewBox="0 0 169 432">
  <defs>
    <style>
      .cls-1 {
        fill: #5a6084;
      }

      .cls-1, .cls-2, .cls-3, .cls-4 {
        stroke-width: 0px;
      }

      .cls-2 {
        fill: #8595e6;
      }

      .cls-3 {
        fill: #97b2bf;
      }

      .cls-4 {
        fill: #f0f8fa;
      }
    </style>
  </defs>
  <g id="Layer_16" data-name="Layer 16">
    <path class="cls-4" d="m57.15,20.49c-8.87,13.27-20.33,32.52-30.4,57.16C9.21,120.57,5.62,156.06,2.85,185.56c-3.29,35.2-.84,79.35,4.19,166.22,1.37,23.58,2.62,42.88,3.45,55.39,10.51,7.93,19.96,12.55,26.26,15.22,54.26,22.92,106.71-1.87,113.85-5.38,8.31-4.09,14.62-8.24,18.39-10.9-1.04-79.01-2.08-158.02-3.13-237.03-1.82-19.24-6.29-45.07-17.42-73.77-13.46-34.69-31.46-60.2-45.14-76.66-15.39.62-30.77,1.23-46.16,1.85Z"/>
  </g>
  <path class="cls-2" d="m53.5,4.82c-.44,1.85-.94,4.98-.34,8.78.57,3.62,1.9,6.35,2.85,7.96,6.49,1.07,14.49,1.87,23.63,1.62,9.64-.26,17.97-1.61,24.62-3.14.93-1.17,2.62-3.64,3.14-7.2.81-5.5-1.74-9.66-2.47-10.75-6.88,2.31-12.91,3.48-17.52,4.11-4.25.58-14.55,1.69-27.52-.21-2.66-.39-4.85-.82-6.39-1.15Z"/>
  <path class="cls-1" d="m53.5,4.82c6.23-1.98,14.53-3.97,24.45-4.61,10.93-.7,20.19.46,26.98,1.84-4.78,2.06-11.04,4.18-18.55,5.29-14.19,2.1-25.94-.42-32.88-2.52Z"/>
  <path class="cls-2" d="m2.85,185.56c9.5,3.55,22.81,7.77,39.12,10.57,13.18,2.27,36.93,6.15,66.9.9,23.7-4.15,42.91-12.53,57.06-20.52.62,14.94,1.1,30.13,1.41,45.56.51,25.21.56,49.81.22,73.74-8.85,4.38-21.68,9.85-37.79,13.82-9.76,2.41-38.46,8.64-75.13,2.93-12.7-1.98-30.55-6.03-50.65-15.06-2.96-22.5-4.68-48.22-3.71-76.53.43-12.44,1.34-24.27,2.58-35.43Z"/>
  <path class="cls-3" d="m20.23,399.19c-.46-.65,5.62-6.29,12.56-11.04,0,0,17.23-11.79,40.05-15.17,41.18-6.1,86.29,24.29,89.24,26.31-7.07-4.1-17.1-9.33-29.7-14.11-7.99-3.03-15.99-6.06-26.58-7.93-6.2-1.09-23.69-4-43.54.96-25.21,6.3-41.26,22.04-42.02,20.97Z"/>
</svg>