<?xml version="1.0" encoding="UTF-8"?>
<svg xmlns="http://www.w3.org/2000/svg" viewBox="0 0 1600 900">
  <defs>
    <style>
      .cls-1 {
        opacity: .64;
      }

      .cls-1, .cls-2, .cls-3, .cls-4, .cls-5, .cls-6, .cls-7, .cls-8, .cls-9, .cls-10, .cls-11, .cls-12, .cls-13, .cls-14, .cls-15, .cls-16, .cls-17, .cls-18, .cls-19, .cls-20, .cls-21, .cls-22, .cls-23, .cls-24, .cls-25, .cls-26, .cls-27, .cls-28, .cls-29, .cls-30, .cls-31, .cls-32, .cls-33, .cls-34, .cls-35, .cls-36, .cls-37, .cls-38, .cls-39, .cls-40, .cls-41, .cls-42, .cls-43, .cls-44, .cls-45, .cls-46, .cls-47 {
        stroke-width: 0px;
      }

      .cls-1, .cls-6 {
        fill: #4f5daa;
      }

      .cls-2 {
        fill: none;
      }

      .cls-3 {
        fill: #5fcaff;
        opacity: .76;
      }

      .cls-4 {
        fill: #497065;
      }

      .cls-5 {
        fill: #5d7d74;
      }

      .cls-7 {
        fill: #5b5b5b;
      }

      .cls-8 {
        fill: #5c369e;
      }

      .cls-9 {
        fill: #535f95;
      }

      .cls-10 {
        fill: #262626;
      }

      .cls-11 {
        fill: #264583;
      }

      .cls-12 {
        fill: #182047;
      }

      .cls-13 {
        fill: #3d524c;
      }

      .cls-14 {
        fill: #091434;
      }

      .cls-15 {
        fill: #446e6a;
      }

      .cls-16 {
        fill: #150055;
      }

      .cls-17 {
        fill: #070035;
      }

      .cls-18 {
        fill: #0b0035;
      }

      .cls-19 {
        fill: #162048;
      }

      .cls-20 {
        fill: #161d40;
      }

      .cls-21 {
        fill: #cbcbcb;
      }

      .cls-22 {
        fill: #c8b991;
      }

      .cls-23 {
        fill: #d5b3b3;
      }

      .cls-24 {
        fill: #da6565;
      }

      .cls-25 {
        fill: #d9ecf7;
      }

      .cls-26 {
        fill: #daacac;
      }

      .cls-27 {
        fill: #c0e3f7;
      }

      .cls-28 {
        fill: #64a08f;
      }

      .cls-29 {
        fill: #98c3da;
      }

      .cls-30 {
        fill: #7d63c8;
      }

      .cls-31 {
        fill: #9c9c9c;
      }

      .cls-32 {
        fill: #6aa292;
      }

      .cls-33 {
        fill: #80aec6;
      }

      .cls-34 {
        fill: #fff;
      }

      .cls-35 {
        fill: #ffd974;
      }

      .cls-36 {
        fill: #e4a542;
      }

      .cls-37 {
        fill: #ffd174;
      }

      .cls-38 {
        fill: #e78d8d;
      }

      .cls-39 {
        fill: #fbe6b3;
      }

      .cls-40 {
        fill: #f1be9b;
      }

      .cls-41 {
        fill: #f3c263;
      }

      .cls-42 {
        fill: #f5f5f5;
      }

      .cls-43 {
        fill: #000255;
      }

      .cls-44 {
        fill: #000735;
      }

      .cls-45 {
        fill: #008ff3;
      }

      .cls-46 {
        fill: #0089e8;
      }

      .cls-47 {
        fill: #679d8e;
      }
    </style>
  </defs>
  <g id="regler">
    <path class="cls-27" d="m.49-1.21v901.21h1599.51V-1.21H.49Z"/>
    <path class="cls-29" d="m102.29,104.92s0,0,0,0c.78-.08,31.87-3.09,73.91-.04,46.57,3.38,63.3,11.06,77.81,24.19,9.88,8.94,29.27,26.57,34.15,52.14,12.88,67.55-89.13,132.84-80.53,162.71,8.31,28.87,115.41,12.36,188.48-10.9,24.69-7.86,53.53-19.06,87.67,1.49,26.51,15.96,53.85,49.65,59.79,56.98,26.99,33.25,27.92,46.02,45.29,58.84,24.66,18.2,37.71,3.48,67.21,6.72,47.43,5.2,48.29,47.02,95.68,61.03,60.95,18.02,82.35-44.43,129.86-20.24,6.43,3.27,25.62,14.38,40.74.76,6.73-6.06,10.06-14.69,12.36-20.4,0,0,12.18-30.29,37.69-74.5,24.98-43.3,54.72,3.09,102.09-31.73,39.87-29.31,38.4-76.58,77.45-85.15,20.22-4.44,37.41,4.55,48.21,10.2,47.43,24.81,56.43,73.34,88.28,97.83,7.56,5.81,14.73,8.66,21.68,9.33,52.42,5.07,85.13-42.7,130.21-53.8,30.89-7.6,80.42,2.11,159.33,87.64.12,94.63.23,189.25.35,283.88-132.59-18.45-265.42-34.57-398.49-48.38-398.2-41.31-798.54-61.85-1201.01-61.62V112.69c40.82-2.62,74.38-5.22,101.8-7.78Z"/>
    <path class="cls-33" d="m393.37,557.91c-7.8-7.96-34.55-33.2-72.1-30.84-10.25.64-34.55,2.17-54.06,24.41-21.97,25.05-28.39,65.55-33,94.63-.31,1.93-.48,2.91-.49,3.56-.87,42.77,107.97,84.3,187.89,100.32,98.11,19.67,151.51.65,245.56-8.71,220.64-21.98,313.73,44.13,407.21,17.81,31.96-9,34.5-18.94,66.19-35.08,87.61-44.63,228.48-77.3,459.43-16.9v-106.2c-61.1-47.41-106.96-53.07-137.96-49.06-59.38,7.69-80.58,52.99-135.72,44.72-36.31-5.44-65.82-30.89-85.37-47.75-32.37-27.91-31.9-42.17-58.66-60.81-4.78-3.33-49.17-33.44-96.24-26.64-69.68,10.07-67.56,87.77-160.51,129.41-63.72,28.54-99.31,13.11-110.15,7.63-26.4-13.35-24.88-27.84-47.87-38.89-51.66-24.83-78.34,39.17-147.1,37.3-54.79-1.49-62.75-42.82-131.93-51.47-39.33-4.92-72.62,3.95-95.11,12.56Z"/>
    <path class="cls-22" d="m.49,532.14c13.87,4.67,34.43,13.17,55.65,29.1,28.55,21.42,29.01,34.29,52.81,45.95,25.73,12.6,33.1,1.45,69.4,14.27,28.79,10.17,25.7,17.73,52.69,27.01,34.41,11.83,42.63.64,77.79,12.11,22.71,7.41,24.74,14.45,54.8,29.1,26.98,13.14,50.76,20.09,66.74,23.92,15.9-3.1,40.36-8.29,69.82-16.41,70.44-19.42,82.5-32.71,119.47-36.58,28.72-3,22.84,3.25,124.03,18.11,76.56,11.24,115.48,16.76,147.09,11.64,27.52-4.46,40.1-10.9,65.06-6.75,35.52,5.91,45.99,24.93,73.66,22.66,26.18-2.15,27.3-21.14,54.41-29.83,41.01-13.15,60.77,22.01,109.37,22.85,46.6.81,43.76-31.27,121.52-58.56,66.14-23.22,85.5-6.09,134.96-36.44,26.17-16.06,32.42-28.02,59.59-38.16,34.17-12.75,67.18-9.84,90.45-5.04.07,112.92.13,225.84.2,338.77H.49v-367.68Z"/>
    <g>
      <path class="cls-15" d="m83.5,767.5s-13.34,3.11-67.62-32.94h0c-8.07-45.92,1.53-66.55,11.9-76.89,9.38-9.36,18.35-10.33,23.14-21.47,6.13-14.26-7.72-22.88-5.41-49.08.18-2.06,2.22-9.3,6.27-23.72,7.14-25.47,10.78-38.33,13.81-44.18,3.22-6.21,11.09-19.78,25.93-31.42,10.39-8.15,18.57-14.57,28.22-12.83,13.17,2.37,23.36,18.88,22.82,33.01-.42,10.91-6.97,13.36-22.06,35.97-12.81,19.18-20.12,30.39-21.81,45.92-.99,9.03.75,7.49,2.96,32.11,1.96,21.84,2.94,32.76-1.67,41.59-6.85,13.11-17.4,11.78-24.46,25.59-5.05,9.89-4.6,20.31-3.45,27.51,37.2-5.16,52.05-18.14,58.49-29.78,6.39-11.55,3.23-19.47,12.98-36.41,6.95-12.08,10.44-11.33,27.54-31.1,20.07-23.2,19.23-28.83,30.26-34.61,15.81-8.29,38.66-7.81,43.65,1.31,4.45,8.14-6.73,22.65-29.07,51.66-19.33,25.1-22.24,24.43-28.18,36.46-13.1,26.55-1.38,39.91-13.65,52.26-13.47,13.56-30.32.24-58.31,14.26-20.7,10.37-17.3,23.29-32.26,26.78Z"/>
      <path class="cls-47" d="m70.35,635.3c-1.81.27-4.35-4.59-5.28-8.88-.86-3.92-.27-6.9.1-9.47,1.26-8.79-.46-10.22-.04-19.83,0,0,.44-10.13,3.46-20.2,6.3-20.99,17.68-19.32,23.11-38.7,2.36-8.43,1.83-14.51,7-22.27,2.63-3.95,4.04-4.27,8.59-10.97,2.67-3.93,3.84-6.26,6.12-6.46,2.56-.23,5.66,2.28,6.05,4.96.59,4.06-5.33,6.73-10.36,11.52-10,9.54-4,17.57-15.16,35.12-8.7,13.69-10.77,12.97-15.26,22.47-3.7,7.85-7.62,16.1-7.3,26.93.23,7.84,2.5,11.01,2.06,21.99-.11,2.88-.53,13.41-3.09,13.79Z"/>
      <path class="cls-32" d="m133.43,705.82c-1.29-2.41,8.53-6.96,15.28-17.16,7.71-11.65,2.65-17.22,9.7-32.53,5.01-10.88,12.33-17.94,16.3-21.77,9.32-8.99,16.3-11.46,25.05-22.72,3.08-3.96,5.2-7.49,6.49-9.82,2.13.41,4.66,1.29,5.55,3.3,1.53,3.43-2.53,8.35-7.28,13.45-12.39,13.3-19.11,16.62-29.35,27.68-5.35,5.77-8.02,8.66-10.78,13.6-5.88,10.52-3.85,15.38-10.58,30.33-4.39,9.76-8.03,13.86-12.84,15.58-2.8,1-6.79,1.47-7.55.05Z"/>
      <path class="cls-28" d="m51.43,777.63c-21.4,2.48-39.26,2.01-51.24,1.18v-88.43c14.04-22.69,14.43-38.43,11.71-48.96-2.75-10.68-12.56-32.29-9.85-45.29,2.9-13.93,10.78-13.48,14.8-30.16,4.36-18.12-3.04-26.57,3.85-34.59,6.3-7.34,20.15-9.19,27.53-3.6,6.92,5.24,6.41,15.68,5.74,29.56-.18,3.64-.87,13.42-5.05,26.22-5.77,17.67-10.09,16.33-10.67,25.89-.46,7.58,2.24,8.65,7.3,32.78,1.4,6.68,2.1,10.02,2.1,11.15.02,14.86-11.06,24.29-9.6,36.28.18,1.45.62,5.11,2.58,5.67,1.47.42,3.13-1.1,3.8-1.78,2.73-9.22,8.05-21.61,19.38-30.8,12.69-10.29,20.65-6.64,27.32-15.78,9.14-12.53-2.46-24.03,5.6-49.06,3.89-12.07,10-20.01,11.37-21.73,13.59-17.21,24.46-12.5,36.49-26.86,12.92-15.43,5.58-27.1,19.02-38.01,7.5-6.09,20.15-10.88,30.36-6.23,12.9,5.87,16.74,24.45,14.93,37.26-2.49,17.69-16.52,30.02-31.46,43.15-16.58,14.57-23.93,15.04-29.47,26.94-3.87,8.32-1.32,10.34-4.23,31.97-2.93,21.73-4.4,32.6-10.85,40.18-9.58,11.26-19.58,7.61-29.52,19.51-7.12,8.52-8.99,18.78-9.46,26.06,39.33,3.39,55.82-6.49,63.63-16.02,11.3-13.79,6.67-29.56,22.61-42.42,12.17-9.82,18.69-3.7,31.86-14.4,15.16-12.31,11.79-24.7,25.68-32.16,9.66-5.19,24.5-6.3,30.99.58,10.2,10.83-.99,40.66-17.02,59.46-14.24,16.7-22.05,12.65-35.56,29.28-19.11,23.52-10.29,35.55-24.89,47.92-19.41,16.45-38.91-3.51-96.3,6.72-17.1,3.05-22.57,6.11-43.47,8.53Z"/>
      <path class="cls-4" d="m11.76,697.48c.85-15.95,4.62-27.77,7.96-35.68,4.47-10.58,7.55-12.7,8.07-20.33.84-12.34-6.62-15.27-8.44-30.64-1.31-11.1,1.32-20.26,2.75-25.23,3.36-11.67,8.06-17.01,9.76-30.21.6-4.64.6-8.49.51-10.97,2.04-.7,4.66-1.21,6.46-.04,3.08,2.01,2.13,7.89.69,14.25-4.54,20.03-9.2,23.54-10.89,36.24-1.36,10.16.19,18.65.74,21.37,2.34,11.51,6.03,13.15,6.61,21.33.63,8.93-3.67,8.29-8.62,25.81-3.52,12.47-2.75,17.77-7.98,32.94-1.12,3.26-2.16,5.91-2.88,7.69-1.47,1.98-2.61,2.86-3.42,2.65-1.27-.34-1.71-3.4-1.33-9.2Z"/>
      <path class="cls-4" d="m61.18,715.64c-1.03-.98,5.93-10.36,11.27-16.53,4.48-5.16,9.34-9.81,19.07-19.1,4.11-3.93,3.7-3.43,4.21-4,7.93-8.84,10.52-18.97,13.11-29.61,3.48-14.3,1.02-15.68,4.67-27.91,2.02-6.76,4.77-15.97,11.93-24.6,9.22-11.11,13.58-6.59,26.14-19.32,7.61-7.72,13.31-16.79,18.93-25.73,2.44-3.88,3.66-5.82,4.48-7.93,1.89-4.81,1.69-7.77,3.76-8.64,1.78-.74,4.45.37,5.74,2.11,1.56,2.1,1.8,6.07-3.71,16.3-7.94,14.72-18.27,24.71-23.92,29.83-12.02,10.88-13.82,9.64-20.66,17.61-8.22,9.58-12.38,19.27-14.17,24.02-6.01,16.02-2.26,21.86-9.29,38.59-2.99,7.11-6.28,12.23-7.86,14.59-3.12,4.65-7.19,9.73-23.58,24.23-11.89,10.52-19.19,16.99-20.14,16.09Z"/>
      <path class="cls-4" d="m118.32,745.58c40.31-2.85,48.44-6.53,52.5-12.85,1.59-2.47.27-1.99,2.99-11.18,1.76-5.95,6.18-18.4,14.2-30.82,6.5-10.06,14.74-16.01,19.21-19.23,10.5-7.58,17.76-9.04,28.01-18.93,3.6-3.48,6.21-6.68,7.82-8.8,2.05.71,4.43,1.94,5.03,4.06,1.03,3.62-3.69,7.91-9.11,12.28-17.08,13.78-23.06,13.75-32.97,23.24-7.93,7.59-12.48,15.63-13.89,18.24-3.86,7.15-6.29,13.43-9.32,21.93-5.28,14.81-3.63,15.63-6.51,18.99-3.48,4.06-7.33,4.78-33.55,8.45-19.51,2.73-23.47,3.19-30.02,2.67-10.33-.81-21.35-3.59-21.21-5.29.12-1.48,8.62-1.46,26.83-2.74Z"/>
    </g>
    <path class="cls-30" d="m1464.45,752.69c14.18-45.09,5.59-69.73-2.29-82.65-7.12-11.67-20.55-20.81-47.42-39.09-40.05-27.25-54.34-30.03-62.1-48.33-7.74-18.26-4.6-41.63,3.97-44.91,6.76-2.59,16.24,7.61,31.65,24.81,16.18,18.07,38,42.85,63.77,73.41,1.17-46.85-12.29-73.79-24.54-89.64-21.21-27.45-40.33-23.6-69.25-58.58-5.16-6.24-43.13-52.16-28.56-81.01,4.03-7.98,12.71-15.9,19.2-14.38,7.56,1.77,7.8,15.32,13.94,31.74,7.97,21.28,20.91,34.1,38.28,51.3,25.17,24.94,36.18,23.43,48.54,42.88,10.06,15.84,12.52,32.24,13.15,42.87.07.85.53,5.25,3.91,7.3,2.15,1.3,4.98,1.41,6.25.65,5.4-3.26-.17-20.83-4.93-40.2,0,0-3.32-13.52-11.59-65.44-6.37-40.02-14.78-92.84,7.22-106.11,10.15-6.13,26.28-3.53,34.8,4.9,13.67,13.53-.26,34.18-1.45,82.53-.15,6.27.83,13.07,1.51,29.9.66,16.37.58,21,1.41,30.37,1.56,17.46,3.32,17.68,4.15,28.8,2.26,30.34-9.89,46.63-1.72,52.49,4.45,3.19,11.59,2.26,16.26-.72,10.6-6.76,9.27-24.66,8.96-44.75-.78-50.11-1.17-75.17,11.76-92.2,15.59-20.54,46.84-26.23,51.83-19.57,4.04,5.39-11.16,16.06-21.39,43.09-11.05,29.22.17,34.02-9.73,68.49-9.36,32.59-28.24,61.63-28.24,61.63-9.23,14.19-17.04,22.69-14.58,25.8,2.97,3.75,20.43-.92,31.63-12.72,14.57-15.35,7.84-31.5,19.26-54.42,4.61-9.25,13.36-21.98,31.65-33.87,0,20,0,40,.01,60-8.09,6.41-19.35,15.72-32.17,27.65-29,26.98-43.26,40.58-51.89,59.6-6.81,15-12.35,39.35-1.29,77.53-16.66.29-33.31.57-49.97.86Z"/>
    <path class="cls-13" d="m1293.2,808.12c10.2-3.63,20.4-7.26,30.6-10.89,2.35-2.5,10.09-11.34,9.99-24.37-.11-13.82-8.97-23.14-11.44-25.66-1.44-1.47-2.54-2.29-6.43-5.15-23.74-17.46-23.79-15.97-26.26-18.85-10.51-12.25,3.89-23.47-6.14-43.28-6.1-12.04-17.33-19.56-19.96-21.25-11.85-7.61-17.22-4.95-23.6-11.73-8.45-8.98-2.22-17.04-9.31-29.95-6.52-11.87-21.71-23.11-32.07-20.04-11.24,3.34-15.83,23.24-13.01,37.76,2.56,13.13,10.05,16,10.71,29.79.46,9.65-3.1,10.3-4.98,23.19-1.12,7.68-3.94,26.96,6.41,41.77,1.7,2.43,3.38,4.21,5.06,5.6,9.09,7.55,15.33,11.27,20.11,14.59,10.05,6.98,11.93,16.8,16.1,24.77,5.92,11.32,19.62,24.9,54.21,33.69Z"/>
    <path class="cls-13" d="m1355.25,756.48c12.41-.41,24.82-.82,37.23-1.23,3.41-1.82,14.83-8.45,19.01-22.01,4.43-14.39-2.25-26.99-4.14-30.42-1.74-3.17-2.33-2.78-5.38-7.47,0,0-6.53-10.02-9.97-21.41-1.08-3.56-1.56-6.45-1.69-9.02-.63-11.83.25-19.97.83-25.45.58-5.49,3.04-28.6-11-42.39-5.21-5.12-9.26-5.58-23.02-17.41-5.99-5.15-8.15-7.57-9.14-11.01-1.61-5.57,1.4-8.45,2.18-17.66.3-3.49,1.02-8.81-.8-13.62-3.67-9.7-15.35-20.41-28.17-20.55-16.46-.18-24.91,16.3-27.22,24.11-1.02,3.44-2.99,10.07-.39,17.62,2.39,6.94,7.24,10.61,6.92,18.01-.12,2.74-.88,4.58-1.97,7.24,0,0-5.25,12.79-10.03,25.02-4.16,10.62-4.46,20.89-3.94,26.59,1.81,19.79,17.06,22.05,24.94,42.34,9.62,24.76-6.6,35.78,3.02,54.09,4.16,7.92,14.34,18.17,42.74,24.63Z"/>
    <path class="cls-5" d="m1365.85,752.49c-2.15-9.78-4.3-19.55-6.45-29.33-3.61.14-8.08-.04-13.06-1.05-11.6-2.36-19.74-7.97-24.01-11.45,12.12,2.94,24.24,5.87,36.36,8.81-6.92-22.41-13.85-44.82-20.77-67.22-6.04-1.1-14.03-3.13-22.81-7.09-8.66-3.9-15.31-8.42-20.02-12.13,13.97,5.09,27.94,10.17,41.91,15.26-6.28-27.87-12.56-55.74-18.85-83.61-3.25-1.8-8.09-5-12.35-10.3-2.45-3.06-4.08-6.01-5.16-8.42,5.73,4.86,11.46,9.72,17.19,14.57-.53-10.09-1.06-20.19-1.59-30.28,2.52,9.84,5.03,19.68,7.55,29.52,4.91-5.54,9.82-11.07,14.73-16.61-.11,2.24-.66,7.2-4.15,12.26-3.6,5.22-8.34,7.7-10.47,8.66,6.17,27.82,12.34,55.64,18.5,83.46,8.27-12.18,16.55-24.35,24.82-36.53-.77,5.51-2.78,14.41-8.61,23.87-4.96,8.05-10.82,13.49-15.01,16.8,7.25,23.02,14.51,46.03,21.76,69.05,8.11-7.49,16.23-14.98,24.34-22.47-.73,3.14-2.48,8.67-7.06,14.14-5.89,7.02-13.12,9.97-16.43,11.09,2.06,9.78,4.11,19.55,6.17,29.33-2.17-.11-4.35-.22-6.52-.33Z"/>
    <path class="cls-5" d="m1287.03,788.12c-1.19-1.65-2.37-3.31-3.56-4.96-3.03.93-6.84,1.76-11.27,1.96-10.33.45-18.43-2.81-22.8-4.99,10.89-.05,21.78-.1,32.67-.14-10.74-18.7-21.47-37.4-32.21-56.1-5.34.35-12.55.29-20.84-1.32-8.17-1.6-14.79-4.2-19.58-6.5,12.92,1.48,25.85,2.97,38.77,4.45-11.38-23.78-22.77-47.56-34.15-71.33-3.14-.9-7.93-2.72-12.69-6.56-2.74-2.21-4.76-4.52-6.2-6.46,5.9,3.11,11.81,6.22,17.71,9.34-2.65-9-5.29-18-7.94-27,4.27,8.33,8.54,16.66,12.82,24.99,2.95-6.1,5.89-12.19,8.84-18.29.4,2.04,1.01,6.65-.84,12-1.91,5.52-5.38,8.82-6.97,10.16,11.28,23.76,22.55,47.52,33.83,71.28,4.35-12.84,8.69-25.69,13.04-38.53.55,5.15.79,13.63-2.08,23.48-2.44,8.37-6.21,14.6-9.04,18.53,11.15,19.18,22.3,38.35,33.45,57.53,5.23-8.57,10.46-17.15,15.69-25.72.07,3-.21,8.39-2.89,14.35-3.45,7.66-8.93,11.93-11.48,13.68.71,1.33,1.43,2.66,2.14,3.99-1.47.73-2.95,1.46-4.42,2.19Z"/>
    <ellipse class="cls-8" cx="1343.04" cy="443.08" rx="5.8" ry="7.98" transform="translate(-61.35 609.73) rotate(-25.03)"/>
    <ellipse class="cls-8" cx="1377.07" cy="456.31" rx="5.8" ry="7.98" transform="translate(-63.75 625.36) rotate(-25.03)"/>
    <ellipse class="cls-8" cx="1399.77" cy="504.71" rx="9.74" ry="9.76"/>
    <ellipse class="cls-8" cx="1442.45" cy="523.79" rx="9.74" ry="9.76"/>
    <ellipse class="cls-8" cx="1344.67" cy="403.36" rx="2.9" ry="3.99" transform="translate(-44.39 606.69) rotate(-25.03)"/>
    <path class="cls-8" d="m1474.89,580.38c2.29,4.88.2,10.69-4.67,12.99-4.87,2.29-10.67.2-12.96-4.68-2.29-4.88-.2-10.69,4.67-12.99,4.87-2.29,10.67-.2,12.96,4.68Z"/>
    <ellipse class="cls-8" cx="1504.73" cy="621.99" rx="7.1" ry="7.11"/>
    <ellipse class="cls-8" cx="1480.18" cy="677.75" rx="6.42" ry="7.88" transform="translate(-147.76 687.56) rotate(-24.95)"/>
    <ellipse class="cls-8" cx="1576.26" cy="588.47" rx="8.94" ry="6.28" transform="translate(-100.28 730.27) rotate(-25.31)"/>
    <path class="cls-8" d="m1599.97,537.23c-.06,3.45-.12,6.9-.19,10.36-.48-.1-3.96-.9-5.4-4.05-1.22-2.69-.8-6.74,1.38-7.59,1.75-.68,3.88,1.02,4.2,1.28Z"/>
    <ellipse class="cls-8" cx="1513.64" cy="657.69" rx="4.47" ry="6.28" transform="translate(-136.11 702.3) rotate(-25.03)"/>
    <ellipse class="cls-8" cx="1466.37" cy="632.2" rx="4.47" ry="6.28" transform="translate(-129.76 679.91) rotate(-25.03)"/>
    <ellipse class="cls-8" cx="1419.47" cy="621.99" rx="4.47" ry="6.28" transform="translate(-129.85 659.1) rotate(-25.03)"/>
    <ellipse class="cls-8" cx="1502.24" cy="709.67" rx="4.47" ry="6.28" transform="translate(-159.18 702.36) rotate(-25.03)"/>
    <ellipse class="cls-8" cx="1355.9" cy="548.46" rx="8.42" ry="6" transform="translate(566.88 1780.01) rotate(-79.38)"/>
    <ellipse class="cls-8" cx="1389.69" cy="577.64" rx="6" ry="8.42" transform="translate(-113.88 642.32) rotate(-25.03)"/>
    <path class="cls-8" d="m1497.4,528.39c1.79,3.82.53,8.19-2.82,9.77-3.35,1.58-7.52-.24-9.31-4.06-1.79-3.82-.53-8.19,2.82-9.77,3.35-1.58,7.52.24,9.31,4.06Z"/>
    <path class="cls-8" d="m1475,484.89c1.79,3.82.53,8.19-2.82,9.77-3.35,1.58-7.52-.24-9.31-4.06-1.79-3.82-.53-8.19,2.82-9.77,3.35-1.58,7.52.24,9.31,4.06Z"/>
    <path class="cls-8" d="m1498.46,444.61c2.38,5.07.65,10.89-3.84,13.01-4.5,2.12-10.07-.27-12.45-5.34-2.38-5.07-.65-10.89,3.84-13.01,4.5-2.12,10.07.27,12.45,5.34Z"/>
    <path class="cls-8" d="m1467.57,389.13c1.67,3.56.46,7.65-2.7,9.14-3.16,1.49-7.07-.19-8.74-3.75-1.67-3.56-.46-7.65,2.7-9.14,3.16-1.49,7.07.19,8.74,3.75Z"/>
    <path class="cls-8" d="m1503.94,361.38c1.67,3.56.46,7.65-2.7,9.14-3.16,1.49-7.07-.19-8.74-3.75-1.67-3.56-.46-7.65,2.7-9.14,3.16-1.49,7.07.19,8.74,3.75Z"/>
    <ellipse class="cls-8" cx="1525.44" cy="584.53" rx="7.1" ry="7.11"/>
    <ellipse class="cls-8" cx="1555.12" cy="543.41" rx="7.11" ry="6.18" transform="translate(614.81 1896) rotate(-74.45)"/>
    <ellipse class="cls-8" cx="1535.23" cy="512.08" rx="7.11" ry="6.18" transform="translate(630.42 1853.9) rotate(-74.45)"/>
    <ellipse class="cls-8" cx="1556.75" cy="476.45" rx="7.1" ry="7.11"/>
    <ellipse class="cls-8" cx="1554.74" cy="439.5" rx="4.2" ry="4.2"/>
    <ellipse class="cls-8" cx="1588.45" cy="430.46" rx="2.75" ry="2.75"/>
    <path class="cls-24" d="m1415.15,702.58c10.53,33.75,44.38,49.26,42.53,51.87-1.52,2.14-26.14-6.3-47.53-26.56-11.02-10.44-19.52-22.45-25.87-20.05-3.1,1.17-4.56,5.35-4.91,8.09-2.51,19.83,43.51,41.38,52.81,45.73,13.62,6.38,38.69,17.77,72.92,16.55,11.63-.42,26.15-.84,42.47-8.05,33.1-14.61,47.68-45.5,52.27-56.58-.02-12.07-.04-24.15-.06-36.22-1.43,6.67-3.59,14.09-6.88,21.89-10.59,25.06-27.42,41.16-38.62,50.03,8.73-10.93,13.73-20.98,16.64-28,3.72-8.98,5.44-17.27,8.87-33.86,2.64-12.76.15-4.11,3.95-28.46,1.43-9.13,2.68-16.15-1.03-19.04-2.02-1.58-5.06-1.58-6.98-.94-10.56,3.51-4.81,32.15-11.85,62.16-8.02,34.2-29.35,56.12-31.17,55.11-2.25-1.24,18.23-42.99,23.54-85.65.1-.82.17-1.47.21-1.88.83-7.86,3.96-37.66-5.92-41.92-2.83-1.22-6.3-.16-8.34,1.42-5.62,4.37-3.04,15.34-2.87,20.94.4,13.37-.23,30.65-3.9,50.5-3.82,20.61-9.76,37.73-15.18,50.56-13.21-15.91-18.28-31.06-20.33-42.32-1.51-8.32-1.51-15.38-1.5-29.51.02-29.35,7.24-41.88.12-47.86-1.9-1.59-4.87-2.85-7.44-2.1-5.18,1.51-7.04,10.66-8.22,22.61-2.17,22.14-3.65,37.13,1.73,57.92,2.57,9.95,7.67,24.9,18.36,41.04-9.32-7.03-22.61-19.2-32.33-37.97-2.53-4.89-7.42-14.5-9.9-27.99-1.29-7.01-.98-16.8-.37-36.39.63-20.03.94-30.04,2.14-34.73,2.35-9.18,6.02-17.2,2.79-19.94-1.84-1.57-5.26-.84-7.41.18-4.47,2.11-8.31,7.79-10.9,37.97-1.33,15.55-2.03,23.71-1.37,36.3.91,17.34,1.42,27.02,5.84,39.52,0,0,5.5,29.52,39.33,49.58,1.29.76,2.02,1.14,2,1.17-.18.23-65.49-34.51-63.58-82.94.55-13.8,9.5-30.16,3.06-34.94-1.98-1.47-5.36-1.82-7.9-.72-4.47,1.95-5.73,8.17-6.38,11.85-4.44,25.35-7.05,38.14-2.84,51.62Z"/>
    <path class="cls-38" d="m1405.76,715.43c4.06,12.84,11.19,21,25.45,37.31,12.77,14.61,21.77,24.67,37.25,30.9,8.85,3.56,16.02,4.35,28.65,5.73,17.47,1.91,27.01,2.96,37.68-1.39,6.27-2.55,12.57-8.69,25.18-20.95,11.79-11.47,17.64-17.25,23.18-25.29,5.27-7.64,12.53-20.36,16.7-38.71-.02-5.8-.04-11.59-.06-17.39-1.72-.94-4.14-1.87-6.56-1.18-7.46,2.12-7.91,18.02-9.8,24.31-4.16,13.81-13.79,31.88-37.68,50.75,8.52-11.09,13.34-21.23,16.12-28.31,3.56-9.05,5.12-17.37,8.23-34.02,2.4-12.81.07-4.11,3.42-28.53,1.26-9.16,2.38-16.19-1.38-19.02-2.05-1.54-5.09-1.48-7-.81-10.49,3.71-4.21,32.24-10.69,62.37-7.38,34.34-28.3,56.66-30.14,55.68-2.27-1.2,17.43-43.32,21.94-86.08.09-.82.14-1.47.18-1.89.68-7.87,3.25-37.73-6.7-41.8-2.85-1.17-6.31-.04-8.31,1.58-5.54,4.48-2.76,15.4-2.48,20.99.65,13.36.34,30.65-2.96,50.57-3.43,20.68-9.05,37.9-14.24,50.84-13.51-15.66-18.85-30.72-21.11-41.94-1.67-8.29-1.79-15.35-2.05-29.47-.53-29.34,6.46-42.01-.77-47.85-1.92-1.56-4.92-2.75-7.48-1.96-5.15,1.61-6.84,10.79-7.79,22.76-1.76,22.17-2.95,37.19,2.81,57.88,2.76,9.9,8.13,24.75,19.12,40.69-9.45-6.86-22.97-18.77-33.04-37.36-2.62-4.84-7.69-14.36-10.42-27.8-1.42-6.98-1.3-16.78-1.05-36.38.25-20.04.38-30.05,1.49-34.77,2.18-9.22,5.7-17.31,2.42-19.99-1.87-1.53-5.28-.74-7.4.32-4.43,2.2-8.16,7.94-10.19,38.17-1.04,15.57-1.59,23.74-.7,36.32,1.23,17.32,1.92,26.99,6.58,39.4,0,0,6.05,29.41,40.24,48.83.34.2,1.97.47,2.02,1.13.08,1.06-3.87,2.14-4.55,2.32-9.53,2.61-65.72-38.38-60.57-84.06,1.54-13.65,8.86-30.39,2.41-34.99-2.01-1.43-5.39-1.72-7.91-.57-4.43,2.03-5.58,8.27-6.16,11.96-3.98,25.5-6.13,38.23-1.88,51.66Z"/>
    <path class="cls-26" d="m1442.44,623.59c.61-3.21.14-2.81.75-6.25.83-4.72,1.38-7.62,3.64-8.87,1.29-.72,3.19-.92,3.81-.13.87,1.09-1.39,3.19-2.78,7.91-.44,1.5-.64,3.3-1.05,6.89-.73,6.43-.43,8.51-1.82,9.2-1.08.54-2.75.03-3.51-.97-1.06-1.39.09-3.17.96-7.78Z"/>
    <path class="cls-26" d="m1408.74,673.91c.46-3.61-.06-3.15.38-7.02.61-5.31,1.04-8.58,3.63-10.07,1.49-.85,3.74-1.16,4.56-.3,1.13,1.19-1.4,3.62-2.68,8.96-.41,1.7-.5,3.72-.7,7.75-.35,7.22.18,9.53-1.42,10.36-1.25.65-3.29.14-4.28-.95-1.38-1.52-.16-3.55.51-8.74Z"/>
    <path class="cls-26" d="m1475,659.38c.35-3.24-.08-2.81.24-6.29.45-4.77.77-7.7,2.92-9.14,1.23-.82,3.1-1.18,3.79-.44.95,1.02-1.13,3.29-2.13,8.11-.32,1.53-.38,3.34-.5,6.95-.21,6.46.25,8.51-1.08,9.32-1.03.63-2.74.25-3.58-.68-1.16-1.3-.17-3.17.33-7.83Z"/>
    <path class="cls-26" d="m1544.16,656.21c-.52-3.22-.06-2.81-.58-6.27-.7-4.74-1.18-7.65-3.4-8.97-1.27-.75-3.16-1.01-3.81-.24-.9,1.07,1.3,3.23,2.56,7.98.4,1.51.56,3.32.86,6.92.55,6.44.2,8.51,1.57,9.25,1.06.57,2.75.11,3.54-.87,1.09-1.36,0-3.18-.74-7.81Z"/>
    <path class="cls-26" d="m1568.31,666.65c.44-3.23.75-2.71,1.27-6.16.7-4.74,1.1-7.66-.65-9.57-1-1.09-2.73-1.89-3.58-1.34-1.17.76.31,3.47.13,8.38-.06,1.57-.43,3.33-1.18,6.87-1.34,6.33-2.28,8.21-1.19,9.3.85.86,2.6.9,3.64.2,1.44-.98.92-3.04,1.55-7.68Z"/>
    <path class="cls-26" d="m1594.07,706.94c1.31-2.9,1.33-2.36,2.75-5.44,1.96-4.23,3.14-6.86,2.75-8.92-.23-1.18-.98-2.22-1.66-1.87-.93.49-.95,3.25-2.66,7.74-.54,1.43-1.34,2.99-2.93,6.11-2.85,5.58-4.01,7.14-3.73,8.35.22.94,1.23,1.3,2.06.83,1.17-.65,1.53-2.63,3.42-6.79Z"/>
    <path class="cls-26" d="m1567.25,685.67c.34-1.23.67-1.02,1.08-2.33.56-1.8.86-2.91-.91-3.69-1.02-.45-2.76-.8-3.58-.62-1.13.26.41,1.34.37,3.22-.01.6-.33,1.27-.97,2.6-1.15,2.39-2.02,3.08-.91,3.53.87.35,2.6.42,3.61.18,1.4-.34.83-1.14,1.32-2.9Z"/>
    <ellipse class="cls-23" cx="1357.04" cy="596.01" rx="2.64" ry="5.51" transform="translate(553.61 1841.51) rotate(-80.89)"/>
    <ellipse class="cls-23" cx="1361.77" cy="655.3" rx="2.64" ry="5.51" transform="translate(499.06 1896.08) rotate(-80.89)"/>
    <ellipse class="cls-23" cx="1300.39" cy="616.29" rx="2.64" ry="5.51" transform="translate(485.91 1802.65) rotate(-80.89)"/>
    <ellipse class="cls-23" cx="1328.31" cy="527.83" rx="5.32" ry="2.73" transform="translate(-49.52 908.1) rotate(-37.1)"/>
    <ellipse class="cls-23" cx="1335.65" cy="695.08" rx="5.39" ry="2.7" transform="translate(-169.44 652.71) rotate(-25.88)"/>
    <ellipse class="cls-23" cx="1401.02" cy="708.73" rx="1.82" ry="3.54" transform="translate(479.28 1979.77) rotate(-80.88)"/>
    <ellipse class="cls-23" cx="1310.26" cy="655.46" rx="1.82" ry="3.54" transform="translate(455.49 1845.32) rotate(-80.88)"/>
    <ellipse class="cls-23" cx="1312.14" cy="577.64" rx="1.82" ry="3.54" transform="translate(533.92 1781.69) rotate(-80.88)"/>
    <ellipse class="cls-23" cx="1245.16" cy="661.19" rx="4.81" ry="2.45" transform="translate(-104.81 254.77) rotate(-11.21)"/>
    <ellipse class="cls-23" cx="1267.57" cy="711.59" rx="4.81" ry="2.45" transform="translate(-114.18 260.09) rotate(-11.21)"/>
    <ellipse class="cls-23" cx="1205.21" cy="696.61" rx="4.81" ry="2.45" transform="translate(-112.46 247.68) rotate(-11.21)"/>
    <ellipse class="cls-23" cx="1200.36" cy="610.5" rx="4.82" ry="2.45" transform="translate(77.46 1353.92) rotate(-60.46)"/>
    <ellipse class="cls-23" cx="1241.09" cy="754.99" rx="5.56" ry="3.51" transform="translate(-141.81 1199.84) rotate(-49.15)"/>
    <ellipse class="cls-23" cx="1225.52" cy="727.8" rx="3.09" ry="1.69" transform="translate(-118.17 252.3) rotate(-11.22)"/>
    <ellipse class="cls-2" cx="1197.67" cy="666.4" rx="3.09" ry="1.69" transform="translate(-148.86 410.75) rotate(-18.34)"/>
    <g id="Layer_24_copy_2" data-name="Layer 24 copy 2">
      <rect class="cls-9" x="316.63" y="160.03" width="968.77" height="578.73" rx="12" ry="12"/>
      <rect class="cls-25" x="336.13" y="181.88" width="929.77" height="535.03" rx="12" ry="12"/>
    </g>
    <g>
      <path class="cls-12" d="m422.64,407.19c2.66,1.85,5.47,2.67,7.8,2.67,2.85,0,4.88-1.22,4.88-3.26,0-4.67-15.28-1.08-15.28-10.04,0-6.89,6.66-8.67,12.95-8.67,2.48,0,4.88.3,6.81.63l-.22,6.78c-1.26-.56-4.11-1.22-6.58-1.22-2.22,0-4.11.56-4.11,2.19,0,3.78,15.83-1.59,15.83,10.86,0,7.04-6.66,10.16-13.46,10.16-4.99,0-10.02-1.67-12.61-4.71l4-5.37Z"/>
      <path class="cls-12" d="m465.44,417.64l-1.7-5.67-7.32.52-1.22,5.6-8.36-1.59,8.84-28.39,7.88.26,9.99,26.95-8.1,2.33Zm-5.88-19.61l-2.11,9.01,4.73-.3-2.63-8.71Z"/>
      <path class="cls-12" d="m498.91,416.71l-1.29-15.08-4.73,12.12-3.25.56-3.81-11.9-2.81,14.83-7.66-1.82,5.88-27.06,5.81-.19,4.7,13.71,5.62-13.64,6.14.63,4.51,27.43-9.1.41Z"/>
      <path class="cls-12" d="m512.86,417.6l-1.37-28.87,8.43-.3-.22,20.27,10.21-1.3.22,8.97-17.27,1.22Z"/>
      <path class="cls-12" d="m555.13,417.38l-1.67-15.83-3.99,1.59-.3-6.52,4.62-7.6,9.8,1.56-.92,27.02-7.54-.22Z"/>
      <path class="cls-12" d="m568.15,402.33c0-7.67,4.47-14.01,11.5-14.01s11.35,6.6,11.35,14.75c0,6.93-3.22,14.53-11.58,14.53-6.99,0-11.28-6.78-11.28-15.27Zm16.02.07c0-3.26-1.63-4.89-3.66-4.89-3.18,0-5.03,2.56-5.03,6.34,0,2.56.89,5.63,4.07,5.63,3.44,0,4.62-3.97,4.62-7.08Z"/>
      <path class="cls-12" d="m611.17,417.38l-.7-27.21c2.7-1.07,5.77-1.45,8.95-1.45,7.32,0,12.69,3.04,12.69,8.75,0,6.63-4.62,11.27-13.69,11.67l.26,8.27-7.51-.04Zm7.06-14.34c.33.04.67.04.96.04,4.03,0,6.33-2.19,6.33-4.15,0-1.56-1.44-2.96-4.59-2.96-1,0-2.03.15-2.88.44l.19,6.63Z"/>
      <path class="cls-12" d="m636.21,417.6l-1.37-28.87,8.43-.3-.22,20.27,10.21-1.3.22,8.97-17.27,1.22Z"/>
      <path class="cls-12" d="m674.05,417.64l-1.7-5.67-7.32.52-1.22,5.6-8.36-1.59,8.84-28.39,7.88.26,9.99,26.95-8.1,2.33Zm-5.88-19.61l-2.11,9.01,4.73-.3-2.63-8.71Z"/>
      <path class="cls-12" d="m688.14,408.67c1.96,1.71,4.07,2.41,5.88,2.41,2.81,0,5.03-1.33,5.03-3.37,0-3.56-14.05-.41-14.05-10.19,0-6.75,8.21-9.38,13.98-9.38,2.37,0,4.85.41,7.21,1.37l-2.55,6.56c-1.7-1-3.59-1.41-5.25-1.41-2.81,0-5.1,1.19-5.1,2.93,0,3.74,14.72-.15,14.72,10.93,0,5.37-6.14,9.08-12.69,9.08-3.92,0-7.99-1.33-10.95-4.45l3.77-4.48Z"/>
      <path class="cls-12" d="m715.11,416.97l.18-20.31-6.03.15-.74-6.86,21.42-1.33.04,7.41-5.88.26-1.22,21.46-7.77-.78Z"/>
      <path class="cls-12" d="m732.79,417.75l.59-28.91,8.62-.15-.67,28.72-8.54.33Z"/>
      <path class="cls-12" d="m765.41,418.6l-10.88-11.75-.15,9.79-7.25,1.07-1.18-28.54,9.25-.56-.7,9.79,8.32-10.97,6.36,4.22-8.4,11.04,10.84,10.38-6.21,5.52Z"/>
      <path class="cls-12" d="m773.77,417.82l.74-29.17,17.13.52.22,6.71-9.76-.33-.22,5.04,7.51.26-.26,6.04-7.54-.44-.37,10.82-7.43.56Zm20.9-.22l-1.37-28.87,8.43-.3-.22,20.27,10.21-1.3.22,8.97-17.27,1.22Z"/>
      <path class="cls-12" d="m832.51,417.64l-1.7-5.67-7.32.52-1.22,5.6-8.36-1.59,8.84-28.39,7.88.26,9.99,26.95-8.1,2.33Zm-5.88-19.61l-2.11,9.01,4.73-.3-2.63-8.71Z"/>
      <path class="cls-12" d="m846.6,408.67c1.96,1.71,4.07,2.41,5.88,2.41,2.81,0,5.03-1.33,5.03-3.37,0-3.56-14.05-.41-14.05-10.19,0-6.75,8.21-9.38,13.98-9.38,2.37,0,4.85.41,7.21,1.37l-2.55,6.56c-1.7-1-3.59-1.41-5.25-1.41-2.81,0-5.1,1.19-5.1,2.93,0,3.74,14.72-.15,14.72,10.93,0,5.37-6.14,9.08-12.69,9.08-3.92,0-7.99-1.33-10.95-4.45l3.77-4.48Z"/>
      <path class="cls-12" d="m889.5,418.6l-10.88-11.75-.15,9.79-7.25,1.07-1.18-28.54,9.25-.56-.7,9.79,8.32-10.97,6.36,4.22-8.4,11.04,10.84,10.38-6.21,5.52Z"/>
      <path class="cls-12" d="m898.97,417.93l-1.44-28.09,17.87-1.74.15,8.97-11.17.85.15,3.3,9.14-.82.33,5.19-9.1.96.15,3.71,10.54-1.3.52,6.26-17.12,2.71Z"/>
      <path class="cls-12" d="m933.34,417.16l-4.25-10.04-2.22.3.52,9.82h-7.8l.07-27.98c1.92-.56,5.21-.82,7.47-.82,9.32,0,13.94,4.52,13.94,9.16,0,3.04-1.96,6.12-5.88,8.01l5.88,10.38-7.73,1.19Zm-6.7-14.9c3.77-.04,5.7-1.93,5.7-3.78,0-1.67-1.59-3.3-4.81-3.3-.41,0-.85,0-1.26.07l.37,7Z"/>
      <path class="cls-12" d="m961.3,417.38l-.7-27.21c2.7-1.07,5.77-1.45,8.95-1.45,7.32,0,12.69,3.04,12.69,8.75,0,6.63-4.62,11.27-13.69,11.67l.26,8.27-7.51-.04Zm7.06-14.34c.33.04.67.04.96.04,4.03,0,6.33-2.19,6.33-4.15,0-1.56-1.44-2.96-4.59-2.96-1,0-2.03.15-2.88.44l.19,6.63Z"/>
      <path class="cls-12" d="m1000.06,417.64l-1.7-5.67-7.32.52-1.22,5.6-8.36-1.59,8.84-28.39,7.88.26,9.99,26.95-8.1,2.33Zm-5.58-30.47c-2.7,0-4.92-2.08-4.92-4.63s2.22-4.67,4.92-4.67,4.92,2.08,4.92,4.67-2.22,4.63-4.92,4.63Zm-.3,10.86l-2.11,9.01,4.73-.3-2.63-8.71Zm1.74-15.38c0-.74-.55-1.37-1.26-1.37-.67,0-1.26.63-1.26,1.37,0,.78.59,1.37,1.26,1.37.7,0,1.26-.59,1.26-1.37Z"/>
      <path class="cls-12" d="m1029.69,416.75l-1.55-6.78c4.22-1.33,9.69-4.82,9.69-7.82,0-2.3-2.11-3-4.36-3-1.59,0-3.25.37-4.29.7l-.89-11.79c.59,0,1.18-.04,1.81-.04,9.88,0,18.31,2.59,18.31,8.75,0,6.75-5.29,8.82-12.06,11.56l11.13.85-.26,8.78-17.53-1.22Z"/>
      <path class="cls-12" d="m1054.91,411.26c.67.11,1.37.15,2.14.15,3.74,0,8.29-1.15,8.29-3.67,0-1.93-1.44-2.63-3.33-2.63-2.48,0-5.77,1.22-7.43,2.52l-2.52-16.42,18.09-3.37,1.07,6.82-11.87,1.07.81,4.11c1.89-.85,3.85-1.26,5.66-1.26,5.18,0,9.47,3.26,9.47,9.15s-4.96,10.16-13.5,10.16c-1.74,0-3.62-.19-5.66-.52l-1.22-6.12Z"/>
      <path class="cls-12" d="m1098.52,408.67c1.96,1.71,4.07,2.41,5.88,2.41,2.81,0,5.03-1.33,5.03-3.37,0-3.56-14.05-.41-14.05-10.19,0-6.75,8.21-9.38,13.98-9.38,2.37,0,4.85.41,7.21,1.37l-2.55,6.56c-1.7-1-3.59-1.41-5.25-1.41-2.81,0-5.1,1.19-5.1,2.93,0,3.74,14.72-.15,14.72,10.93,0,5.37-6.14,9.08-12.69,9.08-3.92,0-7.99-1.33-10.95-4.45l3.77-4.48Z"/>
      <path class="cls-12" d="m1123.19,417.93l-1.44-28.09,17.87-1.74.15,8.97-11.17.85.15,3.3,9.14-.82.33,5.19-9.1.96.15,3.71,10.54-1.3.52,6.26-17.12,2.71Z"/>
      <path class="cls-12" d="m1162.88,418.6l-10.88-11.75-.15,9.79-7.25,1.07-1.18-28.54,9.25-.56-.7,9.79,8.32-10.97,6.36,4.22-8.4,11.04,10.84,10.38-6.21,5.52Z"/>
      <path class="cls-12" d="m1171.91,413.34c0-2.19,1.74-4.15,3.99-4.15,2.07,0,4.03,1.74,4.03,4.11,0,2.11-1.63,4.11-4,4.11-2.07,0-4.03-1.71-4.03-4.08Z"/>
    </g>
    <path class="cls-39" d="m.15,736.92c48.81-3.91,76.97,6.78,93.94,18.05,19.71,13.09,23.58,26.48,48.8,36.85,13.51,5.56,29.61,6.76,61.25,8.92,53.38,3.66,60.82-1.03,78.11,6.97,23.16,10.72,21.77,24.92,40.31,29.48,23.5,5.77,44.25-12.52,65.23-22.67,72.22-34.94,132.62,33.63,242.72,15.28,71.65-11.94,68.06-44.65,136.77-47.23,60.94-2.29,82.84,22.72,139.33,12.18,50.87-9.49,48.19-32.59,92.49-43.26,81.1-19.53,117.61,51.26,226.11,50.66,15.28-.08,28.44-.36,45.47-5.33,38.24-11.16,49.9-33.1,87.55-40.45,12.98-2.53,22.35-2.03,37.23-1.23,65.53,3.53,88.28,32.58,142.3,35.22,14.01.69,35.31-.15,61.9-8.97v118.43H.15v-162.9Z"/>
    <g>
      <path class="cls-41" d="m161.28,487.82c.97,1.59,1.26,2.95.89,4.08-1.79,5.42-18.97,5.57-51.52.46-1.47-2.22-3.7-6-5.32-11.07-3.43-10.69-1.38-18.36-1.23-33.76.11-11.16-.95-8.85-.97-20.59-.03-19.61,2.92-35.43,5.19-47.33.3-1.56,1.51-7.85,3.57-16.45,4-16.67,8.37-30.19,11.75-39.74,4.68-.95,11.61-1.84,19.88-.96,0,0,13.82,2.49,26.64,8.9,16.85,8.42,13.11,74.13-8.87,156.46Z"/>
      <path class="cls-14" d="m129.03,438.2c2.1,3.97,4.2,7.94,6.3,11.9-10.41-.86-20.83-1.71-31.24-2.57-.53-.94-1.43-2.84-1.57-5.43-.14-2.73.64-4.82,1.09-5.82,8.47.64,16.94,1.27,25.41,1.91Z"/>
      <path class="cls-14" d="m127.79,373.28c-.62,3.44-1.24,6.89-1.87,10.33-5.97-1.03-11.94-2.07-17.91-3.1.11-1.34.3-2.8.61-4.37.42-2.17.97-4.09,1.54-5.74,5.88.96,11.75,1.92,17.63,2.87Z"/>
      <path class="cls-17" d="m264.54,573.41c-1.95,1.12-5.64,3.6-8.26,8.22-3.1,5.44-4.81,14.03-1.05,19.78,3.39,5.18,8.16,3.36,11.25,8.74.62,1.08,1.29,2.67,1.03,14.69-.24,11.03-.91,14.37,1.38,17.78,1.85,2.76,4.65,4.08,6.62,4.75.24-2.21.52-5.39.63-9.22.07-2.45.12-6.89-.66-17.02-.59-7.63-.88-11.44-1.43-14.84-1.15-7.09-2.74-12.27-4.91-19.35-1.71-5.58-3.34-10.19-4.58-13.53Z"/>
      <path class="cls-17" d="m359.83,492.09c-1.87.83-6.63,3.27-8.26,8.22-2.21,6.71,2.81,13.6,4.78,16.31,5.62,7.73,10.7,6.94,12.23,12.67,1.01,3.77-1.11,4.39-2.06,14.34-.38,3.97-.72,7.77.07,12.35.97,5.64,3.19,9.86,4.81,12.41,1.33-2.19,3.14-5.32,5.09-9.2,1.99-3.96,3.9-8.27,4.94-11.08,1.58-4.28,6.2-16.83,1.82-30.55-2.99-9.36-8.82-15.05-11.16-17.28-4.55-4.33-9.13-6.81-12.24-8.19Z"/>
      <path class="cls-2" d="m171.76,321.55c-10.43-1.83-20.92-3.31-31.44-4.44"/>
      <path class="cls-18" d="m166.37,333.81c.78-1.5-.03-1.4,1.41-8.78.54-2.8.88-5.53,1.55-11.01.21-1.72.35-2.97-.38-4.1-.75-1.16-2.64-1.8-3.22-2.01-1.04-.39-1.72-.47-1.72-.69,0-.5,3.49-.13,4.42-1.84.6-1.11.06-2.97-1.05-3.78-1.25-.91-3.09-.38-5.89.88-6.83,3.08-10.73,6.35-10.73,6.35-3.42,2.87-9.59,8.14-14.05,17.43-2.02,4.21-3,6.3-2.41,8.06,2.44,7.25,27.53,8.26,32.06-.51Z"/>
      <path class="cls-40" d="m44.28,459.44c1,.93,2.32,2.39,3.3,4.5.39.83.66,1.62.85,2.33.04.23.1.59.16,1.01.07.53.16,1.24.25,2.95.06,1.22.1,1.83.08,2.21-.04,1.04-.18,1.37-.3,2.43-.09.77-.1,1.65-.11,3.37,0,1.9.02,3.34.02,3.59,0,0,.04,1.92.19,5.8h0c-.39,1.64-.83,2.05-1.17,2.1-1.15.16-3.13-3.44-3.49-7.14-.21-2.13.25-2.99-.35-5.29-.28-1.06-.9-3.45-2.09-3.53-1.2-.08-2.22,2.27-2.29,2.42-1.03,4.55-1.78,8.2-2.28,10.73,0,0-.61,3.1-1.97,8.59,0,0-.54,2.19-1.69,5.09-1.59,4.02-2.35,4.3-2.73,4.3-.33,0-.89-.2-1.56-1.48.06-1.49.19-3.76.59-6.49.26-1.77.43-2.44,1.27-6.53,1.53-7.48,1.9-9.9.65-10.96-.45-.39-.99-.48-1.3-.51-.43.7-.95,1.64-1.46,2.79-.3.66-.68,1.6-1.13,3.04-.63,2-.86,3.32-1.16,4.65-.23,1.02-.85,3.01-2.08,6.98-1.09,3.51-1.58,4.93-3,6.05-.46.37-1.38,1.09-2.04.78-1.39-.65-.55-5.4-.35-6.53.14-.81.19-.82,1.28-4.87,1.12-4.14.96-3.72,1.23-4.57.64-2.04,1.15-3.19,1.81-5.7.6-2.27.58-2.86.32-3.02-.46-.29-1.6.83-1.93,1.15-1.18,1.15-1.74,2.37-1.96,2.83-.88,1.89-1.91,3.69-2.8,5.57-.6,1.26-1.39,2.9-2.53,4.98-.77,1.4-1.41,2.46-2.61,3.37-.46.35-1.98,1.51-2.65,1.04-.92-.65.28-4.02.85-5.6.55-1.54,1.09-2.67,2.52-5.42,1.7-3.26,3.14-5.86,4.31-9.5.55-1.69.64-2.38.4-2.52-.23-.14-.8.24-3.95,3.81-1.4,1.59-2.89,3.09-4.23,4.73-1.47,1.8-2.23,2.9-3.44,2.9-.55,0-1.32-.24-1.62-.83-.44-.87.4-2.04,2.08-4.61,2.86-4.37,1.4-2.44,2.74-4.27,3.47-4.75,6.83-8.83,7.67-9.85,2.38-2.89,4.48-5.42,6.22-7.5,7.15.2,14.29.41,21.44.61Z"/>
      <path class="cls-40" d="m341.72,303.07c-1.42-3.27-1.41-5.77-1.29-7.09.12-1.31.48-2.82.65-3.54.23-.98.53-2.2,1.11-3.73.48-1.25.97-2.22,1.88-4.04.07-.13.17-.35.33-.62.28-.49.52-.8.92-1.47.39-.66.75-1.46,1.45-3.04.77-1.73,1.32-3.06,1.42-3.29,0,0,.74-1.77,2.16-5.39,1.01-1.34,1.57-1.53,1.91-1.43,1.1.34,1.46,4.47.3,8-.67,2.04-1.43,2.63-1.81,4.98-.17,1.09-.57,3.54.48,4.11,1.06.58,2.93-1.14,3.05-1.25,2.76-3.72,4.91-6.75,6.37-8.84,0,0,1.8-2.57,5.24-7.02,0,0,1.37-1.78,3.57-3.94,3.06-3,3.86-2.93,4.2-2.77.3.14.73.56.82,2.01-.65,1.34-1.68,3.35-3.14,5.68-.94,1.51-1.37,2.05-3.77,5.43-4.39,6.19-5.7,8.25-4.99,9.75.26.54.71.86.98,1.01.67-.46,1.52-1.1,2.45-1.93.53-.48,1.26-1.18,2.25-2.3,1.37-1.57,2.11-2.67,2.91-3.76.62-.84,1.98-2.39,4.69-5.5,2.4-2.74,3.41-3.84,5.15-4.26.57-.14,1.69-.41,2.16.15,1,1.18-1.67,5.17-2.3,6.12-.45.68-.5.67-3.12,3.91-2.68,3.31-2.37,3-2.95,3.66-1.4,1.59-2.33,2.43-3.93,4.44-1.45,1.82-1.67,2.37-1.5,2.63.3.46,1.79-.08,2.21-.23,1.53-.55,2.53-1.42,2.92-1.76,1.56-1.35,3.22-2.57,4.78-3.91,1.05-.9,2.42-2.07,4.29-3.48,1.27-.96,2.27-1.65,3.72-1.98.56-.13,2.41-.54,2.83.17.58.98-1.87,3.56-3.02,4.76-1.12,1.17-2.06,1.98-4.47,3.89-2.85,2.26-5.2,4.03-7.73,6.86-1.17,1.32-1.53,1.9-1.38,2.14.15.23.82.12,5.12-1.81,1.91-.86,3.86-1.61,5.74-2.54,2.05-1.02,3.19-1.71,4.28-1.2.5.24,1.1.78,1.14,1.44.05.98-1.19,1.7-3.74,3.33-4.35,2.78-2.25,1.64-4.2,2.75-4.52,2.56-8.73,4.68-10.42,5.51-.28.14-.43.21-.5.24-3.96,1.92-7.33,2.67-9.8,2.99-6.48-1.29-12.95-2.58-19.43-3.88Z"/>
      <path class="cls-11" d="m162.17,491.9c7.83,12.62,12.51,22.17,14.57,26.2,12.05,23.54,20.35,25.65,40.54,57.69,9.67,15.34,14.5,23.01,17.81,32.65,8.09,23.59,5.68,44.08,3.88,59.46-3.63,30.93-15.29,53.35-21.56,65.32-3.91,7.46-7.6,13.43-10.3,17.55-.3,1.65-.76,5.6,1.2,9.66,3.84,7.97,13.29,8.66,13.77,8.68,12.06-12.14,34.75-38.3,46.74-78.86,2.7-9.14,11.67-42.07,5.23-83.98-4.52-29.46-14.71-50.66-19.44-59.66-11.24-21.4-24.5-36.48-34.24-45.99,2.3-1.32,5.8-2.99,10.24-3.71,7.8-1.26,14.07,1.11,16.05,1.81,16.56,5.84,30.61-.47,65.75,6.71,23.23,4.75,28.52,9.84,31.27,13.42,7.53,9.79,6.72,22.07,6.57,23.98-.63,7.82-3.72,13.76-10.44,23.54-6.48,9.43-16.04,22.02-29.47,35.78-.59.8-2.03,2.99-2.17,6.15-.17,3.82,1.69,6.46,2.23,7.18,1.44,1.1,3.29,2.32,5.59,3.37,3.67,1.68,7.02,2.29,9.42,2.52,18.83-16.6,31.76-32.43,40.12-43.99,11.7-16.17,15.55-25.92,17.65-36.14,2.74-13.39.63-21.64.07-23.68,0,0-3.12-11.25-13.68-21.3-14.52-13.8-67.77-29.35-140.97-37.87-3.32-3.62-9.83-11.76-12.48-24.16-3.78-17.69,2.92-31.87,4.98-35.88,12.56,1.87,22.99,1.63,30.28,1.03,23.48-1.92,40.62-9.72,53.76-15.84,11.7-5.45,17.55-8.17,24.57-14.4,11.56-10.25,17.14-21.88,21.16-30.23,3.49-7.26,7.79-18.06,10.3-31.97-6.48-1.29-12.95-2.58-19.43-3.88-1.23,5.22-3.48,12.69-7.79,20.91-3.22,6.14-15.28,28.38-40.32,38.62-12.34,5.05-22.84,5.13-38.71,5.26-13.3.11-24.37-1.4-32.21-2.87-4.12-1.22-9.68-3.64-11.96-8.79-2.19-4.97.16-9.08-.15-13.01-.48-6.08-7.5-14.01-36.6-21.91,0,1.94-.19,7.76-3.84,10.08-2.5,1.59-5.48.82-7.48.33-6.89-1.7-14.08-2.06-20.88-4.11-8.28-2.5-19.14,1.5-40.87,9.5-14.08,5.18-24.01,10.34-31.21,14.1-12.37,6.48-18.56,9.71-25.53,15.78-1.5,1.3-12.28,10.83-19.48,24.39-15.38,28.97-6.31,61.13-4.18,68.1,7.92,0,15.84,0,23.76-.01-2.1-5.5-6.13-18.38-2.73-34.06,1.64-7.55,4.66-13.5,6.55-16.81.94-1.64,4.34-7.43,10.99-14,8.25-8.15,16-11.91,27.34-17.78.86-.44,13.76-7.06,24.58-9.82,6.45-1.64,15.35-2.71,15.48-2.73,0,0,0,0,0,0,.25-.03.53-.05.55-.05.29.05-4.01,23.51-4.5,37.49-.71,20.6,6.32,36.68,8.3,41.06,2.67,5.93,9.08,15.57,21.91,34.84,4.28,6.43,6.04,8.89,9.41,14.32Z"/>
      <path class="cls-18" d="m361.15,306.95c.1.49.19,1.3.01,2.28-.2,1.06-.63,1.83-.91,2.25-2.1-.33-3.81-.67-5-.92-2.67-.57-5.16-1.21-8.59-1.61-.18-.02-.36-.04-.6-.06-2.48-.25-4.5-.17-5.9-.06.12-.85.31-1.8.58-2.82.29-1.11.64-2.09.98-2.94,1.06.2,2.12.41,3.18.61,3.12.52,6.32,1.11,9.61,1.79,2.27.47,4.48.96,6.63,1.47Z"/>
      <path class="cls-18" d="m43.13,456.12c.2.06,1.32.41,1.91,1.6.69,1.38.11,2.72.03,2.88-1.26.57-3.06,1.27-5.3,1.73-3.68.77-6.58.5-9.47.21-2.31-.23-5.43-.73-9.02-1.85-.28-.18-1.1-.77-1.52-1.92-.4-1.09-.2-2.03-.11-2.37,2.99.44,5.52.69,7.42.84,4.43.36,7.16.56,10.71.07,2.26-.31,4.1-.81,5.35-1.2Z"/>
      <path class="cls-45" d="m309.24,499.34c-.54-1.45-1.81-4.72-3.95-8.58-.55-.99-2.73-4.87-7.97-11.35-2.68-3.32-6.35-7.53-11.06-12.14-4.99-.92-9.99-1.84-14.98-2.76,1.72,1.3,4.2,3.33,6.83,6.17,2.98,3.21,4.71,5.89,7.89,10.81,3.08,4.77,4.62,7.15,6.19,10.71,1.85,4.2,2.83,7.93,3.38,10.57,5.17.78,10.33,1.57,15.5,2.35-.41-1.57-1-3.54-1.83-5.77Z"/>
      <path class="cls-45" d="m191.95,528.32c2.07-.27,6.77-.81,12.71-.67,5.36.13,10.3.79,18.43,2.47,6.69,1.38,15.51,3.44,25.88,6.53,1.58,2.34,3.2,4.98,4.8,7.93,1.5,2.78,2.75,5.44,3.81,7.92-2.98-1.38-7.25-3.14-12.58-4.56-5.98-1.59-10.54-2.02-17.72-2.71-7.37-.7-11.2-1.07-16.6-.7-5.95.41-10.8,1.52-14.1,2.44-2.38-2.77-4.8-5.76-7.24-8.98-2.04-2.7-3.94-5.35-5.69-7.92.46-.17,1.15-.42,2-.67,2.73-.8,4.91-.89,6.3-1.07Z"/>
      <path class="cls-46" d="m40.3,439.59c.28,1.91.59,3.84.91,5.79.6,3.66,1.24,7.24,1.92,10.74-1.18-.56-2.86-1.4-4.82-2.51-1.6-.9-7.24-4.18-10.54-7.2-5.53-5.07-7.11-11.84-8.67-18.23-.91-3.72-1.91-9.5-1.5-16.75.72-3.7,1.87-8.08,3.74-12.82,2.57-6.52,5.7-11.67,8.41-15.46-.95,3.79-1.85,8.7-2.07,14.47-.35,8.86,1.07,15.51,1.88,19.21,1.05,4.77,2.01,9.03,4.7,14.1,2.05,3.87,4.33,6.75,6.05,8.67Z"/>
      <path class="cls-46" d="m355.11,328.94c.9-1.92,1.82-4.16,2.63-6.7.92-2.88,1.51-5.54,1.89-7.85-1.73.37-4.21.98-7.11,2.01-2.53.9-9.44,3.55-16.93,9.48-2.13,1.68-4.91,4.11-7.87,7.41-2.92,3.53-5.83,7.06-8.75,10.58-2.76,3.08-5.53,6.17-8.29,9.25,2.24-.35,5.56-1.09,9.25-2.85,3.07-1.47,4.84-2.9,10.29-7.02,5.98-4.53,8.97-6.78,9.99-7.45,3.25-2.15,8.13-4.84,14.91-6.85Z"/>
      <path class="cls-46" d="m155.71,330.33c-.96,2.48-2.04,5.05-3.25,7.68-.54,1.16-1.08,2.3-1.62,3.4-2.47-.19-5.85-.36-9.88-.29-3.48.06-8.78.02-14.83,1.34-6.22,1.36-6.07,2.03-13.54,4.02-6.85,1.83-12.2,2.65-16.7,3.34-5.25.81-9.44,1.45-15.22,1.63-4.46.14-8.21-.05-10.95-.28,3.89-2.47,9.37-5.71,16.21-8.97,7.31-3.49,12.95-5.4,23.94-9.08,13.72-4.6,20.7-6.89,26.85-6.89,8.23,0,14.86,2.28,18.99,4.07Z"/>
      <path class="cls-46" d="m254.91,367.87l-7.83,2.63c-3.78-.61-7.05-.84-9.6-.91-3.71-.1-6.62.11-8.77.27-2.49.18-4.61.43-6.23.65.02-.95.05-1.92.09-2.89.03-.88.07-1.76.12-2.62,6.58-.17,13.97.1,21.97,1.15,3.6.47,7.01,1.06,10.24,1.72Z"/>
      <path class="cls-37" d="m216.1,879.44c-1.27,4.18-2.53,4.56-3.13,4.91-4.1,2.39-10.61-1.79-11.62-3.75-.07-.14-.37-.76-.9-1.53-.56-.81-1.12-1.38-1.47-1.71-.53.65-2.17,2.49-4.82,2.96-3.34.6-5.88-1.4-6.91-2.21-2.48-1.94-3.46-4.48-3.82-5.64-.72.53-1.79,1.21-3.19,1.74-.98.37-3.26,1.24-5.73.76,0,0-2.87-.55-5.36-3.54-4.39-5.26-1.79-17.99.43-27.16,4.25-17.51,6.38-26.27,11.86-34.16,1.15-1.66,7.53-10.62,18.81-16.12,5.77-2.81,7.6-2.17,8.4-1.73,3.91,2.14,1.87,9.67,4.15,22.21,1.44,7.92,2.54,6.56,4.72,15.93,2.75,11.83,2.57,20.82,2.39,29.19,0,0-.16,7.88-3.81,19.84Z"/>
      <path class="cls-16" d="m222.07,769.13c-1.37,2.28-3.16,5.65-4.64,9.96-2.13,6.19-2.94,12.39-2.78,20.92.18,9.66,1.41,11.14,4.73,33.68.06.39,1.36,9.39,2.19,21.43.6,8.74.53,12.97-1.14,17.72-1.92,5.43-5.11,9.21-7.45,11.51,1.39-2.99,3.19-7.62,4.12-13.49.81-5.11.64-9.12.38-12.93-.97-14.46-3.19-26.71-4.64-34.24-.96-4.97-2.32-11.72-4.15-19.72.08,2.6.22,6.61.51,11.52.37,6.26.64,8.31.78,11.78.23,5.53-.07,9.33-.68,16.8-.92,11.36-1.39,17.04-3.44,24.35-1.48,5.28-3.23,9.45-4.5,12.19-.79-1.08-1.58-2.16-2.37-3.24.94-1.82,2.14-4.41,3.21-7.65.92-2.77,1.43-5.09,1.79-6.97.93-4.84,1.57-10.43,2.12-21.81.28-5.69.49-10.15.48-16.28-.01-7.35-.33-11.44-.57-13.94-.26-2.74-.58-5.03-.83-6.7-.07-2.09-.14-4.18-.21-6.27-1.21-.3-2.43-.6-3.64-.89-.79,1.61-1.84,3.83-2.98,6.52-.79,1.86-3.13,7.49-5.55,15.64-.46,1.55-1.81,6.2-3.2,12.58-3.45,15.83-5.54,34.93-6.16,40.88-1.06.58-2.13,1.16-3.19,1.74.14-5.17.55-12.1,1.65-20.23,1.89-13.95,4.88-24.29,6.68-30.43,2.01-6.87,4.88-15.48,9-25.18-1.94.93-4.68,2.49-7.49,5.05-.47.43-2.66,2.45-5.18,6.05,0,0-3.07,4.39-5.24,9.78-2.64,6.55-7.02,25.86-10.51,52.18-1.23-1.37-2.94-3.66-3.88-6.87-1.34-4.58-.39-8.57.11-10.65,1.97-8.27,3.46-16.66,5.67-24.86,3.78-13.97,3.35-14.08,5.84-21.89,1.82-5.7,3.38-10.52,6.26-16.61,2.99-6.3,6.12-11.26,8.55-14.75.39-1,.9-2.59,1.09-4.57.33-3.38-.55-4.93-.69-7.86-.04-.79-.26-5.61,2.01-8.8,3.67-5.16,12.31-3.9,12.99-3.79-.65,2.37-.45,4.15-.22,5.21,1.04,4.81,5.49,7.59,9.89,10.33,2.15,1.34,4.04,2.24,5.3,2.8Z"/>
      <path class="cls-37" d="m383.27,706.03c.96,2.21.95,4.12,1.05,5.01.39,3.43,1.01,8.8-1.87,11.15-1.33,1.08-2.95,1.16-5.31,1.27-1.95.09-3.59.17-4.99-.85-.54-.4-.93-.88-1.87-1.3-.9-.4-1.74-.51-2.32-.53-.15.21-.38.5-.68.81-2.33,2.48-5.44,2.9-6.64,3.06-2.93.4-5.31-.33-6.61-.84-.5,1.01-1.12,2.12-1.9,3.28-1.06,1.58-2.16,2.87-3.15,3.89,0,0-2.53,1.54-6.33,1.02-6.7-.93-12.94-12.18-17.15-20.51-8.06-15.93-12.1-23.89-13.03-33.49-.2-2.02-1.15-13.03,3.83-24.79,2.55-6.02,4.35-6.78,5.23-7,4.33-1.06,7.64,5.92,17.43,13.71,6.19,4.92,6.15,3.15,13.82,8.64,9.69,6.93,15.34,13.75,20.6,20.1,0,0,4.95,5.98,9.9,17.35Z"/>
      <path class="cls-16" d="m325.4,621.38c.26,2.65.83,6.43,2.21,10.75,1.98,6.21,5.01,11.6,10.2,18.22,5.88,7.49,7.74,7.89,23.75,23.56.28.27,6.66,6.54,14.46,15.5,6.96,7.99,8.69,11.01,9.6,14.67,1.78,7.17-.53,13.75-2.2,17.39.13-3.17-.05-7.9-1.83-13.16-1.79-5.29-4.41-8.78-7.2-12.27-11.42-14.29-22.26-24.32-23.99-25.91-3.61-3.31-8.68-7.81-15.01-12.93,1.6,2,4.09,5.07,7.24,8.75,4.01,4.7,5.44,6.14,7.61,8.78,3.47,4.21,5.48,7.39,9.42,13.65,10.18,16.14,11.28,19.54,11.7,21.33,1.26,5.3,1.09,9.92.78,12.89-1.4-.61-2.8-1.22-4.19-1.83.36-1.83.65-4.57-.02-7.7-.58-2.71-1.63-4.56-2.22-5.61-6.13-10.92-5.28-11.55-10.45-19.54-2.59-4.01-5.43-7.9-6.72-9.67-.8-1.1-1.64-2.24-2.56-3.45-4.37-5.78-7.05-8.8-8.72-10.62-1.83-1.99-3.44-3.6-4.64-4.76-1.3-1.6-2.59-3.2-3.89-4.8-1.14.53-2.29,1.05-3.43,1.58.33,1.77.81,4.17,1.49,7.01.47,1.96,1.94,7.86,4.85,15.79.89,2.42,2.43,6.44,4.91,11.91,6.02,13.29,13.66,26.48,17.47,32.89-.63,1.09-1.26,2.18-1.9,3.28-2.3-3.39-5.27-8.03-8.43-13.71-6.77-12.19-10.54-22.22-12.73-28.14-2.47-6.67-5.29-15.25-7.76-25.47-.99,1.95-2.25,4.9-2.97,8.67-.12.64-.67,3.59-.54,8.01,0,0,0,0,0,0,0,0,.23,5.25,1.62,10.99.96,3.94,8.61,21.76,21.91,44.65-1.9-.24-4.99-.91-7.98-3.07-2.33-1.69-3.68-3.62-4.76-5.32-3.82-6.02-5.25-10.53-10.22-23.13-5.28-13.36-5.68-13.18-8.33-20.89-.44-1.29-2.37-6.96-4.86-17-.77-3.09-1.73-7.19-2.74-12.06.1-2.1.05-5.41-1.04-9.2-.3-1.04-.82-2.62-4.51-9.81-3.31-6.46-3.77-6.89-4.42-9.07-.63-2.1-1.89-6.29-.9-9.9,1.53-5.6,8.41-9.62,16.88-10.44-.42.83-3.1,6.24-.74,11.16,1.63,3.39,4.82,4.83,7.61,6.1,3.32,1.5,6.32,1.87,8.19,1.95Z"/>
      <path class="cls-18" d="m159.31,282.61c-6.51-2.43-12.09-4.37-16.37-5.81-.72-.24-8.33-2.79-18.83-5.7-9.01-2.49-12.31-3.08-16.57-2.49-3.4.48-7.42,1.1-10.04,4.61-2.42,3.24-2.99,8.07-1.19,11.56.83,1.62,2.04,2.71,6.51,5.24,5.8,3.28,10.51,5.26,12.26,6,15,6.3,14.69,6.18,15.6,6.53,4.65,1.77,7.66,2.75,13.05,5.11,2.4,1.05,4.35,1.97,5.63,2.58,2.99-1.7,5.98-3.41,8.97-5.11-2.27-.83-5.76-2.16-9.98-3.95-5.75-2.44-6.19-2.92-11.57-5.21-3.32-1.41-3.19-1.25-13.96-5.59-4.03-1.63,1.02.4-8.02-3.76,0,0-2.6-1.2-5.73-3.82-.94-.79-1.71-1.53-1.88-2.68-.24-1.63.91-2.96,1-3.07,1.22-1.37,3.21-1.54,6.04-1.32,4.67.37,8.15,1.54,9.79,2.07,6.58,2.14,5.49,1.1,13,3.43,3.07.95,4.3,1.45,12.66,4.55,3.24,1.2,7.66,2.83,12.95,4.76-1.1-2.64-2.2-5.28-3.31-7.92Z"/>
      <path class="cls-40" d="m236.31,324.26c1.71-2.02,4.3-5,7.59-8.49,6.75-7.16,7.35-6.82,9.5-10.09,3-4.57,4.62-9.5,6.36-14.78.68-2.08.98-3.23,1.18-4.19.48-2.18,1.14-6.17.71-10.9-.23-2.52-.71-7.9-3.51-12.32-2.18-3.45-5.16-5.34-18.55-10.19-11.8-4.28-17.71-6.42-20.87-6.65-2.66-.2-14.04-.81-25.72,5.95-2.96,1.72-7.41,4.35-11.33,9.6-3.97,5.31-5.26,10.41-6.36,14.78-2.26,8.98-1.69,16.43-1.25,19.97.68,5.44,1.49,11.92,6.12,18.23.83,1.13,3.09,4.04,6.85,6.68,1.6,1.12,3.08,1.92,4.57,2.51,7.49,2.97,14.15,1.98,24.54,3.62,9.89,1.56,14.32,4.35,17.69,1.4,1.64-1.43,2.24-3.53,2.48-5.13Z"/>
      <ellipse class="cls-43" cx="202.81" cy="281.41" rx="5.85" ry="2.93" transform="translate(-129.35 381.39) rotate(-70.97)"/>
      <ellipse class="cls-43" cx="244.12" cy="293.96" rx="5.84" ry="2.94" transform="translate(-127.08 384.59) rotate(-64.01)"/>
      <path class="cls-18" d="m235.53,325.04c.12.12,1.19-.85,2.08-1.7,2.21-1.59,5.24-3.92,8.58-7.01,5.17-4.77,11.56-10.67,16.06-19.96,4-8.26,4.75-15.54,5.21-20.54.51-5.5,1.29-14.96-2.6-26.1-1.38-3.95-5.33-14.85-15.93-23.26-6.83-5.42-13.24-7.29-20.55-9.42-6.95-2.03-16.27-4.74-28.32-3.09-5.95.81-17.84,2.44-28,12.15-8.96,8.56-11.78,18.83-13.17,23.88-2.63,9.55-2.15,17.42-1.86,21.74.19,2.79.92,11.07,4.7,20.97,2.37,6.21,4.6,12.05,10.06,17.68,4.63,4.78,9.57,7.33,12.78,8.68-3.7-7.47-5.59-14.17-6.61-19.12-1.2-5.82-2.18-10.59-1.32-16.95,1.33-9.79,6.08-16.32,7.39-18.04,5.58-7.31,12.25-10.37,14.88-11.53,12.06-5.35,23.19-2.86,28.9-1.5,2.73.65,23.83,5.96,29.26,20.43,1.28,3.41,1.61,7.05,1.61,7.05.57,6.26-1.2,11.09-3.02,15.92-2.51,6.65-5.64,11.18-6.27,12.08-.97,1.39-3.72,4.8-9.26,11.61-2.7,3.33-4.79,5.86-4.61,6.04Z"/>
      <path class="cls-35" d="m265.75,254.04c-.88-1.63-2.13-3.59-3.87-5.61-1.54-1.78-3.09-3.16-4.42-4.19.31-.99.62-2.26.76-3.74.12-1.21.09-2.29.02-3.19-.42-.94-1.14-2.27-2.37-3.57-.93-.98-1.86-1.65-2.61-2.1.48.81,1.07,2.02,1.39,3.58.54,2.65.03,4.85-.31,5.95-.56-.56-1.43-1.36-2.57-2.21-1.12-.83-2.38-1.54-6.16-3.34-2.96-1.41-4.44-2.12-6.43-2.71-2.46-.74-4.58-1.02-6.03-1.13-.52-1.23-1.27-2.91-2.26-4.87-.82-1.61-1.58-3.12-2.59-4.65-1.05-1.6-2.74-3.81-5.4-6.08-1.79-.24-3.57-.49-5.36-.73,1.82,1.07,3.99,2.67,5.98,5.03,2.19,2.6,3.3,5.1,4,6.69.59,1.35.99,2.53,1.25,3.39-3.46-.58-6.5-.91-8.97-1.1-2.89-.22-5.1-.27-7.14-.3-2.55-.05-5.84-.04-9.71.12-.64-1.07-1.58-2.49-2.9-3.99-.76-.86-2.78-2.96-5.9-4.98-2.05-1.33-3.91-2.08-5.15-2.51-1.28.13-2.57.27-3.85.4,2.53,1.04,4.52,2.2,5.96,3.15,1.35.89,2.96,1.96,4.73,3.77,1.8,1.83,3.01,3.64,3.78,4.98-1.63.03-4.03.21-6.84.92-4.32,1.1-7.35,2.86-10.02,4.45-1.65.98-4.47,2.68-7.64,5.58-1.15,1.05-4.56,4.21-7.19,8.52-4.42,7.25-4.65,14.54-4.93,23.73-.2,6.58.4,11.7.8,14.44,1.14,7.78,3.14,13.44,4.65,17.65,1.31,3.65,2.88,7.39,3.13,7.3.28-.1-1.3-4.52-2.55-10.66-1.27-6.27-1.55-11.09-1.89-17.46-.41-7.74-.62-11.61-.18-15.85.71-6.86,1.47-14.19,6.6-20.34,2.43-2.91,5.31-4.93,7.88-6.73,4.38-3.06,8.13-4.72,9.4-5.26,6.28-2.66,11.51-3.26,15.83-3.71,10.03-1.06,17.91.24,21.05.85,4.31.83,12.53,2.49,21.53,8.03,3.73,2.3,8.05,5.02,11.9,10.34,2.78,3.85,4.26,7.61,5.07,10.23-.15-2.69-.3-5.38-.45-8.07Z"/>
      <path class="cls-31" d="m199.96,317.89c-.68,1.19-1.44,2.78-2.03,4.74-.69,2.32-.9,4.37-.94,5.89-.85-.03-2.1-.09-3.61-.25-1.49-.16-4.51-.55-11.48-2.53-3.49-.99-5.24-1.49-6.53-2.03-3.64-1.52-6.28-3.33-8.11-4.6-2.16-1.5-3.87-2.91-5.1-4l4.34-8.29c1.11.4,2.78,1,4.8,1.75,5.28,1.96,6.36,2.51,10.17,3.92,3.03,1.12,6.14,2.28,10.24,3.44,3.42.97,6.29,1.59,8.25,1.98Z"/>
      <path class="cls-31" d="m250.28,328.73c1.78,1.31,2.12,3.57,2.2,4.11.42,2.8-.94,4.97-1.38,5.66-1.41,2.23-3.38,3.21-4.22,3.57-5.03-.94-10.06-1.89-15.09-2.83.91-1.49,1.9-3.37,2.75-5.62,1.08-2.86,1.6-5.44,1.87-7.49,2.16.18,3.98.39,5.34.58.3.04,2.58.31,5.52,1.02,2.4.58,2.8.84,3.02,1Z"/>
      <ellipse class="cls-7" cx="217.71" cy="327.23" rx="18.62" ry="18.77" transform="translate(-146.25 475.58) rotate(-78.54)"/>
      <path class="cls-10" d="m235.16,334.01c.12.02,1.27-2.95,1.32-6.49.08-5.52-2.56-9.49-3.49-10.87-.43-.63-2-2.87-4.8-4.95-6.22-4.63-13.03-4.42-15.41-4.21-1.73.15-4.64.43-7.95,2.21-4.38,2.36-6.64,5.82-7.07,6.5-3.52,5.53-4.55,13.88-.94,19.58,2.21,3.49,5.93,5.61,7.45,6.48,1.92,1.09,3.58,1.69,4.42,1.98,4.06,1.43,7.29,1.56,8,1.58,1.89.05,3.47-.12,4.58-.3-1.49-.28-9.77-1.85-15.29-5.1-2.54-1.5-3.77-2.92-4.52-4.04-.3-.44-1.17-1.81-1.72-3.83-.78-2.9-.4-5.33-.22-6.39.95-5.59,4.64-9.03,5.28-9.61,4.59-4.16,9.94-4.14,11.89-4.14,4.1,0,7.09,1.38,8.63,2.1,2.32,1.09,5.39,2.54,7.69,6.06,2.34,3.58,2.61,7.35,2.63,8.94.02,2.53-.55,4.48-.45,4.5Z"/>
      <ellipse class="cls-42" cx="215.98" cy="327.92" rx="16.14" ry="16.76" transform="translate(-143.28 486.41) rotate(-80.44)"/>
      <path class="cls-3" d="m230.35,309.27c-1.97,2.67-5.77,2.19-8.57,1.83-.46-.06-10.6-1.47-11.08-6.86-.2-2.23,1.35-4.08,4.3-7.59,3.72-4.44,6.69-7.97,9.77-7.28,3.51.79,4.9,6.55,5.72,9.95.81,3.37,1.77,7.37-.13,9.95Z"/>
      <path class="cls-6" d="m154.9,261.69c1.64-1.48,5.47-.7,13.12.86,2.35.48,4.29.96,5.62,1.31.55-2.88,1.91-7.34,5.59-9.86.98-.67,3.34-2.03,16.93-.43,1.92.23,8.32,1.01,16.83,3.03,10.48,2.49,11.82,3.92,12.42,4.67,1.69,2.11,2.6,5.08,5.88,6.45,1.34.56,2.62.67,3.1.7,2.87.21,4.23-.85,6.33-1.27,3.27-.67,6.03.67,9.99,2.6,1.88.92,3.61,2.2,7.06,4.76,6.34,4.71,7.5,6.51,8.02,7.42.15.26,1.7,2.93,2.04,6.12.9,8.56-6.77,17.45-14.51,21.66-3.23,1.76-10.29,5.71-16.9,2.67-.56-.26-6.79-3.23-7.95-8.79-.5-2.37-.11-5.39-2.01-9.35-.64-1.33-.97-1.59-1.27-1.72-2.19-.99-5.09,3.53-10.63,7.05-1.38.88-4.7,2.83-8.84,3.75-1.64.37-9.76,2-17.47-2.59-1.08-.64-6.73-4.01-9.75-10.66-1.85-4.06-1.9-7.51-4.95-9.27-1.42-.82-2.42-.62-5.29-.85-2.53-.2-6.21-.71-10.71-2.13-3.74-7.24-5.09-13.94-2.65-16.14Zm79.13,36.94c.2.43.99,2.06,2.71,3.54.41.35,1.57,1.29,3.34,1.94,2.43.89,4.53.66,5.72.52,6.55-.78,10.72-5.67,11.15-6.19,1.44-1.74,3.72-4.49,3.62-8.27-.07-2.8-1.41-4.93-2.1-6.01-1.27-1.99-2.71-3.16-4.5-4.62-.7-.57-2.36-1.91-4.75-3.27-2.43-1.38-3.68-2.07-5.34-2.14-.57-.02-2.41-.07-4.23,1.08-1.12.71-1.74,1.57-2.29,2.29-1.23,1.62-1.79,3.24-2.05,4.27-.21.66-.5,1.64-.82,2.85-.9,3.46-1.55,6.04-1.41,9.19.07,1.57.15,3.08.96,4.82Zm-50.41-12.24c.57.9,4.61,7.08,12.27,9.3,3.13.91,5.7.81,6.59.76,6.08-.36,10.24-3.56,11.55-4.6.38-.3,8.03-6.52,8.58-15.93.2-3.43-.66-5.31-.86-5.73-1.71-3.58-5.31-5.08-6.55-5.59-.63-.26-1.91-.57-4.44-1.17-2.57-.61-4.43-1.05-6.73-1.48-4.42-.83-4.03-.41-9.48-1.26-2.06-.32-7.94-1.24-10.28.31-.15.1-.28.21-.4.31-1.49,1.3-1.9,3.06-2.1,3.95-3.02,13.43,1.84,21.12,1.84,21.12Z"/>
      <path class="cls-1" d="m261.53,295.67c2.67-2.46,3.85-3.48,4-5.27.24-2.93-2.48-5.39-5.57-8.2-3.13-2.84-3.32-1.94-9.72-6.6-2.76-2.01-3.64-2.84-5.29-2.93-2.86-.16-5.09,2.08-6.74,3.79-1.5,1.56-6.73,6.98-6.35,15.33.13,2.86.39,8.43,5.13,12.12,3.26,2.54,7.79,3.53,11.64,2.73,2.7-.56,2.6-1.48,12.9-10.98Z"/>
      <path class="cls-1" d="m221.13,267.26c.49.7,2.09,3.12,2.41,6.61.68,7.28-4.68,13.31-7.72,16.74-1.41,1.59-4.05,4.51-8.32,6.67-2.38,1.21-5.93,3.01-10.17,2.46-6.05-.78-9.7-5.82-11.59-8.44-5.45-7.55-5.41-16.1-5.36-18.83.09-4.62.17-8.89,2.78-11.48,2.47-2.45,5.28-1.49,15.77.04,14.74,2.15,19,1.69,22.19,6.22Z"/>
      <g>
        <path class="cls-10" d="m218.32,333.22c-.39-.41-.99-1.03-1.96-1.51-.41-.2-1.94-.89-3.86-.5-1.01.2-1.7.62-2.05.83-.3.18-2,1.23-1.8,1.97.09.32.52.53.88.54.72.03.95-.75,1.82-1.26.95-.55,1.97-.4,2.93-.25.79.12,1.93.3,2.83,1.17,1.32,1.28,1.11,3.1,2.08,3.26.23.04.51-.02.68-.2.42-.43.02-1.44-.17-1.95-.12-.32-.49-1.17-1.38-2.12Z"/>
        <path class="cls-10" d="m218.33,329.56c-.8-.32-1.29-.47-1.29-.47-1.05-.32-1.45-.41-1.83-.47-.82-.13-1.06-.06-1.21.1-.12.14-.21.37-.14.56.12.32.6.3,1.55.47,1.06.19,1.62.3,2.29.59.57.25.93.52,1.23.34.18-.11.3-.35.26-.55-.04-.22-.27-.34-.85-.57Z"/>
        <path class="cls-10" d="m221.67,326.01c.32.53,1.5.45,2.3.13,1.97-.81,2.91-3.69,2.3-4.28-.48-.46-1.99.44-2.71,1-1.11.86-2.31,2.45-1.89,3.15Z"/>
        <path class="cls-10" d="m217.46,323.12c.55.26,1.51-.47,2-1.18,1.23-1.78.49-4.71-.34-4.86-.65-.12-1.44,1.48-1.75,2.35-.48,1.35-.64,3.34.08,3.69Z"/>
        <path class="cls-10" d="m211.01,323.8c.59-.17.85-1.36.78-2.23-.19-2.16-2.62-3.87-3.34-3.43-.57.35-.16,2.08.16,2.94.49,1.33,1.63,2.95,2.41,2.72Z"/>
        <path class="cls-10" d="m209.81,327.61c.26-.57-.45-1.54-1.15-2.04-1.73-1.23-4.59-.42-4.73.43-.11.67,1.44,1.46,2.29,1.76,1.31.47,3.25.6,3.59-.15Z"/>
        <path class="cls-10" d="m228.01,332.04c.26-.57-.45-1.54-1.15-2.04-1.73-1.23-4.59-.42-4.73.43-.11.67,1.44,1.46,2.29,1.76,1.31.47,3.25.6,3.59-.15Z"/>
      </g>
      <g>
        <path class="cls-19" d="m210.74,356.2c8.88,2.77,11.37,6.16,11.96,8.79.25,1.12.07,1.71-.21,5.51-.39,5.41-.3,8.13-.4,10.8-.4,10-3.53,17.88-5.24,34.47-1.03,10.03-.53,13.38-.09,15.47.87,4.11,1.95,5.5,4.92,13.83,2.68,7.53,4.03,11.29,4.02,12.87-.07,11.26-14.47,19.94-21.25,24.03-3.35,2.02-9.17,5.46-17.48,6.98-4.65.85-8.57.69-16.42.36-5.74-.24-7.55-.7-9.26-1.48-5.32-2.44-9.66-7.99-8.52-10.24,1.21-2.38,8.38-.68,11.49-.15,9.81,1.67,25.47-.45,50.68-18.23-7.43-13.35-8.99-24.72-9.37-30.57h0c.22-1.41.63-7.6,1.29-20.71.83-4.87,1.21-6.84,1.39-7.65.03-.13.32-1.39.7-3.13h0c.44-1.99.66-2.99,1.55-6.02.48-1.66.73-10.31.25-34.93Z"/>
        <path class="cls-19" d="m195.95,407.81c-6.05-.46-9.08-.7-12.74-1.23-8.86-1.26-15.55-3.18-18.36-4.03-2.62-.8-4.78-1.55-6.26-2.09-.36,3.01-.7,6.95-.79,11.55-.04,2.47-.1,10,1.33,19.77,1.26,8.58,2.32,15.69,5.76,23.47,6.69,15.11,17.22,21,15.28,24.61-.77,1.42-3.47,2.47-12.01.74-3.97-5.49-8.86-13.19-13.19-23.05-2.54-5.78-7.32-16.83-9.24-31.75-2.85-22.1,1.86-40.93,3.67-47.88,2.28-8.78,4.44-13.35,5.53-23.45,1.07-9.89.36-18.15-.41-23.59.87-.48,2.4-1.16,4.36-1.14,4.4.03,7.11,3.54,7.5,4.06.46,2.09,1.03,5.36,1.09,9.38.07,4.91-.7,6.59-2.96,18.55,0,0-1.24,6.58-2.77,17.35-.04.31-.41,2.93-.63,6.44-.11,1.78-.17,2.67-.09,3.05.62,3.06,5.35,4.68,11.73,6.17,4.28,1,7.56,1.77,11.31,2.3,3.59.5,6.34.62,7.1.65,13.22.62,18.08-2.88,21.16.23,2.14,2.16,2.43,6.52.77,8.78-1.13,1.55-3.22,2.17-17.13,1.11Z"/>
      </g>
      <path class="cls-36" d="m173.53,325.79c-2.67-1.32-6.27-2.86-10.67-4.08-2.66-.74-7.91-2-14.84-2.17-6.75-.17-11.49-.29-16.75,2.39-2.61,1.33-6.67,3.4-8.15,7.83-1.48,4.42.48,8.62,1.6,11.01.61,1.31,2.45,4.91,8.51,9.68,4.03,3.17,5.61,3.46,15.17,8.72,9.86,5.42,11.75,7.08,13.22,8.61,1.84,1.91,4.83,5.1,6.46,10.17,2.42,7.53.26,14.32-.73,16.93-1.84-.43-3.68-.86-5.51-1.29.68-1.66,1.57-4.4,1.65-7.85.03-1.5.08-5.12-1.59-8.58-1.62-3.36-4.09-4.95-9.34-8.19-7.29-4.5-10.76-6.53-14.02-8.54-7.64-4.72-11.52-7.15-14.63-10.87-2.44-2.91-5.54-6.72-6.28-12.57-.16-1.26-1.07-8.51,3.4-13.87,1.42-1.7,2.85-2.58,5.01-3.91.92-.57,4.83-2.9,10.93-4.14,2.43-.49,5.9-.95,10.89-.64,10.84.67,20.73,4.46,26.14,6.85-.15,1.5-.31,3.01-.46,4.51Z"/>
      <g>
        <ellipse class="cls-16" cx="215.84" cy="426.58" rx="8.6" ry="10.58" transform="translate(-54.22 32.09) rotate(-7.56)"/>
        <ellipse class="cls-21" cx="215.84" cy="426.58" rx="6.63" ry="8.15" transform="translate(-54.22 32.09) rotate(-7.56)"/>
        <ellipse class="cls-44" cx="215.84" cy="426.58" rx="4.93" ry="6.06" transform="translate(-54.22 32.09) rotate(-7.56)"/>
      </g>
      <g>
        <ellipse class="cls-16" cx="221.11" cy="450.41" rx="8.62" ry="10.55" transform="translate(-104.72 68.85) rotate(-14.35)"/>
        <ellipse class="cls-21" cx="221.11" cy="450.41" rx="6.64" ry="8.13" transform="translate(-104.72 68.85) rotate(-14.35)"/>
        <ellipse class="cls-44" cx="221.11" cy="450.41" rx="4.94" ry="6.05" transform="translate(-104.72 68.85) rotate(-14.35)"/>
      </g>
      <ellipse class="cls-16" cx="160.6" cy="404.69" rx="11.16" ry="10.84" transform="translate(-263.28 504.13) rotate(-81.56)"/>
      <ellipse class="cls-21" cx="160.6" cy="404.69" rx="8.6" ry="8.36" transform="translate(-263.28 504.13) rotate(-81.56)"/>
      <ellipse class="cls-44" cx="160.6" cy="404.69" rx="6.39" ry="6.21" transform="translate(-263.28 504.13) rotate(-81.56)"/>
    </g>
    <g>
      <path class="cls-20" d="m669.8,346.99l-9.61-30.83c-2.16,1.66-4.64,2.98-6.57,3.87l1.84,22.99-17.46,3.76-1.52-84.33c5.53-1.77,11.61-2.65,17.46-2.65,15.21,0,29.07,6.63,29.07,24.31,0,9.28-4.08,16.91-11.13,23.54l14.89,27.19-16.98,12.16Zm-17.94-46.31c8.09-1.77,14.65-6.96,14.65-13.93,0-6.41-3.52-8.29-7.53-8.29-3.12,0-6.57,1.1-8.89,2.1l1.76,20.11Z"/>
      <path class="cls-20" d="m693.19,347.43l-3.12-83.77,38.68-5.19.32,26.75-24.18,2.54.32,9.84,19.78-2.43.72,15.47-19.7,2.87.32,11.05,22.82-3.87,1.12,18.68-37.08,8.07Z"/>
      <path class="cls-20" d="m770.14,314.06l-7.13-.55-.4-14.37,24.98-.66c-.08,25.09-3.28,39.12-10.97,50.18-23.54-4.09-40.68-24.31-40.68-49.51,0-20.11,15.21-39.12,36.76-39.12,4.24,0,7.45.77,11.69,2.32l-2.8,26.86c-2.96-2.32-7.37-3.65-11.93-3.65-8.65,0-17.7,4.75-17.78,16.03,0,10.83,7.05,18.35,18.58,21.99l-.32-9.5Z"/>
      <path class="cls-20" d="m798.33,346.44l-2.96-86.09,18.26-.88-.48,60.45,22.1-3.87.48,26.75-37.4,3.65Z"/>
      <path class="cls-20" d="m844.54,347.43l-3.12-83.77,38.68-5.19.32,26.75-24.18,2.54.32,9.84,19.78-2.43.72,15.47-19.7,2.87.32,11.05,22.82-3.87,1.12,18.68-37.08,8.07Z"/>
      <path class="cls-20" d="m918.45,345.11l-9.21-29.95-4.8.88,1.12,29.29h-16.9l.16-83.44c4.16-1.66,11.29-2.43,16.18-2.43,20.18,0,30.19,13.48,30.19,27.3,0,9.06-4.24,18.24-12.73,23.87l12.73,30.95-16.74,3.54Zm-14.49-44.43c8.17-.11,12.33-5.75,12.33-11.27,0-4.97-3.44-9.84-10.41-9.84-.88,0-1.84,0-2.72.22l.8,20.89Z"/>
      <path class="cls-20" d="m943.51,293.94c0-6.52,3.76-12.38,8.65-12.38,4.48,0,8.73,5.19,8.73,12.27,0,6.3-3.52,12.27-8.65,12.27-4.48,0-8.73-5.08-8.73-12.16Zm0,39.79c0-6.52,3.76-12.38,8.65-12.38,4.48,0,8.73,5.19,8.73,12.27,0,6.3-3.52,12.27-8.65,12.27-4.48,0-8.73-5.08-8.73-12.16Z"/>
    </g>
    <g>
      <path class="cls-12" d="m515.54,477.56l-2.11-28.02c2.77-1.08,5.99-1.59,8.99-1.59,9.8,0,15.13,3.97,15.13,10.93,0,5.08-4.81,10.04-14.61,10.08l1.18,8.01-8.58.59Zm6.44-15.16c3.18-.63,6.44-2.08,6.44-4.67,0-2.37-1.85-3.3-4.03-3.3-1.15,0-2.37.26-3.44.7l1.04,7.26Z"/>
      <path class="cls-12" d="m555.9,477.6l-1.7-5.67-7.32.52-1.22,5.6-8.36-1.59,8.84-28.39,7.88.26,9.99,26.94-8.1,2.34Zm-5.88-19.61l-2.11,9.01,4.73-.3-2.63-8.71Z"/>
      <path class="cls-12" d="m569.99,468.63c1.96,1.71,4.07,2.41,5.88,2.41,2.81,0,5.03-1.33,5.03-3.37,0-3.56-14.05-.41-14.05-10.19,0-6.75,8.21-9.38,13.98-9.38,2.37,0,4.85.41,7.21,1.37l-2.55,6.56c-1.7-1-3.59-1.41-5.25-1.41-2.81,0-5.1,1.19-5.1,2.93,0,3.74,14.72-.15,14.72,10.93,0,5.37-6.14,9.08-12.69,9.08-3.92,0-7.99-1.33-10.95-4.45l3.77-4.48Z"/>
      <path class="cls-12" d="m610.38,477.34l-.7-27.21c2.7-1.07,5.77-1.45,8.95-1.45,7.32,0,12.69,3.04,12.69,8.75,0,6.63-4.62,11.27-13.69,11.67l.26,8.27-7.51-.04Zm7.06-14.34c.33.04.67.04.96.04,4.03,0,6.33-2.19,6.33-4.15,0-1.56-1.44-2.96-4.59-2.96-1,0-2.03.15-2.88.44l.19,6.63Z"/>
      <path class="cls-12" d="m649.14,477.6l-1.7-5.67-7.32.52-1.22,5.6-8.36-1.59,8.84-28.39,7.88.26,9.99,26.94-8.1,2.34Zm-5.58-30.47c-2.7,0-4.92-2.08-4.92-4.63s2.22-4.67,4.92-4.67,4.92,2.08,4.92,4.67-2.22,4.63-4.92,4.63Zm-.3,10.86l-2.11,9.01,4.73-.3-2.63-8.71Zm1.74-15.38c0-.74-.55-1.37-1.26-1.37-.67,0-1.26.63-1.26,1.37,0,.78.59,1.37,1.26,1.37.7,0,1.26-.59,1.26-1.37Z"/>
      <path class="cls-12" d="m699,476.67l-1.29-15.08-4.73,12.12-3.25.56-3.81-11.9-2.81,14.83-7.66-1.82,5.88-27.06,5.81-.19,4.7,13.71,5.62-13.64,6.14.63,4.51,27.43-9.1.41Z"/>
      <path class="cls-12" d="m712.43,477.89l-1.44-28.09,17.87-1.74.15,8.97-11.17.85.15,3.3,9.14-.82.33,5.19-9.1.96.15,3.71,10.54-1.3.52,6.26-17.12,2.71Z"/>
      <path class="cls-12" d="m732.96,449.8c1.92-.37,4.03-.59,6.18-.59,12.61,0,19.49,5.97,19.49,14.12,0,6.89-6.62,13.75-20.94,13.75-1.15,0-2.29-.07-3.4-.22l-1.33-27.06Zm8.88,18.46c.44.04.89.07,1.29.07,4.62,0,7.69-1.74,7.69-5.26s-3.37-5.63-8.77-5.71l-.22,10.9Z"/>
      <path class="cls-12" d="m795.87,477.6l-1.7-5.67-7.32.52-1.22,5.6-8.36-1.59,8.84-28.39,7.88.26,9.99,26.94-8.1,2.34Zm-5.88-19.61l-2.11,9.01,4.73-.3-2.63-8.71Z"/>
      <path class="cls-12" d="m808.64,476.93l.18-20.31-6.03.15-.74-6.86,21.42-1.33.04,7.41-5.88.26-1.22,21.46-7.77-.78Z"/>
      <path class="cls-12" d="m845.7,468.63c1.96,1.71,4.07,2.41,5.88,2.41,2.81,0,5.03-1.33,5.03-3.37,0-3.56-14.06-.41-14.06-10.19,0-6.75,8.21-9.38,13.98-9.38,2.37,0,4.85.41,7.21,1.37l-2.55,6.56c-1.7-1-3.59-1.41-5.25-1.41-2.81,0-5.1,1.19-5.1,2.93,0,3.74,14.72-.15,14.72,10.93,0,5.37-6.14,9.08-12.69,9.08-3.92,0-7.99-1.33-10.95-4.45l3.77-4.48Z"/>
      <path class="cls-12" d="m885.76,477.6l-1.7-5.67-7.32.52-1.22,5.6-8.36-1.59,8.84-28.39,7.88.26,9.99,26.94-8.1,2.34Zm-5.88-19.61l-2.11,9.01,4.73-.3-2.63-8.71Z"/>
      <path class="cls-12" d="m919.23,476.67l-1.29-15.08-4.73,12.12-3.25.56-3.81-11.9-2.81,14.83-7.66-1.82,5.88-27.06,5.81-.19,4.7,13.71,5.62-13.64,6.14.63,4.51,27.43-9.1.41Z"/>
      <path class="cls-12" d="m933.18,477.56l-1.37-28.87,8.43-.3-.22,20.27,10.21-1.3.22,8.97-17.27,1.22Z"/>
      <path class="cls-12" d="m954.74,477.89l-1.44-28.09,17.87-1.74.15,8.97-11.17.85.15,3.3,9.14-.82.33,5.19-9.1.96.15,3.71,10.54-1.3.52,6.26-17.12,2.71Z"/>
      <path class="cls-12" d="m991.47,477.78l.74-29.17,17.13.52.22,6.71-9.76-.33-.22,5.04,7.51.26-.26,6.04-7.54-.44-.37,10.82-7.43.56Zm19.57-.07l.59-28.91,8.62-.15-.67,28.72-8.54.33Z"/>
      <path class="cls-12" d="m1027.61,468.63c1.96,1.71,4.07,2.41,5.88,2.41,2.81,0,5.03-1.33,5.03-3.37,0-3.56-14.05-.41-14.05-10.19,0-6.75,8.21-9.38,13.98-9.38,2.37,0,4.85.41,7.21,1.37l-2.55,6.56c-1.7-1-3.59-1.41-5.25-1.41-2.81,0-5.1,1.19-5.1,2.93,0,3.74,14.72-.15,14.72,10.93,0,5.37-6.14,9.08-12.69,9.08-3.92,0-7.99-1.33-10.95-4.45l3.77-4.48Z"/>
      <path class="cls-12" d="m1070.51,478.56l-10.88-11.75-.15,9.79-7.25,1.07-1.18-28.54,9.25-.56-.7,9.79,8.32-10.97,6.36,4.22-8.4,11.04,10.84,10.38-6.21,5.52Z"/>
    </g>
  </g>
  <g id="dykker_venstre">
    <ellipse class="cls-34" cx="266.26" cy="200.35" rx="8.62" ry="8.63"/>
    <ellipse class="cls-34" cx="254.03" cy="146.46" rx="11.46" ry="11.48"/>
    <ellipse class="cls-34" cx="286.32" cy="103.51" rx="14.78" ry="14.81"/>
  </g>
  <g id="dykker_hojre">
    <ellipse class="cls-34" cx="266.26" cy="200.35" rx="8.62" ry="8.63"/>
    <ellipse class="cls-34" cx="254.03" cy="146.46" rx="11.46" ry="11.48"/>
    <ellipse class="cls-34" cx="286.32" cy="103.51" rx="14.78" ry="14.81"/>
  </g>
</svg>