<?xml version="1.0" encoding="UTF-8"?>
<svg id="spil_igen" xmlns="http://www.w3.org/2000/svg" viewBox="0 0 533 174">
  <defs>
    <style>
      .cls-1 {
        fill: #4f5dab;
      }

      .cls-1, .cls-2, .cls-3, .cls-4, .cls-5 {
        stroke-width: 0px;
      }

      .cls-2 {
        fill: #6f8fda;
      }

      .cls-3 {
        fill: #264584;
      }

      .cls-4 {
        fill: #1f2e6b;
      }

      .cls-5 {
        fill: #fff;
      }
    </style>
  </defs>
  <path class="cls-1" d="m33.77.2h479.78c10.61,0,19.22,8.61,19.22,19.22v120.84c0,18.51-15.03,33.54-33.54,33.54H33.77C15.26,173.8.23,158.77.23,140.26V33.74C.23,15.23,15.26.2,33.77.2Z"/>
  <path class="cls-3" d="m498.21,155H37.23c-9.97,0-18.12-8.16-18.12-18.12V33.64c0-9.97,8.16-18.12,18.12-18.12h460.98c1.22,0,7.62.15,12.8,5.32,3.28,3.28,5.32,7.82,5.32,12.8v103.24c0,9.97-8.16,18.12-18.12,18.12Z"/>
  <path class="cls-4" d="m498.21,15.52c1.5-.07,3.52.03,5.75.75,3.55,1.15,5.74,3.27,7.05,4.57.96.95,2.37,2.37,3.54,4.68,1.3,2.57,1.63,4.93,1.72,6.38.02,2.8.04,5.59.06,8.38.22,32.35.22,64.54,0,96.59,0,1.53-.2,4-1.32,6.76-.34.83-2.08,4.97-6.24,7.93-4.28,3.05-8.97,3.33-10.56,3.42-8.94.53-105.34.57-237.16,0,44.15-14.22,78.12-30.74,101.77-43.57,26.07-14.14,37.38-22.84,46.39-31.11,24.59-22.6,38.52-48.04,46.17-65.13,14.28.11,28.56.22,42.84.33Z"/>
  <path class="cls-2" d="m37.95,35.98c10.33-3.05,23.15-5.57,37.87-5.68,14.31-.11,26.82,2.08,36.97,4.85-10.76,2.1-22.91,3.61-36.23,3.83-14.27.24-27.23-1.03-38.62-3Z"/>
  <g>
    <path class="cls-5" d="m80.54,93.4c5.4,3.75,11.1,5.4,15.82,5.4,5.77,0,9.9-2.47,9.9-6.6,0-9.45-30.97-2.17-30.97-20.32,0-13.95,13.5-17.55,26.25-17.55,5.02,0,9.9.6,13.8,1.28l-.45,13.72c-2.55-1.12-8.32-2.47-13.35-2.47-4.5,0-8.32,1.12-8.32,4.42,0,7.65,32.1-3.22,32.1,21.97,0,14.25-13.5,20.55-27.3,20.55-10.12,0-20.32-3.38-25.57-9.52l8.1-10.88Z"/>
    <path class="cls-5" d="m132.51,114.02l-1.42-55.05c5.47-2.18,11.7-2.93,18.15-2.93,14.85,0,25.72,6.15,25.72,17.7,0,13.43-9.37,22.8-27.75,23.62l.53,16.72-15.22-.08Zm14.32-29.02c.67.08,1.35.08,1.95.08,8.17,0,12.82-4.43,12.82-8.4,0-3.15-2.92-6-9.3-6-2.02,0-4.12.3-5.85.9l.38,13.42Z"/>
    <path class="cls-5" d="m180.14,114.77l1.2-58.5,17.47-.3-1.35,58.12-17.32.67Z"/>
    <path class="cls-5" d="m209.91,114.48l-2.77-58.42,17.1-.6-.45,41.02,20.7-2.62.45,18.15-35.02,2.47Z"/>
    <path class="cls-5" d="m284.31,114.77l1.2-58.5,17.47-.3-1.35,58.12-17.32.67Z"/>
    <path class="cls-5" d="m342.06,92.5l-6.67-.38-.38-9.75,23.4-.45c-.08,17.02-3.07,26.55-10.27,34.05-22.05-2.78-38.1-16.5-38.1-33.6,0-13.65,14.25-26.55,34.42-26.55,3.97,0,6.97.53,10.95,1.57l-2.62,18.22c-2.77-1.57-6.9-2.47-11.17-2.47-8.1,0-16.57,3.22-16.65,10.88,0,7.35,6.6,12.45,17.4,14.92l-.3-6.45Z"/>
    <path class="cls-5" d="m367.41,115.15l-2.92-56.85,36.22-3.52.3,18.15-22.65,1.72.3,6.68,18.52-1.65.67,10.5-18.45,1.95.3,7.5,21.37-2.62,1.05,12.67-34.72,5.47Z"/>
    <path class="cls-5" d="m445.78,114.1l-19.72-30.6,4.42,30-20.47,2.32-1.2-59.92,12.67.45,16.42,22.42-3.38-24.52,18.45,2.1,2.1,56.85-9.3.9Z"/>
  </g>
</svg>