<?xml version="1.0" encoding="UTF-8"?>
<svg id="spil" xmlns="http://www.w3.org/2000/svg" viewBox="0 0 533 174">
  <defs>
    <style>
      .cls-1 {
        fill: #4f5dab;
      }

      .cls-1, .cls-2, .cls-3, .cls-4, .cls-5 {
        stroke-width: 0px;
      }

      .cls-2 {
        fill: #6f8fda;
      }

      .cls-3 {
        fill: #264584;
      }

      .cls-4 {
        fill: #1f2e6b;
      }

      .cls-5 {
        fill: #fff;
      }
    </style>
  </defs>
  <path class="cls-1" d="m33.77.2h479.78c10.61,0,19.22,8.61,19.22,19.22v120.84c0,18.51-15.03,33.54-33.54,33.54H33.77C15.26,173.8.23,158.77.23,140.26V33.74C.23,15.23,15.26.2,33.77.2Z"/>
  <path class="cls-3" d="m497.85,156.31H36.87c-9.97,0-18.12-8.16-18.12-18.12V34.95c0-9.97,8.16-18.12,18.12-18.12h460.98c1.22,0,7.62.15,12.8,5.32,3.28,3.28,5.32,7.82,5.32,12.8v103.24c0,9.97-8.16,18.12-18.12,18.12Z"/>
  <path class="cls-4" d="m497.85,16.83c1.5-.07,3.52.03,5.75.75,3.55,1.15,5.74,3.27,7.05,4.57.96.95,2.37,2.37,3.54,4.68,1.3,2.57,1.63,4.93,1.72,6.38.02,2.8.04,5.59.06,8.38.22,32.35.22,64.54,0,96.59,0,1.53-.2,4-1.32,6.76-.34.83-2.08,4.97-6.24,7.93-4.28,3.05-8.97,3.33-10.56,3.42-8.94.53-105.34.57-237.16,0,44.15-14.22,78.12-30.74,101.77-43.57,26.07-14.14,37.38-22.84,46.39-31.11,24.59-22.6,38.52-48.04,46.17-65.13,14.28.11,28.56.22,42.84.33Z"/>
  <path class="cls-2" d="m37.6,37.28c10.33-3.05,23.15-5.57,37.87-5.68,14.31-.11,26.82,2.08,36.97,4.85-10.76,2.1-22.91,3.61-36.23,3.83-14.27.24-27.23-1.03-38.62-3Z"/>
  <g>
    <path class="cls-5" d="m176.58,96.96c5.4,3.75,11.1,5.4,15.82,5.4,5.77,0,9.9-2.47,9.9-6.6,0-9.45-30.97-2.17-30.97-20.32,0-13.95,13.5-17.55,26.25-17.55,5.02,0,9.9.6,13.8,1.27l-.45,13.72c-2.55-1.12-8.32-2.47-13.35-2.47-4.5,0-8.32,1.12-8.32,4.42,0,7.65,32.1-3.22,32.1,21.97,0,14.25-13.5,20.55-27.3,20.55-10.12,0-20.32-3.38-25.57-9.52l8.1-10.88Z"/>
    <path class="cls-5" d="m232.38,118.03l-4.27-56.7c5.62-2.17,12.15-3.22,18.22-3.22,19.87,0,30.67,8.02,30.67,22.12,0,10.27-9.75,20.32-29.62,20.4l2.4,16.2-17.4,1.2Zm13.05-30.67c6.45-1.28,13.05-4.2,13.05-9.45,0-4.8-3.75-6.67-8.17-6.67-2.33,0-4.8.52-6.98,1.42l2.1,14.7Z"/>
    <path class="cls-5" d="m281.35,114.66l1.05-13.65,6.3.38,1.12-27.82h-6l-.45-13.12,32.1-1.35-.3,14.47h-7.42l-2.02,29.1,5.4.3-.97,14.62-28.8-2.92Z"/>
    <path class="cls-5" d="m325.37,118.03l-3.38-58.27,18.97-1.5-.52,43.57,19.72-1.58.53,15.22-35.32,2.55Z"/>
  </g>
</svg>