<?xml version="1.0" encoding="UTF-8"?>
<svg xmlns="http://www.w3.org/2000/svg" viewBox="0 0 1605.9 899.64">
  <defs>
    <style>
      .cls-1 {
        opacity: .64;
      }

      .cls-1, .cls-2, .cls-3, .cls-4, .cls-5, .cls-6, .cls-7, .cls-8, .cls-9, .cls-10, .cls-11, .cls-12, .cls-13, .cls-14, .cls-15, .cls-16, .cls-17, .cls-18, .cls-19, .cls-20, .cls-21, .cls-22, .cls-23, .cls-24, .cls-25, .cls-26, .cls-27, .cls-28, .cls-29, .cls-30, .cls-31, .cls-32, .cls-33, .cls-34, .cls-35, .cls-36, .cls-37, .cls-38, .cls-39, .cls-40, .cls-41, .cls-42, .cls-43, .cls-44, .cls-45, .cls-46, .cls-47, .cls-48, .cls-49, .cls-50, .cls-51, .cls-52 {
        stroke-width: 0px;
      }

      .cls-1, .cls-7 {
        fill: #4f5daa;
      }

      .cls-2 {
        fill: none;
      }

      .cls-3 {
        fill: #5fcaff;
        opacity: .76;
      }

      .cls-4 {
        fill: #497065;
      }

      .cls-5 {
        fill: #5d7d74;
      }

      .cls-6 {
        fill: #524a40;
      }

      .cls-8 {
        fill: #5b5b5b;
      }

      .cls-9 {
        fill: #6f8ed9;
      }

      .cls-10 {
        fill: #883325;
      }

      .cls-11 {
        fill: #262626;
      }

      .cls-12 {
        fill: #264583;
      }

      .cls-13 {
        fill: #3d524c;
      }

      .cls-14 {
        fill: #1c2552;
      }

      .cls-15 {
        fill: #091434;
      }

      .cls-16 {
        fill: #446e6a;
      }

      .cls-17 {
        fill: #150055;
      }

      .cls-18 {
        fill: #070035;
      }

      .cls-19 {
        fill: #0b0035;
      }

      .cls-20 {
        fill: #221f20;
      }

      .cls-21 {
        fill: #1f2e6b;
      }

      .cls-22 {
        fill: #162048;
      }

      .cls-23 {
        fill: #c84757;
      }

      .cls-24 {
        fill: #cbcbcb;
      }

      .cls-25 {
        fill: #c8b991;
      }

      .cls-26 {
        fill: #d5b3b3;
      }

      .cls-27 {
        fill: #dd5d35;
      }

      .cls-28 {
        fill: #da6565;
      }

      .cls-29 {
        fill: #daacac;
      }

      .cls-30 {
        fill: #c0e3f7;
      }

      .cls-31 {
        fill: #64a08f;
      }

      .cls-32 {
        fill: #98c3da;
      }

      .cls-33 {
        fill: #9c9c9c;
      }

      .cls-34 {
        fill: #847868;
      }

      .cls-35 {
        fill: #6aa292;
      }

      .cls-36 {
        fill: #80aec6;
      }

      .cls-37 {
        fill: #665c50;
      }

      .cls-38 {
        fill: #fff;
      }

      .cls-39 {
        fill: #e48680;
      }

      .cls-40 {
        fill: #ffd974;
      }

      .cls-41 {
        fill: #e4a542;
      }

      .cls-42 {
        fill: #ffd174;
      }

      .cls-43 {
        fill: #e78d8d;
      }

      .cls-44 {
        fill: #fbe6b3;
      }

      .cls-45 {
        fill: #f1be9b;
      }

      .cls-46 {
        fill: #f3c263;
      }

      .cls-47 {
        fill: #f5f5f5;
      }

      .cls-48 {
        fill: #000255;
      }

      .cls-49 {
        fill: #000735;
      }

      .cls-50 {
        fill: #008ff3;
      }

      .cls-51 {
        fill: #0089e8;
      }

      .cls-52 {
        fill: #679d8e;
      }
    </style>
  </defs>
  <g id="titelside">
    <g id="Layer_21" data-name="Layer 21">
      <path class="cls-30" d="m0,0v899.64h1605.75V0H0Z"/>
      <path class="cls-32" d="m102.71,58.97s0,0,0,0c.79-.06,32.01-2.49,74.23,2.44,46.77,5.45,63.56,14.85,78.12,30.45,9.91,10.62,29.36,31.56,34.22,61.14,12.84,78.15-89.7,149.85-81.11,184.52,8.31,33.5,115.9,18.1,189.31-6.22,24.81-8.22,53.79-20.13,88.05,4.66,26.6,19.26,54.01,58.94,59.97,67.57,27.06,39.17,27.98,53.9,45.4,69.23,24.74,21.77,37.87,5.27,67.5,9.99,47.63,7.58,48.44,55.73,96.01,73.44,61.19,22.78,82.77-48.35,130.45-18.93,6.46,3.98,25.71,17.41,40.92,2.24,6.77-6.75,10.13-16.56,12.44-23.06,0,0,12.27-34.45,37.96-84.46,25.15-48.98,54.95,5.39,102.58-33.08,40.09-32.39,38.68-86.83,77.91-95.38,20.32-4.43,37.56,6.49,48.4,13.36,47.6,30.14,56.57,86.28,88.53,115.53,7.59,6.94,14.78,10.46,21.76,11.47,52.64,7.6,85.56-46.28,130.85-57.53,31.04-7.71,80.76,5.13,159.9,106.19-.02,108.88-.04,217.77-.06,326.65-133.14-25.68-266.52-48.69-400.16-69.05C806.02,689.22,403.97,652.14-.26,638.89-.02,447.43.22,255.97.45,64.5c41-1.64,74.71-3.51,102.25-5.53Z"/>
      <path class="cls-36" d="m398.81,558.15c-7.81-7.95-34.56-33.14-72.12-30.79-10.26.64-34.56,2.17-54.08,24.37-21.98,25-28.4,65.43-33.01,94.47-.31,1.93-.48,2.9-.49,3.56-.87,42.69,108,84.15,187.94,100.15,98.14,19.63,151.55.65,245.62-8.7,220.7-21.94,313.81,44.06,407.32,17.78,31.97-8.98,34.51-18.91,66.2-35.02,87.63-44.55,228.54-77.17,459.55-16.88v-106.01c-61.11-47.33-106.99-52.98-137.99-48.97-59.39,7.67-80.6,52.89-135.76,44.64-36.32-5.43-65.84-30.84-85.39-47.67-32.38-27.86-31.91-42.1-58.68-60.71-4.78-3.32-49.19-33.38-96.27-26.59-69.7,10.05-67.58,87.62-160.55,129.18-63.74,28.49-99.34,13.09-110.18,7.62-26.4-13.33-24.89-27.79-47.89-38.82-51.67-24.79-78.36,39.1-147.14,37.23-54.81-1.49-62.77-42.74-131.96-51.38-39.34-4.91-72.63,3.94-95.13,12.54Z"/>
      <path class="cls-16" d="m96.6,568.33s-13.34,3.1-67.63-32.88h0c-8.07-45.84,1.53-66.43,11.9-76.75,9.38-9.34,18.35-10.31,23.15-21.43,6.13-14.23-7.72-22.84-5.41-48.99.18-2.05,2.22-9.29,6.27-23.68,7.15-25.43,10.78-38.26,13.81-44.1,3.22-6.2,11.09-19.75,25.94-31.37,10.4-8.14,18.58-14.54,28.23-12.81,13.18,2.36,23.37,18.84,22.82,32.95-.42,10.89-6.97,13.34-22.07,35.9-12.81,19.15-20.12,30.34-21.82,45.84-.99,9.02.75,7.47,2.96,32.05,1.96,21.8,2.94,32.7-1.67,41.52-6.85,13.09-17.41,11.75-24.46,25.55-5.05,9.88-4.6,20.27-3.45,27.47,37.21-5.15,52.07-18.11,58.51-29.73,6.39-11.53,3.23-19.44,12.98-36.35,6.95-12.06,10.44-11.31,27.55-31.05,20.07-23.16,19.24-28.78,30.27-34.55,15.82-8.28,38.67-7.8,43.66,1.31,4.45,8.13-6.73,22.61-29.08,51.57-19.34,25.06-22.25,24.39-28.19,36.4-13.11,26.51-1.38,39.84-13.65,52.17-13.47,13.54-30.33.24-58.33,14.23-20.7,10.35-17.3,23.25-32.27,26.73Z"/>
      <path class="cls-52" d="m83.43,436.36c-1.81.27-4.35-4.59-5.29-8.86-.86-3.92-.27-6.89.1-9.45,1.26-8.77-.46-10.2-.04-19.79,0,0,.44-10.12,3.46-20.16,6.3-20.95,17.68-19.28,23.11-38.63,2.36-8.41,1.83-14.49,7-22.23,2.64-3.94,4.04-4.26,8.59-10.95,2.67-3.92,3.84-6.25,6.12-6.45,2.56-.23,5.66,2.27,6.05,4.95.59,4.05-5.33,6.72-10.36,11.5-10.01,9.52-4,17.54-15.17,35.06-8.71,13.67-10.78,12.94-15.26,22.43-3.7,7.83-7.62,16.07-7.3,26.88.23,7.83,2.5,10.99,2.07,21.95-.11,2.87-.53,13.39-3.1,13.76Z"/>
      <path class="cls-35" d="m146.54,506.76c-1.29-2.41,8.53-6.95,15.29-17.13,7.72-11.63,2.65-17.19,9.7-32.47,5.01-10.86,12.33-17.91,16.3-21.73,9.33-8.98,16.31-11.44,25.06-22.68,3.08-3.95,5.2-7.48,6.5-9.8,2.13.41,4.66,1.29,5.55,3.29,1.53,3.43-2.53,8.34-7.28,13.43-12.39,13.28-19.11,16.59-29.36,27.63-5.35,5.76-8.02,8.64-10.78,13.57-5.88,10.5-3.85,15.35-10.58,30.28-4.39,9.74-8.03,13.84-12.84,15.55-2.8,1-6.79,1.47-7.55.05Z"/>
      <path class="cls-31" d="m106.89,583.04c-18.39,6.25-48.72.83-101.07-50.62,0-10.87,0-21.73,0-32.6,18.89-25.55,20.97-44.53,19.16-57.35-2.62-18.53-13.59-27.3-9.85-45.21,2.91-13.9,10.79-13.46,14.8-30.1,4.36-18.09-3.04-26.52,3.85-34.53,6.3-7.33,20.15-9.17,27.54-3.59,6.92,5.23,6.41,15.66,5.74,29.51-.18,3.64-.87,13.4-5.05,26.17-5.77,17.64-10.09,16.31-10.67,25.84-.46,7.57,2.24,8.64,7.3,32.73,1.4,6.67,2.1,10,2.1,11.13.02,14.83-11.06,24.25-9.6,36.21.18,1.45.62,5.1,2.58,5.66,1.47.42,3.13-1.1,3.81-1.78,2.73-9.2,8.05-21.57,19.38-30.75,12.69-10.28,20.66-6.62,27.33-15.75,9.14-12.51-2.46-23.98,5.6-48.97,3.89-12.05,10.01-19.97,11.37-21.7,13.59-17.18,24.46-12.47,36.5-26.82,12.92-15.41,5.59-27.05,19.02-37.94,7.5-6.08,20.16-10.86,30.37-6.22,12.91,5.86,16.74,24.41,14.94,37.2-2.49,17.66-16.53,29.97-31.47,43.07-16.58,14.54-23.94,15.01-29.48,26.89-3.87,8.31-1.32,10.32-4.23,31.91-2.93,21.69-4.4,32.54-10.85,40.11-9.58,11.24-19.58,7.6-29.52,19.47-7.12,8.51-8.99,18.74-9.46,26.01,39.34,3.38,55.84-6.48,63.65-16,11.3-13.76,6.67-29.51,22.61-42.34,12.17-9.8,18.7-3.69,31.87-14.37,15.16-12.29,11.8-24.66,25.68-32.11,9.66-5.18,24.51-6.29,30.99.58,10.2,10.81-.99,40.59-17.03,59.35-14.25,16.67-22.05,12.63-35.56,29.23-18.67,22.94-10.19,38.54-24.9,47.84-16.14,10.21-29.63-6.5-60.03.92-20.02,4.89-24.11,14.38-37.4,18.9Z"/>
      <path class="cls-4" d="m24.84,498.44c.85-15.93,4.62-27.72,7.96-35.61,4.47-10.57,7.55-12.67,8.07-20.29.84-12.32-6.62-15.25-8.44-30.59-1.31-11.08,1.32-20.22,2.75-25.19,3.36-11.65,8.06-16.98,9.76-30.15.6-4.63.6-8.47.51-10.95,2.04-.7,4.66-1.21,6.46-.04,3.08,2,2.13,7.87.69,14.22-4.54,19.99-9.2,23.5-10.89,36.18-1.36,10.14.19,18.62.74,21.33,2.34,11.49,6.03,13.13,6.61,21.3.63,8.91-3.67,8.27-8.62,25.77-3.52,12.44-2.75,17.74-7.98,32.88-1.12,3.25-2.16,5.9-2.88,7.68-1.47,1.98-2.61,2.86-3.42,2.65-1.27-.34-1.71-3.4-1.33-9.18Z"/>
      <path class="cls-4" d="m74.26,516.56c-1.03-.97,5.93-10.35,11.28-16.5,4.48-5.15,9.35-9.79,19.08-19.07,4.11-3.92,3.7-3.43,4.21-3.99,7.94-8.82,10.52-18.94,13.11-29.56,3.48-14.28,1.02-15.65,4.68-27.86,2.02-6.75,4.77-15.94,11.93-24.56,9.22-11.09,13.58-6.57,26.14-19.28,7.62-7.71,13.32-16.76,18.94-25.68,2.44-3.87,3.66-5.81,4.49-7.91,1.89-4.8,1.69-7.76,3.76-8.62,1.78-.74,4.46.37,5.75,2.11,1.56,2.1,1.81,6.05-3.71,16.27-7.94,14.69-18.27,24.67-23.92,29.78-12.02,10.87-13.82,9.62-20.66,17.58-8.22,9.56-12.39,19.24-14.17,23.98-6.01,15.99-2.26,21.83-9.3,38.52-3,7.1-6.28,12.21-7.86,14.56-3.12,4.64-7.19,9.71-23.58,24.19-11.89,10.5-19.2,16.96-20.15,16.07Z"/>
      <path class="cls-4" d="m131.42,546.45c40.32-2.84,48.45-6.52,52.51-12.83,1.59-2.47.27-1.99,2.99-11.16,1.76-5.94,6.18-18.37,14.2-30.77,6.5-10.04,14.74-15.98,19.21-19.2,10.5-7.57,17.76-9.02,28.02-18.9,3.6-3.47,6.21-6.67,7.82-8.78,2.05.71,4.43,1.94,5.03,4.05,1.03,3.61-3.69,7.89-9.11,12.26-17.08,13.75-23.07,13.73-32.98,23.2-7.93,7.57-12.48,15.6-13.89,18.21-3.86,7.14-6.29,13.41-9.32,21.89-5.28,14.79-3.64,15.6-6.51,18.95-3.48,4.06-7.34,4.77-33.56,8.44-19.51,2.73-23.47,3.18-30.03,2.66-10.33-.81-21.35-3.58-21.22-5.28.12-1.47,8.63-1.46,26.83-2.74Z"/>
      <path class="cls-25" d="m0,522.47c13.92,4.77,34.56,13.45,55.87,29.7,28.66,21.86,29.12,35,53.02,46.9,25.83,12.86,33.22,1.48,69.67,14.56,28.9,10.38,25.8,18.09,52.89,27.57,34.55,12.08,42.8.65,78.09,12.36,22.79,7.56,24.83,14.75,55.01,29.7,27.09,13.41,50.96,20.51,67,24.41,15.96-3.16,40.52-8.46,70.09-16.75,70.71-19.83,82.82-33.39,119.93-37.34,28.83-3.06,22.93,3.32,124.52,18.48,76.86,11.47,115.93,17.11,147.67,11.88,27.63-4.55,40.25-11.13,65.32-6.89,35.66,6.03,46.17,25.45,73.95,23.13,26.28-2.2,27.4-21.58,54.62-30.45,41.17-13.42,61.01,22.47,109.8,23.33,46.79.82,43.93-31.91,121.99-59.78,66.4-23.7,85.84-6.22,135.49-37.2,26.27-16.39,32.55-28.6,59.82-38.95,34.31-13.02,67.45-10.04,90.81-5.14.07,115.26.13,230.53.2,345.79H0v-375.3Z"/>
      <path class="cls-39" d="m1176.52,791.02c14.18-45.01,5.59-69.61-2.29-82.51-7.12-11.65-20.56-20.78-47.43-39.02-40.06-27.21-54.35-29.98-62.11-48.25-7.74-18.22-4.6-41.56,3.97-44.83,6.77-2.58,16.24,7.59,31.66,24.77,16.19,18.03,38.01,42.77,63.79,73.28,1.17-46.77-12.29-73.66-24.54-89.48-21.22-27.4-40.34-23.56-69.27-58.48-5.16-6.23-43.14-52.07-28.57-80.87,4.03-7.96,12.71-15.87,19.2-14.36,7.57,1.76,7.8,15.3,13.95,31.68,7.97,21.24,20.92,34.04,38.29,51.21,25.18,24.9,36.19,23.39,48.55,42.81,10.06,15.82,12.52,32.18,13.15,42.8.07.85.53,5.24,3.91,7.28,2.15,1.3,4.99,1.41,6.25.65,5.4-3.25-.17-20.8-4.93-40.13,0,0-3.33-13.5-11.6-65.33-6.37-39.95-14.79-92.68,7.22-105.93,10.16-6.11,26.29-3.52,34.81,4.89,13.68,13.5-.26,34.12-1.45,82.38-.15,6.26.83,13.05,1.51,29.84.66,16.34.58,20.96,1.42,30.32,1.56,17.43,3.32,17.65,4.15,28.75,2.26,30.29-9.89,46.55-1.72,52.4,4.45,3.19,11.6,2.25,16.26-.72,10.6-6.75,9.27-24.61,8.96-44.67-.78-50.02-1.17-75.03,11.76-92.04,15.6-20.51,46.85-26.18,51.85-19.53,4.04,5.38-11.16,16.03-21.39,43.01-11.06,29.17.17,33.96-9.74,68.37-9.36,32.53-28.24,61.52-28.24,61.52-9.23,14.17-17.04,22.65-14.58,25.75,2.97,3.74,20.43-.92,31.64-12.7,13.48-14.17,6.94-27.12,19.27-54.32,1.72-3.79,16.64-36.12,28.59-34.03,8.82,1.54,15.73,21.78,12.45,39.13-3.36,17.76-15.92,24.65-41.56,48.6-27.43,25.62-43.18,40.32-51.91,59.5-6.81,14.97-12.35,39.28-1.29,77.39l-49.98.86Z"/>
      <g>
        <ellipse class="cls-23" cx="1052.51" cy="484.88" rx="5.8" ry="7.97" transform="translate(-106.29 493.67) rotate(-25.17)"/>
        <ellipse class="cls-23" cx="1086.55" cy="498.08" rx="5.8" ry="7.97" transform="translate(-108.67 509.4) rotate(-25.17)"/>
        <circle class="cls-23" cx="1109.25" cy="546.39" r="9.74"/>
        <circle class="cls-23" cx="1151.95" cy="565.44" r="9.74"/>
        <ellipse class="cls-23" cx="1054.14" cy="445.22" rx="2.9" ry="3.98" transform="translate(-89.26 490.6) rotate(-25.17)"/>
        <path class="cls-23" d="m1184.4,621.93c2.29,4.87.2,10.67-4.67,12.96-4.87,2.29-10.67.2-12.96-4.67-2.29-4.87-.2-10.67,4.67-12.96,4.87-2.29,10.67-.2,12.96,4.67Z"/>
        <circle class="cls-23" cx="1214.24" cy="663.47" r="7.1"/>
        <ellipse class="cls-23" cx="1189.68" cy="719.14" rx="6.42" ry="7.87" transform="translate(-192.89 574.21) rotate(-25.17)"/>
        <ellipse class="cls-23" cx="1285.79" cy="630.01" rx="8.94" ry="6.27" transform="translate(-145.86 606.82) rotate(-25.18)"/>
        <ellipse class="cls-23" cx="1307.97" cy="583.25" rx="4.47" ry="6.27" transform="translate(-123.87 611.66) rotate(-25.17)"/>
        <ellipse class="cls-23" cx="1223.15" cy="699.11" rx="4.47" ry="6.27" transform="translate(-181.2 586.59) rotate(-25.17)"/>
        <ellipse class="cls-23" cx="1175.87" cy="673.67" rx="4.47" ry="6.27" transform="translate(-174.86 564.06) rotate(-25.17)"/>
        <ellipse class="cls-23" cx="1128.96" cy="663.47" rx="4.47" ry="6.27" transform="translate(-174.98 543.14) rotate(-25.17)"/>
        <ellipse class="cls-23" cx="1211.75" cy="751" rx="4.47" ry="6.27" transform="translate(-204.35 586.67) rotate(-25.17)"/>
        <circle class="cls-23" cx="1106.5" cy="618.61" r="6"/>
        <ellipse class="cls-23" cx="1065.37" cy="590.07" rx="8.41" ry="6" transform="translate(287.96 1527.53) rotate(-79.31)"/>
        <ellipse class="cls-23" cx="1080.22" cy="632.19" rx="6" ry="8.41" transform="translate(-166.31 519.44) rotate(-25.17)"/>
        <path class="cls-23" d="m1206.91,570.03c1.79,3.81.53,8.18-2.82,9.75-3.35,1.57-7.52-.24-9.31-4.05-1.79-3.81-.53-8.18,2.82-9.75,3.35-1.57,7.52.24,9.31,4.05Z"/>
        <path class="cls-23" d="m1184.51,526.61c1.79,3.81.53,8.18-2.82,9.75-3.35,1.57-7.52-.24-9.31-4.05-1.79-3.81-.53-8.18,2.82-9.75,3.35-1.57,7.52.24,9.31,4.05Z"/>
        <path class="cls-23" d="m1207.97,486.4c2.38,5.06.66,10.87-3.84,12.98-4.5,2.11-10.07-.27-12.45-5.33-2.38-5.06-.66-10.87,3.84-12.98,4.5-2.11,10.07.27,12.45,5.33Z"/>
        <path class="cls-23" d="m1177.07,431.02c1.67,3.55.46,7.64-2.7,9.12-3.16,1.49-7.08-.19-8.75-3.74-1.67-3.55-.46-7.64,2.7-9.12,3.16-1.49,7.08.19,8.75,3.74Z"/>
        <path class="cls-23" d="m1213.45,403.32c1.67,3.55.46,7.64-2.7,9.12-3.16,1.49-7.08-.19-8.75-3.74-1.67-3.55-.46-7.64,2.7-9.12,3.16-1.49,7.08.19,8.75,3.74Z"/>
        <circle class="cls-23" cx="1234.96" cy="626.08" r="7.1"/>
        <ellipse class="cls-23" cx="1264.65" cy="585.03" rx="7.1" ry="6.18" transform="translate(358.11 1643.22) rotate(-74.24)"/>
        <ellipse class="cls-23" cx="1244.75" cy="553.76" rx="7.1" ry="6.18" transform="translate(373.71 1601.29) rotate(-74.24)"/>
        <circle class="cls-23" cx="1266.27" cy="518.18" r="7.1"/>
        <circle class="cls-23" cx="1264.27" cy="481.3" r="4.2"/>
        <circle class="cls-23" cx="1297.99" cy="472.27" r="2.75"/>
      </g>
      <path class="cls-44" d="m0,703.93c49-4.7,77.27,8.14,94.31,21.68,19.78,15.73,23.67,31.81,48.99,44.28,13.56,6.68,29.72,8.12,61.49,10.72,53.58,4.39,61.06-1.24,78.41,8.37,23.25,12.87,21.85,29.94,40.46,35.41,23.59,6.93,44.42-15.04,65.48-27.23,72.5-41.98,133.14,40.4,243.67,18.36,71.93-14.35,68.32-53.64,137.3-56.75,61.17-2.76,83.17,27.29,139.87,14.63,51.07-11.4,48.38-39.15,92.85-51.97,81.42-23.46,118.06,61.58,227,60.87,84.37-.55,91.29-51.76,164.94-39.09,65.02,11.18,95.18,57.2,152.78,45.77,26.21-5.2,45.69-19.84,58.19-31.62v142.28H0v-195.71Z"/>
      <path class="cls-13" d="m1311.5,802.85c9.68-4.86,19.35-9.71,29.03-14.57,2.03-2.76,8.62-12.48,6.91-25.37-1.81-13.68-11.76-21.81-14.52-24-1.61-1.27-2.81-1.95-7.02-4.3-25.72-14.36-25.58-12.87-28.39-15.43-11.94-10.84.97-23.73-11.43-42.11-7.54-11.17-19.61-17.23-22.43-18.58-12.7-6.08-17.7-2.77-24.87-8.7-9.49-7.86-4.31-16.61-12.94-28.51-7.94-10.95-24.4-20.21-34.3-15.88-10.74,4.69-12.85,24.98-8.25,39.02,4.16,12.69,11.95,14.6,14.31,28.18,1.65,9.5-1.81,10.59-2.08,23.59-.17,7.74-.58,27.19,11.52,40.58,1.99,2.2,3.87,3.75,5.71,4.92,9.96,6.35,16.61,9.27,21.76,11.96,10.84,5.67,13.92,15.17,19.04,22.54,7.28,10.48,22.54,22.24,57.97,26.67Z"/>
      <path class="cls-13" d="m1353.4,735.97c10.65-2.2,21.29-4.4,31.94-6.6,2.69-2.17,11.63-9.94,13.36-22.99,1.84-13.86-5.66-24.43-7.75-27.3-1.94-2.65-2.39-2.21-5.67-6.06,0,0-7.01-8.24-11.54-18.17-1.42-3.11-2.23-5.69-2.7-8.03-2.17-10.76-2.53-18.36-2.78-23.48-.25-5.12-1.32-26.69-15.32-37.28-5.2-3.93-8.76-3.76-22.25-12.59-5.87-3.84-8.07-5.75-9.39-8.76-2.15-4.88.04-7.96-.55-16.52-.22-3.24-.34-8.23-2.57-12.37-4.5-8.36-16.05-16.47-27.12-14.72-14.22,2.25-19.23,18.61-20.16,26.13-.41,3.31-1.19,9.68,2.09,16.22,3.01,6.01,7.7,8.67,8.44,15.51.27,2.53-.13,4.34-.71,6.93,0,0-2.76,12.5-5.21,24.43-2.12,10.35-.97,19.83.26,24.97,4.29,17.89,17.74,17.72,27.34,35.18,11.71,21.31-.77,33.8,10.04,49.18,4.67,6.65,14.87,14.57,40.24,16.32Z"/>
      <path class="cls-5" d="m1355.84,712.32c-1.04-1.75-2.07-3.5-3.11-5.25-3.1.66-6.97,1.15-11.4.95-10.33-.46-18.12-4.41-22.28-6.98,10.85.91,21.71,1.82,32.56,2.74-9.05-19.54-18.11-39.08-27.16-58.63-5.36-.12-12.53-.81-20.65-3.15-8-2.31-14.37-5.48-18.93-8.19,12.75,2.61,25.49,5.23,38.24,7.84-9.25-24.65-18.51-49.29-27.76-73.94-3.05-1.17-7.66-3.4-12.06-7.64-2.54-2.44-4.34-4.91-5.61-6.97,5.61,3.61,11.22,7.23,16.83,10.84-1.85-9.18-3.69-18.36-5.54-27.55,3.52,8.66,7.05,17.32,10.57,25.98,3.47-5.8,6.94-11.6,10.42-17.4.22,2.07.42,6.7-1.9,11.86-2.38,5.32-6.13,8.29-7.84,9.49,9.15,24.62,18.29,49.24,27.44,73.86,5.46-12.39,10.92-24.78,16.38-37.16.09,5.17-.42,13.63-4.14,23.17-3.17,8.11-7.47,13.97-10.63,17.63,9.42,20.05,18.85,40.1,28.27,60.15,5.97-8.07,11.93-16.13,17.9-24.2-.19,2.99-.94,8.32-4.14,14.01-4.11,7.31-9.94,11.08-12.64,12.59.59,1.39,1.19,2.77,1.78,4.16-1.53.6-3.06,1.19-4.6,1.79Z"/>
      <path class="cls-5" d="m1290.63,785.43c-1.29-1.57-2.58-3.14-3.87-4.71-2.96,1.12-6.71,2.2-11.13,2.67-10.28,1.11-18.58-1.61-23.08-3.51,10.87-.75,21.74-1.49,32.6-2.24-11.91-17.94-23.83-35.88-35.74-53.82-5.31.69-12.5,1.1-20.89.02-8.26-1.07-15.03-3.23-19.96-5.22,13,.65,25.99,1.3,38.99,1.95-12.89-22.96-25.77-45.92-38.66-68.87-3.19-.69-8.09-2.2-13.08-5.72-2.88-2.03-5.04-4.2-6.6-6.04,6.09,2.72,12.18,5.44,18.28,8.17-3.22-8.8-6.43-17.59-9.65-26.39,4.8,8.02,9.59,16.05,14.39,24.07,2.55-6.26,5.1-12.52,7.65-18.78.53,2.01,1.43,6.56-.07,12.01-1.55,5.62-4.8,9.13-6.31,10.57,12.78,22.95,25.55,45.89,38.33,68.84,3.52-13.07,7.03-26.15,10.55-39.22.87,5.1,1.66,13.53-.58,23.53-1.9,8.5-5.27,14.94-7.84,19.04,12.36,18.39,24.71,36.78,37.07,55.17,4.67-8.88,9.34-17.75,14.02-26.63.26,2.99.33,8.37-1.97,14.48-2.95,7.85-8.15,12.46-10.59,14.36.8,1.28,1.6,2.56,2.39,3.84-1.42.82-2.85,1.64-4.27,2.46Z"/>
      <path class="cls-37" d="m1605.75,831.37c-11.94-9.17-43.34-30.76-88.77-34.23-13.58-1.04-58.66-4.49-79.2,12.66-2.51,2.09-8.29,7.53-15.91,7.24-7.65-.29-10.57-6.45-22.14-10.96-4.47-1.75-9.93-3.27-17.48-4.4-14.3-2.14-31.65-.68-66.36,2.24-13.41,1.13-29.46,2.82-50.94.26-16.29-1.93-25.87-5.14-25.87-7.93,0-3.11,11.86-3.58,15.17-10.38,2.06-4.23-1.07-7.03-.97-10.2.38-11.22,41.16-17.74,76.06-27.02,31.36-8.34,61.36-16.27,88.2-35.15,17.76-12.49,20.29-20.31,28.99-27.14,4.81-3.77,9.14-5.55,12.23-6.92,44.79-19.76,51.14-26.47,71.65-31.35,14.09-3.35,40.14-7.09,75.41,2.37-.02,60.3-.05,120.61-.07,180.91Z"/>
      <path class="cls-34" d="m1477.41,706.87c-14.32,8.44-12.7,10.22-20.8,14.32-16.98,8.59-24.87,1.2-54.41,6.53-1.16.21-12.4,3.46-34.87,9.97-29.99,8.69-38.56,11.28-38.26,13.48.26,1.89,7.04,3.26,12.62,2.72,6.79-.66,8.36-3.81,15.42-4.39,4.79-.4,11.23.47,11.78,2.65.71,2.82-8.37,7.94-16.35,10.62-18.71,6.28-28.33-1.92-59.98-.01-9.33.56-15.2,1.68-21.02,3.78-11.5,4.15-17.18,10.14-18.25,9.14-1.49-1.38,7.92-14.32,21.07-25.66,5.08-4.38,14.87-10.82,29.42-19.11,13.19-7.52,16.31-5.74,39.07-14.12,35.77-13.16,33.23-19.46,52.72-22.6,21.56-3.47,38.16,3.27,42.78-4.51,2.65-4.47-1.46-8.88,2.21-17.4.91-2.11,3.41-7.93,9.26-11.16,8.04-4.44,14.32-.51,34.54-.49,18.63.02,21.54-7.52,48.24-12.8,12.4-2.45,22.73-3.14,29.21-3.36,1.36,6.37,1.39,12.97-2.65,17.12-5.52,5.68-14.26,2.26-19.2,8.14-4.96,5.91,1.33,12.38-3.08,17.56-5.02,5.89-13.68,1.76-30.98,6.21-10.31,2.65-17.53,6.91-28.49,13.37Z"/>
      <path class="cls-6" d="m1605.54,827.95c-33.55-10.2-61.71-13.44-81.34-14.45-31.61-1.63-61.37,1.38-61.37,1.38-23.08,2.33-29.66,5.11-49.98,4.87-6.88-.08-6.09-.62-42.54-3.54-16.3-1.31-21.31-1.62-28.67-1-16.42,1.39-17.38,5.16-31.54,7-17.33,2.25-17.86-3.14-50.58-5.45-18.17-1.28-27.63-.3-30.48-5.58-2.1-3.89.16-9.75,3.87-13.16,7.44-6.84,16.35,1.06,32.88-5.21,9.36-3.55,12.66-7.79,22.59-8.8,2.56-.26,6.1-.36,11.75-1.33,6.18-1.06,10.52-2.41,11.85-2.8,11.75-3.41,24.89-.25,39.69-.21,19.69.06,18.88-5.46,38.32-6.17,20.95-.77,24.7,5.54,42.88,6.59,30.43,1.76,55.2-13.73,62.01-18.66,9.47-6.86,20.36-20.9,41.74-48.71,17.38-22.6,26.45-35.84,33.83-34.03,6.26,1.53,4.86,12.28,16.25,23.62,6.64,6.61,14.23,10.04,19.09,11.83-.09,37.94-.19,75.88-.28,113.82Z"/>
      <g>
        <path class="cls-46" d="m405.69,390.04c-1.63,1.84-2.31,3.53-2.05,5.06,1.24,7.33,24.14,11.06,68.7,11.2,2.43-2.55,6.21-6.94,9.47-13.13,6.86-13.03,5.76-23.31,8.84-43.13,2.23-14.37,3.16-11.17,5.68-26.25,4.22-25.19,3.66-46.12,3.16-61.88-.07-2.07-.34-10.39-1.26-21.88-1.79-22.24-4.74-40.51-7.22-53.48-6.05-2.18-15.12-4.75-26.34-5.33,0,0-18.98.36-37.47,5.95-24.29,7.35-33.31,92.55-21.49,202.85Z"/>
        <path class="cls-15" d="m459.34,332.92c-3.65,4.67-7.3,9.33-10.95,14,14.09,1.04,28.18,2.09,42.27,3.13.91-1.1,2.52-3.35,3.25-6.65.77-3.47.17-6.32-.22-7.7-11.45-.93-22.9-1.85-34.34-2.78Z"/>
        <path class="cls-15" d="m474.82,249.76c.1,4.55.19,9.11.29,13.66,8.19-.1,16.39-.2,24.58-.29.13-1.74.19-3.66.12-5.74-.1-2.87-.43-5.45-.84-7.69-8.05.02-16.1.04-24.15.06Z"/>
        <path class="cls-18" d="m249.56,478.75c2.37,1.84,6.76,5.79,9.28,12.26,2.97,7.63,3.44,19.02-2.81,25.63-5.64,5.96-11.62,2.63-16.88,8.91-1.06,1.26-2.29,3.16-4.5,18.66-2.02,14.22-1.84,18.66-5.63,22.56-3.06,3.16-7.08,4.28-9.85,4.74.15-2.89.46-7.03,1.13-11.98.43-3.16,1.3-8.88,4.5-21.73,2.41-9.68,3.61-14.52,5.07-18.77,3.05-8.87,6.27-15.2,10.68-23.85,3.47-6.81,6.63-12.4,9-16.44Z"/>
        <path class="cls-18" d="m139.64,354.66c2.32,1.46,8.16,5.57,9.28,12.26,1.52,9.07-6.65,16.9-9.86,19.97-9.16,8.77-15.77,6.72-19.03,13.76-2.15,4.63.55,5.87-.3,18.85-.34,5.18-.7,10.14-2.72,15.85-2.49,7.04-6.37,12.01-9.06,14.96-1.31-3.09-3.06-7.48-4.83-12.86-1.81-5.5-3.44-11.43-4.23-15.26-1.19-5.83-4.69-22.9,4.07-39.62,5.98-11.41,14.99-17.52,18.58-19.91,6.99-4.63,13.64-6.86,18.1-8Z"/>
        <path class="cls-2" d="m427.13,174.26c14.31-.2,28.64.05,42.93.77"/>
        <path class="cls-19" d="m431.71,191.11c-.72-2.09.33-1.8-.01-11.58-.13-3.7,0-7.29.28-14.46.09-2.25.17-3.89,1.38-5.19,1.25-1.34,3.91-1.76,4.72-1.93,1.47-.29,2.4-.25,2.44-.53.1-.64-4.64-.88-5.51-3.27-.57-1.55.56-3.83,2.2-4.64,1.87-.92,4.2.15,7.68,2.35,8.46,5.36,12.98,10.36,12.98,10.36,3.96,4.39,11.07,12.43,15.05,25.28,1.81,5.83,2.67,8.72,1.5,10.86-4.8,8.81-38.52,4.95-42.71-7.26Z"/>
        <path class="cls-45" d="m567.98,377.66c-1.54.98-3.61,2.6-5.37,5.11-.69.99-1.22,1.94-1.63,2.81-.11.29-.26.73-.43,1.27-.21.67-.47,1.57-.96,3.74-.35,1.56-.52,2.33-.58,2.83-.17,1.34-.06,1.79-.11,3.18-.04,1.01-.22,2.14-.57,4.36-.39,2.44-.73,4.28-.79,4.6,0,0-.46,2.46-1.49,7.42h0c.17,2.19.67,2.81,1.12,2.94,1.5.44,4.91-3.78,6.18-8.45.73-2.69.3-3.89,1.59-6.72.6-1.3,1.94-4.25,3.54-4.11,1.62.14,2.48,3.38,2.54,3.58.4,6.05.63,10.91.76,14.25,0,0,.16,4.11.8,11.45,0,0,.26,2.93,1.17,6.88,1.27,5.5,2.22,6,2.73,6.08.44.07,1.23-.07,2.4-1.58.24-1.93.54-4.87.59-8.46.03-2.32-.06-3.23-.31-8.65-.45-9.92-.43-13.11,1.47-14.22.69-.4,1.43-.41,1.84-.38.42.99.92,2.31,1.36,3.89.25.91.57,2.2.86,4.14.41,2.7.44,4.44.55,6.21.09,1.36.49,4.04,1.3,9.4.71,4.73,1.06,6.65,2.72,8.39.54.56,1.61,1.68,2.56,1.42,2-.55,1.88-6.83,1.86-8.31-.02-1.07-.08-1.09-.68-6.52-.61-5.55-.49-4.98-.67-6.12-.42-2.75-.86-4.34-1.21-7.69-.31-3.04-.17-3.79.22-3.95.68-.27,1.96,1.39,2.33,1.87,1.33,1.72,1.82,3.4,2.01,4.04.77,2.6,1.76,5.14,2.56,7.74.53,1.75,1.23,4.02,2.32,6.91.74,1.96,1.36,3.45,2.77,4.87.54.55,2.33,2.35,3.32,1.89,1.37-.64.48-5.22.06-7.37-.41-2.09-.88-3.66-2.21-7.49-1.58-4.54-2.94-8.18-3.73-13.1-.37-2.29-.34-3.19,0-3.32.34-.13,1.02.47,4.47,5.71,1.53,2.33,3.2,4.57,4.64,6.95,1.58,2.61,2.36,4.19,3.97,4.43.74.11,1.82-.04,2.34-.73.77-1.03-.1-2.71-1.8-6.35-2.89-6.2-1.35-3.42-2.75-6.06-3.63-6.82-7.24-12.75-8.15-14.24-2.57-4.2-4.83-7.88-6.71-10.92-9.59-1.21-19.18-2.42-28.76-3.63Z"/>
        <path class="cls-45" d="m204.09,115.52c2.59-3.91,3.11-7.13,3.23-8.84.12-1.7-.04-3.72-.12-4.68-.1-1.31-.23-2.94-.69-5.02-.37-1.71-.82-3.05-1.65-5.58-.06-.18-.15-.48-.3-.86-.27-.68-.53-1.13-.92-2.08-.38-.93-.69-2.04-1.29-4.2-.66-2.38-1.12-4.2-1.2-4.52,0,0-.61-2.43-1.73-7.36-1.06-1.93-1.78-2.29-2.24-2.22-1.55.21-2.9,5.45-2.11,10.22.46,2.75,1.35,3.67,1.35,6.77,0,1.43,0,4.66-1.52,5.19-1.54.53-3.67-2.06-3.8-2.23-2.89-5.35-5.11-9.68-6.62-12.67,0,0-1.86-3.68-5.5-10.1,0,0-1.45-2.57-3.93-5.79-3.45-4.49-4.52-4.56-5.02-4.43-.43.12-1.09.56-1.52,2.42.58,1.86,1.53,4.65,2.98,7.95.94,2.13,1.4,2.92,3.88,7.75,4.55,8.85,5.85,11.77,4.58,13.56-.46.65-1.13.96-1.52,1.1-.8-.73-1.8-1.73-2.86-2.99-.61-.73-1.43-1.77-2.51-3.42-1.5-2.3-2.25-3.86-3.09-5.43-.65-1.2-2.13-3.48-5.1-8.04-2.62-4.02-3.73-5.63-5.97-6.53-.73-.29-2.17-.87-2.92-.25-1.59,1.31,1.13,6.99,1.77,8.33.46.96.53.96,3.33,5.66,2.87,4.81,2.52,4.34,3.16,5.3,1.53,2.33,2.59,3.6,4.3,6.52,1.55,2.64,1.73,3.39,1.45,3.68-.5.52-2.37-.47-2.91-.75-1.93-1.02-3.08-2.35-3.52-2.86-1.79-2.06-3.75-3.96-5.55-6.01-1.21-1.37-2.8-3.16-4.99-5.35-1.49-1.49-2.68-2.59-4.55-3.31-.73-.28-3.1-1.19-3.81-.36-.98,1.14,1.74,4.95,3.01,6.74,1.24,1.74,2.33,2.97,5.14,5.92,3.33,3.49,6.08,6.25,8.85,10.41,1.29,1.93,1.64,2.76,1.38,3.03-.25.26-1.12-.01-6.45-3.37-2.37-1.49-4.81-2.86-7.12-4.44-2.53-1.73-3.9-2.85-5.46-2.42-.72.2-1.64.78-1.82,1.62-.27,1.25,1.22,2.43,4.28,5.05,5.22,4.47,2.65,2.57,5.03,4.4,5.48,4.22,10.66,7.81,12.74,9.23.35.24.53.36.61.42,4.88,3.28,9.21,4.94,12.45,5.85,8.92-.33,17.85-.65,26.77-.98Z"/>
        <path class="cls-12" d="m403.64,395.1c-13.14,14.6-21.43,25.91-25.04,30.66-21.11,27.76-32.64,28.76-66.43,65.78-16.18,17.72-24.27,26.58-30.74,38.29-15.83,28.64-16.98,55.47-17.85,75.6-1.74,40.49,9.05,71.69,14.87,88.36,3.63,10.38,7.29,18.81,10.02,24.67.04,2.18-.18,7.35-3.66,12.17-6.83,9.45-19.59,8.39-20.24,8.32-13.51-18.07-38.25-56.36-45.61-110.94-1.66-12.3-6.62-56.45,10.91-108.98,12.32-36.91,30.44-62.06,38.67-72.65,19.57-25.19,40.49-41.83,55.52-52.03-2.78-2.17-7.1-5.03-12.89-6.87-10.15-3.23-19.03-1.47-21.81-.98-23.35,4.09-40.77-6.9-89.24-4.91-32.04,1.32-40.18,6.77-44.62,10.8-12.15,11.03-13.68,26.98-13.88,29.45-.83,10.18,2.03,18.44,8.92,32.4,6.64,13.45,16.73,31.6,31.73,52.03.61,1.15,2.08,4.26,1.59,8.34-.59,4.94-3.63,7.95-4.5,8.76-2.15,1.12-4.89,2.3-8.18,3.18-5.26,1.41-9.87,1.5-13.11,1.29-21.61-25.2-35.5-48.21-44.21-64.78-12.18-23.19-15.25-36.51-15.86-50.07-.81-17.77,3.77-27.94,4.96-30.43,0,0,6.56-13.81,22.8-24.54,22.32-14.75,96.75-23.77,196.32-19.64,5.2-3.97,15.63-13.08,21.81-28.47,8.81-21.95,2.9-41.55.99-47.13-17.17-.19-31.05-2.64-40.65-4.91-30.95-7.3-52.18-20.85-68.41-31.42-14.46-9.41-21.69-14.12-29.75-23.56-13.25-15.55-18.23-31.64-21.81-43.2-3.11-10.05-6.56-24.81-6.94-43.2,8.92-.33,17.85-.65,26.77-.98.54,6.96,1.94,17.02,5.95,28.47,2.99,8.55,14.36,39.61,45.61,57.92,15.41,9.03,29.4,11.3,50.57,14.73,17.74,2.88,32.84,3.22,43.63,2.95,5.77-.72,13.71-2.68,17.85-8.84,3.99-5.93,1.72-11.69,2.97-16.69,1.94-7.72,13.01-16.46,53.54-20.62-.42,2.49-1.4,10,2.97,13.74,3,2.56,7.14,2.19,9.92,1.96,9.56-.77,19.25.25,28.75-.98,11.59-1.51,25.24,5.87,52.55,20.62,17.69,9.55,29.86,18.23,38.67,24.54,15.14,10.87,22.72,16.3,30.74,25.53,1.72,1.98,14.1,16.44,20.82,35.34,14.37,40.39-4.6,79.84-8.92,88.36-10.58-1.64-21.15-3.27-31.73-4.91,3.97-6.63,12.1-22.35,10.91-43.2-.57-10.04-3.34-18.3-5.16-22.95-.9-2.3-4.22-10.44-11.69-20.25-9.28-12.18-18.83-18.6-32.72-28.47-1.05-.75-16.87-11.91-30.74-17.67-8.27-3.44-19.92-6.65-20.1-6.69,0,0,0,0,0,0-.33-.09-.7-.18-.72-.18-.4,0,.35,31.03-1.98,49.09-3.44,26.62-16.26,45.82-19.83,51.05-4.83,7.07-15.45,18.13-36.69,40.25-7.09,7.38-9.96,10.18-15.61,16.46Z"/>
        <path class="cls-19" d="m177.32,116.51c-.23.6-.54,1.63-.5,2.93.04,1.4.45,2.48.74,3.08,2.88,0,5.24-.07,6.87-.15,3.69-.18,7.15-.5,11.82-.3.25.01.48.02.82.04,3.37.2,6.04.7,7.89,1.14.02-1.12-.03-2.38-.17-3.75-.16-1.48-.41-2.81-.69-3.97-1.46.04-2.92.09-4.38.13-4.27.02-8.68.12-13.22.32-3.12.14-6.18.32-9.17.53Z"/>
        <path class="cls-19" d="m570.23,373.63c-.28.04-1.85.26-2.9,1.67-1.22,1.63-.72,3.47-.66,3.69,1.56.99,3.82,2.26,6.71,3.32,4.76,1.75,8.68,2,12.6,2.22,3.14.18,7.4.19,12.44-.52.41-.17,1.64-.76,2.44-2.16.76-1.31.7-2.57.66-3.02-4.09-.05-7.52-.25-10.09-.44-5.99-.45-9.69-.75-14.31-2.12-2.95-.87-5.3-1.88-6.89-2.64Z"/>
        <path class="cls-50" d="m205.65,374.38c1.03-1.75,3.42-5.69,7.11-10.22.94-1.16,4.69-5.7,13.07-12.94,4.29-3.71,10.08-8.37,17.36-13.32,6.86-.15,13.73-.31,20.59-.46-2.58,1.31-6.31,3.41-10.44,6.52-4.67,3.51-7.55,6.6-12.84,12.26-5.13,5.49-7.7,8.24-10.55,12.49-3.36,5.01-5.47,9.6-6.77,12.88-7.07-.06-14.14-.11-21.2-.17.89-1.93,2.09-4.35,3.67-7.04Z"/>
        <path class="cls-50" d="m356.11,435.75c-2.7-.77-8.87-2.43-16.83-3.47-7.18-.94-13.93-1.1-25.13-.62-9.23.39-21.44,1.22-35.95,3.06-2.6,2.68-5.34,5.74-8.09,9.2-2.59,3.26-4.83,6.42-6.77,9.39,4.27-1.16,10.35-2.55,17.77-3.27,8.32-.81,14.51-.43,24.24.17,9.99.61,15.19.93,22.31,2.52,7.86,1.75,14.1,4.17,18.31,6.04,3.76-3.07,7.64-6.41,11.58-10.04,3.3-3.05,6.4-6.06,9.28-9.01-.58-.32-1.45-.78-2.53-1.27-3.48-1.59-6.36-2.15-8.19-2.68Z"/>
        <path class="cls-51" d="m577.52,352.98c-.79,2.4-1.6,4.82-2.45,7.26-1.58,4.58-3.2,9.05-4.85,13.4,1.7-.48,4.12-1.21,6.97-2.23,2.32-.83,10.56-3.88,15.6-7.09,8.47-5.38,12.01-13.75,15.46-21.64,2.01-4.59,4.57-11.81,5.57-21.21-.17-4.91-.78-10.76-2.27-17.24-2.05-8.9-5.13-16.17-7.93-21.59.46,5.07.61,11.56-.31,19.02-1.43,11.45-4.73,19.71-6.6,24.29-2.41,5.92-4.61,11.19-9.28,17.15-3.56,4.55-7.21,7.78-9.92,9.89Z"/>
        <path class="cls-51" d="m180.71,146.01c-.8-2.65-1.55-5.72-2.09-9.15-.61-3.89-.83-7.43-.85-10.48,2.23.83,5.41,2.12,9.07,4.04,3.19,1.68,11.84,6.51,20.59,15.66,2.48,2.6,5.69,6.29,8.93,11.14,3.14,5.13,6.29,10.27,9.43,15.4,3.03,4.53,6.07,9.06,9.1,13.6-2.91-.91-7.19-2.55-11.75-5.57-3.79-2.52-5.85-4.72-12.24-11.14-7.02-7.05-10.53-10.56-11.75-11.63-3.88-3.43-9.82-7.89-18.45-11.87Z"/>
        <path class="cls-51" d="m446.69,188.84c.75,3.39,1.65,6.91,2.7,10.54.47,1.6.95,3.17,1.44,4.7,3.34.27,7.89.75,13.25,1.67,4.64.8,11.72,1.83,19.52,4.77,8.02,3.02,7.68,3.86,17.22,7.96,8.76,3.76,15.72,5.91,21.58,7.73,6.83,2.12,12.3,3.81,19.98,5.23,5.92,1.1,10.98,1.62,14.68,1.9-4.66-3.97-11.3-9.27-19.73-14.86-9.02-5.98-16.15-9.6-30.03-16.59-17.34-8.73-26.17-13.12-34.39-14.38-10.99-1.68-20.32-.13-26.23,1.33Z"/>
        <path class="cls-51" d="m306.22,216.65c3.3,1.66,6.6,3.33,9.89,4.99,5.18-.01,9.59.37,13.01.81,4.97.63,8.81,1.5,11.65,2.15,3.28.75,6.06,1.51,8.18,2.12.17-1.23.34-2.47.5-3.73.14-1.14.28-2.27.4-3.39-8.76-1.57-18.68-2.75-29.59-3.05-4.9-.14-9.59-.09-14.04.1Z"/>
        <path class="cls-42" d="m249.04,881.9c.81,5.63,2.41,6.38,3.13,6.95,4.96,3.91,14.56-.11,16.32-2.43.13-.17.65-.9,1.53-1.78.93-.92,1.79-1.54,2.32-1.89.57.95,2.36,3.64,5.8,4.8,4.33,1.45,8.15-.58,9.7-1.41,3.72-1.99,5.57-5.04,6.31-6.46.85.83,2.13,1.92,3.89,2.89,1.23.68,4.1,2.26,7.49,2.16,0,0,3.95-.12,7.92-3.44,6.98-5.85,6.22-22.75,5.21-34.98-1.95-23.38-2.92-35.07-8.56-46.33-1.18-2.37-7.8-15.2-21.68-24.58-7.11-4.8-9.69-4.35-10.84-3.96-5.67,1.95-4.56,12.04-10.27,27.69-3.61,9.89-4.8,7.91-9.7,19.49-6.19,14.63-7.86,26.22-9.41,37.01,0,0-1.46,10.16.86,26.27Z"/>
        <path class="cls-17" d="m264.58,738.95c1.34,3.21,3.02,7.9,4.08,13.75,1.52,8.39,1.29,16.53-.75,27.45-2.31,12.38-4.26,14.03-13.49,42.29-.16.49-3.82,11.78-7.49,27.08-2.67,11.11-3.48,16.56-2.25,23,1.4,7.36,4.86,12.89,7.49,16.32-1.21-4.13-2.63-10.44-2.62-18.18,0-6.73,1.09-11.85,2.25-16.69,4.38-18.38,9.95-33.66,13.49-43.04,2.34-6.19,5.6-14.57,9.74-24.49-.65,3.33-1.7,8.44-3.13,14.69-1.83,7.97-2.62,10.54-3.56,14.97-1.49,7.06-1.89,12-2.67,21.72-1.19,14.78-1.78,22.18-.59,32,.86,7.08,2.3,12.81,3.41,16.58,1.28-1.22,2.57-2.45,3.85-3.67-.87-2.53-1.92-6.11-2.66-10.49-.63-3.75-.82-6.83-.9-9.33-.21-6.4.13-13.72,1.81-28.45.84-7.36,1.51-13.14,2.83-21.02,1.58-9.44,2.88-14.63,3.73-17.79.94-3.46,1.84-6.34,2.54-8.44.54-2.67,1.08-5.34,1.62-8.01,1.68-.13,3.37-.27,5.05-.4.71,2.23,1.64,5.31,2.59,8.99.66,2.56,2.59,10.27,4.08,21.24.28,2.09,1.1,8.34,1.6,16.82,1.24,21.04-.05,46.02-.49,53.79,1.3.96,2.59,1.93,3.89,2.89.91-6.67,1.85-15.66,2.11-26.34.44-18.31-1.34-32.22-2.43-40.47-1.22-9.24-3.22-20.89-6.65-34.2,2.39,1.6,5.72,4.17,8.92,8.03.54.65,3.03,3.69,5.62,8.83,0,0,3.16,6.27,4.92,13.65,2.13,8.95,3.87,34.67,2.92,69.21,1.93-1.51,4.71-4.1,6.65-8.03,2.77-5.61,2.34-10.94,2.13-13.7-.87-11.03-1.07-22.11-2.28-33.11-2.07-18.72-1.47-18.78-3.13-29.32-1.21-7.7-2.27-14.22-4.82-22.63-2.65-8.71-5.77-15.73-8.27-20.71-.3-1.37-.65-3.51-.49-6.1.28-4.41,1.79-6.23,2.59-9.96.22-1.01,1.54-7.15-.81-11.72-3.81-7.39-15.61-7.55-16.54-7.55.36,3.18-.28,5.42-.81,6.74-2.41,5.97-8.95,8.62-15.41,11.24-3.16,1.28-5.87,2.05-7.68,2.5Z"/>
        <path class="cls-42" d="m62.75,624.69c-1.75,2.64-2.14,5.1-2.47,6.23-1.25,4.32-3.22,11.1.12,14.71,1.54,1.66,3.69,2.1,6.82,2.72,2.59.52,4.76.96,6.84-.07.81-.4,1.43-.93,2.78-1.28,1.28-.34,2.43-.29,3.21-.2.16.3.4.72.74,1.19,2.59,3.66,6.65,4.84,8.22,5.3,3.83,1.11,7.17.68,9,.28.45,1.4,1.04,2.95,1.83,4.6,1.08,2.25,2.27,4.13,3.37,5.65,0,0,3.05,2.5,8.24,2.61,9.14.19,19.87-12.98,27.28-22.82,14.16-18.8,21.24-28.21,24.54-40.35.69-2.55,4.31-16.5.17-32.63-2.12-8.26-4.36-9.61-5.49-10.07-5.55-2.26-11.47,6.04-26.2,14.03-9.31,5.05-8.88,2.79-20.3,8.26-14.42,6.91-23.41,14.51-31.79,21.58,0,0-7.89,6.66-16.91,20.26Z"/>
        <path class="cls-17" d="m158.07,527.85c-.91,3.35-2.47,8.09-5.24,13.36-3.97,7.57-9.16,13.88-17.5,21.31-9.45,8.42-12.02,8.55-36.74,25.37-.43.29-10.28,7.03-22.62,16.94-11,8.83-13.96,12.35-15.95,16.87-3.9,8.85-2.22,17.77-.77,22.79.5-4.1,1.75-10.14,5.25-16.53,3.52-6.43,7.75-10.37,12.22-14.28,18.29-16.01,34.9-26.66,37.56-28.35,5.52-3.51,13.26-8.25,22.8-13.52-2.57,2.24-6.55,5.67-11.53,9.76-6.36,5.22-8.57,6.77-12.04,9.72-5.53,4.7-8.89,8.37-15.49,15.6-17.03,18.65-19.22,22.79-20.18,25-2.82,6.55-3.57,12.52-3.79,16.4,2-.49,3.99-.99,5.99-1.48-.08-2.42.11-6.01,1.66-9.89,1.35-3.36,3.14-5.52,4.16-6.76,10.52-12.77,9.51-13.75,18.12-22.96,4.32-4.62,8.94-9.03,11.04-11.04,1.3-1.25,2.67-2.54,4.15-3.91,7.07-6.53,11.29-9.86,13.91-11.85,2.87-2.18,5.37-3.91,7.21-5.15,2.07-1.79,4.14-3.58,6.21-5.37,1.42.91,2.83,1.82,4.25,2.73-.81,2.2-1.97,5.2-3.48,8.69-1.05,2.42-4.27,9.7-9.85,19.29-1.7,2.93-4.61,7.77-9.09,14.3-10.88,15.84-23.88,31.21-30.34,38.67.61,1.53,1.22,3.07,1.83,4.6,3.8-3.89,8.75-9.23,14.18-15.88,11.64-14.26,18.8-26.38,22.99-33.54,4.72-8.06,10.31-18.51,15.8-31.12.91,2.71,1.96,6.76,2.12,11.75.03.85.13,4.75-.98,10.4,0,0,0,0,0,0,0,0-1.42,6.69-4.51,13.78-2.11,4.86-16.14,26.19-38.78,52.86,2.59.08,6.86-.14,11.32-2.31,3.48-1.69,5.68-3.9,7.49-5.86,6.39-6.95,9.26-12.45,18.58-27.62,9.89-16.09,10.4-15.77,15.58-25.13.87-1.57,4.65-8.45,10.12-20.84,1.68-3.81,3.84-8.88,6.23-14.93.31-2.72,1.08-6.96,3.35-11.61.62-1.27,1.65-3.19,8.11-11.68,5.8-7.62,6.5-8.08,7.84-10.75,1.29-2.56,3.87-7.69,3.32-12.54-.85-7.51-9.19-14.09-20.31-16.88.39,1.15,2.81,8.66-1.4,14.5-2.89,4.02-7.46,5.22-11.46,6.27-4.75,1.25-8.84,1.1-11.35.82Z"/>
        <path class="cls-19" d="m452.04,126.79c9.21-1.78,17.07-3.13,23.1-4.1,1.01-.16,11.71-1.88,26.37-3.45,12.56-1.35,17.1-1.43,22.66.22,4.44,1.31,9.68,2.94,12.42,7.98,2.54,4.66,2.27,10.98-.87,15.1-1.45,1.91-3.3,3.06-9.81,5.39-8.44,3.03-15.15,4.59-17.65,5.18-21.37,5-20.93,4.92-22.23,5.18-6.59,1.32-10.81,1.96-18.52,3.88-3.43.85-6.23,1.63-8.06,2.16-3.63-2.81-7.26-5.61-10.9-8.42,3.21-.6,8.16-1.59,14.16-3.02,8.19-1.95,8.89-2.48,16.56-4.32,4.73-1.13,4.52-.94,19.83-4.32,5.74-1.26-1.45.3,11.51-3.18,0,0,3.73-1,8.47-3.73,1.42-.82,2.61-1.62,3.08-3.05.67-2.05-.58-3.99-.68-4.15-1.34-2.01-3.95-2.64-7.78-2.94-6.32-.49-11.21.3-13.51.65-9.24,1.39-7.56.28-18.09,1.73-4.31.59-6.05.98-17.87,3.24-4.59.88-10.83,2.06-18.3,3.45,2.03-3.16,4.07-6.33,6.1-9.49Z"/>
        <path class="cls-45" d="m340.35,164.45c-1.85-2.95-4.67-7.31-8.32-12.47-7.48-10.59-8.37-10.27-10.54-14.92-3.04-6.49-4.15-13.16-5.34-20.29-.47-2.81-.61-4.35-.69-5.63-.17-2.9-.2-8.16,1.38-14.15.84-3.19,2.64-10,7.31-15.1,3.65-3.98,8.03-5.8,26.94-9.28,16.67-3.07,25.01-4.6,29.28-4.25,3.6.29,18.92,1.85,33.07,12.94,3.59,2.82,8.97,7.11,13.09,14.66,4.17,7.63,4.8,14.46,5.34,20.29,1.11,12-1.24,21.46-2.58,25.92-2.07,6.85-4.53,15.01-12.05,22.17-1.35,1.28-4.99,4.56-10.57,7.17-2.38,1.11-4.53,1.84-6.63,2.29-10.64,2.28-19.31-.37-33.54-.4-13.54-.03-20.05,2.65-23.93-1.84-1.88-2.18-2.23-5-2.22-7.1Z"/>
        <ellipse class="cls-48" cx="394.21" cy="116.3" rx="3.96" ry="7.62" transform="translate(-14.69 74.76) rotate(-10.64)"/>
        <ellipse class="cls-48" cx="336.37" cy="123.91" rx="3.96" ry="7.62" transform="translate(-21.83 110.06) rotate(-18.01)"/>
        <path class="cls-19" d="m341.23,165.62c-.18.12-1.41-1.34-2.42-2.61-2.62-2.5-6.16-6.12-9.97-10.78-5.89-7.2-13.16-16.09-17.2-28.95-3.59-11.43-3.03-20.94-2.58-27.46.49-7.17,1.47-19.48,9.03-33,2.68-4.79,10.29-17.98,26.23-26.61,10.28-5.56,19.24-6.64,29.45-7.88,9.72-1.17,22.73-2.74,38.48,1.86,7.78,2.27,23.3,6.8,34.8,21.37,10.14,12.84,11.72,26.62,12.5,33.4,1.47,12.82-.83,22.82-2.15,28.31-.85,3.54-3.59,14.03-10.75,25.97-4.49,7.49-8.71,14.53-17.2,20.65-7.2,5.19-14.34,7.45-18.92,8.51,6.54-8.83,10.48-17.05,12.9-23.2,2.85-7.24,5.17-13.15,5.37-21.5.31-12.85-4.64-22.22-6.02-24.69-5.89-10.54-14.15-15.84-17.41-17.88-14.97-9.36-30.36-8.45-38.27-7.88-3.79.28-33.1,2.75-43.43,20.22-2.44,4.12-3.65,8.73-3.65,8.73-2.1,7.92-.77,14.49.64,21.07,1.94,9.06,5.15,15.52,5.8,16.82,1,1.98,3.95,6.93,9.89,16.82,2.9,4.83,5.14,8.52,4.87,8.7Z"/>
        <path class="cls-40" d="m316,68.17c1.52-1.91,3.61-4.18,6.37-6.41,2.44-1.97,4.8-3.42,6.79-4.47-.21-1.34-.35-3.03-.22-4.97.1-1.58.36-2.97.65-4.1.75-1.12,2-2.68,3.93-4.1,1.45-1.07,2.84-1.74,3.93-2.16-.82.94-1.86,2.38-2.62,4.32-1.29,3.29-1.07,6.23-.85,7.71.87-.6,2.2-1.46,3.9-2.31,1.68-.84,3.51-1.49,8.94-3.02,4.25-1.2,6.38-1.8,9.16-2.16,3.45-.44,6.33-.36,8.29-.22.96-1.48,2.31-3.48,4.06-5.79,1.44-1.9,2.78-3.68,4.45-5.44,1.74-1.84,4.47-4.33,8.51-6.7,2.44.06,4.88.11,7.31.17-2.66,1-5.9,2.6-9.06,5.23-3.48,2.89-5.5,5.88-6.76,7.78-1.08,1.62-1.87,3.05-2.4,4.1,4.74-.03,8.87.17,12.21.43,3.91.31,6.87.71,9.6,1.08,3.41.46,7.81,1.15,12.95,2.15,1.08-1.25,2.64-2.87,4.72-4.53,1.2-.95,4.35-3.23,8.94-5.18,3.02-1.29,5.67-1.87,7.42-2.16,1.69.44,3.37.87,5.06,1.31-3.6.82-6.5,1.9-8.62,2.82-1.99.86-4.37,1.91-7.12,3.87-2.8,1.98-4.79,4.06-6.11,5.62,2.17.38,5.34,1.1,8.94,2.59,5.53,2.3,9.2,5.18,12.43,7.78,1.99,1.6,5.4,4.36,9.01,8.74,1.31,1.58,5.19,6.35,7.78,12.43,4.36,10.23,3.11,19.63,1.53,31.51-1.13,8.49-3.03,14.95-4.15,18.38-3.18,9.76-7.06,16.62-9.97,21.72-2.53,4.42-5.42,8.9-5.73,8.74-.35-.19,2.69-5.54,5.67-13.17,3.04-7.79,4.44-13.93,6.25-22.04,2.2-9.86,3.3-14.79,3.62-20.32.51-8.96,1.06-18.53-4.48-27.49-2.62-4.24-6.04-7.42-9.1-10.27-5.19-4.84-9.85-7.74-11.43-8.69-7.82-4.72-14.67-6.55-20.35-8.03-13.17-3.42-23.97-3.38-28.28-3.24-5.93.18-17.27.62-30.46,5.88-5.48,2.18-11.82,4.79-18.1,10.84-4.54,4.38-7.31,8.9-8.94,12.09.77-3.43,1.55-6.85,2.32-10.28Z"/>
        <path class="cls-33" d="m390.25,163.75c.65,1.67,1.33,3.87,1.7,6.5.43,3.12.27,5.79,0,7.76,1.14.14,2.83.32,4.87.42,2.03.1,6.14.22,15.87-.89,4.87-.56,7.31-.83,9.15-1.26,5.18-1.2,9.1-2.99,11.81-4.24,3.2-1.48,5.79-2.95,7.66-4.09-1.34-3.85-2.68-7.69-4.03-11.54-1.57.28-3.92.71-6.78,1.26-7.47,1.44-9.03,1.91-14.41,2.94-4.28.82-8.68,1.66-14.41,2.31-4.77.54-8.73.75-11.44.84Z"/>
        <path class="cls-33" d="m320.74,167.32c-2.65,1.32-3.59,4.14-3.81,4.83-1.16,3.51.2,6.57.64,7.55,1.4,3.16,3.83,4.82,4.87,5.46,6.92-.18,13.84-.35,20.76-.53-.9-2.1-1.82-4.71-2.47-7.78-.83-3.89-.98-7.32-.9-10.01-2.93-.22-5.4-.31-7.26-.36-.41,0-3.52-.13-7.59.17-3.32.25-3.91.51-4.24.67Z"/>
        <ellipse class="cls-8" cx="364.56" cy="172.09" rx="25.38" ry="24.23"/>
        <path class="cls-11" d="m339.81,177.22c-.17,0-1.06-4.04-.37-8.61,1.07-7.1,5.44-11.67,6.97-13.24.71-.72,3.28-3.27,7.46-5.37,9.29-4.66,18.34-3,21.48-2.24,2.28.55,6.11,1.51,10.15,4.48,5.34,3.93,7.63,8.85,8.06,9.8,3.52,7.83,3.12,18.78-2.92,25.35-3.7,4.03-9.12,5.99-11.33,6.79-2.79,1.01-5.13,1.43-6.32,1.64-5.73,1.01-10.07.5-11.02.38-2.54-.32-4.61-.87-6.05-1.33,2.05-.05,13.44-.37,21.51-3.41,3.71-1.4,5.66-2.97,6.9-4.25.49-.5,1.95-2.08,3.11-4.57,1.67-3.57,1.67-6.76,1.65-8.17-.08-7.38-4.28-12.56-5-13.43-5.25-6.28-12.39-7.37-14.99-7.76-5.47-.83-9.76.31-11.97.93-3.33.93-7.74,2.15-11.56,6.21-3.89,4.12-5.05,8.9-5.41,10.95-.57,3.24-.22,5.87-.35,5.87Z"/>
        <ellipse class="cls-47" cx="366.72" cy="173.34" rx="22.67" ry="21"/>
        <path class="cls-3" d="m351.51,146.42c2.05,3.84,7.24,4,11.06,4.11.63.02,14.47.29,16.26-6.53.74-2.82-.93-5.52-4.12-10.64-4.03-6.47-7.23-11.62-11.49-11.36-4.86.29-7.94,7.41-9.76,11.61-1.8,4.17-3.94,9.1-1.95,12.82Z"/>
        <path class="cls-7" d="m462.4,100.82c-1.88-2.23-7.15-2.02-17.71-1.59-3.25.13-5.93.35-7.78.53-.12-3.82-.98-9.82-5.37-13.82-1.16-1.06-4.02-3.3-22.52-4.04-2.61-.1-11.32-.41-23.12.43-14.53,1.04-16.62,2.6-17.58,3.44-2.71,2.36-4.56,5.99-9.23,7.08-1.91.45-3.64.32-4.29.27-3.88-.32-5.47-1.96-8.19-2.94-4.23-1.53-8.19-.37-13.89,1.29-2.7.79-5.28,2.08-10.44,4.67-9.46,4.75-11.4,6.82-12.29,7.88-.26.3-2.9,3.41-4.02,7.44-3.02,10.82,5.32,23.81,14.76,30.82,3.94,2.93,12.53,9.45,22,6.91.81-.22,9.76-2.75,12.49-9.65,1.17-2.94,1.29-6.9,4.68-11.6,1.14-1.58,1.64-1.84,2.06-1.95,3.14-.82,6.05,5.58,12.7,11.25,1.65,1.41,5.67,4.6,11,6.64,2.11.81,12.61,4.58,23.88.27,1.58-.61,9.84-3.77,15.29-11.69,3.33-4.84,4.14-9.26,8.59-10.89,2.08-.76,3.36-.3,7.24,0,3.43.26,8.45.37,14.76-.53,6.54-8.53,9.77-16.86,6.98-20.19Zm-113.54,31.17c-.36.52-1.77,2.45-4.38,3.99-.62.37-2.37,1.34-4.87,1.81-3.43.64-6.19-.09-7.74-.51-8.58-2.36-13.11-9.49-13.57-10.25-1.56-2.54-4.01-6.53-3.08-11.37.69-3.58,2.93-6.05,4.08-7.29,2.12-2.3,4.3-3.51,7-5.01,1.06-.59,3.56-1.96,7.04-3.22,3.54-1.27,5.35-1.91,7.58-1.65.77.09,3.23.41,5.42,2.25,1.35,1.14,1.99,2.37,2.58,3.42,1.29,2.34,1.69,4.53,1.83,5.91.14.89.32,2.21.48,3.83.47,4.63.79,8.07-.07,12.09-.43,2.01-.86,3.92-2.31,5.99Zm69.92-5.35c-.95,1.04-7.66,8.15-18.37,9.43-4.37.52-7.78-.13-8.97-.38-8.04-1.72-12.92-6.69-14.45-8.28-.44-.46-9.34-10.03-8.06-22.23.47-4.44,2.02-6.69,2.37-7.18,3.05-4.25,8.18-5.43,9.94-5.84.9-.21,2.67-.34,6.18-.59,3.57-.26,6.14-.44,9.3-.52,6.08-.15,5.47.31,12.92.33,2.82,0,10.87.04,13.66,2.52.18.16.33.32.46.47,1.71,1.98,1.89,4.33,1.97,5.51,1.17,17.87-6.96,26.76-6.96,26.76Z"/>
        <path class="cls-1" d="m312.76,122.53c-3.04-3.71-4.4-5.26-4.22-7.6.3-3.81,4.45-6.42,9.18-9.38,4.79-3.01,4.84-1.8,14.39-6.48,4.11-2.01,5.47-2.9,7.69-2.68,3.86.39,6.35,3.72,8.19,6.26,1.67,2.31,7.5,10.35,5.21,21-.79,3.65-2.32,10.75-9.43,14.52-4.89,2.59-11.15,2.94-16.13,1.12-3.48-1.27-3.15-2.44-14.89-16.76Z"/>
        <path class="cls-1" d="m372.77,94.34c-.8.8-3.45,3.58-4.63,8-2.46,9.21,3.41,18.07,6.74,23.09,1.55,2.33,4.45,6.63,9.69,10.29,2.92,2.04,7.28,5.08,13.06,5.26,8.25.25,14.19-5.49,17.27-8.46,8.89-8.58,10.65-19.57,11.16-23.09.87-5.96,1.67-11.46-1.26-15.32-2.77-3.65-6.74-3.01-21.06-3.2-20.14-.27-25.74-1.73-30.96,3.43Z"/>
        <g>
          <path class="cls-11" d="m362.46,179.67c.61-.45,1.54-1.12,2.94-1.53.6-.17,2.78-.74,5.26.15,1.31.47,2.14,1.14,2.55,1.49.36.3,2.4,1.99,1.98,2.9-.18.39-.8.57-1.28.52-.97-.12-1.11-1.16-2.17-1.99-1.15-.91-2.55-.91-3.87-.92-1.08,0-2.64-.01-4.02.92-2.04,1.38-2.14,3.76-3.47,3.76-.32,0-.68-.13-.86-.39-.46-.64.27-1.85.65-2.47.23-.39.9-1.41,2.29-2.43Z"/>
          <path class="cls-11" d="m363.24,174.96c1.13-.25,1.82-.34,1.82-.34,1.48-.2,2.02-.23,2.55-.23,1.12,0,1.43.14,1.6.38.14.2.2.52.07.75-.22.38-.87.26-2.17.29-1.46.03-2.23.05-3.18.29-.82.21-1.36.47-1.72.18-.22-.17-.32-.51-.23-.76.1-.27.43-.38,1.26-.56Z"/>
          <path class="cls-11" d="m359.53,169.71c-.54.62-2.1.27-3.09-.31-2.46-1.44-3.1-5.35-2.17-5.97.74-.49,2.56.97,3.4,1.84,1.3,1.34,2.57,3.63,1.86,4.44Z"/>
          <path class="cls-11" d="m365.77,166.87c-.79.23-1.91-.91-2.42-1.93-1.26-2.54.36-6.15,1.49-6.17.89-.01,1.61,2.2,1.83,3.38.35,1.83.15,4.43-.9,4.72Z"/>
          <path class="cls-11" d="m374.23,169.07c-.75-.34-.85-1.92-.56-3.03.71-2.74,4.32-4.44,5.19-3.72.68.56-.23,2.71-.84,3.75-.94,1.61-2.8,3.45-3.79,3Z"/>
          <path class="cls-11" d="m375.02,174.21c-.22-.79.94-1.89,1.97-2.38,2.57-1.23,6.21.41,6.22,1.53,0,.88-2.24,1.57-3.43,1.79-1.85.33-4.47.11-4.76-.93Z"/>
          <path class="cls-11" d="m349.77,176.16c-.22-.79.94-1.89,1.97-2.38,2.57-1.23,6.21.41,6.22,1.53,0,.88-2.24,1.57-3.43,1.79-1.85.33-4.47.11-4.76-.93Z"/>
        </g>
        <g>
          <path class="cls-22" d="m367.69,210.76c-12.45,1.73-16.5,5.57-17.85,8.84-.57,1.39-.45,2.19-.9,7.12-.63,7.03-1.33,10.51-1.76,13.96-1.6,12.94.9,23.69-.35,45.37-.76,13.1-2.14,17.29-3.17,19.89-2.03,5.11-3.78,6.66-9.52,16.75-5.19,9.12-7.78,13.68-8.11,15.7-2.3,14.48,15.07,28.59,23.26,35.25,4.04,3.28,11.08,8.9,21.85,12.56,6.03,2.05,11.3,2.65,21.85,3.84,7.72.87,10.22.66,12.69,0,7.62-2.04,14.61-8.28,13.56-11.4-1.11-3.31-11.05-2.6-15.32-2.56-13.46.13-33.92-5.82-63.79-33.85,12.77-15.62,17.27-29.91,19.03-37.34h0c0-1.86.78-9.9,2.7-26.87-.07-6.42-.15-9.04-.23-10.12-.01-.17-.13-1.85-.27-4.16h0c-.16-2.65-.25-3.98-.78-8.05-.29-2.23,1.22-13.4,7.11-44.93Z"/>
          <path class="cls-22" d="m376.44,280.11c8.18.65,12.27.96,17.27,1.05,12.1.2,21.44-.88,25.38-1.4,3.67-.48,6.71-1,8.81-1.4-.16,3.95-.54,9.07-1.41,15.01-.47,3.18-1.99,12.86-5.99,25.13-3.51,10.77-6.44,19.69-12.69,28.97-12.15,18.04-27.47,23.44-25.65,28.47.72,1.99,4.1,3.89,15.89,3.42,6.47-6.24,14.64-15.13,22.52-26.9,4.62-6.9,13.36-20.12,19.11-38.89,8.52-27.81,6.24-52.96,5.31-62.28-1.17-11.76-3.09-18.06-2.39-31.27.68-12.93,3.39-23.39,5.57-30.22-1.06-.8-2.96-1.98-5.57-2.36-5.88-.87-10.24,3.08-10.88,3.68-1.06,2.59-2.52,6.67-3.45,11.82-1.14,6.3-.47,8.6,0,24.44,0,0,.26,8.7,0,22.86,0,.4-.08,3.85-.53,8.41-.23,2.31-.34,3.46-.53,3.94-1.48,3.8-8.15,4.91-16.98,5.52-5.93.41-10.47.72-15.59.62-4.9-.1-8.6-.51-9.62-.62-17.79-1.92-23.53-7.42-28.3-4.06-3.32,2.34-4.63,7.88-2.91,11.12,1.18,2.22,3.83,3.46,22.64,4.95Z"/>
        </g>
        <path class="cls-41" d="m423.86,179.34c3.85-1.15,8.98-2.38,15.12-3.05,3.71-.4,10.99-.94,20.28.26,9.05,1.17,15.4,1.99,21.86,6.52,3.2,2.25,8.18,5.74,9.22,11.73,1.03,5.99-2.47,10.97-4.48,13.82-1.09,1.55-4.32,5.81-13.43,10.69-6.06,3.25-8.22,3.29-22.12,8.08-14.32,4.94-17.2,6.68-19.49,8.34-2.86,2.08-7.54,5.55-10.8,11.73-4.84,9.18-3.4,18.35-2.63,21.9,2.55-.17,5.09-.35,7.64-.52-.56-2.27-1.16-5.97-.53-10.43.27-1.93.99-6.6,3.95-10.69,2.89-3.99,6.52-5.52,14.22-8.6,10.69-4.28,15.77-6.17,20.54-8.08,11.2-4.49,16.91-6.81,21.86-10.95,3.87-3.24,8.83-7.5,11.06-14.86.48-1.58,3.24-10.71-1.58-18.51-1.53-2.48-3.26-3.91-5.86-6.06-1.11-.92-5.83-4.73-13.71-7.57-3.14-1.13-7.68-2.43-14.4-3.06-14.61-1.37-28.63,1.47-36.36,3.42-.12,1.96-.23,3.92-.35,5.89Z"/>
        <g>
          <ellipse class="cls-17" cx="345.88" cy="300.13" rx="13.82" ry="11.59" transform="translate(-54.64 522.16) rotate(-69.95)"/>
          <ellipse class="cls-24" cx="345.88" cy="300.13" rx="10.65" ry="8.93" transform="translate(-54.64 522.16) rotate(-69.95)"/>
          <ellipse class="cls-49" cx="345.88" cy="300.13" rx="7.92" ry="6.64" transform="translate(-54.64 522.16) rotate(-69.95)"/>
        </g>
        <g>
          <ellipse class="cls-17" cx="333.77" cy="329.65" rx="13.83" ry="11.58" transform="translate(-113.91 469.85) rotate(-62.03)"/>
          <ellipse class="cls-24" cx="333.77" cy="329.65" rx="10.66" ry="8.92" transform="translate(-113.91 469.85) rotate(-62.03)"/>
          <ellipse class="cls-49" cx="333.77" cy="329.65" rx="7.92" ry="6.63" transform="translate(-113.91 469.85) rotate(-62.03)"/>
        </g>
        <ellipse class="cls-17" cx="424.32" cy="283.37" rx="14.66" ry="14.52"/>
        <ellipse class="cls-24" cx="424.32" cy="283.37" rx="11.3" ry="11.19"/>
        <ellipse class="cls-49" cx="424.32" cy="283.37" rx="8.4" ry="8.32"/>
      </g>
      <g>
        <path class="cls-27" d="m1037.38,848.13c-.15-1.46-2.92-32.98,21.64-50.97,22.97-16.83,49.81-7.15,56.29-4.5,22.92,9.37,32.45,29.35,34.57,34.11-9.33,6.72-24.05,15.57-43.82,20.9-30.26,8.16-55.9,3.65-68.68.46Z"/>
        <path class="cls-27" d="m1115.41,784.28c-1.75,3.33-3.5,6.67-5.24,10,1.77.85,3.55,1.7,5.32,2.55,2.29-3.39,4.57-6.79,6.86-10.18-2.31-.79-4.63-1.59-6.94-2.38Z"/>
        <path class="cls-38" d="m1114.89,783.99c-8.85-4.99-10.8-14.58-11.08-16.06,2.9-.95,10.39-2.98,19.35-.45,11.09,3.13,16.92,11.12,18.48,13.43-7.91,6.5-18.6,7.68-26.75,3.08Z"/>
        <path class="cls-20" d="m1127.13,786.72c-1.85.18-5.22.25-9.07-1.16-4.56-1.67-7.35-4.53-8.59-5.97.47-.65,1.25-1.57,2.44-2.36,2.55-1.7,6.34-2.4,9.68-.84,3.74,1.75,6.01,5.92,5.54,10.34Z"/>
        <path class="cls-27" d="m1042.97,794.69c2.58,4.53,5.15,9.06,7.73,13.58,1.96-1.94,3.92-3.87,5.88-5.81-2.86-3.93-5.71-7.86-8.57-11.79-1.68,1.34-3.36,2.67-5.04,4.01Z"/>
        <g>
          <path class="cls-27" d="m1131.49,805.56c5.11-3.27,12.58-7.18,22.19-9.5,18.01-4.36,33.13-.64,40.33,1.67,2.03,1.44,4.32,3.34,3.9,4.49-.62,1.71-6.74.57-15.48.1-.88-.05-12.53-.63-20.64.46-5.68.77-13.9,2.93-23.49,9.51l-6.82-6.73Z"/>
          <path class="cls-27" d="m1140.21,817.79c5.01-2.42,12.17-5.08,20.9-5.86,16.36-1.45,28.78,4.58,34.6,7.98,1.5,1.74,3.14,3.96,2.57,5.03-.84,1.58-5.93-.5-13.42-2.33-.75-.18-10.73-2.59-17.94-2.79-5.05-.14-12.55.7-22.02,5.67-1.57-2.56-3.13-5.13-4.7-7.69Z"/>
        </g>
        <g>
          <path class="cls-27" d="m1043.6,818.44c-6.05-.5-14.48-.46-24.06,1.98-17.96,4.57-29.59,14.92-34.87,20.33-1.12,2.22-2.26,4.97-1.35,5.79,1.34,1.22,6.22-2.65,13.73-7.15.76-.45,10.78-6.42,18.46-9.25,5.38-1.98,13.65-3.91,25.21-2.57l2.88-9.14Z"/>
          <path class="cls-27" d="m1041.62,833.33c-5.56.21-13.13,1.2-21.22,4.6-15.14,6.37-23.3,17.5-26.85,23.24-.51,2.23-.92,4.97.08,5.65,1.48,1.01,5.01-3.22,10.77-8.34.58-.52,8.27-7.31,14.56-10.86,4.4-2.48,11.42-5.25,22.12-5.29.18-3,.37-6,.55-9Z"/>
        </g>
        <path class="cls-27" d="m1037.38,844.6c-.39.37-5.17,5.18-3.91,12.04,1.13,6.12,6.17,8.95,6.84,9.31-.02.64-.14,7.16,5.24,11.26,4.46,3.4,9.47,2.66,10.34,2.51.22-1.32.48-4.04-.69-7.09-1.83-4.75-5.8-6.87-6.82-7.37,1.76.65,7.92,2.69,15.16.22,6.57-2.24,10.1-6.84,11.23-8.46-3.09-1.02-8.33-2.33-14.85-1.84-5.65.43-10.09,2.04-12.88,3.31-3.78.29-6.71-2.37-6.81-5.12-.07-1.9,1.23-3.8,3.19-4.86-2.01-1.3-4.03-2.6-6.04-3.91Z"/>
        <path class="cls-27" d="m1139.64,824.28c.53-.11,7.18-1.41,12.17,3.46,4.45,4.35,4,10.11,3.93,10.86.54.34,6.03,3.87,6.43,10.62.34,5.6-3.07,9.34-3.67,9.99-1.22-.55-3.62-1.85-5.51-4.52-2.93-4.16-2.48-8.64-2.33-9.77-.44,1.82-2.18,8.08-8.26,12.72-5.52,4.21-11.31,4.58-13.28,4.62.87-3.13,2.7-8.21,6.74-13.36,3.5-4.46,7.31-7.24,9.92-8.86,2.35-2.98,1.77-6.89-.46-8.5-1.54-1.12-3.84-1.1-5.82-.05.04-2.4.08-4.79.12-7.19Z"/>
        <path class="cls-38" d="m1037.57,797.1c-9.95,2.04-17.72-3.92-18.89-4.85,1.57-2.62,5.89-9.07,14.31-13.04,10.43-4.91,20.07-2.7,22.75-1.99-1.71,10.09-9,18-18.17,19.88Z"/>
        <path class="cls-27" d="m1103.82,767.94c0,.71.06,1.73.43,2.89.39,1.23.95,2.15,1.38,2.74,1.91-.84,8.93-3.66,17.48-1.21,9.17,2.63,13.72,9.48,14.76,11.15.52-.13,1.34-.4,2.18-.99.79-.55,1.3-1.17,1.6-1.6-1.68-2.47-6.58-8.97-15.72-12.44-10.37-3.94-19.42-1.4-22.11-.54Z"/>
        <path class="cls-27" d="m1018.68,792.2c.56.44,1.2.9,1.9,1.35.59.38,1.16.71,1.71,1,.97-1.82,5.16-9.14,14.36-12.51,8.44-3.09,15.73-.88,17.83-.17.32-.62.68-1.44.93-2.44.22-.86.3-1.63.33-2.25-2.81-.87-10.27-2.75-19,.06-11.47,3.68-16.86,12.8-18.06,14.97Z"/>
        <path class="cls-20" d="m1050.02,789.56c-.99,1.4-3.17,4.07-6.92,5.95-4.25,2.13-8.16,2.08-9.88,1.96-.22-.71-.46-1.78-.41-3.08.13-3.13,1.94-6.54,4.99-8.11,3.85-1.97,9.09-.74,12.22,3.28Z"/>
        <path class="cls-10" d="m1075.48,824.63c3.5,4.28,9.11,6.21,14.39,4.95,7.57-1.81,10.08-9.15,10.22-9.56-.36-.04-.71-.09-1.07-.13-.92,1.83-1.93,3.17-2.7,4.06-.75.88-1.53,1.78-2.8,2.64-1.53,1.04-3,1.51-3.97,1.74-.98.21-2.51.42-4.34.18-1.95-.26-3.32-.9-4.05-1.24-2.12-1.01-3.63-2.35-4.61-3.42-.35.26-.71.52-1.06.78Z"/>
      </g>
      <path class="cls-34" d="m1408.23,747.43c-.41-3.42,21.85-14.78,39.52-9.31,5.55,1.72,12.79,5.76,19.82,2.9,3.05-1.24,4.87-3.31,7.35-2.63,3.17.86,5.57,5.69,4.21,9.03-1.84,4.53-9.93,4.77-11.47,4.82-9.45.29-11.1-5.59-20.3-6.34-7.8-.64-8.71,3.41-19.76,4.44-8.65.81-19.09-.64-19.36-2.9Z"/>
      <path class="cls-28" d="m1412.49,613.79c14.99,31.96,50.62,42.73,49.14,45.57-1.22,2.32-26.76-2.71-50.68-19.86-12.33-8.84-22.37-19.57-28.34-16.33-2.91,1.58-3.8,5.91-3.77,8.67.18,19.95,48.7,35.06,58.5,38.11,14.36,4.47,40.74,12.35,74.5,6.52,11.49-1.99,26.08-4.14,41.01-13.69,44.71-28.61,60.71-92.88,49.56-101.03-1.92-1.4-5.07-1.46-7.28-.48-7.21,3.19-5.69,18.42-6.91,25.24-2.53,14.18-9.99,33.21-31.53,54.7,7.18-11.98,10.78-22.61,12.72-29.94,2.48-9.39,3.06-17.82,4.23-34.69.9-12.98-.41-4.09.08-28.68.18-9.23.48-16.33-3.58-18.69-2.21-1.29-5.23-.88-7.04.01-9.99,4.9-.44,32.45-3.37,63.08-3.34,34.91-21.53,59.47-23.47,58.72-2.4-.93,12.28-44.98,11.79-87.9,0-.83-.03-1.48-.04-1.89-.24-7.88-1.15-37.78-11.52-40.66-2.97-.82-6.27.69-8.07,2.53-4.99,5.09-.95,15.59-.03,21.1,2.2,13.17,3.9,30.35,2.94,50.48-1.01,20.91-4.59,38.63-8.23,52.06-15.24-13.95-22.3-28.26-25.85-39.12-2.62-8.02-3.57-15.01-5.46-28.98-3.93-29.03,1.54-42.4-6.33-47.36-2.09-1.32-5.21-2.16-7.65-1.07-4.93,2.19-5.55,11.49-5.1,23.47.83,22.19,1.39,37.22,9.52,57.06,3.89,9.5,10.95,23.59,23.73,38.11-10.18-5.7-25-15.93-37.16-33.19-3.17-4.5-9.31-13.34-13.58-26.34-2.22-6.76-3.24-16.49-5.27-35.94-2.08-19.89-3.12-29.84-2.56-34.64,1.09-9.4,3.65-17.82.08-20.1-2.04-1.3-5.33-.12-7.32,1.18-4.15,2.7-7.19,8.83-5.68,39.03.77,15.56,1.18,23.73,3.53,36.09,3.24,17.03,5.05,26.54,11.12,38.3,0,0,9.43,28.45,45.66,43.73,1.38.58,2.15.86,2.14.89-.15.25-69.56-25.29-74.19-73.45-1.32-13.73,5.35-31.11-1.68-34.97-2.16-1.19-5.56-1.08-7.92.36-4.17,2.53-4.58,8.85-4.73,12.58-.98,25.67-1.85,38.68,4.14,51.44Z"/>
      <path class="cls-43" d="m1402.29,626.09c6.85,11.57,15.64,17.89,33.22,30.53,15.74,11.32,26.78,19.07,43.26,21.63,9.42,1.46,16.59.61,29.2-.9,17.45-2.09,26.99-3.23,36.4-9.87,5.53-3.9,10.29-11.29,19.81-26.07,9.1-14.13,13.64-21.19,16.88-29.83,3.33-8.89,4.41-18.92,6.57-38.99,1.09-10.13,1.4-17.01-2.38-19.32-2.11-1.29-5.15-.92-7.29.33-6.82,3.97-3.61,18.94-4.06,25.86-.94,14.37-6.24,34.11-25.27,57.87,5.8-12.71,8.21-23.66,9.32-31.17,1.42-9.6,1.06-18.05.35-34.94-.55-13-.86-4.02-3.1-28.51-.84-9.19-1.33-16.29-5.64-18.18-2.34-1.03-5.29-.29-7,.8-9.39,5.98,3.17,32.3,3.66,63.07.56,35.06-14.79,61.49-16.8,60.96-2.48-.66,7.21-46.07,1.96-88.66-.1-.82-.2-1.46-.25-1.87-1.11-7.81-5.34-37.42-15.96-39.13-3.04-.49-6.15,1.38-7.74,3.41-4.39,5.61.79,15.59,2.32,20.97,3.65,12.85,7.25,29.73,8.52,49.84,1.32,20.89-.27,38.9-2.4,52.66-16.69-12.17-25.3-25.61-30.03-36.01-3.5-7.68-5.21-14.52-8.65-28.2-7.13-28.42-3.18-42.31-11.54-46.36-2.23-1.08-5.41-1.57-7.73-.21-4.65,2.73-4.24,12.04-2.46,23.89,3.29,21.96,5.51,36.83,15.8,55.65,4.92,9.01,13.51,22.23,27.81,35.24-10.75-4.53-26.61-13.06-40.62-28.86-3.65-4.12-10.73-12.23-16.42-24.67-2.96-6.47-5.05-16.03-9.23-35.14-4.27-19.54-6.41-29.31-6.39-34.14.04-9.46,1.64-18.12-2.16-19.99-2.17-1.07-5.31.48-7.14,1.98-3.82,3.14-6.16,9.57-1.32,39.42,2.5,15.38,3.81,23.45,7.52,35.47,5.11,16.56,7.96,25.81,15.3,36.83,0,0,12.53,27.23,50.23,38.39.38.11,2.03.01,2.22.64.31,1.01-3.29,2.95-3.91,3.29-8.7,4.69-72.7-22.47-77.98-68.05-1.58-13.63,1.78-31.55-5.55-34.57-2.28-.94-5.64-.45-7.83,1.23-3.86,2.98-3.57,9.3-3.3,13.02,1.88,25.7,2.65,38.56,9.82,50.66Z"/>
      <path class="cls-29" d="m1416.99,528.71c-.29-3.24-.63-2.74-.98-6.2-.48-4.76-.73-7.69,1.1-9.51,1.05-1.04,2.82-1.75,3.64-1.16,1.13.81-.47,3.44-.53,8.35-.02,1.56.27,3.34.86,6.91,1.04,6.37,1.89,8.29.75,9.33-.89.81-2.64.78-3.64.02-1.39-1.05-.78-3.07-1.19-7.74Z"/>
      <path class="cls-29" d="m1396.96,584.89c-.29-3.24-.63-2.74-.98-6.2-.48-4.76-.73-7.69,1.1-9.51,1.05-1.04,2.82-1.75,3.64-1.16,1.13.81-.47,3.44-.53,8.35-.02,1.56.27,3.34.86,6.91,1.04,6.37,1.89,8.29.75,9.33-.89.81-2.64.78-3.64.02-1.39-1.05-.78-3.07-1.19-7.74Z"/>
      <path class="cls-29" d="m1459.03,556.45c-.29-3.24-.63-2.74-.98-6.2-.48-4.76-.73-7.69,1.1-9.51,1.05-1.04,2.82-1.75,3.64-1.16,1.13.81-.47,3.44-.53,8.35-.02,1.56.27,3.34.86,6.91,1.04,6.37,1.89,8.29.75,9.33-.89.81-2.64.78-3.64.02-1.39-1.05-.78-3.07-1.19-7.74Z"/>
      <path class="cls-29" d="m1522.8,537.42c-1.06-3.08-.55-2.75-1.64-6.06-1.5-4.54-2.47-7.32-4.89-8.24-1.38-.52-3.29-.45-3.79.42-.7,1.21,1.84,2.95,3.89,7.41.65,1.42,1.12,3.17,2.04,6.65,1.65,6.24,1.66,8.34,3.13,8.82,1.14.38,2.73-.37,3.34-1.47.84-1.53-.54-3.12-2.07-7.55Z"/>
      <path class="cls-29" d="m1551.55,543.21c-.23-3.25.19-2.8-.01-6.28-.28-4.77-.49-7.71-2.58-9.22-1.2-.86-3.06-1.29-3.77-.58-.99.98,1.01,3.32,1.83,8.17.26,1.54.26,3.35.24,6.95-.03,6.45-.56,8.48.73,9.33,1.01.66,2.73.35,3.6-.55,1.21-1.26.29-3.16-.04-7.83Z"/>
      <path class="cls-29" d="m1585.27,571.85c.03-3.26.41-2.78.49-6.26.11-4.78.13-7.73-1.84-9.4-1.12-.95-2.94-1.53-3.72-.88-1.06.9.74,3.39,1.18,8.29.14,1.56-.01,3.36-.31,6.95-.54,6.43-1.24,8.41-.01,9.36.95.74,2.69.57,3.63-.26,1.31-1.16.54-3.12.58-7.81Z"/>
      <path class="cls-29" d="m1554.38,562.02c.09-1.27.45-1.13.58-2.49.18-1.87.25-3.02-1.65-3.42-1.09-.23-2.86-.22-3.63.13-1.06.48.67,1.23,1.02,3.07.11.59-.07,1.31-.42,2.74-.64,2.57-1.35,3.42-.17,3.64.92.17,2.63-.12,3.57-.56,1.3-.61.58-1.28.7-3.11Z"/>
      <path class="cls-29" d="m1418.36,547.62c-.1-1.2-.46-1.07-.6-2.37-.2-1.77-.28-2.86,1.62-3.22,1.08-.21,2.86-.19,3.63.15,1.06.47-.66,1.15-.99,2.9-.11.56.08,1.24.45,2.6.66,2.44,1.38,3.25.2,3.45-.92.15-2.63-.13-3.57-.56-1.31-.59-.59-1.22-.73-2.95Z"/>
      <ellipse class="cls-26" cx="1333.2" cy="590.75" rx="4.81" ry="2.45"/>
      <ellipse class="cls-26" cx="1345.44" cy="644.45" rx="4.81" ry="2.45"/>
      <ellipse class="cls-26" cx="1287.14" cy="617.69" rx="4.81" ry="2.45"/>
      <ellipse class="cls-26" cx="1299.05" cy="532.42" rx="4.81" ry="2.45" transform="translate(47.23 1168.01) rotate(-49.2)"/>
      <ellipse class="cls-26" cx="1328.39" cy="684.8" rx="4.81" ry="2.45" transform="translate(-140.79 958.8) rotate(-37.84)"/>
      <ellipse class="cls-26" cx="1386.64" cy="687.71" rx="3.09" ry="1.69"/>
      <ellipse class="cls-26" cx="1301.04" cy="652.18" rx="3.09" ry="1.69"/>
      <ellipse class="cls-26" cx="1291.96" cy="580.5" rx="3.09" ry="1.69"/>
      <ellipse class="cls-26" cx="1245.69" cy="663.24" rx="4.81" ry="2.45" transform="translate(-145.16 424.16) rotate(-18.28)"/>
      <ellipse class="cls-26" cx="1274.15" cy="710.4" rx="4.81" ry="2.45" transform="translate(-158.52 435.46) rotate(-18.28)"/>
      <ellipse class="cls-26" cx="1210.4" cy="703.27" rx="4.81" ry="2.45" transform="translate(-159.5 415.11) rotate(-18.28)"/>
      <ellipse class="cls-26" cx="1194.96" cy="618.57" rx="4.81" ry="2.45" transform="translate(165.9 1485.52) rotate(-67.48)"/>
      <ellipse class="cls-26" cx="1253.22" cy="756.67" rx="5.56" ry="3.51" transform="translate(-73.65 1375.15) rotate(-56.11)"/>
      <ellipse class="cls-26" cx="1234.41" cy="731.66" rx="3.09" ry="1.69" transform="translate(-167.19 424.08) rotate(-18.28)"/>
      <ellipse class="cls-2" cx="1203.31" cy="666.44" rx="3.09" ry="1.69" transform="translate(-148.31 411.03) rotate(-18.28)"/>
      <g>
        <path class="cls-14" d="m662.26,227.69l-.39-34.64-16.33,1.58-.92,35.95-26.6-2.11-1.58-94.69,29.76-1.58-.92,40.69,16.46-.4-.4-39.38,26.07-2.24,3.56,97.46-28.71-.66Z"/>
        <path class="cls-14" d="m761.42,229.01l-6.19-24.1-25.42.92-3.95,20.94-30.16,1.58,27-99.43,33.98-2.77,35.43,101.54-30.68,1.32Zm-20.54-72.57l-7.51,31.08h17.25l-9.74-31.08Z"/>
        <path class="cls-14" d="m804.48,227.82l-23.05-96.4,30.55-4.21,11.06,63.87,13.7-63.22,29.37,2.5-34.11,100.09-27.52-2.63Z"/>
        <path class="cls-14" d="m876.77,227.43l-7.51-96.4,62.03-7.38,1.71,22.78-36.22,4.21,1.32,13.43,28.31-2.11,2.11,20.94-27.79,2.37,1.97,14.22,35.56-3.56,1.84,32.4-63.34-.92Z"/>
        <path class="cls-14" d="m964.08,232.96l1.98-71.64-25.28,1.71.13-35.16,79.02,4.74-.66,25.02-29.24,1.98,2.63,69.93-28.58,3.42Z"/>
        <path class="cls-14" d="m1035.32,194.63c9.48,6.58,19.49,9.48,27.79,9.48,10.14,0,17.38-4.35,17.38-11.59,0-16.59-54.39-3.82-54.39-35.69,0-24.5,23.7-30.82,46.09-30.82,8.82,0,17.38,1.05,24.23,2.24l-.79,24.1c-4.48-1.98-14.62-4.35-23.44-4.35-7.9,0-14.62,1.98-14.62,7.77,0,13.43,56.36-5.66,56.36,38.59,0,25.02-23.7,36.09-47.94,36.09-17.78,0-35.69-5.93-44.91-16.73l14.22-19.1Z"/>
        <path class="cls-14" d="m1220.74,227.69l-.39-34.64-16.33,1.58-.92,35.95-26.6-2.11-1.58-94.69,29.76-1.58-.92,40.69,16.46-.4-.4-39.38,26.07-2.24,3.56,97.46-28.71-.66Z"/>
        <path class="cls-14" d="m1265.25,227.43l-7.51-96.4,62.03-7.38,1.71,22.78-36.22,4.21,1.32,13.43,28.31-2.11,2.11,20.94-27.79,2.37,1.97,14.22,35.56-3.56,1.84,32.4-63.34-.92Z"/>
        <path class="cls-14" d="m1342.02,231.64l-5.93-102.33,33.32-2.63-.92,76.52,34.64-2.77.92,26.73-62.03,4.48Z"/>
        <path class="cls-14" d="m1415.77,232.96l1.98-71.64-25.28,1.71.13-35.16,79.02,4.74-.66,25.02-29.24,1.98,2.63,69.93-28.58,3.42Z"/>
        <path class="cls-14" d="m1485.03,227.43l-7.51-96.4,62.03-7.38,1.71,22.78-36.22,4.21,1.32,13.43,28.31-2.11,2.11,20.94-27.79,2.37,1.97,14.22,35.56-3.56,1.84,32.4-63.34-.92Z"/>
      </g>
    </g>
  </g>
  <g id="spil">
    <path class="cls-7" d="m615.48,472.06h377.57c10.61,0,19.22,8.61,19.22,19.22v72.43c0,18.51-15.03,33.54-33.54,33.54h-363.25c-18.51,0-33.54-15.03-33.54-33.54v-58.11c0-18.51,15.03-33.54,33.54-33.54Z"/>
    <path class="cls-12" d="m982.12,584.8h-372.51c-8.05,0-14.64-5.88-14.64-13.07v-74.45c0-7.19,6.59-13.07,14.64-13.07h372.51c.99,0,6.16.1,10.34,3.84,2.65,2.37,4.3,5.64,4.3,9.23v74.45c0,7.19-6.59,13.07-14.64,13.07Z"/>
    <path class="cls-21" d="m983.56,484.45c1.08-.05,2.54.02,4.15.54,2.56.83,4.15,2.35,5.09,3.28.69.68,1.71,1.7,2.56,3.36.94,1.84,1.18,3.54,1.25,4.58.02,2.01.03,4.01.04,6.01.16,23.2.16,46.3,0,69.29,0,1.1-.14,2.87-.95,4.85-.24.6-1.5,3.56-4.51,5.69-3.09,2.19-6.48,2.39-7.63,2.46-6.46.38-76.11.41-171.36,0,31.9-10.2,56.44-22.05,73.53-31.25,18.84-10.14,27.01-16.38,33.51-22.32,17.77-16.21,27.83-34.46,33.36-46.72,10.32.08,20.63.16,30.95.24Z"/>
    <path class="cls-9" d="m608.72,498.66c8.35-2.2,18.7-4.02,30.6-4.1,11.56-.08,21.67,1.5,29.88,3.5-8.69,1.52-18.51,2.6-29.27,2.76-11.53.17-22.01-.74-31.21-2.16Z"/>
    <g>
      <path class="cls-38" d="m724.75,542c4.36,2.7,8.97,3.89,12.79,3.89,4.67,0,8-1.78,8-4.76,0-6.81-25.03-1.57-25.03-14.66,0-10.06,10.91-12.66,21.21-12.66,4.06,0,8,.43,11.15.92l-.36,9.9c-2.06-.81-6.73-1.78-10.79-1.78-3.64,0-6.73.81-6.73,3.19,0,5.52,25.94-2.33,25.94,15.85,0,10.28-10.91,14.82-22.06,14.82-8.18,0-16.42-2.43-20.67-6.87l6.55-7.84Z"/>
      <path class="cls-38" d="m769.84,557.2l-3.45-40.89c4.55-1.57,9.82-2.33,14.73-2.33,16.06,0,24.79,5.79,24.79,15.95,0,7.41-7.88,14.66-23.94,14.71l1.94,11.68-14.06.87Zm10.54-22.12c5.21-.92,10.54-3.03,10.54-6.81,0-3.46-3.03-4.81-6.61-4.81-1.88,0-3.88.38-5.64,1.03l1.7,10.6Z"/>
      <path class="cls-38" d="m809.42,554.77l.85-9.84,5.09.27.91-20.07h-4.85l-.36-9.46,25.94-.97-.24,10.44h-6l-1.64,20.99,4.36.22-.79,10.55-23.27-2.11Z"/>
      <path class="cls-38" d="m844.99,557.2l-2.73-42.02,15.33-1.08-.42,31.42,15.94-1.14.42,10.98-28.54,1.84Z"/>
    </g>
  </g>
</svg>