<?xml version="1.0" encoding="UTF-8"?>
<svg id="info_knap" xmlns="http://www.w3.org/2000/svg" viewBox="0 0 228 228">
  <defs>
    <style>
      .cls-1 {
        fill: #7b93b7;
      }

      .cls-1, .cls-2, .cls-3, .cls-4 {
        stroke-width: 0px;
      }

      .cls-2 {
        fill: #647896;
      }

      .cls-3 {
        fill: #a4b4da;
      }

      .cls-4 {
        fill: #fff;
      }
    </style>
  </defs>
  <circle class="cls-3" cx="114" cy="114" r="113.53"/>
  <circle class="cls-1" cx="112.25" cy="114" r="99.63"/>
  <g id="Layer_22" data-name="Layer 22">
    <path class="cls-2" d="m41.19,183.83c6.47,6.85,22.83,22.27,48.82,28.09,22,4.92,39.81.49,46.82-1.34,15.32-4,25.97-10.56,30.17-13.32,18.25-12.02,27.87-27.02,31.65-33.6,13.87-24.16,13.55-47.23,13.07-55.46-1.24-21.1-8.93-36.76-13.65-44.84,1.76,9.47,3.95,28.64-3.55,50.68-1.38,4.06-7.85,22.24-25,39.49-14.7,14.79-29.76,21.37-37.36,24.61-38.24,16.27-75.27,9.54-90.96,5.69Z"/>
  </g>
  <g id="Layer_27" data-name="Layer 27">
    <path class="cls-4" d="m99.44,135.34v-13.79c0-11.52,6.78-20.88,20.34-28.09l2.64-1.33c5.65-2.99,8.48-7.03,8.48-12.13,0-3.77-1.54-7.03-4.61-9.81-3.08-2.77-6.81-4.15-11.21-4.15h-12.37c-1.35.27-5.76,1.33-9.2,5.42-2.86,3.42-3.48,7.07-3.64,8.53-7.29,0-14.58,0-21.87,0,.05-1.77.53-12.9,9.96-21,9.09-7.81,19.68-6.93,21.5-6.75h31.45c8.54,0,15.88,2.72,22.04,8.14,6.15,5.43,9.23,11.97,9.23,19.61,0,11.97-5.96,20.28-17.89,24.93l-2.45,1c-5.65,2.22-8.88,4.38-9.7,6.48-.82,2.11-1.22,5.15-1.22,9.14v13.79h-31.45Zm0,41.55v-27.75h31.45v27.75h-31.45Z"/>
    <path class="cls-3" d="m35.58,60.89c4.58-5.95,11.92-14.11,22.74-21.49,10.04-6.85,19.55-10.63,26.45-12.78,7.71-1.46,9.41-.98,9.65-.33.8,2.18-14.69,7.19-32.3,20.05-15.93,11.64-25,23.43-27.46,21.63-1.24-.91,0-4.69.92-7.08Z"/>
  </g>
</svg>