<?xml version="1.0" encoding="UTF-8"?>
<svg id="Layer_47" data-name="Layer 47" xmlns="http://www.w3.org/2000/svg" xmlns:xlink="http://www.w3.org/1999/xlink" viewBox="0 0 1000 1006.73">
  <defs>
    <style>
      .cls-1 {
        fill: #c4c4c4;
        filter: url(#drop-shadow-17);
      }

      .cls-1, .cls-2, .cls-3, .cls-4 {
        stroke-width: 0px;
      }

      .cls-2 {
        fill: #6e6e6e;
        filter: url(#drop-shadow-16);
      }

      .cls-3 {
        fill: #dceacd;
      }

      .cls-4 {
        fill: #bcd8a6;
      }
    </style>
    <filter id="drop-shadow-16" filterUnits="userSpaceOnUse">
      <feOffset dx="7" dy="7"/>
      <feGaussianBlur result="blur" stdDeviation="18"/>
      <feFlood flood-color="#4f4f4f" flood-opacity=".56"/>
      <feComposite in2="blur" operator="in"/>
      <feComposite in="SourceGraphic"/>
    </filter>
    <filter id="drop-shadow-17" filterUnits="userSpaceOnUse">
      <feOffset dx="7" dy="7"/>
      <feGaussianBlur result="blur-2" stdDeviation="18"/>
      <feFlood flood-color="#4f4f4f" flood-opacity=".56"/>
      <feComposite in2="blur-2" operator="in"/>
      <feComposite in="SourceGraphic"/>
    </filter>
  </defs>
  <rect class="cls-4" x="-24.07" y="3.36" width="1060.6" height="1015.95"/>
  <circle class="cls-3" cx="475.93" cy="504.36" r="425"/>
  <path class="cls-2" d="m830.92,343.11c-7.66-20.83-28.31-77-54.96-76.15-12.41.4-18.36,8.74-65.53,53.63-35.47,33.75-13.74,12.87-25.37,24.67-12.18,12.36-25.45,11.94-31.71,4.29-10.73-13.11-24.39-17.05,9.51-63.28,42.24-57.6,45.6-78.59,43.34-86.88-4.13-15.11-23.58-14.27-45.45-26.81-20.1-11.53-62.81-34.65-75.04,1.07-10.71,31.25-2.11,34.49-16.91,90.09-1.14,4.3-5.26,32.67-20.08,32.18-11.67-.39-20.01-7.65-24.31-15.02-39.7-68.08-43.25-117.43-69.76-124.42-26.42-6.96-51.34,34.32-62.36,47.19-52.82,61.73,51.99,87.67,77.16,123.34,5.81,8.23,12.67,8.05,10.57,20.38-5.09,29.88-121.88-51.77-178.63-33.25-28.31,9.24-32.94,111.14,10.57,110.47,45.14-.69,128.74-19.74,131.06,9.65.74,9.32-15.38,27.26-83.5,35.39-38.89,4.64-38.51,29.09-40.16,36.47-7.65,34.01,39.44,95.25,67.65,86.88,25.92-7.69,28.45-54.4,67.65-82.59,28.28-20.33,46.22-9.93,53.91,4.29,7.64,14.13,7.33,11.03-7.4,58.99-3.05,9.92-40.09,66.63-8.46,95.46,30.84,28.1,79.27,27.89,104.64,5.36,9.26-8.22,11.06-48.87,3.17-76.15-11.82-40.88,3.5-58,16.91-63.28,13.09-5.15,28.92-.25,46.51,37.54,19.29,41.47,18.77,62.19,36.99,70.79,23.09,10.89,58.63-18.84,67.65-26.81,25.54-22.61,31.92-53.69,21.14-78.3-11.47-26.18-35.22-19.12-75.04-43.97-17.95-11.2-25.87-35.92-19.03-55.77,10.91-31.67,54.36-35.08,88.79-36.47,25.98-1.05,41.06-6.69,49.68-18.23,8.7-11.65,4.2-20.71-3.17-40.76Zm-221.96,138.36c-35.92,26.72-90.57,9.26-107.81-30.03-12.18-27.76-4.33-63.32,20.08-83.66,28.79-23.99,74.05-21.34,99.36,8.58,27.13,32.09,19.7,81.81-11.63,105.11Z"/>
  <path class="cls-1" d="m540.72,499.92c-11.38-14.16-42.07-52.33-62.45-45.14-9.49,3.34-11.9,11.23-36.6,57.33-18.57,34.66-7.25,13.27-13.14,25.2-6.17,12.49-16.54,15.42-23.39,11.07-11.74-7.46-23.32-7.14-9.23-51.03,17.55-54.68,14.65-71.66,10.73-77.48-7.15-10.62-21.97-5.21-42.16-9.5-18.56-3.95-57.63-11.28-57.73,19.21-.08,26.68,7.41,27.06,10.54,73.48.24,3.59,4.5,26.43-7.09,29.68-9.12,2.56-17.48-.98-22.73-5.6-48.54-42.67-64.21-79.79-86.54-78.67-22.25,1.12-30.7,38.99-35.84,51.6-24.65,60.45,63.17,54.74,91.98,76.03,6.65,4.91,11.91,3.09,13.51,13.09,3.9,24.24-107.79-9.99-146.8,18.17-19.46,14.05,3.67,93.61,37.13,82.44,34.71-11.59,94.34-46.73,103.85-24.68,3.01,6.99-4.74,24.75-55.27,47.7-28.85,13.1-22.14,31.82-21.49,37.91,3,28.05,55.46,63.64,75.06,50.29,18.02-12.27,7.73-48.84,30.64-80.14,16.53-22.58,33.13-18.97,42.79-9.9,9.61,9.01,8.56,6.69,9.74,47.21.24,8.38-13.52,61.11,18.49,75.54,31.21,14.07,68.59,2.04,82.29-21.51,5-8.59-4.26-40.32-17.51-59.39-19.85-28.57-12.49-45.5-3.51-52.85,8.76-7.17,22.29-7.28,45.79,17.5,25.78,27.19,30.81,43.27,47.15,45.42,20.71,2.73,40.39-28.86,45.26-37.21,13.82-23.66,10.6-49.14-4.18-65.44-15.73-17.34-32.24-6.08-69.54-15.46-16.81-4.23-29.41-21.3-29.33-38.26.13-27.05,32.83-40.31,59.07-49.82,19.8-7.17,29.99-15.21,33.62-26.2,3.67-11.1-2.18-16.97-13.13-30.59Zm-135.32,160.87c-20.76,29.37-67.58,29.32-91.21,3.3-16.69-18.38-19.95-47.67-6.4-69.31,15.97-25.52,51.65-34.57,79.05-17.74,29.39,18.05,36.67,58.14,18.56,83.75Z"/>
</svg>